<?xml version="1.0" encoding="UTF-8"?><svg id="Main" xmlns="http://www.w3.org/2000/svg" viewBox="0 0 1600 2161"><rect id="Background" width="1600" height="2161"/><path id="FigureA" d="M692.02,348.73s-39.17,23.85-50.36,40.05c-11.19,16.2-18.55,37.69-18.85,58.31s-.88,37.1,2.65,40.93,5.89,11.19,5.89,11.19c0,0-8.83-2.36-12.96,0s-10.9,7.36-10.31,17.37-1.84,20.02-.04,28.86,3.28,26.21,9.16,32.1,5.01,12.07,14.43,12.37,12.66,1.47,12.66,1.47c0,0-3.53,.59,.59,19.73,4.12,19.14,3.24,24.74-3.53,29.74s-29.4,22.09-33.99,29.74-10.48,27.68-25.2,25.91-70.38,10.6-85.1,13.55-44.76,20.02-47.12,20.02-6.18,2.36-12.66,0-9.72-1.47-12.96,4.12c-3.24,5.6-6.48,7.66-6.48,7.66,0,0-8.25,7.07-15.31,23.56s-12.96,14.43-18.55,26.5c-5.6,12.07-16.2,32.98-18.55,43.29s-6.48,24.44-5.3,33.87-8.54,47.41-15.02,63.02-19.73,50.65-20.02,55.36,.59,29.15-1.77,34.16-9.72,20.61-15.02,32.39-4.12,15.61-7.36,30.92-7.07,28.56-11.48,34.16c-4.42,5.6-5.3,17.37-5.3,17.37,0,0-5.6,2.36,3.53,13.25s25.33,17.96,25.33,17.96l13.55,11.19s-9.72,27.98-10.6,44.17c-.88,16.2,.88,30.33,.29,40.34s-3.53,38.58-1.77,40.93,6.18,19.44,15.02,25.91,29.74,30.63,40.93,39.46,59.78,50.06,65.67,54.18,20.32,11.78,20.02,20.91-5.6,38.28-9.42,62.13c-3.83,23.85,1.47,47.12,1.47,47.12,0,0,7.95,19.14,3.53,30.92-4.42,11.78-11.78,26.21-10.31,40.34,1.47,14.13,11.48,55.36,16.49,79.8,5.01,24.44,21.5,70.97,24.74,88.34s14.72,37.99,13.25,49.77,2.65,49.18,.59,63.9-2.65,43.58-12.66,54.48-11.48,24.15-9.72,29.45,2.36,22.67,6.18,32.1,12.07,23.26,10.01,32.69-.81,32.98-3.06,34.75-15.2,6.18-17.85,13.84-9.42,32.98-9.42,32.98l258.63-2.8s21.42-59.63,17.3-114.11c-4.12-54.48-5.01-58.31-9.42-69.79s-3.24-13.25,2.36-20.91,3.53-14.43,6.18-20.02,3.24-7.95,7.66-11.48,12.07-20.91,12.07-20.91c0,0,.59,10.9,0,19.73-.59,8.83,2.36,55.07,7.66,70.09,5.3,15.02,16.79,52.71,19.44,60.66s9.13,50.36,9.42,61.55c.29,11.19,.88,36.52-5.89,42.4,24.44-1.47,228.52-8.54,228.52-8.54,0,0,8.25-42.4,10.31-73.03,2.06-30.63-2.65-90.11-3.24-104.25-.59-14.13,10.6-45.06,17.37-50.65,6.77-5.6,15.02-67.73,9.42-97.77s-22.67-94.82-19.14-111.02c3.53-16.2,11.78-60.66,.29-110.13-11.48-49.47-20.32-77.74-20.61-89.23s-1.77-11.48-1.77-11.48v-17.37s37.4-34.45,45.94-54.48c8.54-20.02,20.32-51.53,24.44-66.85s2.94-41.23,2.65-57.72c-.29-16.49,2.36-47.41,2.36-47.41,0,0,45.35-39.17,51.83-42.4,6.48-3.24,9.42-14.43,8.54-27.09s-2.65-9.72-7.95-20.61c-5.3-10.9-6.48-20.91-7.95-33.57s-9.42-39.46-14.13-54.48c-4.71-15.02-15.9-65.67-20.02-79.51-4.12-13.84-23.56-47.41-29.74-71.26-6.18-23.85-12.66-64.79-31.51-89.23-18.85-24.44-31.21-46.82-49.77-49.18-5.01-2.06-16.2-7.66-16.2-7.66,0,0-7.07-9.42-17.67-12.96-10.6-3.53-9.72,2.36-17.67-2.65s-15.31-15.02-23.26-15.02h-17.08s-9.42-22.09-14.13-26.5-12.66-4.71-15.61-12.66c-2.94-7.95-15.02-22.67-21.5-32.98,2.36-8.54,6.48-17.67,6.48-17.67l6.48-27.09s8.25,3.53,12.37-3.24c4.12-6.77,11.48-28.86,12.66-34.16,1.18-5.3,7.66-25.33,7.07-32.69-.59-7.36,11.78-15.31,7.66-26.5s-7.07-17.96-11.78-17.67c-4.71,.29-13.25,3.83-13.25,3.83,0,0,12.96-34.45,14.72-47.71,0,0,4.42-22.67-11.19-44.76-15.61-22.09-48-50.36-79.8-64.79s-63.31-9.13-97.47,5.6" style="fill:#fff;"/></svg>