<?xml version="1.0" encoding="utf-8"?>
<!-- Generator: Adobe Illustrator 26.5.0, SVG Export Plug-In . SVG Version: 6.00 Build 0)  -->
<svg version="1.1" xmlns="http://www.w3.org/2000/svg" xmlns:xlink="http://www.w3.org/1999/xlink" x="0px" y="0px"
	 viewBox="0 0 250.8 404.1" style="enable-background:new 0 0 250.8 404.1;" xml:space="preserve">
<style type="text/css">
	.st0{fill:#73BF44;}
	.st1{fill:#3169B3;}
	.st2{fill:#3069B3;}
	.st3{fill:#6BCEF3;}
	.st4{fill:#DE4097;}
</style>
<g id="FigureD">
	<g>
		<path class="st0" d="M151.6,355.2c0,2.3,0.1,2.4,0,3.1c-0.3,1.3-0.7,1.3-1.2,3c-0.4,1.3-0.5,2.4-0.5,3.1c-0.1,1.4,0.1,2.1,0.3,4
			c0,0,0.2,1.8,0.4,4.5c0.2,3,0.1,5.5,0,8.1c-0.1,2.5-0.1,2.8,0,3.9c0.2,1.7,0.6,2.2,0.4,3.7c-0.1,0.9-0.3,1.2-0.3,2.3
			c0,1,0.1,1.3-0.1,1.8c-0.1,0.1-0.2,0.3-1.4,1.3c-0.9,0.7-1,0.8-1.1,1.1c0,0.3,0.1,0.6,0.8,1.4c1.2,1.5,1.4,1.5,1.8,2.2
			c0.2,0.4,0.5,1,0.5,1.9c0,0.2,0,1.5-0.8,2.2c-0.4,0.4-0.8,0.4-2.7,0.4c-3.1,0.1-3.4,0.1-4.4,0c-0.9-0.1-1.4-0.3-2.3-0.6
			c-1.2-0.3-1.4-0.5-1.5-0.7c-0.4-0.6,0.1-1.1,0-2.4c-0.1-0.9-0.3-1.5-0.8-2.6c-0.4-0.9-0.6-1.4-1.1-1.9c-0.5-0.6-0.7-0.5-1.5-1.2
			c-0.5-0.4-1-1-1.4-1.8c-0.3-0.6-0.3-1.2-0.4-1.8c-0.1-0.7,0-1.1,0-1.9c0-1.6-0.2-1.5-0.1-3.1c0-1.4,0.2-1.5,0.1-2.7
			c0-1.3-0.2-1.2-0.3-2.5c-0.1-1.2,0.1-2.4,0.2-3.2c0.1-0.4,0.1-0.7,0.2-0.9c0.2-1,0.4-1.2,0.4-1.9c0-0.1,0-0.3,0-0.5
			c0-0.6-0.1-1-0.2-2c0-0.4,0-0.5,0.1-1.3c0-0.2,0-0.5,0.1-0.9c0.1-1.2,0.1-1.7,0.1-2.3c0-0.6,0-1-0.1-2.5c0-0.1,0-0.2,0-0.4
			c0-0.3,0-0.6,0-0.9c-0.1-1.7-0.1-2.5-0.1-2.9c0-0.5,0-1,0-1.4c0-0.9,0-1.6,0.2-2.5c0.2-1.2,0.2-1.1,0.5-2.3c0.3-1.1,0.1-1.3,0.3-4
			c0.1-1.9,0.2-1.8,0.3-3.3c0.1-1.5,0.1-2.5,0-3.7c-0.2-2.4-0.8-2.6-1.1-5.2c-0.1-0.8-0.2-1.6-0.3-2.4c0-1,0-1.5-0.3-1.8
			c-0.4-0.3-1.3,0-1.8,0.4c-0.6,0.5-0.6,0.9-1.2,1.9c-0.4,0.7-1.3,1.9-1.6,1.8c-0.3-0.1,0.2-1.2,0.2-3c0-0.1,0-0.2,0-0.4
			c0-0.1,0-0.2,0-0.3V334c0,0,0-0.1,0-0.1c0-0.1,0-0.2,0-0.2c0-0.4-0.1-0.7-0.2-1c0,0,0,0,0-0.1c0-0.1,0-0.1,0-0.2
			c0-0.1,0-0.1,0-0.2c-0.1-0.3-0.2-0.7-0.3-1c0,0,0,0,0,0c-0.1-0.3-0.3-0.7-0.5-1.1c-0.5-0.8-1-1.2-1.8-2c-1-0.9-1.9-1.4-2.1-1.6
			c0,0,0-0.1,0-0.1c0,0,0,0,0.1,0c0,0,0.1,0,0.2,0.1c0.2,0.1,0.6,0.3,1.2,0.4c0.1,0,0.3,0.1,0.6,0.1c0,0,0.1,0,0.1,0
			c0.3,0,0.5,0.1,0.9,0.1c0.1,0,0.1,0,0.2,0c0.1,0,0.2,0,0.2,0c1.6,0.2,2.8,0.2,3.1,0.2c0.3,0,0.9,0,1.8-0.1c0.1,0,0.2,0,0.4,0
			c0,0,0,0,0,0c0.1,0,0.2,0,0.3,0c0.1,0,0.2,0,0.4,0c1.3-0.1,1.9-0.2,2.5-0.4c0.1,0,0.1,0,0.2-0.1c0.6-0.2,1.5-0.6,2.4-1.4
			c0.2-0.2,0.5-0.5,0.8-0.9c0,0,0,0,0,0c0.3-0.4,0.5-0.9,0.7-1.5c0,0,0-0.1,0-0.1c0,0,0-0.1,0-0.1c0-0.1,0-0.3,0-0.4
			c0-0.2,0-0.4,0-0.6c0-0.2,0-0.5,0-0.8c0-0.3,0-0.6,0-0.9c0-0.2,0-0.4,0-0.6c0-0.5,0-1,0-1.5c0-0.8-0.1-1.4-0.2-2
			c-0.1-0.7-0.3-1.8-0.8-3c0,0,0-0.1,0-0.1c0-0.1-0.1-0.1-0.1-0.2c0,0,0-0.1-0.1-0.1c-0.3-0.5-0.7-1.1-1.2-1.5
			c-0.8-0.7-1.7-1.1-2-1.2c-0.9-0.4-1.7-0.5-2.6-0.6c-0.5,0-1-0.1-2.9-0.1c-2.3,0-3.8-0.1-5.1,0.1c-0.3,0.1-0.7,0.1-1.6,0.2
			c0,0,0,0,0,0c-0.8,0.1-1,0.1-1.2,0.1c0,0,0,0,0,0c0,0,0,0-0.1,0c-0.1,0-0.2,0.1-0.3,0.1c-0.5,0.2-0.7,0.4-1.4,0.8
			c-0.1,0-0.1,0.1-0.2,0.1c-0.6,0.2-0.8,0.3-1.1,0.3c0,0-0.1,0-0.1,0c-0.1,0-0.1-0.1-0.2-0.1c-0.2-0.1-0.3-0.3-0.4-0.5c0,0,0,0,0,0
			c-0.2-0.3-0.5-0.8-0.9-1.3c-0.2-0.2-0.5-0.5-1.1-1.1c-0.8-0.7-1.1-1-1.4-1.2c-0.8-0.5-1.7-0.6-2.6-0.8c-0.8-0.1-1.5-0.1-1.6-0.1
			c-2,0-3.6,0.7-4.9,1.3c-1.7,0.8-1.9,1.1-3.2,1.4c-0.7,0.2-1,0.1-1.8,0.4c-0.3,0.1-1.2,0.4-2.3,1.1c-0.7,0.5-0.6,0.5-1.3,1
			c-0.8,0.5-1.5,0.8-1.9,1c-0.2,0.1-0.8,0.3-1.6,0.5c-1,0.3-1.1,0.1-2,0.4c-0.5,0.1-0.9,0.2-1.2,0.4c0,0,0,0,0,0
			c-0.4,0.1-0.6,0.2-0.8,0.2c0,0-0.1,0-0.1,0c-0.1-0.1,0-0.2,0-0.4c0.2-0.6-0.1-0.1,0.4-1.7c0.4-1.3,0.6-1.6,0.6-2.3
			c0-0.7-0.2-0.6-0.3-1.5c0-0.6,0.1-0.8,0.1-1.6c0-0.6,0-0.8-0.1-1.4c0-0.6-0.1-1.8,0.3-3.1c0.2-0.6,0.4-1.1,0.6-1.6
			c0.5-1.1,0.7-1.2,0.9-1.9c0.2-0.7,0-0.7,0.2-1.9c0.1-0.8,0.2-1.2,0.4-1.6c0.2-0.3,0.4-0.5,0.4-0.9c0-0.3,0-0.4-0.1-0.8
			c-0.1-0.5,0-1,0-1.4c0-0.5,0.1-1,0.3-1.6c0.2-0.4,0.4-0.7,0.5-0.9c0.5-0.6,0.8-0.9,1.3-1.3c0.7-0.6,1.1-1.2,1.8-1.9
			c0.8-1,0.6-1.3,1.2-1.8c0.2-0.1,0.5-0.4,0.5-0.7c0-0.2-0.2-0.4-0.3-0.6c-0.4-0.5-0.2-0.9-0.6-1.4c-0.7-1.1-1.3-1.1-1.6-2
			c-0.1-0.2-0.1-0.6-0.1-1.3c-0.1-0.8,0-1.1-0.1-2.1c0-0.8-0.1-1.2-0.4-1.6c-0.2-0.2-0.4-0.3-0.5-0.5c-0.9-0.6-1.7-1.5-2.1-2.2
			c-0.1-0.2-0.4-0.8-0.6-1.8c-0.1-1.1,0.2-2.1,0.3-2.5c0.1-0.3,0.2-0.5,0.3-0.7c0.4-0.8,0.8-1.2,1.4-2c0.9-1.1,1.7-1.8,1.9-1.9
			s0.5-0.4,0.8-0.7c0.5-0.4,1.3-0.9,2.4-1.3c0.3-0.1,0.7-0.2,1.3-0.3c0.8-0.1,1.5,0,3,0.1c0.6,0.1,1,0.1,1.6,0.2
			c0.3,0.1,1.2,0.2,2.5,0.5c0.6,0.2,1.6,0.4,2.7,0.9c1.1,0.4,2.4,1,3.8,2.2c0.9,0.8,1.6,1.4,2.1,2.5c0.2,0.5,0.5,1.2,0.4,2.1
			c-0.1,0.8-0.5,1.3-0.5,2.4c0,0.3,0,0.5,0.1,0.7c0.2,1.3,0.6,1.5,0.5,2.3c0,0.6-0.3,0.6-0.3,1.3c0,0.3,0,1.1,0.4,1.4
			c0.4,0.3,0.9,0,1.8-0.1c1-0.1,1.4,0.2,2.5,0.4c2.5,0.5,3.1-0.3,5.8,0.3c0.9,0.2,1.5,0.4,1.8,0.6c0.7,0.3,1.1,0.6,2.1,1.4
			c2.1,1.5,2.1,1.3,2.7,1.9c0.9,0.8,0.7,0.9,2,2.3c1.4,1.5,1.6,1.4,2.6,2.6c1,1.1,1,1.5,2,2.7c1.1,1.4,1.8,2,2.6,2.7
			c3.4,3.4,4.5,7.9,4.6,8.3c0.5,2.2,0.1,2.7,0.9,4.8c0.6,1.6,1.1,2.1,1.3,3.6c0.1,0.9,0,1.1-0.3,3.6c-0.2,1.8-0.3,3.1-0.4,5.4
			c-0.1,1.5-0.1,2.2-0.1,3c0,2,0.2,2.5,0.4,4.7c0.1,1.6,0,1.2,0.1,5c0,1,0,0.5,0.2,4.9c0.1,2.5,0.1,2.9,0.2,3.6
			c0.2,1.7,0.4,1.9,0.7,3.9c0.2,1.4,0.5,3.1,0.5,5.2c0,1.7-0.2,1.8-0.2,4.5C151.6,353.9,151.6,355.2,151.6,355.2z"/>
		<path class="st0" d="M121.9,353c-0.3,2.4-0.4,3.6-0.8,4.9c-0.5,1.7-0.8,1.7-1.4,3.5c-0.6,2.1-0.2,2.1-0.8,3.8
			c-0.3,0.9-0.9,1.9-2.1,4c-1,1.8-1.3,2.1-1.5,2c-0.3-0.1-0.5-0.8-0.6-1.7v-0.1c-0.1-0.4-0.1-0.9-0.1-1.3c0-0.8,0-1.6,0-2.3
			c0-0.7,0-1.5,0-2.1c0.1-1.1,0.2-3.4,0.9-4.6c0.4-0.6,0.5-0.8,0.6-1.2c0,0,0,0,0,0c0.2-0.6,0.4-1,0.7-2.1c0.2-0.6,0.3-0.5,0.5-1.3
			c0.3-0.9,0.2-2.9,0.2-3.8c0-0.7,0.2-1.9,0-4.9c-0.4-4.9-0.1-1-0.4-4.9c0-0.2,0-0.3,0-0.5c0-0.1,0-0.2,0-0.2c0-0.5-0.1-0.8-0.2-1.1
			c0-0.1,0-0.1-0.1-0.2c0,0,0-0.1,0-0.1c-0.3-0.8-0.6-1.3-1-2.2c0-0.1-0.1-0.2-0.1-0.2c-0.1-0.2-0.2-0.4-0.2-0.5
			c-0.1-0.2-0.1-0.3-0.2-0.5c-0.1-0.4-0.3-0.8-0.5-1.4c0-0.1,0-0.2-0.1-0.3c-0.2-0.9-0.4-2.1-0.4-2.9c0-0.3,0.1-0.5,0.2-0.7
			c0,0,0-0.1,0-0.1c0,0,0,0,0-0.1c0,0,0,0,0.1,0c0,0,0,0,0.1,0c0.3,0,0.8,0.4,1.7,1.1c0,0,0.1,0.1,0.2,0.1c0.1,0.1,0.3,0.2,0.4,0.3
			c0.1,0.1,0.2,0.1,0.2,0.2c0.1,0.1,0.3,0.2,0.5,0.3c0.1,0,0.1,0.1,0.2,0.1c0.1,0,0.1,0.1,0.2,0.1c0.1,0,0.2,0.1,0.3,0.1
			c0.1,0,0.2,0.1,0.2,0.1c0.1,0,0.3,0.1,0.4,0.1h0c0.1,0,0.2,0,0.3,0c0.1,0,0.2,0.1,0.3,0.1c0,0,0.1,0.1,0.1,0.1
			c0.3,0.3,0.4,0.7,0.7,2.2c0.4,1.7,0.4,1.7,0.5,2c0.1,0.7,0,0.9,0,1.9c0,0.2,0,0.4,0,0.6c-0.1,1.9-0.1,2.8,0.1,3.8
			c0.2,0.9,0.3,0.9,0.5,2c0.1,0.8,0.2,1.5,0.3,2.5C122.2,348.6,122.3,350.1,121.9,353z"/>
		<path class="st0" d="M110.3,393.6c-0.3,1.2-0.2,1.8-0.2,2c0,0.4,0.1,0.5,0.3,1.4c0.2,0.8,0.2,1.3,0.2,1.7
			c-0.1,0.7-0.3,0.8-0.4,1.5c-0.3,1.4,0.3,1.9-0.1,2.5c-0.3,0.5-1.2,0.6-2.9,0.8c-0.6,0.1-1.4,0.1-2.5,0.1c-1.4,0-1.4-0.1-3-0.2
			c-2.3-0.1-2.7,0.1-3.6-0.3c-0.8-0.3-0.7-0.7-1.7-1.1c-0.9-0.4-1.2-0.2-1.8-0.6c-0.1-0.1-1.2-0.8-1.2-1.8c0-0.4,0.1-0.6,0.5-1.6
			c0,0,0.3-0.9,0.6-2c0.3-1.1,0.1-1.5,0.3-3.3c0.1-1.2,0.3-2.1,0.5-3.5c0.4-2,0.5-2,0.6-3c0.1-1.3-0.1-1.5,0-3.3
			c0-1.1,0-2.2,0.3-3.5c0.1-0.3,0.2-0.8,1.4-3.7c0.9-2.2,1.4-3.3,1.9-4.4c0.9-1.9,1.1-1.9,1.5-2.9c0.7-1.9,0.7-3.5,0.7-4
			c0-2.5-0.8-2.9-0.4-4.6c0.2-1,0.5-0.8,1.2-2.6c0.5-1.3,0.5-1.5,1.2-3.9c0.8-2.6,0.8-2.1,1.2-3.5c0.4-1.4,0.5-2.2,0.8-2.7
			c0.1-0.2,0.5-0.2,0.6-0.2c0.3,0,0.5,0.1,0.6,0.2c0,0.1,0.1,0.1,0.1,0.2c0,0,0,0,0,0c0.4,0.7,0.3,1.7,0.1,2.9
			c-0.4,2-0.6,2.9-1.1,4.4c0,0.1-0.1,0.2-0.1,0.3c0,0.2-0.1,0.3-0.2,0.4c-0.1,0.4-0.3,0.7-0.5,1c0,0.1-0.1,0.2-0.1,0.3
			c0,0.1-0.1,0.2-0.2,0.3c-0.1,0.2-0.1,0.3-0.2,0.5c0,0.1-0.1,0.2-0.1,0.3c0,0.1-0.1,0.2-0.2,0.4c0,0,0,0,0,0.1
			c-0.1,0.2-0.1,0.3-0.2,0.5c-0.5,1.1-0.7,1.7-0.8,2c0,0,0,0,0,0c0,0.1-0.1,0.2-0.1,0.3c-0.2,0.5-0.3,1-0.4,1.4
			c-0.1,0.5-0.2,1-0.2,1.6c0,0.2,0,0.3,0,0.5c0,0,0,0.1,0,0.1v0.1c0,0.7,0.1,1.5,0.4,2.3c0.5,1.2,1,1.4,1.5,2.6
			c0.1,0.2,0.2,0.5,0.4,0.8c0.3,0.8,0.5,1.5,0.6,2.1c0,0.2,0.1,0.4,0.1,0.6c0,0.2,0.1,0.5,0.1,0.7c0,0,0,0.1,0,0.1
			c0.1,1.1,0.2,2,0,3.1c-0.3,1.7-1,2.2-0.7,3.1c0.2,0.5,0.6,0.8,1.4,1.4c0.9,0.7,1.3,0.8,2,1.3c0,0,0,0,0,0c0.1,0.1,0.3,0.2,0.4,0.3
			c0,0,0.1,0,0.1,0.1c0.6,0.4,1,0.8,1.3,1.2c0,0,0,0,0.1,0.1c0.3,0.3,0.5,0.5,0.5,0.6c0.4,0.5,0.8,1,1,1.7c0,0.1,0.1,0.2,0.1,0.3
			l0,0c0.4,1.5-0.1,2.9-0.5,4.2C110.9,392,110.6,392.3,110.3,393.6z"/>
	</g>
</g>
<g id="FigureC">
	<g>
		<path class="st1" d="M140.9,319.6c0-0.5,0-1,0-1.5c-0.1-0.9-0.2-1.6-0.5-3c-0.2-1.1-0.4-1.6-0.5-1.9c0,0,0-0.1,0-0.1
			c0-0.1-0.1-0.1-0.1-0.2c0,0,0-0.1-0.1-0.1c-0.5-0.8-1-1.2-1.5-1.5c-0.7-0.5-1.5-1-2.6-1.3c-0.1,0-0.4-0.1-0.7-0.2
			c-2.3-0.4-4.7-0.4-4.7-0.4c-1.6,0-1.1,0.1-3.8,0.2c-1.1,0-1.7,0-2.2,0c-0.6,0-0.8,0-1.2,0.2c0,0,0,0,0,0c0,0,0,0-0.1,0
			c-0.1,0-0.2,0.1-0.3,0.1c-0.6,0.2-1,0.5-1.4,0.8c-0.5,0.3-0.8,0.5-1.2,0.4c0,0-0.1,0-0.1,0c-0.3-0.1-0.4-0.3-0.6-0.7c0,0,0,0,0,0
			c-0.2-0.3-0.5-0.6-1-1.1c-0.7-0.7-1.2-1.1-1.4-1.3c-0.6-0.5-1-0.9-1.6-1.2c-1.1-0.5-2-0.6-3.1-0.7c-1,0-1.9-0.1-3,0.2
			c-0.3,0.1-0.5,0.1-2.6,1.2c-1.9,0.9-2,0.9-2.2,1c-1.2,0.4-2.1,0.3-3.3,0.8c-0.4,0.2-0.7,0.4-0.8,0.4c-0.5,0.3-0.7,0.5-1.1,0.8
			c-0.4,0.3-0.7,0.5-1.4,0.9c-1.1,0.6-1.7,0.9-2.5,1.2c-1.4,0.5-1.6,0.2-3.7,0.6c-0.1,0-0.2,0-0.2,0c0,0,0,0,0,0
			c-0.3,0.1-0.5,0.1-0.8,0.2c-0.7,0.2-1.2,0.3-1.8,0.7c-0.8,0.5-0.8,0.8-1.8,1.4c-1,0.6-1.9,0.8-2.4,0.9c-1.5,0.4-1.6,0-2.8,0.4
			c-0.8,0.2-1.3,0.6-2.5,1.5c-0.8,0.6-1.1,0.9-1.3,1.2c-0.2,0.5-0.2,1-0.1,1.6c0.1,0.6,0.2,0.9,1,2.6c0.6,1.3,0.6,1.4,0.7,1.7
			c0.2,0.7,0.1,0.6,0.3,2.1c0.1,1,0.2,1.3,0.2,1.9c-0.1,0.4-0.1,0.8-0.4,1.2c-0.4,0.5-1,0.7-2.1,0.9c-1.1,0.2-1.2,0.1-2.1,0.4
			c-0.2,0.1-0.5,0.1-1.7,0.6c-1.2,0.5-1.6,0.6-1.8,0.7c-1.3,0.5-2.5,0.4-3.8,0.4c-2.1-0.1-4.3,0-6.4,0c-3.7,0-4,0-5.5-0.1
			c-1.7-0.1-3.1-0.4-4.3-0.6c-0.4-0.1-2.4-0.5-4.4-1.3c0,0-0.9-0.3-2-0.6c-0.2,0-0.4-0.1-0.8-0.1c-0.2,0-0.2,0-0.8,0
			c-0.8,0-0.9-0.1-1.2,0c-0.3,0-0.5,0.1-0.6,0.2c-0.1,0.1-0.2,0.3-0.3,0.5c-0.1,0.1-0.2,0.4-0.3,0.6c-0.1,0.2-0.1,0.4-0.1,1.5
			c0,0.9,0,1,0,1.1c0,0.6,0.1,0.9,0.1,1.1c0.1,0.3,0.2,0.5,0.2,0.8c0,0.2-0.1,0.2-0.1,0.4c0,0.1,0.1,0.1,0.3,0.4
			c0.2,0.3,0.3,0.3,0.3,0.4c0.1,0.1,0.1,0.2,0.2,0.3c0.1,0.2,0.1,0.3,0.2,0.5c0.1,0.2,0.1,0.3,0.2,0.4c0.2,0.3,0.5,0.8,1.3,1.6
			c1,1,1.4,1.2,2.5,2c1.3,1.1,1,1.2,2.6,2.6c1.3,1.2,1.5,1.2,2.7,2.3c1.5,1.4,1.2,1.5,2.2,2.3c1.3,1.2,1.7,0.9,4.6,2.7
			c1,0.6,2.1,1.4,2.7,1.8c1.8,1.2,1.8,1.3,2.3,1.5c1.3,0.6,1.6,0.3,3.8,0.8c0.6,0.1,1.7,0.4,3,1c1.4,0.6,1.5,0.8,2.7,1.2
			c1.1,0.4,2.1,0.6,2.7,0.7c1.7,0.3,2.9,0.3,3.3,0.3c0.8,0,2,0,3.4-0.4c1.3-0.3,2.2-0.8,2.5-1c0.9-0.5,1.4-0.8,1.8-1.4
			c0.5-0.7,0.2-1.5,0.8-1.9c0.1,0,0.3-0.2,0.6-0.1c0.1,0,0.5,0.2,0.8,1.5c0.2,1.1-0.1,1.7,0.3,2c0.1,0.1,0.1,0,0.7,0.3
			c0.5,0.2,0.5,0.3,0.7,0.3c0.5,0.1,0.6-0.1,0.8,0.1c0.3,0.2,0.2,0.6,0.5,0.8c0.2,0.1,0.4-0.1,0.9-0.1c0.4,0,0.4,0.2,0.9,0.3
			c0.4,0.1,0.6,0.1,0.8,0c0.2-0.1,0.2-0.3,0.4-0.4c0.2,0,0.2,0.1,0.5,0.2c0.1,0,0.4,0.2,0.8,0.1c0,0,0.2,0,0.9-0.6l0.6-0.3
			c0.4-0.2,0.4-0.8,0.5-1c0.2-1.8,0.1-4.5,0.1-4.5c0-0.7,0-1.6,0.1-2.8c0.1-0.3,0.2-0.8,0.6-1.1c0.3-0.3,0.5-0.3,1.6-0.8
			c0.1-0.1,0.9-0.4,1.8-1c0.8-0.5,0.8-0.6,1.2-0.8c0.4-0.2,1-0.5,1.5-0.5c0.5-0.1,0.9,0,1.1,0.2c0.1,0,0.1,0.1,0.1,0.2c0,0,0,0,0,0
			c0.4,0.7,0.3,1.7,0.1,2.9c0.2-1.2,0-2.6-0.1-2.9c0.1,0.2,0,0.7-0.1,1.9c-0.1,1.5-0.2,2.2-0.3,2.6c-0.2,1.1-0.4,2-0.7,2.6
			c0,0.1-0.1,0.2-0.3,0.7c-0.1,0.3-0.6,1.3-1,2.3c0-0.1,0.1-0.1,0.1-0.2c-0.1,0.2-0.2,0.3-0.2,0.5c0,0.1-0.1,0.2-0.2,0.4
			c0,0,0,0,0,0.1c-0.1,0.2-0.1,0.3-0.2,0.5c-0.5,1.1-0.7,1.7-0.8,2c0,0,0,0,0,0c0,0.1-0.1,0.2-0.1,0.3c-0.3,0.8-0.5,1.8-0.7,3
			c0,0.2,0,0.3,0,0.5c0,0,0,0.1,0,0.1v0.1c0,1.1,0,1.9,0.4,2.9c0.5,1,0.9,1,1.5,2c0.6,0.9,0.7,1.7,1,3c0,0.2,0.1,0.4,0.1,0.6
			c0,0.2,0.1,0.5,0.1,0.7c0,0,0,0.1,0,0.1c0.2,1.4,0.3,2.2,0,3.1c-0.4,1.2-1,1.7-0.8,2.7c0.1,0.8,0.7,1.3,0.8,1.5
			c0.7,0.7,1.8,1.2,2.3,1.4c0.2,0.1,0.3,0.1,0.4,0.2c0,0,0,0,0,0c0.2,0.1,0.3,0.2,0.4,0.3c0,0,0.1,0,0.1,0.1
			c0.3,0.2,0.8,0.5,1.3,1.2c0,0,0,0,0.1,0.1c0.4,0.4,0.4,0.6,0.8,1.4c0.4,0.7,0.6,1,0.8,1.2l0,0c0.2,0.2,0.3,0.4,0.5,0.8
			c0.5,1,0.6,2,0.7,2.5c0.1,0.8,0.1,1.2,0.4,1.8c0.2,0.5,0.7,1.4,1,1.3c0.3-0.1,0.2-1.2,0.1-3.8c-0.1-4,0-3.6-0.1-4.6
			c-0.2-2.1-0.5-2.1-0.8-5c-0.3-2.8-0.2-3.6-0.1-3.9c0.3-1.7,0.9-1.7,1.4-3.4c0.2-0.9,0.2-1.3,0.1-2.8v-0.1c0-0.7-0.1-1.6-0.1-3
			c0-0.2,0-0.4,0-0.6c0-2,0.1-2.8,0.2-3.3c0.2-1.1,0.3-2.2,0.8-3.4c0.2-0.5,0.4-0.9,0.6-1.2c0,0,0,0,0,0c0.2-0.4,0.4-0.8,0.5-1.3
			c0.1-0.2,0.2-0.5,0.3-0.8c0.2-0.6,0.5-0.6,0.5-2.1c0-0.5,0-1,0-1.7c0-3.9,0-3.4,0-4.8c-0.1-1.8-0.1-3.1-0.3-4.9c0-0.8,0-1.3,0-1.8
			c0-0.1,0-0.2,0-0.2c0-0.4,0-0.7-0.2-1.1c0-0.1,0-0.1-0.1-0.2c0,0,0-0.1,0-0.1c-0.1-0.3-0.2-0.5-1-2.2c0-0.1-0.1-0.2-0.1-0.2
			c-0.1-0.2-0.2-0.4-0.2-0.5c-0.1-0.2-0.1-0.3-0.2-0.5c-0.2-0.4-0.2-0.5-0.3-0.7c-0.1-0.2-0.1-0.5-0.2-0.7c0-0.1,0-0.2-0.1-0.3
			c-0.1-0.5-0.2-1-0.2-1.4c-0.1-0.9-0.2-1.7,0-2.1c0,0,0-0.1,0.1-0.1c0,0,0,0,0-0.1c0,0,0,0,0.1,0c0,0,0,0,0.1,0
			c0.2,0,0.4,0.1,0.8,0.4c0.3,0.2,0.4,0.3,0.9,0.7c0,0,0.1,0.1,0.2,0.1c0.1,0.1,0.3,0.2,0.4,0.3c0.1,0.1,0.2,0.1,0.2,0.2
			c0.2,0.1,0.3,0.2,0.5,0.3c0.1,0,0.1,0.1,0.2,0.1s0.1,0.1,0.2,0.1c0.1,0,0.2,0.1,0.3,0.1c0.1,0,0.2,0.1,0.2,0.1
			c0.1,0,0.3,0.1,0.4,0.1h0c0.1,0,0.2,0,0.3,0c0.1,0,0.2,0.1,0.3,0.1c0,0,0.1,0.1,0.1,0.1c0.4,0.3,0.6,0.9,0.8,1.4
			c0.1,0.2,0.2,0.7,0.3,1.5c0.1,0.7,0.2,1.1,0.2,1.4c0,0.6,0,0.9,0,1.7v0.1c0,0.2,0,0.4,0,0.6c0,0.6,0,1.2,0,1.8
			c0,0.2,0.1,1.1,0.3,2.3c0.2,1.3,0.4,1.5,0.9,3.5c0.4,1.6,0.3,1.5,0.5,2.4c0.1,0.4,0.5,1.2,1.1,2.8c0.2,0.5,0.5,1.2,0.9,2.3
			c0,0,0.2,0.6,0.6,1.6c0.4,1.1,0.5,1.3,0.5,1.5c0.1,0.3,0.2,0.8,0.2,1.7c0,1.2-0.1,1.6-0.1,2.6c0,0.8,0,0.6,0.1,2.9
			c0.1,2,0,2.1,0.1,3.1c0.1,1,0.1,1.1,0.2,2.2c0,0.7,0.1,1.4,0.1,2.6c0.1,2.6,0,3.4-0.1,4.4c-0.1,0.5-0.1,0.9-0.3,1.4
			c-0.2,0.6-0.4,1.1-0.8,1.9c-0.7,1.3-1,1.9-1.5,2.7c-0.6,1-0.9,1.5-1.5,2.3c-0.7,0.9-0.9,1.1-1.5,1.9c-0.6,0.8-1,1.3-1.3,2
			c-0.2,0.4-0.5,1.1-0.5,1.9c0,0.5,0,0.5,0.1,1.8c0.1,1.1,0.1,1.6,0,2.1c-0.1,0.6-0.2,0.5-0.5,1.7c-0.2,0.5-0.2,0.9-0.5,1.8
			c-0.3,1.1-0.3,1.2-0.3,1.4c0,0.4,0,1.3,0.5,1.8c0.2,0.2,0.4,0.2,0.9,0.4c0.4,0.1,0.7,0.1,1.8,0.3c0.8,0.1,1.3,0.1,1.8,0.2
			c0.5,0,0.9,0.1,1.2,0.1c0.4,0,1,0.1,1.8,0.1c1,0,1.1,0,1.3-0.1c0.5-0.2,0.7-0.6,0.8-0.9c0.2-0.3,0.3-0.6,0.4-1.5
			c0.1-0.8,0.1-1.2,0.1-2c0-1.6,0.1-1.3,0.1-1.9c-0.1-1.4-0.4-1.4-0.5-2.6c0-0.9,0.2-1.3-0.1-1.9c-0.2-0.5-0.5-0.5-0.5-1
			c-0.1-0.5,0.1-0.9,0.4-1.6c0.6-1.4,0.2-0.7,0.9-2.1c0.2-0.4,0.5-1,1.3-2.5c0.8-1.5,0.8-1.4,1.2-2.2c0.6-1.2,1-1.9,1.4-3
			c0.4-1,0.7-1.7,0.9-2.5c0.1-0.2,0.2-0.5,0.2-0.7c0.3-0.9,0.5-1.4,0.5-2c0-0.2,0-0.5,0.1-0.8c0-0.1,0-0.3,0-0.5c0-0.3,0-0.7,0-1.1
			c0-1.1,0-1.5-0.1-2.2v-0.3c0-1.3,0.1-1.7,0.1-3.1c0-0.7,0-1.4,0-2.4c0-0.1,0-0.2,0-0.4c0-0.4,0-1,0-1.5c-0.1-1.8-0.1-2.9-0.2-3.6
			c0-0.2,0-0.4,0-0.5c-0.1-1.2-0.4-2.8-1-4.6c-0.3-1.1-0.8-2.3-1.9-4.7c-1.3-3.1-1.7-3.7-1.9-5.1c-0.1-1,0-1-0.1-3.1
			c-0.1-1.2-0.2-1.9-0.1-3c0-0.5,0.1-0.6,0.1-1.2c0-0.3,0.1-1,0-1.8c0-0.1,0-0.2,0-0.4c0-0.1,0-0.2,0-0.3v0c0,0,0-0.1,0-0.1
			c0-0.1,0-0.2,0-0.2c0-0.3-0.1-0.6-0.2-1c0,0,0,0,0-0.1c0-0.1,0-0.1,0-0.2c-0.1-0.5-0.2-0.8-0.3-1.2c0,0,0,0,0,0
			c-0.2-0.5-0.6-0.9-1-1.5c-0.3-0.4-0.5-0.6-0.6-0.7c-1.2-1.2-2.6-2.2-2.8-2.5c0,0,0-0.1,0-0.1c0,0,0,0,0.1,0c0,0,0.1,0,0.2,0.1
			l0.7,0c0.3,0,0.9,0.3,1.2,0.3c0.1,0,0.7,0.1,0.8,0.1c0.2,0,0.6,0,0.8,0c1.1,0.1,1.7,0.2,2.6,0.2c0.3,0,1.1,0.2,2,0.2
			c0.1,0,0.2,0,0.4,0c0,0,0,0,0,0c0.1,0,0.2,0,0.3,0c0.1,0,0.2,0,0.4,0c1.3-0.1,1.9-0.2,2.5-0.4c0.1,0,0.1,0,0.2-0.1
			c0.5-0.2,1.2-0.5,2-1.2c0.4-0.3,0.8-0.7,1.1-1.1c0,0,0,0,0,0c0.2-0.3,0.4-0.6,0.6-1c0-0.1,0.1-0.2,0.1-0.6c0,0,0-0.1,0-0.1
			c0-0.1,0-0.3,0-0.4c0-0.2,0-0.4,0-0.6c0-0.2,0-0.5,0-0.8c0-0.3,0-0.6,0-0.9C140.9,320,140.9,319.9,140.9,319.6z M114.5,330.9
			c0-0.3,0.1-0.5,0.1-0.6C114.6,330.4,114.5,330.6,114.5,330.9z"/>
		<path class="st2" d="M119.6,311c-0.1-0.1-0.2-0.3-0.4-0.5C119.3,310.7,119.4,310.9,119.6,311z"/>
		<path class="st2" d="M133.2,327.5c-0.9,0-1.5,0.1-1.8,0.1C132,327.6,132.5,327.6,133.2,327.5z"/>
		<path class="st1" d="M30.2,339.5c0,0-0.3,0.2-0.9,0.6c-0.7,0.5-1.2,0.8-2.5,1.7c-1.1,0.7-1.9,1.3-2.3,1.6c-1.5,1-1.4,0.9-2.2,1.5
			c-0.6,0.4-1.5,1.1-2.6,2c-1,0.8-0.9,0.9-1.4,1.1c-1,0.6-1.3,0.6-2.8,1.2c-1.4,0.6-2.4,1.3-2.8,1.6c-1.1,0.8-1,0.9-1.9,1.5
			c-1.1,0.7-1.4,0.6-2.1,1.2C8,354,8.1,354.1,7,355.2c-1,1.1-1.1,0.9-2.4,2.1c-1.1,1.1-1.2,1.4-1.9,1.8c-0.4,0.3-0.6,0.5-0.9,0.8
			c-0.5,0.5-0.6,0.7-0.6,0.8c0,0.4,0.4,0.8,0.6,1c1.5,1.3,2.8,2.2,3.9,3c0.6,0.5,0.3,0.4,2,1.9c0.8,0.8,1,0.9,1.4,1.4
			c0.4,0.4,0.5,0.6,0.8,0.9c0.4,0.3,0.4,0.3,1.1,0.8c0.4,0.3,0.5,0.4,0.8,0.5c0.3,0.1,0.6,0.1,0.7,0c0.5-0.1,0.9-0.4,1-0.5
			c0.7-0.6,1.6-1.1,2.2-1.7c0.4-0.3,0,0,4-3.1c2.8-2.2,2.8-2.3,3.6-2.8c1-0.7,1.4-0.9,2.5-1.7c0.3-0.2,0.4-0.3,2.2-1.7
			c1.5-1.2,1.5-1.2,1.7-1.3c1.1-0.9,1.1-1.1,2.2-2.1c0.3-0.3,1-0.8,1.8-1.5c0.9-0.7,1.1-0.6,1.5-1.1c0.5-0.4,0.9-1.1,1.5-1.8
			c0.4-0.5,0.6-0.8,1-1.3c0.3-0.4,0.5-0.6,0.4-0.9c-0.1-0.2-0.3-0.2-0.6-0.4c-0.4-0.2-0.5-0.4-0.9-0.8c-0.4-0.3-0.8-0.7-1.6-1.4
			c-1.2-0.9-1.1-0.8-1.9-1.4c-1-0.8-1.5-1.3-1.8-2.2c-0.1-0.4-0.2-0.9-0.2-1.2c-0.1-0.8,0-1.5,0-1.5c0-0.7,0.1-1,0-1.1
			c-0.1-0.1-0.4,0-0.6,0.2C30.4,339.3,30.2,339.4,30.2,339.5z"/>
	</g>
</g>
<g id="FigureB">
	<g>
		<path class="st3" d="M33.2,344.9c0.1,0.1,0.3,0.3,0.5,0.4c0.3,0.3,0.5,0.3,0.9,0.7c0.2,0.1,0.4,0.3,0.7,0.5c1.5,1.2,1.4,1.3,2.5,2
			c0.6,0.4,0.6,0.3,2.7,1.5c1.3,0.7,2,1.1,2.6,1.5c0.6,0.4,0.5,0.4,2.2,1.6c2,1.5,2.2,1.6,2.6,1.8c0.6,0.2,1.2,0.3,2.5,0.5
			c1.7,0.3,1.8,0.1,2.6,0.4c0.9,0.4,0.8,0.6,2,1.2c0.5,0.2,1.1,0.5,2,0.7c0.9,0.1,1.6,0.1,2,0c1.3-0.2,2.7-0.3,2.9-1
			c0.1-0.5-0.4-1-1.8-2.2c-2-1.7-3.4-2.6-4.2-3.3c-2-1.5-1.3-1.6-4.4-4.5c-1.7-1.6-1.9-1.6-4.8-4.2c-0.3-0.2-1.1-1.1-2.9-2.9
			c-1.1-1.1-1.7-1.6-2.2-2.7c-0.3-0.7-0.4-1.3-0.4-2c-0.1-1.3,0-1.9,0.1-3.8c0-0.2,0-1.2,0.1-3.1c0-1.9,0-2.7,0.1-3.8
			c0.1-1.5,0.2-2.2,0.4-2.6c0.4-0.8,1-0.9,3.4-2.1c1.3-0.7,2-1.1,2.8-1.5c1.1-0.7,1.2-0.9,3.4-2.5c1.1-0.8,2.4-1.7,2.7-1.4
			c0,0,0.1,0.2,0.1,0.5c0,0.3,0.1,0.5,0,0.8c-0.1,0.3,0,1,0.2,2.3c0.1,1.1,0.2,1.7,0.5,2.3c0.3,0.6,0.4,0.6,0.8,1.5
			c0.3,0.6,0.4,1.1,0.5,1.5c0.2,0.7,0.2,0.8,0.5,1.6c0.2,0.7,0.3,0.7,0.4,1.2c0.1,0.6,0.2,0.9,0.2,1.3c0,0.4-0.1,0.5,0,0.8
			c0.1,0.3,0.3,0.5,0.5,0.7c0.3,0.3,0.5,0.5,0.5,0.5c0.3,0.2,0.9,0.8,1.9,2.5c0.1,0.6,0.4,1.4,1,1.8c0.8,0.5,1.6,0,3.1-0.3
			c1.1-0.2,3-0.2,6.7-0.1c1.4,0,2.2,0.1,2.4-0.3c0.1-0.2-0.1-0.5-1.6-1.7c-1.7-1.3-2.8-2.1-2.8-2.1c-1.9-1.3-2.5-1.5-2.6-2.2
			c-0.1-0.5,0.2-0.7,0-1.6c-0.1-0.6-0.3-1.1-0.5-1.4c-0.3-0.5-0.7-1-1.6-1.8c-0.7-0.7-0.9-0.8-1.1-1.2c-0.3-0.4-0.4-0.8-0.5-1.3
			c-0.1-0.4-0.2-0.8-0.3-1.5c-0.1-0.9-0.2-1.6-0.3-2.2c-0.1-0.7-0.1-1.6-0.1-2.7c-0.1-2.1,0-2.4-0.1-3.5c-0.2-1.2-0.5-1.9-0.6-2.1
			c-0.4-0.8-0.8-1.3-1.2-1.7c-0.7-0.7-1.1-0.8-1.9-1.4c-1-0.7-1.5-1.4-2.2-2.4c-1.2-1.6-1.8-2.5-1.7-3.5c0-0.3,0.3-0.9,0.8-2
			c0.5-1.1,0.6-1.1,0.8-1.7c0.3-0.9,0.2-1.2,0.6-1.8c0.1-0.2,0.4-0.5,0.9-0.7c0.2-0.1,0.5-0.1,1.6,0.2c0.9,0.2,0.9,0.3,1.6,0.5
			c0.7,0.2,1.1,0.2,1.5,0.3c0.7,0.1,1,0,1.2,0c0.4-0.1,0.7-0.3,0.9-0.4c0.4-0.2,0.5-0.3,0.7-0.5c0.1-0.2,0.2-0.4,0.3-1.1
			c0.1-0.6,0.1-0.9,0.1-1.2c0.1-0.8,0.2-0.8,0.3-1.6c0.2-1.3-0.1-1.3,0.2-2.1c0.1-0.4,0.3-0.6,0.5-1.2c0-0.1,0.1-0.5,0.2-0.9
			c0.1-0.8,0-1.6-0.2-2.4c-0.3-1.5-0.4-2.3-0.7-2.8c-0.5-1.3-1.2-2.1-2.1-3.1c-0.5-0.6-0.9-1.1-1.6-1.7c-0.6-0.5-1.8-1.6-3.8-2.2
			c-1.4-0.4-2.6-0.5-3.2-0.5c-1.2,0-2.2,0-3.2,0.5c-1.2,0.6-1.8,1.5-2.2,2.1c-0.2,0.3-0.8,1.1-1.2,2.3c-0.1,0.2-0.4,1.3-0.4,2.9
			c0,1.2,0.3,2.2,0.5,3c0.2,0.7,0.4,1.4,0.7,2.2c0.3,0.8,0.5,1,0.5,1.5c0,0.7-0.3,1.2-0.6,1.9c-0.6,1.1-1.4,1.8-1.8,2.1
			c-0.3,0.2-1,0.7-2,1.1c-1.1,0.4-2,0.4-2.9,0.5c0,0-2.3,0.1-4.7,0.6c-2.2,0.5-3.8,1.2-4.7,1.7c-0.6,0.3-1.1,0.6-4.5,3
			c-4.6,3.2-4.3,3.1-5.1,3.5c-1.8,1-2.8,1.3-4.2,2.5c-1,0.9-1.7,1.9-1.9,2.2c-0.6,0.8-0.7,1.2-1.5,2.6c-1.4,2.7-1.6,2.5-2.2,3.9
			c-0.6,1.4-0.3,1.3-1.2,3.6c-0.7,2-1.5,3.6-1.5,3.8c-1,2.3-1.3,2.4-1.5,3.5c-0.1,0.8-0.3,1.6-0.4,2.4c-0.1,0.6-0.1,1-0.5,1.4
			c-0.3,0.4-0.6,0.3-1,0.7c-0.4,0.4-0.5,0.8-0.6,1.1c-0.5,1.4-0.4,0.7-1.3,2.9c-0.3,0.8-0.6,1.7-1.2,3.5c-0.5,1.5-0.6,1.8-0.6,2.3
			c-0.1,0.8,0,1.3,0.1,2.5c0.4,3.7,0.1,3.6,0.5,4.7c0.4,1.3,0.6,1.3,1,2.8c0.2,0.7,0.4,1.5,0.4,2.7c0,1.5-0.4,1.7-0.3,3.2
			c0,0.7,0.1,1,0.1,1.7c-0.1,1-0.3,1.4-0.1,1.5c0.3,0.2,1-0.8,2.1-1.8c0.7-0.7,1.6-1.2,3.3-2.4c2.2-1.4,3.2-2.2,4.1-2.5
			c1.7-0.7,2.1-0.5,3.3-1.3c0.6-0.4,0.6-0.5,2.3-1.8c0.5-0.3,1-0.8,1.8-1.3c0.5-0.3,0.4-0.3,1.6-1.1c0.9-0.6,1.4-1,1.6-1.1
			c0.7-0.5,1.1-0.8,1.3-0.9c0.3-0.2,0.6-0.4,0.9-0.7c0.6-0.4,0.6-0.5,1.1-0.8c0.7-0.5,1.3-0.9,2.1-1.1c0.2,0,0.4-0.1,0.5,0
			c0.2,0.1,0.1,0.4,0,1.1c0,0.3-0.1,0.7-0.1,1.2c0,0.2,0,0.7,0.2,1.2C31.7,343.6,32.3,344.1,33.2,344.9z"/>
		<path class="st3" d="M5.6,365.4c0.1,0.5,0.3,1,0.3,2c0.1,1.1,0.2,1.6,0.1,3.1c0,1,0,0.8,0,3.2c0,3.5-0.1,2.3-0.1,3.3
			c0,1.1,0.1,1.5-0.2,1.9c-0.5,0.7-1.2,0.3-1.8,0.9c-0.3,0.3-0.3,0.6-0.4,2.9c-0.1,2.3-0.1,1.7-0.1,2.3c0,1.8,0.1,2.1-0.2,2.5
			c-0.4,0.7-1,0.4-1.7,1.3c-0.7,0.8-0.9,1.7-0.9,1.9c-0.2,1,0.2,1.3,0.3,2.6c0,0.1-0.1,0.9-0.2,1.9c-0.1,0.6-0.1,1,0.1,1.2
			c0.3,0.3,0.9-0.1,1,0.1c0.1,0.2-0.5,0.6-1,1.3c-0.4,0.5-0.3,0.8-0.6,3.2c-0.2,1.6-0.3,2.1,0,2.5c0.2,0.3,0.6,0.3,1.3,0.4
			c1.5,0.1,2.2,0.2,3.1,0.2c0.1,0,1.2,0.1,3.3,0.2c3.8,0.2,7.1,0.7,10.2,0.1c0.5-0.1,1.3-0.3,1.6-0.9c0.2-0.4,0.1-0.7,0-2.4
			c-0.2-1.9,0-1.8-0.2-2.5c-0.3-1.1-0.7-1.4-0.5-2.1c0.1-0.4,0.3-0.7,0.5-1.2c0.3-0.4,0.4-0.7,0.6-0.8c0.5-0.3,0.8,0,1.2-0.2
			c0.4-0.2,0.3-0.9,0.3-3c0-1.4,0-1.8,0-2c0.1-1.1,0.1-1.6,0.3-2.1c0.3-0.8,1-1.3,2.4-2.2c0.8-0.5,1.7-1.1,2.9-1.5
			c1.1-0.4,1.2-0.2,3-0.7c1.3-0.4,1.4-0.5,2.2-0.6c0.9-0.1,1,0,2.4-0.2c1-0.1,1-0.2,2-0.3c0.8-0.1,1.4-0.1,2.1-0.1
			c1.5,0.1,2,0.5,2.3,0.2c0.2-0.3-0.1-0.7-0.5-2.2c-0.3-0.9-0.4-1.6-0.5-2.1c-0.1-0.8-0.1-0.8-0.3-2.5c-0.1-1.3-0.2-1.6-0.1-1.6
			c0.2-0.1,0.8,0.9,1.5,2.1c0.7,1.2,1,1.8,1.4,2.6c0.5,1.2,0.7,2.2,0.9,3.5c0.4,2.3,0.2,2.3,0.5,4c0.2,0.7,0.4,1.9,1.1,3.3
			c0.6,1.3,1,1.6,1.2,2.6c0.1,0.7,0.1,1.2,0.1,2.4c-0.1,1.5-0.2,1.5-0.3,3.3c0,0-0.1,2,0.4,3.7c0,0.1,0.1,0.3,0.2,0.5
			c0.1,0.1,0.3,0.4,0.8,0.7c0.2,0.1,0.4,0.2,1.2,0.4c0.5,0.1,1.1,0.2,1.6,0.2c0.7,0.1,1.3,0.1,1.6,0.1c0.6,0,0.9,0,1.5,0
			c0.8,0,1.2,0,1.7-0.1c0.8-0.1,0.8-0.2,1.4-0.2c0.7-0.1,0.7,0,1.8,0c0.9,0,1-0.1,1.6,0c0.5,0.1,0.6,0.1,1,0.1c0.5,0,0.6,0,1.1,0
			c0.5,0,0.6,0.1,0.7,0c0.2-0.2,0-0.6-0.1-1.1c-0.1-0.4,0-0.2-0.1-1.9c-0.1-1.1-0.1-1.1-0.2-2.5c-0.1-1.5-0.2-2.9-0.2-2.9
			c-0.1-1.3-0.1-1.6-0.2-2c-0.2-0.7-0.6-1.3-1-1.8c-0.7-1.1-1-1.1-1.4-1.8c-0.7-1.1-0.8-2.1-1-3.7c-0.2-1.6,0-1.7-0.3-2.7
			c-0.1-0.5-0.4-1.4-1.1-2.3c-0.6-0.8-0.9-0.7-1.3-1.4c-0.5-0.8-0.5-1.7-0.5-2c0-1.3,0.5-1.6,0.7-2.8c0.2-1.1,0.1-2-0.3-3.4
			c-0.3-1.4-0.8-2.5-1.8-4.6c-1.2-2.4-1.3-2.2-1.8-3.5c-0.6-1.5-0.6-2.1-1.2-3.4c-0.6-1.2-1.3-2-1.6-2.4c-0.6-0.7-1.3-1.2-2.6-2.2
			c-0.8-0.6-1.9-1.4-3.5-2.5c-1.7-1.1-1.5-0.8-2.6-1.5c-1.5-1-2-1.7-2.7-1.5c-0.2,0.1-0.4,0.2-1,1.3c-1,1.7-0.9,2.3-1.5,3.1
			c-0.7,0.9-1.2,0.8-2.5,1.8c-1.7,1.2-1.8,2.1-3.1,3.4c-1.6,1.6-2.2,1-5,2.7c-2.8,1.7-2.4,2.4-6.1,5c-1.6,1.1-2,1.2-3,2.2
			c-1.1,1-1.4,1.7-2.3,1.9c-1,0.2-1.9-0.5-2.5-0.8c-1.2-0.8-1.5-1.7-2.2-2.6c-0.7-0.9-0.8-0.3-3-1.9"/>
	</g>
</g>
<g id="FigureA">
	<path class="st4" d="M239.2,43.1c0-1.5,0.3-1.8,0-2.4c-0.4-0.7-1.3-1-1.6-1.1c-0.3-0.1-1-0.2-3.3,0.4c-1.6,0.4-1.6,0.6-2.5,0.7
		c-1.7,0.3-1.9-0.2-2.9,0.2c-1.2,0.4-1.2,1.1-2.7,2c-0.8,0.5-1.4,0.7-2.1,0.9c-2.8,0.9-3.6,0.2-5,1.3c-0.4,0.3-1.1,0.9-1.8,1.7
		c-0.3,0.4-0.4,0.5-0.8,1c-0.2,0.2-0.7,0.8-1.5,1.5c-0.9,0.7-1.3,0.9-2.8,1.9c-1.8,1.2-1.7,1.3-3,2.1c-1.1,0.7-2.2,1.3-2.3,1.4
		c-0.5,0.2-1.4,0.6-2,0.9c-1.4,0.6-1.3,0.6-1.8,0.8c-0.8,0.3-1.3,0.4-2.7,0.7c-1.6,0.3-2.4,0.5-3.1,0.7c-0.6,0.2-0.6,0.2-3.4,1.3
		c-1.8,0.7-2,0.8-2.4,0.8c-0.7,0.1-0.8,0-3,0c-0.6,0-0.1,0-2.9,0c-1.5,0-1.7,0-2.1,0.1c-0.6,0.2-1.1,0.5-2.2,1.2
		c-0.9,0.6-1,0.8-2.1,1.5c-1,0.6-1.4,1-1.9,1.2c-1.2,0.6-2.3,0.6-3.2,0.6c0,0-1.9,0.3-5.5,1c-5.3,1-6,1.2-6.7,1.5
		c-2,0.8-3.2,1.3-3.2,1.3c-2.2,1-3.1,1.5-3.5,1.2c-0.5-0.4-0.2-1.5,0-2.5c0.1-0.6,0.3-1.1,1.5-3.5c1-2,1.3-2.5,1.5-2.7
		c0.5-0.8,0.9-1.4,1.6-2c1-0.9,1.4-0.6,2.5-1.5c0.9-0.6,0.9-0.9,2.5-2.5c1.4-1.4,1.4-1.2,2.4-2.2c1.4-1.5,1.3-1.8,2.5-3.1
		c0.8-0.8,0.8-0.6,2.2-1.8c0.4-0.3,1-1,2.3-2.3c1.2-1.2,1.3-1.3,1.5-1.5c0.4-0.6,0.8-1.2,1.5-2.4c0.7-1.3,0.6-1.3,1.1-2
		c0.6-1,1.2-1.6,1.8-2.4c0.9-1,1.6-1.6,1.8-1.8c0.7-0.6,1-0.9,1.6-1.2c1-0.6,1.9-0.8,2.7-1c1.8-0.4,2.2-0.1,3.1-0.7
		c0.3-0.2,0.9-0.6,1.2-1.4c0.2-0.7,0-1.3-0.2-1.7c-0.3-0.7-0.6-0.9-1.2-1.7c-0.5-0.6-0.9-1.1-1.6-2.3c-0.9-1.3-0.9-1.4-1.4-2.2
		c-0.7-0.9-0.8-0.9-1.5-1.8c-0.5-0.7-0.5-0.8-1.5-2.3c-0.7-1-1.1-1.7-1.6-2.5c-1.2-1.7-1.4-1.9-1.6-2c-0.5-0.3-1.1-0.6-2.2-1
		c-0.3-0.1-0.8-0.3-1.5-0.3c-0.9-0.1-1.1,0.1-1.2,0.2c-0.4,0.3-0.4,0.8-0.4,0.9c-0.1,0.5,0.2,0.9,0.4,1.3c0.2,0.3,0.3,0.4,0.9,1
		c0.6,0.6,0.8,0.9,1.1,1.2c0.5,0.7,0.7,1.3,0.8,1.6c0.2,0.5,0.3,1.1,0.3,2.4c0,0.8-0.1,1.4-0.4,3.5c-0.4,2.7-0.5,2.9-0.6,3.3
		c-0.1,0.3-0.5,1.4-1.5,2.7c-0.2,0.3-0.5,0.6-0.5,0.6c-0.5,0.6-0.9,1-1.1,1.1c-0.9,0.7-1.7,1.5-2.6,2.2c0,0-0.5,0.4-1.7,1.5
		c-1.8,1.5-2.3,2.1-3.9,3.6c-2.9,2.7-2.9,2.3-4.7,4.1c-0.9,0.9-1.5,1.6-2.7,2.7c-0.8,0.7-1.4,1.3-2.3,2c-2.1,1.6-2.5,1.3-3.3,2.3
		c-0.4,0.6-0.3,0.6-1.4,3.1c-0.6,1.3-0.8,1.9-1.1,2.3c-0.9,1.4-1.6,1.6-3.4,3.1c-0.5,0.4-2,1.8-3.6,3.9c-1,1.3-1.6,2.2-2.2,3.5
		c-0.5,1.2-0.4,1.5-1,2.3c-0.7,1.1-1.5,1.5-2.3,2.2c-1.9,1.5-1.5,2-3.4,3.7c-1.8,1.6-2.3,1.3-5,3.5c-1.5,1.3-2,1.9-2.3,2.5
		c-0.7,1.3-0.4,1.8-1.1,3c-0.8,1.4-1.5,1.3-2.5,2.6c-0.6,0.8-0.9,2.2-1.5,4.9c-0.4,2-0.7,2.9-0.8,4.4c-0.2,2.1-0.1,2.4-0.4,3.8
		c-0.3,1.4-0.6,1.7-0.8,3c-0.2,1.1-0.1,2,0,2.9c0.1,1,0.2,2.1,0.7,3.4c0.5,1.3,0.7,1.1,1.2,2.5c0.7,1.7,0.3,2,1,3.3
		c0.6,1.2,1.5,2,1.9,2.3c0.9,0.8,1.4,0.8,2.5,1.8c0.6,0.6,1,0.9,1.4,1.5c0.6,1.1,0.7,2.2,0.7,3.1c0,0.5,0,1.3-0.3,2.3
		c-0.4,1.2-0.7,1.2-1.2,2.6c-0.4,1.1-0.2,1.2-0.7,2.5c-0.2,0.7-0.5,1.1-0.8,1.8c-0.4,0.8-1,1.9-1.9,3.1c-1,1.4-1.1,1-1.9,2.2
		c-0.8,1.2-1.3,2.3-1.8,3.4c-0.3,0.8-0.6,1.4-0.8,2.3c-0.1,0.5-0.3,1.2-0.4,3.1c-0.1,1.5-0.2,2.6-0.1,4c0.1,2.3,0.4,2.4,0.5,4.8
		c0.2,2.8,0,4.9-0.1,5.6c-0.3,2.2-0.8,3.8-1.1,4.8c-0.6,1.8-0.8,2.7-1.5,3.8c-0.7,1.1-1.1,1.4-1.6,2.7c-0.5,1.1-0.7,2-0.8,2.5
		c-0.2,0.9-0.3,1.5-0.4,2.5c-0.2,1.5-0.2,2.7-0.3,3.5c-0.1,2,0,2-0.1,2.7c-0.2,1-0.5,1.3-0.5,2.3c0,0.6-0.1,1.2,0.1,1.9
		c0.2,0.6,0.4,0.6,1,1.6c0.7,1.2,0.6,1.5,1.1,1.9c0.1,0.1,0.7,0.6,1.4,0.5c0.4,0,0.7-0.3,1.3-0.7c0.7-0.6,0.7-0.6,1.1-0.9
		c0.8-0.5,1.1-0.2,1.6-0.6c0.4-0.3,0.6-0.7,0.8-1.3c0.3-0.7,0.4-1.3,0.5-1.7c0.1-0.5,0.1-0.9,0.1-1.5c0-1.2,0-1.5,0.2-1.7
		c0.2-0.2,0.6-0.3,1.3-0.4c0.9-0.1,1.1,0,1.3-0.2c0.3-0.3,0.1-0.8,0.1-1.8c0-1,0.2-1,0.2-2c0-0.8-0.1-1.5-0.4-2.7
		c-0.2-1-0.4-1.7-0.5-1.9c-0.3-1.1-0.4-1.1-0.5-1.7c-0.2-0.7-0.2-1.3-0.2-2.5c0-1.3,0.1-2.3,0.1-2.5c0.1-1.3,0.3-2.3,0.5-3.1
		c0.3-1.6,0.4-1.5,0.6-2.9c0.1-0.7,0.2-1.1,0.4-1.8c0.2-0.8,0.4-0.9,0.5-1.5c0.2-0.7,0.2-1,0.4-2.8c0-0.5,0.1-1.3,0.3-2.7
		c0.2-2.2,0.2-2,0.3-2.6c0.1-1,0.1-1.2,0.2-1.9c0.2-0.9,0.4-1.5,0.5-1.7c0.3-0.7,0.4-0.8,0.8-1.7c0.8-1.8,0.6-1.9,1.2-2.8
		c0.5-0.8,0.8-0.7,1.3-1.5c0.1-0.1,0.3-0.6,0.7-1.5c0.4-0.8,0.4-1,0.6-1.2c0.2-0.2,0.3-0.3,1.2-0.8c1.3-0.8,1.4-0.8,1.6-1
		c0.3-0.3,0.7-0.6,1.1-1.2c0.4-0.6,0.5-1.2,0.5-1.5c0.1-0.5,0.1-0.7,0.1-1c0-0.3-0.1-0.5,0-0.8c0,0,0.2-0.3,0.5-0.4
		c0.3-0.1,0.5,0.1,0.6,0.2c0.2,0.2,0.2,0.4,0.4,0.8c0.1,0.3,0.2,0.6,0.5,1.3c0.2,0.5,0.4,0.8,0.5,1c0.5,0.7,0.7,0.6,0.9,1.1
		c0.1,0.2,0.1,0.7,0.1,1.6c0,0.6,0,0.7,0,1.3c0,1,0,1.4,0.1,1.7c0.2,0.7,0.7,1.2,0.8,1.4c0.5,0.5,1,0.7,1.5,0.9
		c0.6,0.2,0.9,0.2,1.4,0.6c0.3,0.2,0.6,0.4,0.7,0.6c0.2,0.4,0,0.6,0.2,0.9c0.2,0.2,0.5,0.3,0.6,0.4c1.8,0.5,1.1,0.5,2.3,0.6
		c0.5,0.1,1.7,0.2,3.2,0.2c1,0,1.4,0,2-0.2c0.4-0.1,0.9-0.4,1.7-1c0.5-0.3,0.8-0.5,1.3-0.9c0.3-0.3,0.7-0.6,1.1-1
		c0.3-0.3,0.7-0.9,1.1-1.7c0.3-0.8,0.4-1.5,0.4-2.3c0-0.5,0.1-1.1-0.1-1.8c-0.1-0.6-0.3-1.1-0.5-1.5c-0.2-0.5-0.4-1-0.7-1.5
		c-0.4-0.5-0.7-0.9-1.4-1.5c-0.6-0.6-1-0.9-1.4-1.1c-0.2-0.1-0.9-0.4-1.8-0.4c-0.6,0-0.6,0.1-1.4,0.2c-0.5,0-0.4,0-1.7,0
		c-0.8,0-1,0-1.3-0.1c-0.5-0.3-0.6-0.7-0.6-0.8c-0.1-0.4,0-0.4,0-1.3c0-0.7-0.1-0.9,0.1-1.2c0.1-0.3,0.3-0.4,0.5-0.5
		c0.4-0.3,0.7-0.3,1-0.4c0.8-0.2,0.8-0.8,1.7-1.5c0.6-0.4,0.6-0.2,1.9-0.7c0.6-0.2,1.6-0.6,2.6-1.5c0.3-0.3,0.8-0.7,1.3-1.4
		c0.5-0.7,0.7-1.3,0.8-1.4c0.2-0.5,0.1-0.5,0.4-1.5c0.2-0.9,0.3-0.9,0.4-1.4c0.1-0.5,0.2-0.9,0.3-1.7c0.2-1.2,0.1-1.3,0.2-2
		c0.2-1,0.3-1,0.4-1.9c0-0.2,0.1-0.6,0.2-2.8c0.1-1.3,0-1.4,0.1-2c0.1-1.7,0.3-2.2,0.4-2.4c0.1-0.3,0.3-0.9,0.7-1.5
		c0.5-0.7,0.7-0.8,0.8-1.3c0.2-0.8-0.2-1.5-0.3-1.6c-0.3-0.6-0.7-0.6-1.4-1.2c-0.4-0.3-0.4-0.4-1.8-2c-1.1-1.2-1-1.1-1.4-1.6
		c-0.9-1-1.3-1.6-1.7-2.2c-0.6-1-0.4-1.4-1-2c-0.2-0.3-0.5-0.5-0.9-1c-0.2-0.4-0.4-0.7-0.4-1c0-0.4,0.3-0.7,0.5-1.1
		c0.4-0.5,0.8-0.8,0.9-0.8c0.1-0.1,0.5-0.3,1.4-0.5c0.6-0.1,1-0.2,1.6-0.2c0.9-0.1,0.7,0,1.6-0.1c1-0.1,1.3-0.2,1.6,0
		c0.2,0.1,0.3,0.3,0.6,0.6c0.2,0.2,0.5,0.8,0.7,1.6c0,0.1,0.2,0.8,0,1.6c-0.1,0.7-0.3,0.7-0.6,1.7c0,0,0,0.1-0.1,0.2
		c-0.2,0.7-0.3,1.5-0.3,1.5c-0.2,1.5,0.2,1.9-0.1,2.3c-0.4,0.5-1.2,0.3-1.3,0.6c0,0.1,0.1,0.2,0.3,0.7c0.1,0.3,0.1,0.4,0.2,0.5
		c0.1,0.1,0.2,0.2,0.6,0.4c0.5,0.2,0.6,0.3,1,0.4c0.4,0.2,0.4,0.2,0.7,0.3c0.5,0.2,0.7,0.3,0.8,0.2c0.2-0.1,0.1-0.5,0.1-1.8
		c0-0.8,0-0.9,0.1-1.1c0-0.1,0.1-0.2,0.8-1c0.3-0.3,0.4-0.4,0.7-0.7c0.7-0.7,0.7-0.8,0.8-0.9c0.1-0.1,0.3-0.4,0.4-1
		c0.2-0.8,0.1-1.1,0.1-2.3c0-1.2,0.1-1.4,0-2c-0.1-0.3-0.1-0.7-0.4-1.2c-0.2-0.4-0.4-0.5-0.5-0.9c-0.1-0.2-0.2-0.6-0.2-1.2
		c0-0.7,0.4-1.1,0.5-1.4c0.3-0.4,0.7-0.7,1.4-1.2c0.7-0.4,1.1-0.7,1.8-1c0.6-0.2,0.6-0.2,1.8-0.5c0.9-0.3,1.4-0.4,1.9-0.7
		c1.1-0.5,1.8-1.2,2-1.3c0.6-0.5,0.6-0.7,1.3-1.4c0.6-0.5,1-0.8,1.4-1.1c1-0.7,1.6-1.4,2.7-2.6c1.5-1.7,1.2-1.7,2.2-2.6
		c0.6-0.5,1.2-1,2.5-1.9c1.4-1,1-0.6,1.7-1.2c0.5-0.4,0.7-0.6,1.2-0.7c0.4-0.1,0.8-0.1,1.3-0.1c0.8,0.1,1.5,0.1,2.3,0.1
		c1.2,0.1,1.1,0,2.8,0c2,0.1,2.2,0.2,3.1,0c0.6-0.2,0.5-0.3,1.6-0.7c1-0.4,1.2-0.3,2-0.6c0.7-0.3,0.8-0.4,2-1
		c1.6-0.8,1.5-0.6,2.2-1.1c0.7-0.4,0.7-0.6,2.5-2c1.5-1.2,1.3-1,1.7-1.4c1.3-1.2,1.2-1.6,2.4-2.7c0.5-0.5,0.6-0.4,1.6-1.2
		c0.6-0.5,1.2-1,1.6-1.4c0.9-0.8,0.9-0.9,1.4-1.3c0.3-0.3,0.8-0.7,1.4-1.1c0.6-0.4,1.1-0.8,1.9-1.1c0.7-0.3,0.8-0.2,1.5-0.5
		c0.8-0.3,0.8-0.5,1.4-0.7c0.6-0.2,1.1-0.3,2-0.5c0.6-0.1,1.4-0.2,2.5-0.3c1.2-0.1,1.3,0,2.9,0c1.1,0,1.2-0.1,3.3-0.1
		c2.2-0.1,2,0,2.2-0.1c0.4-0.1,3.6-0.5,4.4-2.5c0.2-0.5,0.2-1,0.2-2.2C239.3,44.4,239.1,44.3,239.2,43.1z M152,105.4
		c0,0.1-0.1,0.5-0.4,1.3c-0.2,0.5-0.3,1-0.6,1.6c-0.4,0.9-0.6,1.4-1.1,1.9c0,0,0,0-0.9,0.8c-0.3,0.3-0.5,0.4-0.8,0.5
		c-0.2,0.1-0.4,0.1-0.7,0.1c-0.3-0.1-0.5-0.2-0.8-0.5c-0.6-0.6-0.9-1.2-1-1.4c-0.5-0.9-0.8-1.7-0.9-1.9c-0.2-0.6-0.4-1-0.5-1.7
		c-0.1-0.6-0.1-1.1-0.2-2.1c0-0.6,0-1.1,0-2c0-2,0.1-2.3,0.2-2.6c0.2-0.7,0.5-1.2,0.5-1.4c0.1-0.2,0.3-0.5,0.6-1
		c0.5-0.8,0.7-1,1-1.2c0.3-0.3,0.6-0.5,0.9-0.5c0.3,0,0.5,0.4,0.6,0.6c0.6,1,0.6,0.6,1.5,1.9c0.5,0.8,0.3,0.7,1.3,2.5
		c0.6,1.1,0.9,1.5,1.1,2.4c0.2,0.6,0.2,1.1,0.2,1.4C152.1,104.3,152.1,104.8,152,105.4z"/>
</g>
</svg>
