<?xml version="1.0" encoding="UTF-8"?><svg id="JohnDanielsA" xmlns="http://www.w3.org/2000/svg" viewBox="0 0 250.22 397.92"><path id="FigureB" d="M131.28,302.32c-2.31-.03-3.7-.05-5.04,.13-.31,.05-.71,.11-1.61,.23,0,0-.03,0-.04,0-.83,.1-1.04,.13-1.16,.15-.02,0-.03,0-.05,0s-.04,0-.07,.02c-.12,.04-.23,.08-.33,.13-.45,.2-.65,.44-1.35,.76-.06,.03-.12,.05-.18,.08-.55,.23-.82,.34-1.05,.3-.04,0-.08-.02-.11-.04-.08-.03-.14-.08-.2-.14-.15-.12-.28-.28-.42-.52,0,0-.02-.02-.02-.03-.2-.33-.46-.79-.93-1.32-.21-.24-.5-.51-1.11-1.07-.74-.68-1.11-1.02-1.34-1.17-.82-.51-1.63-.63-2.6-.77-.81-.12-1.44-.12-1.6-.12-1.97,.03-3.53,.69-4.82,1.25-1.69,.74-1.87,1.09-3.13,1.36-.73,.16-1.02,.11-1.82,.37-.31,.1-1.2,.41-2.25,1.12-.71,.48-.59,.54-1.31,1-.81,.53-1.53,.82-1.92,.97-.23,.09-.79,.3-1.54,.5-1.04,.27-1.1,.14-2.02,.36-.45,.12-.84,.24-1.15,.34,0,0-.03,0-.04,0-.37,.13-.62,.21-.76,.17-.04,0-.07-.02-.09-.05-.06-.09,0-.22,.05-.34,.21-.56-.13-.13,.36-1.71,.39-1.31,.6-1.54,.62-2.23,.02-.65-.23-.62-.27-1.48-.03-.6,.07-.8,.08-1.55,0-.62-.05-.77-.08-1.39-.03-.62-.09-1.78,.27-3.09,.17-.6,.38-1.07,.61-1.6,.49-1.12,.69-1.2,.87-1.88,.18-.7-.02-.66,.19-1.84,.14-.81,.21-1.21,.41-1.57,.17-.3,.35-.49,.4-.88,.04-.29-.02-.43-.07-.81-.07-.53-.03-.93,0-1.34,.05-.49,.09-.97,.34-1.53,.18-.39,.37-.65,.54-.88,.44-.59,.83-.88,1.27-1.27,.7-.63,1.14-1.15,1.75-1.88,.78-.93,.56-1.27,1.15-1.74,.19-.15,.49-.35,.5-.67,0-.25-.16-.4-.3-.61-.4-.52-.2-.85-.54-1.41-.68-1.1-1.24-1.07-1.55-1.94-.06-.18-.08-.54-.13-1.28-.06-.8-.02-1.08-.07-2.08-.05-.81-.1-1.19-.37-1.53-.18-.23-.36-.33-.51-.44-.88-.58-1.65-1.46-2.06-2.2-.1-.16-.44-.82-.55-1.74-.13-1.12,.17-2.02,.32-2.44,.11-.31,.22-.54,.29-.68,.37-.76,.75-1.23,1.34-1.95,.91-1.09,1.67-1.75,1.86-1.91s.45-.39,.84-.67c.5-.36,1.25-.91,2.33-1.29,.27-.09,.69-.24,1.27-.33,.77-.12,1.5-.04,2.91,.12,.59,.06,.99,.11,1.55,.2,.33,.06,1.23,.22,2.42,.54,.62,.17,1.54,.42,2.63,.87,1.05,.43,2.37,.98,3.76,2.12,.92,.74,1.63,1.34,2.06,2.41,.2,.49,.48,1.19,.36,2.06-.11,.78-.49,1.25-.46,2.32,0,.26,.03,.44,.07,.67,.19,1.32,.56,1.51,.53,2.28-.02,.6-.26,.58-.27,1.27,0,.33-.02,1.07,.4,1.41,.4,.31,.91,.02,1.75-.07,.96-.09,1.34,.19,2.51,.43,2.5,.51,3.05-.28,5.7,.3,.88,.2,1.44,.42,1.79,.58,.72,.33,1.08,.62,2.11,1.35,2.12,1.5,2.03,1.29,2.65,1.83,.87,.77,.7,.89,1.97,2.27,1.34,1.48,1.55,1.38,2.61,2.6,.98,1.13,.98,1.44,1.98,2.68,1.08,1.35,1.83,1.92,2.6,2.69,3.37,3.34,4.48,7.79,4.57,8.17,.51,2.13,.13,2.64,.9,4.69,.58,1.56,1.12,2.1,1.32,3.57,.12,.89-.02,1.05-.3,3.56-.19,1.75-.26,3.05-.39,5.29-.1,1.46-.14,2.2-.14,2.94,0,1.95,.21,2.5,.36,4.64,.11,1.6,0,1.2,.09,4.87,.03,.98,.02,.51,.18,4.78,.1,2.49,.11,2.81,.19,3.53,.18,1.65,.36,1.89,.67,3.8,.23,1.4,.49,3.06,.49,5.14,0,1.71-.19,1.75-.23,4.38-.02,1.64,0,2.9,0,2.9,.04,2.23,.14,2.38,0,3.09-.26,1.28-.69,1.31-1.21,2.94-.41,1.32-.49,2.39-.53,3.09-.09,1.35,.07,2.08,.27,3.89,0,0,.2,1.74,.36,4.4,.17,2.9,.11,5.46,.05,7.93-.06,2.43-.13,2.76,0,3.82,.21,1.67,.56,2.21,.4,3.62-.11,.91-.31,1.17-.34,2.27-.03,.95,.12,1.25-.14,1.74-.06,.12-.18,.31-1.34,1.28-.84,.69-1.03,.79-1.08,1.07-.05,.3,.1,.55,.74,1.34,1.17,1.44,1.4,1.51,1.75,2.14,.2,.36,.54,1.01,.53,1.88,0,.24,0,1.46-.8,2.14-.42,.35-.81,.35-2.7,.4-3.04,.07-3.35,.13-4.31,0-.85-.12-1.34-.27-2.28-.54-1.19-.34-1.36-.51-1.48-.67-.41-.58,.09-1.08,0-2.41-.06-.86-.33-1.47-.81-2.55-.38-.86-.59-1.35-1.08-1.88-.53-.59-.71-.48-1.48-1.2-.44-.43-.98-.93-1.34-1.74-.28-.64-.34-1.18-.4-1.75-.08-.73-.02-1.08,0-1.87,.05-1.55-.15-1.52-.13-3.09,0-1.42,.17-1.47,.13-2.68-.03-1.28-.21-1.23-.27-2.41-.06-1.23,.08-2.33,.23-3.14,.06-.35,.13-.66,.18-.89,.22-1,.35-1.15,.4-1.82,0-.15,0-.3,0-.48,0-.62-.14-.93-.15-1.99,0-.4,.02-.53,.07-1.26,.02-.23,.05-.51,.07-.89,.08-1.14,.12-1.71,.13-2.27,.02-.64,0-.99-.07-2.48,0-.12,0-.23,0-.35-.02-.28-.03-.58-.05-.92-.09-1.65-.13-2.49-.14-2.81,0-.5-.02-.94-.02-1.34,0-.91,.03-1.58,.16-2.41,.19-1.16,.25-1.04,.53-2.28,.27-1.11,.11-1.25,.28-3.89,.12-1.86,.2-1.76,.27-3.22,.07-1.51,.12-2.44,0-3.61-.24-2.37-.82-2.53-1.08-5.1-.08-.81-.25-1.6-.27-2.41-.04-1.02,.05-1.51-.28-1.74-.41-.31-1.24,.02-1.75,.39-.59,.46-.59,.89-1.2,1.88-.54,.88-1.37,1.86-1.62,1.74-.16-.08,.11-.54,.04-1.57-.04-.5-.12-.7-.16-1.39-.02-.36-.01-.66,0-.86,.02-.11,.04-.22,.05-.33,.04-.33,.05-.64,.04-.91,0,0,0-.02,0-.03,0,0-.03-.19-.08-.4-.04-.15-.13-.51-.27-.98,0,0,0-.02,0-.03-.11-.34-.26-.7-.46-1.06-.44-.78-.97-1.22-1.82-1.95-1-.86-1.85-1.36-2.04-1.53-.04-.03-.05-.06-.04-.07,0-.02,.05-.02,.12,0,.05,.02,.12,.05,.21,.09,.25,.12,.63,.29,1.15,.43,.11,.03,.29,.08,.6,.14-.04-.08-.27-.59-.08-.76,.11-.1,.31-.04,.59,.04,.41,.11,.84,.15,1.24,.29,.92,.31,.95,.09,2.58,.47,.6,.14,1.14,.3,1.93,.27,.16,0,.29-.02,.38-.03,0,0,.03,0,.04,0,.11,0,.22-.02,.33-.03,.12,0,.24-.02,.36-.03,1.24-.11,1.86-.17,2.43-.35,.07-.02,.15-.05,.24-.08,.59-.2,1.5-.56,2.36-1.4,.19-.19,.48-.47,.76-.87,0,0,.02-.03,.03-.04,.27-.38,.51-.88,.64-1.46,0-.04,.02-.08,.02-.12,0-.05,0-.09,0-.14,.02-.12,.02-.27,.03-.43,0-.17,0-.36,.02-.6,0-.23,0-.48,0-.77,0-.32,0-.61,0-.87,0-.18,0-.36,0-.57,0-.53,0-1-.03-1.43-.02-.78-.06-1.39-.15-1.97-.1-.66-.27-1.78-.83-2.91-.02-.04-.03-.08-.05-.12-.03-.07-.06-.12-.08-.16-.03-.04-.05-.08-.07-.12-.3-.53-.69-1.05-1.21-1.51-.8-.71-1.67-1.06-2.02-1.21-.94-.39-1.82-.53-2.53-.57m-11.5,37.82c.01-.72,.14-.93,.19-1.7,.02-.25,.02-.45,.02-.77,0-.44-.01-.77-.02-.87,0-.22-.03-.64-.09-1.16-.08-.65-.18-1.15-.27-1.59-.16-.75-.21-.79-.29-1.27-.06-.37-.08-.66-.11-1.24-.05-.91-.02-1.07-.07-1.98-.03-.49-.06-.8-.07-.9-.06-.59-.1-.88-.17-1.19-.23-.95-.72-1.61-.92-1.87-.26-.35-.52-.6-.72-.77l-.71-.61c-.38-.29-.71-.5-.95-.66-.31-.19-.57-.34-.88-.51-.2-.11-.43-.24-.72-.39-.78-.4-.92-.41-1.22-.63-.17-.13-.42-.35-.67-.7-.02,.17-.03,.4,.01,.67,.05,.3,.14,.54,.21,.71-.1,.16-.15,.38-.17,.67-.05,.78,.14,1.94,.35,2.81,.02,.1,.04,.2,.07,.31,.15,.52,.32,.97,.45,1.34,.05,.13,.12,.27,.2,.44,.06,.15,.14,.32,.24,.53,.03,.07,.07,.15,.11,.24,.45,.89,.77,1.31,1.03,2.13,0,.04,.03,.09,.05,.14,.03,.08,.05,.15,.06,.22,.08,.34,.12,.64,.16,1.12,0,.08,0,.15,0,.23,.02,.13,.03,.29,.04,.45,.12,1.63,.15,1.9,.17,2.01,0,.04,0,.04,.01,.08,.18,1.09,.06,2.04,.02,2.46-.04,.41,.02,.14,.16,2.68,.07,1.28,.1,1.93,.09,2.37-.06,1.68-.33,1.56-.25,2.59,0,0,.1,1.19-.18,1.71-.01,.02-.09,.18-.19,.4-.03,.08-.07,.18-.11,.31-.32,1.09-.5,1.49-.73,2.06,0,0,0,0,0,.02-.13,.34-.25,.54-.6,1.14-.85,1.47-.34,2.31-.92,4.56-.17,.68-.27,.89-.34,1.47-.1,.88,0,1.49,.06,2.14,.07,.7,.13,1.7,.05,2.95,.14,1.33,0,2.37-.15,3.05-.13,.63-.31,1.11-.65,2.07-.55,1.54-.75,1.73-.97,2.67-.2,.84-.34,1.43-.2,2.14,.22,1.16,1.16,2.5,1.77,2.39,1.57-.3,.04-10.1,2.55-13.54,1.34-1.84,1.57-2.52,2.02-3.89,.55-1.64,.21-1.71,.8-3.75,.53-1.79,.83-1.84,1.35-3.48,.39-1.25,.52-2.44,.8-4.83,.52-4.52,.27-4.71,.28-4.96Zm-10.85,42.3c.4-1.22,.89-2.66,.49-4.11h0c-.02-.11-.05-.2-.08-.3-.24-.67-.61-1.15-.99-1.64-.07-.1-.25-.31-.53-.61-.02-.02-.04-.05-.06-.07-.31-.32-.74-.72-1.29-1.13-.03-.02-.06-.05-.09-.07-.16-.11-.3-.19-.41-.27,0,0-.02-.02-.03-.02-.49-.32-.82-.45-1.31-.75-.41-.25-.61-.39-.72-.5-.33-.32-.6-.84-.68-2.57-.04-.77,0-1.28,0-1.86,.02-.73,.04-1.79,0-3.09,0-.05,0-.09-.02-.14-.03-.21-.06-.42-.1-.66-.03-.2-.07-.39-.1-.57-.11-.59-.27-1.3-.58-2.11-.06-.18-.13-.34-.2-.48-.07-.15-.13-.27-.17-.34-.35-.66-.97-1.64-1.24-2.39-.14-.38-.28-.94-.25-1.7,.19-.54,.24-.99,.25-1.29,.03-.77-.16-1.17-.13-2.1,0-.2,.02-.57,.15-1.01,.04-.13,.08-.24,.11-.31,0,0,0-.03,0-.04,.09-.28,.33-.85,.8-1.98,.06-.15,.13-.31,.2-.46,0-.02,0-.04,.02-.06,.06-.13,.11-.26,.16-.36,.05-.12,.1-.23,.14-.32,.1-.21,.18-.37,.25-.53,.05-.11,.1-.21,.15-.3,.08-.16,.13-.27,.14-.3,.17-.37,.69-1.27,.91-1.68,.31-.6,.46-1.1,.56-1.43,.09-.31,.27-.99,.31-2.86,.01-.74,0-1.69-.07-2.81v-.02c-.04-.07-.08-.13-.13-.19-.11-.13-.22-.26-.55-.22-.14,.02-.49,.06-.6,.22-.29,.45-.43,1.25-.8,2.62-.39,1.45-.39,.9-1.2,3.48-.77,2.41-.67,2.6-1.21,3.89-.73,1.75-.98,1.58-1.2,2.55-.1,.44-.11,.8-.12,.95-.01,1.64,.11,4.34,.11,4.34,.01,.32,.09,2.16-.27,3.2-.11,.31-.24,.6-.24,.6-.24,.51-.5,.84-1.19,2.25-.54,1.11-.99,2.2-1.89,4.38-1.18,2.88-1.28,3.35-1.34,3.67-.25,1.27-.26,2.38-.27,3.48,0,1.82,.17,2,.05,3.28-.09,.99-.21,.97-.59,2.98-.28,1.47-.44,2.31-.53,3.48-.14,1.79,.06,2.11-.27,3.22-.33,1.09-.63,1.96-.63,1.97-.37,.94-.52,1.12-.49,1.55,.07,1.04,1.12,1.73,1.21,1.79,.61,.39,.88,.22,1.79,.58,1.04,.42,.87,.73,1.71,1.07,.92,.38,1.27,.18,3.58,.27,1.57,.07,1.6,.17,2.96,.18,1.12,.02,1.93-.03,2.51-.09,1.74-.16,2.61-.24,2.91-.74,.39-.62-.29-1.1,.05-2.48,.17-.69,.39-.75,.44-1.43,.04-.44-.03-.87-.18-1.69-.16-.9-.22-.91-.27-1.35-.03-.21-.08-.82,.18-1.96,.27-1.21,.55-1.55,.9-2.6Z" style="fill:#73bf44;"/><path id="FigureA" d="M33.36,335.19c-.17-.5-.19-.97-.19-1.14,0-.43,.05-.88,.09-1.14,.09-.68,.19-.96,.03-1.11-.11-.1-.3-.08-.51-.03-.75,.17-1.34,.55-2.07,1.07-.48,.35-.48,.36-1.1,.8-.35,.25-.62,.44-.91,.64-.17,.12-.63,.44-1.3,.89-.16,.11-.73,.49-1.58,1.06-1.17,.78-1.15,.75-1.6,1.06-.76,.52-1.3,.93-1.76,1.28-1.66,1.26-1.61,1.37-2.25,1.8-1.2,.8-1.61,.58-3.31,1.29-.87,.36-1.93,1.09-4.08,2.5-1.7,1.11-2.55,1.67-3.26,2.32-1.08,.99-1.82,1.94-2.08,1.79-.17-.1,.04-.55,.09-1.52,.04-.74-.05-1.01-.09-1.7-.09-1.49,.26-1.66,.27-3.13,0-1.16-.21-2.03-.36-2.68-.36-1.48-.63-1.46-1-2.77-.32-1.13-.09-1.04-.45-4.65-.12-1.2-.2-1.69-.09-2.5,.06-.48,.15-.79,.63-2.23,.58-1.73,.87-2.6,1.18-3.39,.85-2.2,.76-1.51,1.27-2.86,.12-.31,.26-.71,.63-1.07,.4-.39,.68-.37,1-.71,.32-.35,.37-.74,.45-1.34,.11-.78,.26-1.55,.36-2.32,.13-1.01,.42-1.17,1.45-3.39,.09-.2,.84-1.83,1.54-3.75,.83-2.28,.58-2.22,1.18-3.57,.63-1.43,.79-1.23,2.17-3.84,.74-1.39,.87-1.77,1.45-2.59,.23-.32,.91-1.24,1.9-2.14,1.39-1.25,2.34-1.5,4.17-2.5,.79-.43,.47-.31,5.07-3.48,3.41-2.36,3.89-2.63,4.53-2.95,.95-.47,2.53-1.24,4.71-1.7,2.41-.5,4.71-.63,4.71-.63,.92-.05,1.78-.05,2.9-.45,1.01-.36,1.7-.85,1.99-1.07,.4-.3,1.18-.97,1.81-2.05,.38-.65,.68-1.18,.63-1.88-.03-.48-.21-.68-.54-1.43-.35-.8-.52-1.41-.72-2.14-.23-.81-.48-1.73-.5-2.95-.02-1.49,.33-2.58,.41-2.81,.38-1.13,.91-1.92,1.16-2.24,.46-.62,1.09-1.48,2.24-2.04,1.05-.52,2-.51,3.23-.5,.61,0,1.76,.02,3.16,.46,1.97,.61,3.22,1.65,3.81,2.14,.7,.6,1.14,1.11,1.63,1.69,.85,1,1.55,1.83,2.07,3.08,.23,.56,.38,1.3,.67,2.79,.16,.83,.26,1.55,.16,2.36-.06,.45-.17,.84-.18,.89-.16,.59-.31,.77-.45,1.16-.28,.76-.01,.84-.23,2.08-.13,.77-.24,.77-.34,1.54-.03,.24-.06,.52-.14,1.14-.09,.67-.12,.86-.27,1.07-.15,.21-.33,.32-.68,.54-.23,.14-.51,.31-.88,.4-.15,.04-.41,.08-1.16,0-.39-.04-.84-.1-1.5-.27-.76-.2-.77-.29-1.63-.54-1.1-.31-1.4-.25-1.56-.2-.48,.15-.75,.5-.88,.67-.41,.52-.33,.89-.61,1.74-.2,.6-.28,.55-.82,1.68-.52,1.08-.77,1.63-.82,1.94-.14,1.04,.47,1.87,1.66,3.48,.73,.99,1.25,1.69,2.21,2.38,.79,.57,1.23,.65,1.94,1.37,.32,.33,.78,.87,1.16,1.64,.11,.23,.39,.84,.58,2.07,.17,1.06,.07,1.35,.13,3.46,.03,1.08,.08,1.91,.14,2.61,.05,.6,.12,1.33,.27,2.21,.11,.67,.21,1.07,.34,1.47,.14,.45,.27,.85,.54,1.27,.26,.4,.41,.47,1.12,1.14,.87,.82,1.31,1.24,1.6,1.78,.16,.3,.37,.77,.45,1.37,.12,.85-.13,1.07-.05,1.56,.12,.7,.72,.92,2.63,2.19,1.33,.88,2.37,1.71,2.81,2.05,.64,.51,1.76,1.43,1.76,1.43,0,0-1.12,.59-2.34,.89-.64,.15-1.13,.19-1.6,.22-.78,.05-1.03-.01-2.22-.05-.93-.03-1.63-.02-2.8,0-1.31,.02-1.97,.02-1.99,.02-.67,.04-.84,.09-1.09,0-.39-.13-.93-.55-1.26-1.97-.99-1.63-1.53-2.22-1.86-2.46-.04-.03-.28-.2-.54-.49-.19-.21-.37-.42-.45-.71-.08-.29,.02-.39,.05-.8,.02-.39-.04-.68-.18-1.25-.11-.44-.16-.51-.36-1.16-.27-.87-.22-.9-.45-1.61-.13-.39-.28-.87-.54-1.43-.38-.82-.54-.84-.82-1.43-.28-.61-.36-1.16-.5-2.28-.17-1.3-.25-1.95-.18-2.23,.07-.28-.01-.44-.05-.76-.03-.31-.05-.47-.09-.51-.28-.27-1.6,.62-2.72,1.41-2.18,1.53-2.33,1.74-3.4,2.41-.74,.46-1.41,.81-2.75,1.51-2.38,1.24-2.92,1.36-3.36,2.11-.23,.39-.29,1.11-.41,2.55-.09,1.13-.1,1.86-.14,3.75-.04,1.92-.06,2.88-.07,3.08-.1,1.92-.25,2.49-.1,3.75,.09,.75,.15,1.31,.44,2.01,.44,1.06,1.11,1.62,2.17,2.68,1.73,1.72,2.59,2.58,2.85,2.81,2.95,2.69,2.95,2.44,4.76,4.15,2.67,2.52,2.75,3.14,4.37,4.02,.56,.3,1.38,.68,2.7,1.47,.86,.52,1.76,1.11,2.08,1.33,1.66,1.09,1.45,1.06,1.84,1.23,.32,.14,.55,.21,.61,.4,.13,.48-.98,1.16-1.27,1.34-.2,.12-1.23,.72-2.85,.94-.42,.05-1.13,.14-2.04,0-.91-.14-1.56-.44-2.04-.67-1.23-.58-1.13-.85-2.04-1.21-.74-.29-.89-.13-2.58-.4-1.23-.19-1.84-.29-2.45-.54-.35-.14-.63-.29-2.58-1.74-1.65-1.22-1.62-1.25-2.17-1.61-.62-.41-1.28-.77-2.58-1.47-2.12-1.15-2.09-1.05-2.72-1.47-1.05-.71-.93-.85-2.45-2.01-.29-.22-.52-.39-.71-.52-.44-.31-.59-.39-.94-.65-.24-.19-.41-.34-.52-.43-.96-.84-1.52-1.34-1.8-2.14Zm-25.76,22.31c.12,.48,.26,1,.31,1.94,.05,1.13,.17,1.53,.11,3.04-.04,1,.01,.79,0,3.13-.02,3.42-.13,2.27-.09,3.22,.04,1.05,.13,1.46-.18,1.88-.5,.65-1.24,.28-1.81,.89-.3,.32-.28,.62-.36,2.86-.08,2.29-.09,1.71-.09,2.23-.02,1.78,.11,2.06-.18,2.5-.43,.68-.97,.43-1.72,1.25-.71,.77-.88,1.69-.91,1.88-.15,.96,.22,1.32,.27,2.59,0,.13-.06,.89-.18,1.88-.07,.59-.13,.97,.09,1.16,.31,.26,.89-.08,1,.09,.11,.18-.55,.6-1,1.25-.36,.53-.31,.8-.63,3.13-.22,1.62-.33,2.07,0,2.41,.24,.26,.56,.3,1.27,.36,1.46,.13,2.2,.19,3.08,.18,.13,0,1.18,.06,3.26,.18,3.83,.22,7.09,.69,10.15,.09,.47-.09,1.26-.27,1.63-.89,.25-.41,.13-.71,0-2.32-.16-1.92-.02-1.81-.18-2.41-.29-1.05-.69-1.34-.54-2.05,.07-.36,.26-.67,.54-1.16,.26-.44,.39-.66,.63-.8,.5-.29,.15-.08,.5-.29,.13-.08,.25-.19,.27-.2,.17-.15,.67-1,.5-2.32,0-.04-.08-.4-.22-1.11-.14-.69-.17-.82-.18-.9-.06-.3-.1-.94,.54-2.41,.77-1.76,1.16-2.64,2.04-3.02,.69-.3,.91,.03,2.04-.34,.86-.28,.82-.5,1.77-.87,.46-.18,1.22-.32,2.72-.6,.51-.09,1.01-.18,1.64-.24,.61-.06,.93-.08,1.35-.03,.21,.03,.37,.06,.65,.07,.45,.01,.8-.05,.89-.07,.71-.17,.75-1.15,1.45-2.05,1.01-1.29,2.22-.92,2.58-1.97,.18-.53-.15-.54-.07-1.88,.02-.39,.1-1.1,.48-1.88,.22-.44,.34-.69,.54-.71,.36-.04,.63,.64,1.45,2.05,.69,1.2,1.04,1.81,1.36,2.59,.49,1.21,.67,2.17,.91,3.48,.4,2.22,.15,2.29,.54,3.93,.17,.72,.45,1.85,1.09,3.22,.59,1.25,.95,1.56,1.18,2.59,.14,.65,.13,1.22,.09,2.32-.05,1.5-.17,1.49-.27,3.22,0,0-.12,2,.36,3.66,.03,.1,.08,.27,.19,.45,.06,.09,.28,.44,.82,.74,.16,.09,.41,.2,1.22,.37,.54,.11,1.05,.18,1.56,.23,.71,.07,1.25,.09,1.63,.1,.55,.02,.95,0,1.5,0,.82-.01,1.24-.02,1.7-.07,.79-.08,.76-.15,1.39-.2,.68-.05,.66,.04,1.8,.03,.92,0,1.01-.06,1.56,0,.48,.05,.55,.11,1.02,.13,.55,.02,.62-.05,1.12,0,.47,.05,.6,.13,.71,.03,.2-.16,.04-.59-.07-1.11-.07-.35,0-.19-.1-1.88-.06-1.11-.08-1.07-.17-2.41-.1-1.49-.17-2.85-.17-2.85-.07-1.33-.07-1.55-.2-1.98-.22-.73-.56-1.24-.95-1.81-.73-1.07-.97-1.06-1.43-1.74-.7-1.04-.82-2.09-1.02-3.69-.19-1.56,.03-1.68-.27-2.68-.14-.46-.41-1.37-1.14-2.27-.61-.76-.92-.73-1.31-1.41-.47-.82-.48-1.64-.48-2.01,0-1.23,.49-1.62,.75-2.75,.24-1.09,.05-1.93-.27-3.35-.32-1.38-.83-2.44-1.83-4.49-1.16-2.37-1.27-2.18-1.77-3.48-.57-1.48-.58-2.11-1.22-3.35-.36-.7-.75-1.26-1.08-1.68-.12-.15-.3-.39-.55-.66-.63-.68-1.03-.85-2.48-1.89-.65-.46-1.24-.9-1.46-1.06-.14-.11-.46-.34-1.08-.81-.74-.55-.86-.64-1.1-.8-.36-.24-.68-.42-1-.6-.21-.12-.43-.24-.85-.47-.54-.3-.81-.45-1.13-.61-.82-.43-1.22-.65-1.41-.74,0,0-.45-.21-.77-.43,0,0-.14-.09-.14-.09h0s-.06,.02-.1,.04c-.49,.24-.65,.74-.91,1.19-.96,1.69-.92,2.26-1.48,3.05-.66,.92-1.16,.77-2.54,1.75-1.72,1.22-1.79,2.07-3.13,3.35-1.64,1.58-2.22,.96-5.03,2.68-2.75,1.68-2.4,2.39-6.12,4.96-1.6,1.11-2.03,1.23-2.99,2.14-1.07,1.03-1.41,1.72-2.31,1.88-1.01,.18-1.92-.45-2.45-.8-1.17-.8-1.5-1.66-2.17-2.55-.44-.57-.64-.54-1.33-.88-.24-.12-.58-.25-.99-.51-.29-.18-.5-.36-.63-.49" style="fill:#6dcef1;"/><path id="JohnDanielsB" d="M7.66,357.3c.12,.12,.24,.24,.36,.36,.31,.3,.62,.59,.93,.87-1.89,1.38-3.79,2.77-5.68,4.15v-7.52c.41-.31,.82-.63,1.23-.94,1.05,1.03,2.11,2.05,3.16,3.08Zm108.87-52.71c-.71,.39-1.14,.81-1.93,1.61-.99,1-1,1.28-2.24,2.77-1.22,1.46-1.45,1.48-2.42,2.77-.83,1.1-1.25,1.67-1.43,2.5-.19,.84,0,1.23,.18,2.77,.07,.64,.11,1.71,.18,3.84,.09,2.77,0,2.64,.09,4.2,.15,2.36,.36,2.3,.36,3.84,0,.8-.15,1.97-.45,4.29-.4,3.06-.38,2.05-.54,3.57-.11,1.08-.24,2.72-.61,2.75-.09,0-.21-.08-.32-.16-.22-.16-.26-.31-.4-.4-.16-.12-.39-.08-.84,.01,0,0-.76,.15-1.52,.53-.45,.23-.37,.29-1.2,.8-.85,.51-1.63,.89-1.75,.94-1.12,.52-1.29,.47-1.62,.8-.37,.37-.52,.82-.6,1.12-.16,1.17-.16,2.12-.14,2.79,0,0,.1,2.65-.09,4.4-.03,.29-.1,.79-.44,1.02l-.55,.29c-.72,.51-.93,.54-.93,.54-.35,.06-.69-.08-.76-.11-.27-.1-.36-.22-.51-.18-.2,.04-.2,.23-.4,.35-.22,.13-.45,.09-.81,.02-.54-.1-.54-.24-.92-.27-.47-.03-.6,.19-.85,.07-.33-.16-.21-.55-.54-.74-.24-.13-.34,.03-.79-.07-.2-.05-.23-.1-.71-.31-.61-.27-.59-.21-.69-.29-.4-.31-.11-.88-.34-1.95-.29-1.31-.64-1.44-.74-1.47-.28-.08-.54,.09-.61,.13-.59,.37-.32,1.15-.8,1.88-.4,.59-.92,.88-1.76,1.34-.25,.14-1.1,.6-2.42,.94-1.41,.36-2.54,.38-3.36,.39-.33,0-1.59,.02-3.23-.27-.64-.11-1.56-.27-2.7-.67-1.21-.43-1.33-.66-2.69-1.21-1.31-.53-2.39-.8-2.96-.93-2.21-.54-2.52-.25-3.76-.81-.48-.21-.49-.28-2.29-1.48-.59-.39-1.72-1.14-2.69-1.74-2.91-1.79-3.26-1.53-4.57-2.68-.98-.85-.7-.91-2.15-2.28-1.19-1.11-1.41-1.1-2.7-2.27-1.53-1.41-1.29-1.49-2.56-2.55-1-.84-1.45-1.04-2.42-2.01-.76-.78-1.13-1.3-1.29-1.56-.08-.13-.15-.24-.23-.39-.1-.19-.12-.26-.23-.44-.08-.14-.15-.24-.21-.32-.03-.04-.08-.12-.3-.39-.23-.29-.26-.33-.28-.42-.03-.15,.03-.22,.06-.38,.05-.28-.06-.45-.16-.75-.07-.23-.09-.51-.12-1.08,0-.11-.01-.21-.01-1.05,0-1.1,0-1.25,.1-1.48,.09-.21,.24-.46,.32-.6,.13-.22,.25-.39,.34-.51,.13-.06,.33-.14,.6-.19,.24-.04,.36-.03,1.15,0,.54,.03,.59,.03,.76,.04,.33,.04,.59,.09,.76,.13,1.08,.25,1.93,.58,1.93,.58,1.89,.72,3.94,1.17,4.31,1.25,1.21,.26,2.64,.49,4.3,.63,1.5,.13,1.81,.06,5.47,.09,2.12,0,4.25-.09,6.37,0,1.3,.05,2.47,.14,3.77-.35,.25-.1,.63-.27,1.79-.72,1.24-.49,1.46-.56,1.71-.63,.89-.24,.99-.11,2.06-.35,1.12-.25,1.69-.38,2.06-.9,.26-.35,.3-.73,.36-1.16,.07-.58-.03-.87-.18-1.87-.22-1.42-.1-1.4-.28-2.06-.07-.3-.12-.38-.71-1.7-.76-1.69-.91-2.03-.99-2.59-.08-.51-.14-.99,.09-1.52,.17-.37,.42-.65,1.25-1.22,1.18-.82,1.77-1.22,2.51-1.46,1.17-.36,1.25,0,2.78-.35,.48-.12,1.36-.33,2.33-.9,.96-.55,.96-.84,1.8-1.34,.53-.32,1.03-.49,1.75-.67,.23-.05,.48-.11,.76-.17,0,0,.03,0,.04,0,.07-.02,1.35-.39,1.42-.41,2.1-.45,1-.03,2.36-.48,.78-.26,1.25-.38,2.34-.99,.66-.36,.93-.64,1.3-.92,.37-.29,.65-.49,1.15-.78,.06-.04,.43-.25,.85-.43,1.18-.49,1.98-.51,3.24-.84,.26-.07,.27-.15,2.19-1.05,2.12-.99,2.24-.91,2.55-.98,1.09-.3,1.62-.45,2.57-.4,1.12,.07,2.56,.06,3.6,.58,.58,.29,1,.68,1.61,1.17,.11,.09,.26,.19,.46,.36,.03,.02,.42,.35,.77,.72,.8,.84,1.21,1.27,1.13,1.62-.14,.59-1.47,.27-3.13,1.18Zm-83.73,27.16h0s-.17-.03-.35,0c-.57,.09-1.53,.74-1.53,.74-.55,.38-.96,.69-1.05,.76-.61,.46-1.06,.77-1.96,1.4-.69,.48-1.32,.91-1.73,1.18-.31,.21-.59,.4-.59,.4-.31,.21-.58,.39-.8,.53-.53,.35-.6,.39-.79,.53,0,0-.26,.18-.55,.39-.75,.54-1.66,1.26-2.15,1.65-1,.79-1.51,1.19-1.59,1.24-.68,.36-.8,.24-2.22,.81-.57,.23-1.01,.4-1.58,.72-.32,.18-.65,.39-1.32,.83-.14,.09-.49,.32-1.2,.79-.07,.05-.46,.31-.68,.45-.55,.36-.82,.55-.89,.59-.82,.55-1.24,.83-1.61,1.12-.51,.41-.47,.46-1.68,1.55-.46,.41-.41,.35-.51,.46-.79,.77-.76,1.15-1.45,2.04-.68,.89-1.53,1.58-1.84,1.79-.4,.28-.57,.45-.91,.79-.5,.5-.56,.69-.57,.82-.04,.43,1.03,.71,1.23,.89,1.45,1.25,2.14,2.22,3.16,3.08,.55,.46,.34,.36,1.97,1.88,.82,.76,1.01,.91,1.39,1.34,.35,.39,.46,.56,.81,.85,.4,.33,.44,.26,1.12,.76,.37,.27,.51,.41,.81,.49,.31,.09,.59,.06,.72,.04,.51-.08,.86-.38,.99-.49,.7-.6,1.54-1.05,2.2-1.7,.35-.34,.02,.01,3.9-3.04,2.74-2.15,2.79-2.24,3.59-2.77,1.01-.67,1.41-.85,2.51-1.65,.33-.24,.38-.29,2.2-1.7,1.48-1.15,1.48-1.14,1.66-1.3,1.07-.91,1.06-1.07,2.2-2.05,.34-.29,.95-.82,1.79-1.43,.91-.66,1.04-.64,1.52-1.07,.49-.44,.88-1.04,1.43-1.73,.15-.18,.27-.33,.38-.48,.38-.49,.58-.73,.61-.78,.23-.45,.27-1.11-.04-1.52-.12-.16-.16-.11-.58-.43-.34-.26-.41-.36-.82-.74-.27-.25-.52-.45-1.02-.84-1.3-1.02-1.39-.97-2.15-1.61,0,0-1.44-1.2-1.78-2.14-.1-.28-.16-.57-.16-.57-.01-.07-.02-.13-.03-.17,0-.02,0-.07,0-.14,0-.23,0-.4,0-.45-.02-.93-.02-2.11-.07-2.11Zm14.44,13.81c-.38-.39-.37-.46-.9-1.01-.33-.34-.55-.57-.88-.83-.4-.31-.74-.49-1.02-.64-.65-.34-.76-.31-1.54-.69-.55-.27-1.01-.54-1.09-.59-.22-.13-.56-.31-1.25-.68,0,0-.34-.18-.9-.23-.08,0-.21-.01-.26,.06-.04,.05,0,.1,.02,.25,.03,.17-.02,.16,0,.49,0,.16,.01,.23,.02,.38,.07,.86-2.42,2.99-2.42,2.99-1.31,1.17-1.64,1.2-3.32,2.5-2.33,1.8-1.83,1.85-3.86,3.35,0,0-1.58,1.17-3.35,2.82-.18,.17-.53,.5-.82,1.02-.4,.69-.5,1.36-.58,1.92-.14,.98,.01,1.13-.18,1.81-.06,.21-.24,.86-.72,1.41-.78,.89-1.43,.47-3.05,1.43-.72,.42-.82,.64-1.78,1.16-.59,.32-.89,.48-1.36,.63-1,.32-1.53,.17-1.7,.54-.18,.37,.09,.85,.27,1.16,.52,.92,1.08,.84,1.7,1.7,.15,.21,.67,.94,.63,1.88-.03,.59-.26,1.03-.45,1.34-1.14,1.92-2.87,3.35-3,3.46-1.49,1.22-2.87,1.95-3.7,2.35-1.77,.85-1.79,.52-3.23,1.27-1.33,.7-2.26,1.49-3.9,2.88-.87,.74-1.56,1.38-2.02,1.81l.07,4.82c.22,.13,.54,.31,.94,.47,.48,.19,1.72,.6,3.63,.27,2.07-.35,2.05-1.08,4.71-1.88,1.26-.38,2.09-.63,3.23-.54,1.27,.1,2.48,.58,3.36,.94,1.5,.6,2.05,1.06,2.82,.8,.64-.21,1.02-.78,1.21-1.07,.55-.84,.55-1.71,.54-2.14-.02-1-.35-1.06-.4-2.01-.06-1.04,.29-1.84,.54-2.41,.21-.48,.64-1.49,1.61-2.28,.69-.56,1.31-.73,2.42-1.07,3.6-1.11,3.07-1.18,4.44-1.47,3.18-.68,3.57,.27,5.25-.54,2.1-1.01,3.02-3.24,3.23-3.75,.67-1.62,.24-2.18,1.08-5.09,.3-1.05,.59-1.79,.94-2.68,1.33-3.39,1.78-3.25,2.42-5.23,.5-1.54,1.17-3.6,1.08-6.16-.03-.79-.07-1.7,.54-2.41,.79-.91,2.15-.84,2.17-1.35,.01-.27-.39-.31-1.2-1.14Zm72.47-37.78c-.32,.61-.83,.94-1.21,1.18-.35,.23-.38,.17-1.01,.49-.83,.42-1.32,.67-1.75,1.17-.38,.45-.53,.89-.61,1.11-.26,.77-.15,1.35-.09,2.23,.05,.67,.06,1.43,.09,2.95,.04,2.07,.19,2.18,.09,2.86-.14,1-.38,1.2-.22,1.67,.21,.63,.78,.72,2.28,1.55,1.07,.58,1.98,1.11,2.87,1.97,.35,.34,.93,.9,1.35,1.79,.36,.77,.43,1.51,.54,2.95,.13,1.69,0,1.94,.18,3.22,.16,1.08,.27,.96,.45,2.05,.28,1.7,.22,3.17,.18,4.02-.06,1.34-.19,1.5-.09,2.32,.12,.97,.42,1.73,.63,2.23,.52,1.29,.76,1.19,1.17,2.23,.54,1.37,.17,1.62,.72,3.04,.47,1.21,.77,1.12,1.08,2.14,.21,.7,.16,1.06,.18,2.86,0,0,.01,1.18,.09,3.04,.07,1.62,.14,1.79,.27,3.66,.09,1.43,.12,2.62,.18,5,.06,2.47,.04,3.18,0,3.84-.09,1.54-.14,2.33-.45,3.22-.45,1.29-.84,1.26-1.79,3.04-.94,1.76-.6,1.89-1.52,3.57-.86,1.56-1.19,1.52-1.88,3.04-.33,.72-.7,1.53-.9,2.68-.15,.92-.04,1.17-.27,2.05-.23,.92-.43,.95-.81,2.05-.19,.56-.34,1.27-.63,2.68-.12,.58-.28,1.37-.45,2.32,3.5-.12,7-.24,10.49-.36,.06-1.03,.08-1.91,.09-2.59,.02-2.02,.03-3.03-.18-3.84-.24-.94-.52-1.32-.63-2.41-.07-.72-.02-1.33,0-1.61,.03-.4,.09-1.12,.36-1.97,.14-.46,.29-.75,.99-2.05,.78-1.44,.83-1.5,1.17-2.14,.73-1.38,1.09-2.07,1.35-2.86,.41-1.28,.12-1.27,.54-2.68,.22-.76,.57-1.52,1.26-3.04,.59-1.3,.7-1.44,.9-2.05,.18-.57,.35-1.29,.45-2.41,.14-1.6-.02-2.32-.09-4.02-.09-2.13,.13-1.9,.09-4.65-.03-2.28-.2-3.65-.27-4.2-.22-1.69-.33-2.53-.72-3.31-.36-.73-.75-1.15-1.52-2.68-.28-.54-.46-.96-.54-1.52-.07-.54,.03-.67,0-1.52,0-.23-.04-.85-.18-1.61-.17-.92-.43-1.61-.54-1.88-.16-.39-.37-.83-.81-1.7-.36-.73-.44-.84-.54-1.16-.15-.5-.18-.92-.18-1.52,0-1.06,.05-1.52,.09-2.41,.03-.81-.01-.54,0-2.68,0-1.55,.03-1.57,0-2.05-.06-.84-.14-1.07-.09-1.7,.06-.75,.22-.83,.18-1.34-.07-.81-.53-1.39-.63-1.52-.54-.66-.93-.49-1.52-1.25-.3-.38-.44-.72-.54-.98-.17-.44-.38-.97-.18-1.16,.12-.12,.3-.03,1.17,.18,0,0,.6,.14,1.26,.27,.57,.11,.68,.1,1.17,.18,.89,.15,1.06,.27,1.88,.45,.5,.11,1.15,.25,1.97,.27,1.16,.03,2.04-.19,2.33-.27,.59-.16,1.12-.3,1.7-.71,.55-.38,.86-.8,1.26-1.34,.27-.37,.62-.84,.9-1.52,.06-.15,.33-.82,.45-1.97,.11-1.03,.02-1.8-.09-2.77-.18-1.54-.47-2.72-.63-3.31-.43-1.59-.64-2.39-1.26-3.31-.34-.51-.85-1.25-1.79-1.79-.66-.37-1.24-.48-2.06-.63-.9-.16-1.59-.17-2.78-.18-1.16-.01-1.19,.05-1.97,0-.47-.03-1.17-.07-2.06-.27-1.01-.22-1.17-.39-1.96-.44-.54-.04-.98-.06-1.45,.18,0,0-.13,.06-.9,.63-1.03,.38-1.97,.8-1.97,.8-.98,.49-1.25,.63-1.43,.8-.59,.53-.84,1.19-.96,1.61,.06,.31,.17,1.04-.21,1.76Z" style="fill:#3569b3;"/><path id="Scarf" d="M119.66,303.41c-.09-.01-.12,.18-.37,.34-.23,.15-.35,.08-.86,.17-.5,.08-.88,.23-.98,.27-.03,.01,0,0-.52,.23-.43,.2-.49,.22-.58,.27-.28,.16-.45,.33-.56,.45-.57,.56-.84,.71-1.4,1.27-.95,.95-1.04,1.4-2.2,2.76-.41,.48-.94,1.05-1.96,2.17-.44,.48-.96,1.04-1.21,1.88-.13,.44-.17,.89-.18,.97-.05,.61,.02,1.08,.05,1.24,.19,1.28,.17,2.59,.27,3.89,.14,1.91,.22,2.87,.2,3.28-.05,1.26-.24,2.2-.54,3.62-.32,1.52-.44,1.62-.81,3.35-.32,1.51-.5,2.66-.54,2.95-.32,2.21-.39,3.92-.4,4.42-.07,2.3,.17,2.22,.13,4.56-.04,2.36-.05,3.54-.61,4.96-.57,1.46-.98,1.32-1.82,3.15-.22,.49-.91,2.05-1.21,4.22-.13,.95-.36,2.83,.13,5.09,.12,.56,.48,1.71,1.21,4.02,.17,.55,.36,1.13,.54,1.97,.12,.58,.16,.91,.36,2.32,.36,2.6,.36,2.54,.36,2.68-.05,1.49-.56,1.96-.18,2.95,.09,.23,.28,.73,.76,1.05,.58,.39,.99,.12,1.57,.47,.18,.11,.35,.25,.99,1.43,.66,1.22,.71,1.47,1.08,2.05,.11,.17,.54,.82,1.26,1.52,.92,.9,1.1,.72,1.43,1.25,.44,.69,.16,1.04,.63,2.5,.16,.51,.4,1.27,.63,1.25,.18-.02,.3-.54,.45-1.79,.2-1.67,.24-2.9,.27-3.75,.12-3.16,.22-3.54-.18-4.11-.53-.75-1.1-.64-1.52-1.52-.38-.79-.27-1.6-.18-2.32,.08-.64,.27-1.15,.63-2.14,.59-1.62,.76-1.66,.99-2.5,.18-.67,.21-1.37,.27-2.77,.02-.54,.06-1.74,0-3.39-.06-1.78-.16-1.89-.09-2.77,.07-.82,.15-.79,.45-2.5,.36-2.1,.24-2.23,.54-2.86,.48-1.02,.89-.91,1.35-1.97,.25-.59,.24-.9,.45-2.32,.26-1.79,.33-1.73,.45-2.68,.11-.92,.08-1.31,0-4.29-.06-2.37-.09-3.55-.09-4.02,.02-1.98,.13-2.45,0-3.84-.09-.99-.25-1.79-.4-2.59-.29-1.48-.43-2.22-.74-3.02-.48-1.24-.77-1.29-1.35-2.81-.23-.62-.43-1.14-.54-1.88-.1-.67-.07-1.08,0-2.41,.09-1.77,.14-2.65,.13-2.88-.06-1.72-.38-1.8-.27-3.15,.08-.96,.21-1.08,.13-1.81-.04-.38-.12-.75,.08-1.12,.14-.25,.33-.36,.59-.52,1.3-.81,1.04-.82,1.75-1.17,.87-.43,1.08-.33,1.55-.74,.41-.35,.59-.76,.67-.94,.19-.41,.23-.76,.2-2.21-.03-1.71-.11-2.15-.25-2.17Z" style="fill:#f7b45c;"/><path id="TotemPole" d="M47.26,208.84c-.26,.22-.72,.1-1.15-.02-.86-.23-1.44-.7-1.66-.88-1.73-1.42-1.73-1.68-2.58-2.28-.26-.18-1.26-.86-2.72-1.16-.71-.15-1.69-.35-2.81,0-.66,.21-1.11,.53-1.99,1.16-.87,.62-1.34,1.13-1.45,1.25-.34,.37-.57,.62-.82,1.03-.24,.39-.28,.59-.54,.85-.09,.09-.32,.3-.86,.49-.27,.1-.68,.21-2.08,.27-1.18,.04-1.49-.01-1.63-.04-.24-.05-.69-.15-1.18-.45-.38-.23-.68-.59-1.27-1.3-.49-.59-.76-.92-1.09-1.43-.28-.44-.54-.85-.72-1.38-.29-.83-.25-1.53-.23-2.01,.06-1.23-.05-2.47,0-3.71,.02-.55,.05-2.45,.09-6.25,.04-3.23,0-2.97,.05-3.84,.08-1.65,.16-3.38,.54-5.58,.22-1.28,.35-1.6,.45-2.68,.09-.94,.04-1.3,.09-3.22,.05-1.79,.09-1.78,.09-2.55,0-1.96-.31-2.27-.41-4.02-.07-1.17,.05-2.25,.27-4.42,.13-1.21,.3-2.56,.54-4.02,.58-.8,1-1.49,1.29-2.01,.32-.57,.45-.88,.48-1.27,.02-.42-.13-.75-.41-1.41-.2-.48-.36-.84-.61-1.21-.34-.49-.7-.76-1.7-1.41-1.49-.97-2.23-1.45-2.65-1.61-1.05-.39-1.18-.14-2.38-.54-.33-.11-1.02-.36-2.51-1.27-1.07-.66-1.93-1.27-2.99-2.08-2.08-1.58-3.12-2.37-4.42-3.62-1.46-1.41-2.33-2.5-2.58-2.81-.61-.78-1.09-1.47-1.43-2.01l-.07-20.23c-.16-1.12,.02-1.92,.2-2.41,.1-.26,.08-.13,.82-1.68,.27-.57,.35-.75,.54-1.01,.19-.25,.55-.73,1.16-1.01,.55-.24,1.04-.2,1.63-.13,.34,.04,1.32,.17,2.51,.8,.45,.24,1.01,.67,2.11,1.54,.99,.78,1.2,1.01,1.36,1.21,.36,.44,.56,.86,.95,1.68,.31,.65,.51,1.15,.75,1.74,.63,1.58,.57,1.68,.88,2.14,.24,.37,.62,.71,1.36,1.41,.46,.43,.85,.79,1.43,1.21,.93,.67,1.11,.91,1.43,.87,.36-.04,.36-.32,.88-.6,.59-.32,.88-.12,1.77-.34,.62-.15,1.05-.39,1.43-.6,.74-.41,1.2-.67,1.5-1.21,.3-.54,.28-1.07,.27-1.47-.02-.72-.25-1.29-.41-1.61-.59-1.2-1.29-1.07-2.11-2.28-.19-.28-.42-.88-.88-2.08-.45-1.16-.68-1.76-.82-2.48-.11-.55-.13-.98-.14-2.28,0-2.36,.08-3.24,.07-4.76-.02-2.06,0-2.43-.14-2.95-.27-1-.74-1.75-1.16-2.41-.3-.48-.84-1.27-1.68-2.14-.97-1.01-1.18-.92-2.17-1.97-.7-.74-1.17-1.24-1.54-2.05-.31-.68-.45-1.38-.59-2.1-.26-1.3-.14-1.56-.45-1.88-.12-.12-.25-.2-2.27-.45-1.06-.13-1.6-.2-1.9-.18-.66,.04-.87,.17-1.18,0-.46-.25-.6-.88-.72-1.43-.16-.7,0-.82-.18-1.25-.14-.36-.34-.51-1.09-1.16-1.38-1.2-1.17-1.07-1.63-1.43-.53-.42-.96-.7-1.63-1.16-.44-.3-.82-.54-1.09-.71,.03-1.24,.05-2.49,.08-3.73,.27,.09,.63,.22,1.05,.4,.39,.16,1.17,.49,1.9,.94,.78,.48,.64,.56,1.77,1.41,1.25,.94,1.35,.78,2.11,1.47,.23,.21,.61,.58,1.22,1.07,.54,.43,.72,.52,.85,.57,.31,.12,.54,.13,1.56,.1,.81-.02,1.7-.06,1.87-.07,.94-.04,1.09-.04,1.29-.03,.74,.02,1.1,.03,1.5,.17,.62,.22,1.02,.6,1.43,1.01,.34,.34,.57,.56,.75,.94,.14,.3,.1,.39,.27,1.34,.07,.39,.14,.7,.27,1.34,.13,.62,.2,.94,.27,1.07,.17,.33,.37,.47,1.09,1.01,.48,.36,.95,.72,1.43,1.07,.92,.68,1.38,1.02,1.43,1.07,.25,.26,.64,.72,1.22,.94,.1,.04,.26,.09,.4,.02,.23-.11,.27-.46,.29-.65,.2-2.11-.12-3.41-.12-3.41-.23-.95-.29-.77-.54-1.79-.22-.9-.39-1.59-.36-2.5,.02-.72,.16-1.25,.36-2.05,.26-1.04,.37-1,.54-1.79,.29-1.28,.21-2.27,.18-2.59-.06-.67-.11-1.13-.36-1.7-.5-1.12-1.15-1.12-1.36-2.05-.09-.42,.03-.46,0-1.61-.01-.57-.06-1.04-.09-1.34,3.93,.06,7.85,.12,11.78,.18,.09-8.75,.18-17.51,.27-26.26,.26-.32,.67-.79,1.27-1.25,.78-.61,1.03-.55,1.81-1.16,.74-.58,.69-.77,1.54-1.43,.47-.36,.78-.6,1.27-.8,.37-.15,.89-.22,1.9-.36,.82-.11,1.22-.16,1.72-.18,.54-.02,.53,.02,1.45,0,.15,0,.46,0,1.09,0,.73,0,.9,0,.95,.11,.03,.07,0,.2-.54,.78-.39,.41-.62,.61-.91,.89-.47,.46-.42,.48-.95,1.03-.37,.38-.67,.65-1.09,1.03-.8,.72-.92,.77-1.18,1.12-.37,.5-.51,.93-.54,1.03-.16,.5-.14,.91-.14,1.16,.04,1.67,.07,2.64-.29,3.57-.22,.57-.35,.52-.68,1.34-.29,.74-.51,1.28-.34,1.88,.13,.46,.35,.45,.68,1.07,.12,.23,.3,.62,.48,1.74,.17,1.1,.2,1.96,.2,2.28,.04,1.69,0,3,0,3.28-.06,2.46-.1,3.69-.1,4.32-.02,2.16,.05,2.16,.01,4.28-.03,1.91-.05,2.87-.09,3.22-.17,1.4-.41,2.02-.09,2.95,.15,.44,.43,.83,1,1.61,.55,.76,.79,.94,1.54,1.97,.5,.68,.68,1,.82,1.43,.09,.3,.23,.77,.09,1.34-.03,.1-.13,.5-.45,.89-.32,.39-.5,.35-.72,.63-.34,.41-.31,.92-.27,1.7,.03,.61,.14,1.06,.32,1.74,.16,.63,.24,.78,.45,1.52,.26,.88,.43,1.45,.54,2.14,.11,.64,.12,1.25,.14,2.46,.03,1.66-.09,1.5,0,2.23,.08,.6,.18,.89,0,1.07-.4,.4-1.51-.4-1.9,0-.2,.21-.1,.62,.09,1.34,.19,.72,.33,.76,.45,1.34,.06,.28,.17,.84,0,1.52-.07,.28-.18,.74-.54,1.16-.29,.34-.52,.41-.63,.76-.1,.33,.04,.45-.09,.67-.15,.25-.44,.28-.95,.4-.46,.11-1.01,.28-1.27,.4-.15,.07-.72,.36-1.22,1.61-.62,1.56-.51,3.06-.45,3.93,.17,2.53-.33-3.2,.18,5.18,0,0,.12,1.95,.72,7.77,0,0,.07,.69,.54,2.41,.37,1.35,.59,1.73,.95,1.88,.39,.15,.79-.04,1.5-.4,1.4-.71,2.1-1.06,2.85-1.47,1.42-.76,2.64-1.1,3.53-1.34,.74-.2,.63-.12,3.4-.67,2.31-.46,2.57-.55,2.85-.67,1.36-.57,2.4-1.46,2.72-1.74,.88-.76,.85-.98,1.5-1.34,1.03-.57,2.07-.55,2.58-.54,.5,.01,1.55,.05,2.58,.67,.76,.45,.63,.7,1.63,1.47,.71,.55,1.32,.85,2.17,1.27,.93,.46,1.08,.45,2.38,1.01,1.47,.63,2.47,1.05,3.67,1.78,1.14,.69,1.16,.86,1.97,1.21,.78,.33,1.09,.32,2.48,.74,1.09,.32,.95,.35,2.28,.77,1.8,.57,2.91,.8,3.26,.87,1,.2,1.51,.3,2.11,.27,.61-.03,1.5-.07,2.38-.6,.68-.41,.82-.79,1.43-.87,.56-.08,1.02,.17,1.22,.27,.61,.31,.89,.77,1.29,1.34,.47,.67,1.03,1.27,1.5,1.94,1.44,2.08,5.2,4.15,8.38,5.07,.82,.24,2.28,.6,3.72,.89,.88,.18,1.36,.26,2.63,.54,1.52,.33,2.18,.51,2.81,.71,.86,.28,1.45,.52,1.99,.8,.93,.48,1.4,.73,1.63,1.25,.24,.54,.23,1.32-.18,1.79-.4,.45-.79,.2-1.63,.71-.72,.45-.59,.74-1.18,.98-.67,.28-1-.03-1.72,.27-.31,.13-.36,.23-.96,.72-.96,.79-1.44,1.19-2.03,1.43-.56,.23-1.05,.28-1.9,.36-1.08,.1-1.72,.09-1.72,.09-.66-.01-.91-.07-1.27,.09-.45,.2-.54,.53-.82,.8-.67,.67-1.8,.42-2.99,.36-.79-.04-1.79,.09-3.81,.36-2.99,.4-3.37,.86-5.16,.71-.48-.04-1.1-.15-2.36-.36-1.37-.23-2.05-.35-2.72-.54-1.52-.43-1.35-.66-2.9-1.07-.65-.18-1.16-.26-1.9-.63-.7-.34-.62-.44-1.13-.67-.35-.15-.92-.35-2.85-.31-1.04,.02-.95,.08-1.81,.09-1.5,.02-1.57-.15-3.26-.18-1.66-.02-1.68,.15-2.54,0-.16-.03-.69-.13-1.4-.09-.77,.04-1,.2-1.09,.27-.23,.18-.29,.52-.45,1.16-.15,.59-.1,.69-.25,.9-.23,.34-.6,.48-.85,.57-.33,.12-.63,.14-1.22,.17-.46,.02-.58,0-1.19,.03-.66,.03-.77,.07-.88,.13-.18,.1-.25,.22-.61,.77-.51,.77-.41,.61-.51,.77-.71,1.16-.56,1.21-.87,1.56-.54,.6-.88,.33-1.54,.98-.27,.27-.45,.59-.82,1.25-.57,1.02-.47,1.14-.82,1.52-.48,.53-1.1,.76-1.45,.89-.75,.28-.95,.13-1.54,.45-.41,.22-.35,.32-1,.8-.25,.19-.75,.56-1.45,.89-.39,.19-.92,.43-1.63,.54-.48,.07-.63,.02-1.45,0-.35,0-1.05,.03-2.45,.09-1.62,.07-1.75,.1-2.08,0-.76-.22-1.09-.61-1.36-.45-.28,.17-.17,.76-.09,1.52,.1,.92,0,1.85,.09,2.77,.05,.62,.1,2.35,.18,5.81,.08,3.14,.14,5.59,.09,8.67-.02,1-.05,2.44,.18,4.38,.08,.72,.11,.74,.45,2.77,.43,2.6,.65,3.9,.82,5.45,.08,.71,.21,1.98,.27,3.66,.07,2.02-.04,2.3,.09,4.11,.06,.8,.12,1.25,.09,2.05-.04,1.18-.2,1.24-.17,2.16,.03,1.17,.31,1.68,0,1.95Z" style="fill:#ef3e26;"/><path id="House" d="M152.84,169.72c-.28,.14-.46,.21-1.85,.73-1.34,.5-1.35,.49-1.72,.64-.82,.32-1.43,.59-1.8,.75-2.48,1.12-3,1.61-6.52,3.22-.5,.23-.93,.42-1.35,.6-1.84,.79-4.36,1.77-5.86,2.35-3.05,1.19-6.05,2.41-7.77,3.06-.86,.32-1.29,.49-1.3,.49-.5,.17-.99,.38-1.48,.56-.27,.1-.56,.2-.67,.45-.06,.13-.03,.21-.13,.47-.07,.17-.1,.19-.19,.4-.08,.19-.07,.22-.14,.4-.08,.19-.16,.33-.22,.42-.11,.19-.2,.33-.36,.47-.15,.14-.3,.2-.38,.24-.44,.21-.62,.08-1.04,.28-.09,.04-.19,.12-.4,.26-.23,.16-.34,.24-.48,.37-.17,.16-.15,.2-.3,.33-.12,.11-.2,.14-.42,.27-.53,.31-.51,.37-.76,.45-.22,.07-.42,.08-.53,.09-.18,0-.32,.01-.49-.04-.05-.02-.13-.05-.45-.28-.25-.19-.38-.28-.45-.36-.09-.1-.07-.11-.32-.57-.29-.53-.3-.48-.32-.58,0,0-.06-.28-.17-.35-.04-.02-.08-.04-.08-.04-.06-.02-.12-.02-.13-.02-.35,.02-.7-.03-1.05,.01-.38,.04-.37,0-1.58,.03-.58,.02-1.53,.05-2.71,.15-.78,.07-.75,.09-1.72,.17-.86,.07-1.01,.07-1.43,.13-.36,.06-.94,.15-1.63,.4-.56,.2-.98,.43-1.43,.67-.75,.4-.73,.47-1.05,.57-.14,.04-.54,.14-1.02,.4,0,0,0,0,0,0-.22,.11-.47,.23-.75,.37-.34,.17-.43,.22-.54,.33-.07,.07-.29,.29-.31,.61,0,.13,.01,.34,.24,.64,.38,.5,.72,.49,1.5,1.01,.62,.41,.63,.58,1.09,.74,.31,.11,.47,.07,.99,.13,.16,.02,.29,.03,1.54,.27,1.27,.24,1.9,.36,2.08,.4,.9,.21,.88,.27,2.08,.58,.85,.22,1.64,.38,1.72,.4,1.06,.22,1.24,.22,1.77,.4,.45,.16,.37,.18,1.31,.58,1.04,.45,1.18,.44,1.81,.76,.62,.32,.58,.38,1.09,.63,.54,.26,.73,.19,1.9,.63,.92,.34,1.15,.39,1.64,.55,.34,.11,.59,.21,.72,.25,.8,.3,.82,.36,1.09,.44,.58,.17,.73-.06,1.68-.08,.7-.02,.64,.1,1.81,.18,.82,.05,.9,0,1.77,.04,.63,.04,1.15,.06,1.72,.18,1.03,.21,1.12,.47,2.47,.96,.56,.2,1.19,.36,2.45,.67,.75,.19,.69,.16,2.31,.54,1.14,.27,1.71,.4,2.17,.54,1.12,.32,1.11,.4,1.77,.54,.41,.09,.98,.12,2.11,.2,1.37,.09,.75,.01,2.13,.09,1.02,.06,1.26,.1,1.45-.09,.34-.34,.13-.95,0-1.79-.04-.23-.02-1.17,0-3.04,.02-1.69,.11-2.99,.18-3.98,.07-1.01,.06-.51,.32-3.44,.19-2.18,.22-2.68,.45-3.57,.04-.16,.22-.75,.59-1.92,.31-.99,.48-1.54,.72-2.28,.3-.91,.46-1.39,.72-2.05,.31-.8,.34-.76,.86-2.01,.59-1.4,.55-1.45,.83-1.96,.14-.26,.1-.15,1.08-1.66,.51-.78,.69-1.06,1.06-1.61,.4-.57,.59-.86,.76-1.05,.29-.33,.6-.61,1.07-1.19,.35-.43,.39-.53,.36-.56-.05-.06-.35,.13-.97,.45-.96,.49-.99,.51-1.13,.58Z" style="fill:#e49ff4;"/><path id="JohnDanielsA-2" d="M237.05,40.42c.01-1.44,.31-1.75,0-2.32-.39-.73-1.25-.97-1.6-1.07-.28-.08-.94-.23-3.2,.36-1.59,.41-1.54,.56-2.49,.71-1.68,.28-1.84-.17-2.84,.18-1.13,.39-1.13,1.05-2.66,1.97-.76,.46-1.39,.67-2.04,.89-2.71,.92-3.51,.23-4.91,1.23-.39,.28-1.08,.87-1.75,1.62-.33,.37-.42,.52-.8,.94-.19,.21-.71,.76-1.51,1.43-.88,.73-1.26,.89-2.71,1.88-1.75,1.18-1.63,1.24-2.97,2.1-1.12,.72-2.16,1.28-2.25,1.37-.48,.21-1.33,.59-2,.9-1.35,.62-1.27,.63-1.75,.81-.81,.31-1.28,.38-2.62,.67-1.56,.34-2.34,.51-3.02,.71-.62,.19-.59,.22-3.28,1.25-1.78,.69-1.98,.75-2.31,.8-.66,.12-.77,.04-2.93,0-.62-.01-.1,0-2.84,0-1.49,0-1.67,0-2.04,.09-.59,.15-1.11,.49-2.13,1.16-.91,.6-1.02,.74-2.04,1.43-.93,.63-1.4,.94-1.86,1.16-1.22,.57-2.27,.58-3.11,.63-.02,0-1.82,.33-5.41,.98-5.17,.94-5.9,1.17-6.57,1.43-1.97,.75-3.11,1.25-3.11,1.25-2.18,.96-3,1.52-3.46,1.16-.49-.38-.23-1.48,0-2.5,.12-.55,.3-1.11,1.42-3.39,.96-1.96,1.25-2.42,1.42-2.68,.52-.78,.91-1.37,1.6-1.97,.98-.84,1.33-.63,2.49-1.43,.91-.63,.84-.87,2.49-2.5,1.41-1.4,1.39-1.16,2.31-2.14,1.36-1.46,1.24-1.82,2.49-3.04,.83-.81,.8-.57,2.13-1.79,.36-.33,1-.97,2.26-2.23,1.22-1.22,1.31-1.32,1.46-1.52,.44-.56,.76-1.16,1.42-2.32,.7-1.24,.62-1.24,1.07-1.97,.6-.95,1.15-1.59,1.78-2.32,.85-.98,1.57-1.61,1.78-1.79,.64-.56,1-.88,1.55-1.21,.96-.57,1.83-.77,2.6-.94,1.72-.38,2.17-.1,3.06-.67,.31-.2,.92-.6,1.13-1.34,.19-.67-.04-1.27-.2-1.67-.26-.66-.56-.89-1.2-1.67-.45-.55-.83-1.13-1.6-2.28-.88-1.32-.83-1.39-1.4-2.14-.68-.91-.8-.85-1.46-1.74-.48-.65-.52-.79-1.46-2.28-.64-1.01-1.04-1.63-1.6-2.41-1.18-1.65-1.41-1.88-1.6-2.01-.48-.34-1.04-.54-2.17-.94-.26-.09-.76-.26-1.42-.31-.85-.07-1.12,.12-1.2,.18-.36,.28-.42,.75-.43,.85-.06,.52,.2,.93,.43,1.29,.2,.31,.32,.38,.84,.94,.55,.58,.82,.86,1.07,1.2,.46,.64,.65,1.24,.75,1.56,.16,.5,.28,1.13,.27,2.32-.01,.81-.08,1.36-.4,3.48-.4,2.64-.46,2.88-.58,3.22-.09,.25-.49,1.39-1.42,2.68-.23,.32-.46,.59-.48,.62-.48,.57-.9,.94-1.1,1.11-.83,.73-1.66,1.47-2.5,2.19,0,0-.49,.42-1.64,1.43-1.72,1.52-2.2,2.08-3.82,3.57-2.85,2.65-2.81,2.26-4.57,4.06-.9,.92-1.42,1.54-2.66,2.68-.75,.69-1.37,1.25-2.26,1.92-2.05,1.53-2.46,1.28-3.2,2.23-.44,.57-.25,.61-1.33,3.08-.54,1.25-.81,1.87-1.07,2.28-.84,1.36-1.56,1.54-3.28,3.04-.47,.41-2,1.77-3.51,3.8-.96,1.29-1.57,2.15-2.13,3.48-.48,1.14-.42,1.48-.93,2.28-.67,1.06-1.42,1.48-2.26,2.14-1.91,1.49-1.44,1.92-3.33,3.62-1.76,1.58-2.23,1.27-4.93,3.48-1.5,1.24-1.94,1.82-2.26,2.41-.68,1.26-.35,1.73-1.07,2.95-.82,1.4-1.45,1.25-2.4,2.55-.56,.76-.87,2.13-1.46,4.82-.43,1.93-.64,2.89-.8,4.29-.23,2.03-.06,2.32-.4,3.75-.33,1.39-.63,1.65-.8,2.95-.15,1.12-.07,2,0,2.81,.08,.95,.18,2.05,.67,3.35,.46,1.23,.69,1.11,1.2,2.41,.66,1.69,.31,2,.93,3.22,.61,1.19,1.48,1.95,1.86,2.28,.92,.79,1.32,.78,2.4,1.74,.62,.56,.99,.89,1.33,1.47,.63,1.08,.65,2.16,.67,3.08,0,.51,.02,1.31-.27,2.28-.35,1.2-.7,1.17-1.2,2.55-.37,1.04-.23,1.22-.67,2.41-.24,.65-.46,1.09-.8,1.74-.4,.77-.97,1.88-1.86,3.08-.99,1.33-1.06,1.01-1.86,2.14-.83,1.17-1.27,2.24-1.73,3.35-.32,.78-.58,1.39-.8,2.28-.13,.51-.27,1.21-.4,3.08-.1,1.46-.17,2.52-.13,3.89,.07,2.27,.36,2.38,.53,4.69,.2,2.73-.05,4.83-.13,5.49-.28,2.14-.77,3.73-1.07,4.69-.55,1.76-.82,2.63-1.46,3.75-.64,1.11-1.03,1.4-1.6,2.68-.46,1.05-.69,1.97-.8,2.41-.21,.85-.29,1.48-.4,2.41-.18,1.45-.23,2.65-.27,3.48-.08,1.97,.01,1.97-.13,2.68-.2,.97-.45,1.25-.53,2.28-.05,.55-.09,1.17,.13,1.88,.2,.61,.37,.58,.93,1.61,.64,1.16,.57,1.46,1.07,1.88,.13,.11,.69,.57,1.38,.49,.35-.04,.65-.27,1.24-.71,.72-.55,.64-.64,1.07-.89,.76-.45,1.05-.2,1.6-.63,.38-.3,.55-.68,.8-1.25,.3-.69,.39-1.28,.44-1.7,.06-.47,.07-.84,.09-1.52,.03-1.21-.05-1.46,.18-1.7,.2-.21,.55-.26,1.24-.36,.87-.12,1.04,0,1.24-.18,.31-.28,.11-.76,.09-1.79-.02-1.02,.17-.94,.18-1.97,0-.83-.11-1.44-.36-2.68-.19-.98-.4-1.71-.44-1.88-.3-1.05-.39-1.07-.53-1.7-.16-.69-.17-1.28-.18-2.41-.01-1.3,.07-2.28,.09-2.5,.11-1.29,.3-2.27,.44-3.04,.3-1.55,.39-1.48,.62-2.86,.11-.65,.16-1.08,.36-1.79,.22-.78,.35-.92,.53-1.52,.2-.66,.19-.94,.36-2.77,.05-.54,.12-1.25,.27-2.68,.22-2.16,.22-1.94,.27-2.59,.07-.94,.06-1.23,.18-1.88,.15-.85,.36-1.47,.44-1.7,.26-.71,.39-.83,.8-1.7,.82-1.74,.56-1.91,1.15-2.77,.54-.77,.78-.69,1.24-1.52,.06-.1,.28-.57,.71-1.52,.37-.79,.43-.95,.62-1.16,.18-.21,.33-.31,1.15-.8,1.27-.76,1.32-.76,1.6-.98,.31-.25,.72-.58,1.07-1.16,.35-.59,.47-1.15,.53-1.43,.1-.47,.15-.71,.13-1.03-.01-.34-.08-.53,.04-.76,.02-.03,.17-.31,.49-.36,.3-.05,.53,.14,.58,.18,.22,.19,.24,.41,.36,.8,.08,.28,.23,.6,.53,1.25,.23,.5,.35,.75,.53,1.03,.46,.69,.68,.61,.89,1.07,.11,.24,.12,.69,.13,1.56,0,.54,0,.66,0,1.3,0,.94,0,1.42,.09,1.7,.21,.73,.65,1.19,.8,1.34,.48,.49,1.02,.72,1.42,.89,.57,.24,.84,.24,1.38,.58,.33,.21,.55,.35,.67,.63,.15,.36-.01,.61,.18,.89,.16,.24,.45,.31,.62,.36,1.77,.44,1.09,.45,2.26,.63,.53,.08,1.64,.23,3.15,.22,.93,0,1.41,0,1.91-.18,.41-.14,.84-.41,1.69-.94,.51-.32,.83-.52,1.24-.85,.32-.25,.7-.56,1.11-1.03,.25-.29,.73-.85,1.07-1.7,.33-.82,.36-1.49,.4-2.23,.03-.49,.05-1.06-.09-1.79-.12-.61-.3-1.05-.49-1.52-.21-.52-.38-.94-.71-1.43-.36-.54-.7-.85-1.33-1.43-.63-.58-.95-.87-1.38-1.07-.17-.08-.84-.38-1.73-.36-.58,.01-.54,.14-1.38,.22-.45,.04-.35,0-1.69,0-.78,0-.98,.02-1.24-.13-.44-.25-.6-.7-.62-.76-.12-.36,.02-.44,.04-1.25,.02-.68-.08-.88,.09-1.21,.13-.25,.32-.4,.44-.49,.37-.29,.71-.32,.98-.4,.8-.24,.82-.84,1.64-1.43,.55-.39,.61-.18,1.82-.67,.56-.23,1.55-.64,2.57-1.47,.32-.26,.8-.67,1.29-1.34,.47-.66,.7-1.25,.75-1.38,.17-.46,.12-.5,.4-1.52,.23-.85,.27-.84,.4-1.38,.11-.48,.17-.88,.27-1.65,.15-1.17,.12-1.25,.22-1.92,.16-1.01,.25-.94,.4-1.83,.04-.23,.08-.55,.18-2.72,.06-1.31,.05-1.38,.09-1.92,.12-1.63,.29-2.18,.36-2.37,.09-.29,.28-.84,.67-1.47,.44-.72,.68-.79,.8-1.27,.2-.79-.2-1.5-.27-1.61-.32-.54-.64-.54-1.4-1.14-.39-.3-.37-.35-1.8-1.94-1.1-1.22-.99-1.06-1.4-1.54-.87-1.02-1.3-1.54-1.66-2.21-.55-1.03-.43-1.33-1-1.94-.24-.26-.54-.49-.87-1-.24-.37-.41-.64-.4-1,.01-.42,.25-.72,.53-1.07,.39-.49,.78-.75,.87-.8,.13-.08,.49-.3,1.4-.5,.55-.12,.95-.17,1.6-.23,.84-.08,.69-.02,1.6-.1,.96-.09,1.24-.17,1.6,.03,.22,.12,.33,.28,.56,.6,.17,.23,.53,.75,.7,1.54,.03,.14,.16,.78,0,1.61-.14,.73-.32,.73-.6,1.67-.01,.04-.03,.11-.06,.22-.2,.71-.27,1.46-.27,1.46-.15,1.52,.22,1.88-.13,2.28-.4,.45-1.17,.27-1.24,.62-.03,.14,.1,.18,.31,.72,.12,.31,.1,.37,.2,.5,.1,.13,.2,.21,.6,.4,.46,.23,.56,.25,.93,.44,.38,.19,.4,.23,.67,.33,.45,.19,.67,.28,.8,.2,.2-.12,.11-.5,.07-1.74-.02-.78,0-.92,.07-1.07,.04-.11,.11-.23,.8-.94,.28-.29,.39-.39,.73-.74,.65-.66,.73-.77,.8-.87,.07-.11,.26-.42,.4-1,.19-.79,.05-1.06,.07-2.31,.01-1.17,.14-1.34,0-2.01-.06-.29-.15-.7-.4-1.17-.23-.42-.37-.47-.53-.87-.08-.19-.24-.61-.2-1.14,.05-.65,.36-1.1,.53-1.34,.3-.41,.67-.66,1.4-1.14,.64-.42,1.11-.72,1.8-1,.6-.24,.63-.17,1.8-.54,.9-.28,1.35-.42,1.86-.67,1.09-.52,1.79-1.15,1.93-1.27,.59-.53,.57-.69,1.26-1.34,.57-.54,.96-.78,1.4-1.12,.96-.72,1.55-1.36,2.66-2.57,1.51-1.64,1.22-1.66,2.2-2.55,.55-.5,1.19-.96,2.46-1.88,1.35-.97,.98-.62,1.66-1.14,.48-.37,.73-.6,1.2-.74,.43-.13,.76-.1,1.26-.07,.75,.05,1.51,.08,2.26,.13,1.21,.09,1.06-.05,2.73,0,1.93,.05,2.17,.24,3,0,.58-.17,.53-.28,1.6-.67,1-.36,1.16-.31,1.93-.6,.68-.26,.77-.39,1.93-1,1.58-.83,1.48-.62,2.2-1.07,.64-.4,.69-.54,2.4-2.01,1.43-1.23,1.25-1.01,1.66-1.41,1.23-1.21,1.18-1.6,2.33-2.61,.53-.46,.55-.38,1.53-1.21,.62-.52,1.16-1,1.53-1.34,.87-.78,.89-.85,1.4-1.27,.32-.27,.77-.64,1.4-1.07,.55-.37,1.09-.74,1.86-1.07,.68-.29,.74-.21,1.46-.54,.76-.34,.83-.49,1.4-.74,.54-.23,1.03-.32,2-.47,.56-.09,1.32-.21,2.46-.27,1.22-.07,1.25,.02,2.86,0,1.11-.02,1.17-.06,3.26-.13,2.15-.08,1.91-.03,2.2-.07,.43-.06,3.54-.51,4.35-2.5,.18-.45,.18-1.01,.18-2.14,0-1.26-.19-1.35-.18-2.5Zm-85.17,61.3c-.02,.12-.08,.46-.36,1.25-.18,.52-.34,.99-.62,1.61-.42,.92-.63,1.38-1.11,1.88-.02,.02,0,0-.89,.76-.32,.27-.5,.43-.8,.54-.16,.06-.39,.14-.67,.09-.31-.05-.52-.24-.75-.49-.56-.6-.88-1.18-.98-1.34-.52-.93-.81-1.68-.89-1.88-.21-.55-.4-1.03-.53-1.7-.13-.63-.14-1.1-.18-2.05-.02-.58-.01-1.05,0-1.97,.03-1.92,.09-2.26,.18-2.59,.18-.68,.45-1.19,.53-1.34,.12-.22,.29-.46,.62-.94,.52-.74,.73-.97,.93-1.16,.34-.31,.57-.53,.84-.49,.31,.04,.49,.36,.62,.58,.62,1.01,.63,.55,1.51,1.88,.51,.78,.33,.66,1.29,2.41,.61,1.11,.88,1.52,1.11,2.32,.17,.6,.21,1.06,.22,1.34,0,.18,.02,.67-.09,1.3Z" style="fill:#de4097;"/></svg>