<?xml version="1.0" encoding="UTF-8"?><svg id="Layers" xmlns="http://www.w3.org/2000/svg" viewBox="0 0 250.78 404.1"><path id="FigureD" d="M151.61,355.16c.04,2.27,.14,2.42,0,3.14-.26,1.3-.7,1.33-1.23,2.99-.42,1.34-.5,2.43-.54,3.14-.09,1.37,.07,2.11,.27,3.95,0,0,.2,1.77,.36,4.47,.17,2.95,.11,5.55,.05,8.06-.06,2.47-.13,2.81,0,3.88,.21,1.7,.57,2.25,.41,3.68-.11,.92-.31,1.19-.34,2.31-.03,.97,.12,1.27-.14,1.77-.06,.12-.18,.32-1.36,1.3-.85,.7-1.04,.8-1.09,1.09-.05,.3,.1,.56,.75,1.36,1.18,1.46,1.42,1.53,1.77,2.18,.2,.37,.55,1.03,.54,1.91,0,.24,0,1.48-.81,2.18-.43,.36-.82,.36-2.73,.41-3.08,.07-3.39,.13-4.36,0-.86-.12-1.36-.27-2.31-.55-1.2-.35-1.38-.52-1.5-.68-.42-.59,.09-1.1,0-2.45-.06-.87-.33-1.49-.82-2.59-.38-.87-.6-1.37-1.09-1.91-.54-.6-.72-.49-1.5-1.22-.45-.44-.99-.95-1.36-1.77-.28-.65-.34-1.2-.41-1.78-.08-.74-.02-1.1,0-1.9,.05-1.58-.15-1.55-.13-3.14,.01-1.44,.17-1.49,.13-2.72-.03-1.3-.21-1.25-.27-2.45-.06-1.25,.08-2.37,.23-3.19,.06-.36,.13-.67,.18-.9,.22-1.02,.35-1.17,.41-1.85,0-.15,.01-.31,.01-.49-.01-.63-.14-.95-.15-2.02,0-.41,.02-.54,.07-1.28,.02-.23,.05-.52,.07-.9,.08-1.16,.12-1.74,.13-2.31,.02-.65,.01-1.01-.07-2.52,0-.12-.01-.23-.01-.36-.02-.28-.03-.59-.05-.94-.09-1.68-.13-2.53-.14-2.86-.01-.51-.02-.96-.02-1.36,0-.92,.03-1.61,.16-2.45,.19-1.18,.25-1.06,.54-2.32,.27-1.13,.11-1.27,.28-3.95,.12-1.89,.2-1.79,.27-3.27,.07-1.53,.12-2.48,0-3.67-.24-2.41-.83-2.57-1.09-5.18-.08-.82-.25-1.63-.27-2.45-.04-1.04,.05-1.53-.28-1.77-.42-.32-1.26,.02-1.77,.4-.6,.47-.6,.9-1.22,1.91-.43,.69-1.32,1.91-1.64,1.77-.28-.12,.17-1.18,.17-3,0-.11,0-.24-.01-.36-.01-.1-.01-.21-.02-.33v-.12s0-.05,0-.07c-.01-.07-.02-.15-.02-.22-.03-.38-.09-.73-.15-1.04,0-.02-.01-.04-.01-.06,0-.07-.02-.14-.04-.2-.01-.06-.02-.12-.04-.18-.08-.33-.16-.66-.27-1,0-.01-.01-.02-.01-.03-.11-.35-.26-.71-.47-1.08-.45-.79-.98-1.24-1.84-1.98-1.01-.87-1.87-1.38-2.07-1.56-.04-.03-.05-.06-.04-.07,.01-.02,.05-.02,.12,.01,.05,.02,.12,.05,.21,.09,.25,.12,.64,.29,1.16,.44,.11,.03,.29,.08,.61,.14,.02,.01,.05,.01,.08,.02,.26,.05,.53,.09,.9,.13,.07,.01,.15,.01,.23,.02,.07,.01,.15,.02,.23,.03,1.55,.16,2.75,.17,3.1,.17,.3,0,.94-.01,1.8-.06,.12-.01,.25-.02,.38-.03,.01,.01,.03,0,.04,0,.11-.01,.22-.02,.33-.03,.12,0,.24-.02,.36-.03,1.26-.11,1.88-.17,2.46-.36,.07-.02,.15-.05,.24-.08,.6-.2,1.52-.57,2.39-1.42,.19-.19,.49-.48,.77-.88,.01-.01,.02-.03,.03-.04,.27-.39,.52-.89,.65-1.48,0-.04,.02-.08,.02-.12,0-.05,.01-.09,.01-.14,.02-.12,.02-.27,.03-.44,0-.17,0-.37,.02-.61,0-.23,.01-.49,.01-.78,0-.33,.01-.62,.01-.88-.01-.18-.01-.37-.01-.58-.01-.54-.01-1.02-.03-1.45-.02-.79-.06-1.41-.15-2-.1-.67-.27-1.81-.84-2.96-.02-.04-.03-.08-.05-.12-.03-.07-.06-.12-.08-.16-.03-.04-.05-.08-.07-.12-.3-.54-.7-1.07-1.23-1.54-.81-.72-1.69-1.08-2.05-1.23-.92-.37-1.68-.47-2.56-.58-.45-.05-1.03-.11-2.93-.13-2.34-.03-3.75-.05-5.1,.13-.31,.05-.72,.11-1.63,.23-.01,.01-.03,.01-.04,.01-.84,.1-1.05,.13-1.17,.15-.02,0-.03,.01-.05,.01s-.04,.01-.07,.02c-.12,.04-.23,.08-.33,.13-.46,.2-.66,.45-1.37,.77-.06,.03-.12,.05-.18,.08-.56,.23-.83,.35-1.06,.31-.04-.01-.08-.02-.11-.04-.08-.03-.14-.08-.2-.14-.15-.12-.29-.28-.43-.53-.01,0-.02-.02-.02-.03-.2-.34-.47-.8-.94-1.34-.21-.24-.51-.52-1.12-1.09-.75-.69-1.12-1.04-1.36-1.19-.83-.52-1.65-.64-2.63-.78-.82-.12-1.46-.12-1.62-.12-1.99,.03-3.57,.7-4.88,1.27-1.71,.75-1.89,1.11-3.17,1.38-.74,.16-1.03,.11-1.84,.38-.31,.1-1.22,.42-2.28,1.14-.72,.49-.6,.55-1.33,1.02-.82,.54-1.55,.83-1.94,.99-.23,.09-.8,.31-1.56,.51-1.05,.27-1.11,.14-2.05,.37-.46,.12-.85,.24-1.16,.35-.01,0-.03,.01-.04,.01-.37,.13-.63,.21-.77,.17-.04-.01-.07-.02-.09-.05-.06-.09,0-.22,.05-.35,.21-.57-.13-.13,.36-1.74,.39-1.33,.61-1.57,.63-2.27,.02-.66-.23-.63-.27-1.5-.03-.61,.07-.81,.08-1.58,.01-.63-.05-.78-.08-1.41-.03-.63-.09-1.81,.27-3.14,.17-.61,.38-1.09,.62-1.63,.5-1.14,.7-1.22,.88-1.91,.18-.71-.02-.67,.19-1.87,.14-.82,.21-1.23,.42-1.6,.17-.3,.35-.5,.41-.89,.04-.29-.02-.44-.07-.82-.07-.54-.03-.95,0-1.36,.05-.5,.09-.99,.34-1.56,.18-.4,.37-.66,.55-.89,.45-.6,.84-.89,1.29-1.29,.71-.64,1.15-1.17,1.77-1.91,.79-.95,.57-1.29,1.16-1.77,.19-.15,.5-.36,.51-.68,.01-.25-.16-.41-.3-.62-.4-.53-.2-.86-.55-1.43-.69-1.12-1.26-1.09-1.57-1.97-.06-.18-.08-.55-.13-1.3-.06-.81-.02-1.1-.07-2.11-.05-.82-.1-1.21-.37-1.56-.18-.23-.36-.34-.52-.45-.89-.59-1.67-1.48-2.09-2.24-.1-.16-.45-.83-.56-1.77-.13-1.14,.17-2.05,.32-2.48,.11-.32,.22-.55,.29-.69,.37-.77,.76-1.25,1.36-1.98,.92-1.11,1.69-1.78,1.88-1.94s.46-.4,.85-.68c.51-.37,1.27-.92,2.36-1.31,.27-.09,.7-.24,1.29-.34,.78-.12,1.52-.04,2.95,.12,.6,.06,1,.11,1.57,.2,.33,.06,1.25,.22,2.45,.55,.63,.17,1.56,.43,2.66,.88,1.06,.44,2.4,1,3.81,2.16,.93,.75,1.65,1.36,2.09,2.45,.2,.5,.49,1.21,.36,2.09-.11,.79-.5,1.27-.47,2.36,0,.26,.03,.45,.07,.68,.19,1.34,.57,1.53,.54,2.32-.02,.61-.26,.59-.27,1.29-.01,.34-.02,1.09,.41,1.43,.4,.32,.92,.02,1.77-.07,.97-.09,1.36,.19,2.54,.44,2.53,.52,3.09-.28,5.77,.31,.89,.2,1.46,.43,1.81,.59,.73,.34,1.09,.63,2.14,1.37,2.15,1.52,2.06,1.31,2.68,1.86,.88,.78,.71,.9,1.99,2.31,1.36,1.5,1.57,1.4,2.64,2.64,.99,1.15,.99,1.46,2,2.72,1.09,1.37,1.85,1.95,2.63,2.73,3.41,3.4,4.54,7.92,4.63,8.3,.52,2.17,.13,2.68,.91,4.77,.59,1.59,1.13,2.13,1.34,3.63,.12,.9-.02,1.07-.3,3.62-.19,1.78-.26,3.1-.4,5.38-.1,1.48-.14,2.24-.14,2.99,.01,1.98,.21,2.54,.36,4.72,.11,1.63,0,1.22,.09,4.95,.03,1,.02,.52,.18,4.86,.1,2.53,.11,2.86,.19,3.59,.18,1.68,.36,1.92,.68,3.86,.23,1.42,.5,3.11,.5,5.22-.01,1.74-.19,1.78-.23,4.45-.02,1.67,0,2.95,0,2.95Zm-29.7-9.67c-.21-1.12-.36-1.14-.54-2.04-.2-.99-.17-1.93-.11-3.8,0-.2,.01-.4,.02-.61,.05-.94,.08-1.21,0-1.86-.05-.37-.07-.3-.49-2.04-.37-1.48-.46-1.95-.74-2.21-.04-.05-.08-.08-.13-.11-.11-.07-.2-.1-.28-.13-.11-.02-.21-.03-.35-.05h-.04c-.1-.02-.22-.05-.36-.09-.08-.02-.16-.05-.25-.09-.1-.05-.2-.09-.29-.14-.07-.04-.14-.08-.21-.12-.08-.04-.15-.08-.21-.13-.18-.11-.33-.23-.47-.34-.08-.06-.16-.12-.24-.18-.15-.11-.29-.22-.41-.32-.06-.05-.11-.09-.16-.13-.93-.72-1.48-1.11-1.74-1.11-.03,0-.05,.01-.08,.02-.03,.01-.05,.03-.07,.05-.02,.01-.04,.03-.05,.06-.02,.02-.04,.05-.05,.08-.1,.16-.15,.39-.17,.68-.05,.79,.14,1.97,.35,2.86,.02,.1,.04,.2,.07,.31,.15,.53,.32,.99,.46,1.36,.05,.13,.12,.27,.2,.45,.06,.15,.14,.33,.24,.54,.03,.07,.07,.15,.11,.24,.46,.9,.78,1.33,1.04,2.17,.01,.04,.03,.09,.05,.14,.03,.08,.05,.15,.06,.22,.08,.35,.12,.65,.16,1.14,0,.08,0,.15,0,.23,.02,.13,.03,.29,.04,.46,.3,3.95,.05,.03,.41,4.9,.22,2.97,.05,4.13,.05,4.86,0,.93,.07,2.86-.22,3.79-.25,.8-.34,.73-.51,1.29-.32,1.11-.51,1.51-.74,2.09,0,0,0,.01-.01,.02-.13,.35-.26,.54-.61,1.16-.73,1.27-.85,3.53-.93,4.64-.04,.56-.01,1.42-.04,2.09-.03,.69-.04,1.45,.01,2.26,.03,.43,.05,.89,.1,1.32v.08c.09,.9,.25,1.67,.59,1.74,.22,.04,.47-.25,1.49-2.05,1.17-2.05,1.75-3.08,2.05-3.95,.56-1.67,.21-1.74,.81-3.81,.54-1.82,.84-1.87,1.37-3.54,.39-1.27,.53-2.48,.81-4.91,.34-2.89,.3-4.38,.28-5.04-.04-.92-.13-1.68-.28-2.45Zm-10.22,41.26c-.02-.1-.05-.19-.08-.29-.24-.68-.62-1.17-1-1.67-.07-.1-.25-.32-.54-.62-.02-.02-.04-.05-.06-.07-.31-.33-.75-.73-1.31-1.15-.03-.02-.06-.05-.09-.07-.16-.11-.3-.19-.42-.27-.01-.01-.02-.02-.03-.02-.7-.46-1.1-.54-2.05-1.27-.79-.61-1.19-.92-1.36-1.37-.36-.93,.35-1.44,.68-3.13,.22-1.11,.14-2.07,0-3.14,0-.05-.01-.09-.02-.14-.03-.21-.06-.43-.1-.67-.03-.2-.07-.4-.1-.58-.11-.6-.27-1.32-.59-2.14-.12-.33-.25-.61-.37-.84-.58-1.13-1.08-1.36-1.53-2.57-.3-.81-.4-1.6-.4-2.32v-.06s0-.08,.01-.11c0-.18,.01-.36,.02-.53,.04-.61,.14-1.15,.23-1.61,.08-.45,.22-.89,.43-1.44,.04-.11,.07-.22,.11-.32,0-.01,0-.03,0-.04,.09-.28,.33-.86,.81-2.01,.06-.15,.13-.31,.2-.47,0-.02,.01-.04,.02-.06,.06-.13,.11-.26,.16-.37,.05-.12,.1-.23,.14-.33,.1-.21,.18-.38,.25-.54,.05-.11,.1-.21,.15-.31,.05-.11,.09-.21,.14-.3,.17-.36,.31-.63,.46-1.02,.05-.12,.1-.26,.15-.41,.03-.09,.07-.18,.1-.28,.49-1.43,.71-2.4,1.09-4.36,.24-1.17,.37-2.13-.07-2.86v-.02c-.04-.07-.08-.13-.13-.19-.11-.13-.22-.27-.56-.22-.14,.02-.5,.06-.61,.22-.29,.46-.44,1.27-.81,2.66-.39,1.47-.39,.91-1.22,3.54-.78,2.45-.68,2.64-1.23,3.95-.74,1.78-.99,1.61-1.22,2.59-.41,1.73,.39,2.17,.4,4.63,.01,.47-.01,2.11-.68,4-.36,1.03-.52,1-1.45,2.9-.55,1.13-1,2.24-1.91,4.45-1.19,2.93-1.3,3.41-1.36,3.73-.25,1.29-.26,2.42-.27,3.54-.01,1.85,.17,2.03,.05,3.33-.09,1.01-.21,.99-.6,3.03-.28,1.49-.45,2.35-.54,3.54-.14,1.82,.06,2.14-.27,3.27-.33,1.11-.64,1.99-.64,2-.37,.96-.53,1.14-.5,1.58,.07,1.06,1.13,1.76,1.23,1.82,.62,.4,.89,.22,1.81,.59,1.05,.43,.88,.74,1.73,1.09,.93,.39,1.29,.18,3.63,.27,1.59,.07,1.62,.17,3,.18,1.13,.02,1.95-.03,2.54-.09,1.76-.16,2.64-.24,2.95-.75,.39-.63-.29-1.12,.05-2.52,.17-.7,.39-.76,.45-1.45,.04-.45-.03-.88-.18-1.72-.16-.91-.22-.93-.27-1.37-.03-.21-.08-.83,.18-1.99,.27-1.23,.56-1.58,.91-2.64,.41-1.24,.9-2.7,.5-4.18h-.01Z" style="fill:#73bf44;"/><path id="FigureC" d="M140.89,319.65c-.01-.54-.01-1.02-.03-1.45-.08-.92-.23-1.65-.51-3.04-.22-1.07-.36-1.6-.48-1.92-.02-.04-.03-.08-.05-.12-.03-.07-.06-.12-.08-.16-.03-.04-.05-.08-.07-.12-.45-.75-1.02-1.18-1.5-1.54-.68-.5-1.51-.97-2.63-1.27-.13-.03-.37-.1-.7-.16-2.29-.42-4.66-.41-4.66-.41-1.56,.01-1.13,.11-3.82,.21-1.08,.03-1.73,.04-2.19,.05-.58,.02-.84,.04-1.21,.16-.02,0-.03,.01-.05,.01s-.04,.01-.07,.02c-.12,.04-.23,.08-.33,.13-.61,.24-1.03,.54-1.37,.77-.45,.31-.78,.52-1.24,.39-.04-.01-.08-.02-.11-.04-.27-.09-.43-.32-.63-.67-.01,0-.02-.02-.02-.03-.21-.27-.51-.64-.99-1.14-.66-.68-1.2-1.13-1.41-1.3-.61-.5-1.05-.88-1.64-1.17-1.06-.53-2-.58-3.13-.65-.96-.05-1.85-.1-2.95,.2-.31,.08-.46,.14-2.61,1.15-1.94,.92-1.95,.93-2.2,1.03-1.15,.43-2.08,.31-3.27,.81-.42,.18-.73,.36-.79,.4-.5,.3-.74,.54-1.11,.83-.37,.29-.7,.49-1.37,.86-1.11,.62-1.66,.92-2.45,1.18-1.37,.45-1.6,.18-3.73,.64-.08,.02-.16,.03-.23,.05-.01,0-.03,.01-.04,.01-.28,.06-.54,.12-.77,.17-.73,.18-1.23,.35-1.77,.68-.85,.51-.85,.8-1.82,1.36-.98,.57-1.87,.79-2.36,.91-1.55,.37-1.64-.01-2.82,.36-.75,.24-1.35,.65-2.54,1.48-.84,.58-1.1,.86-1.27,1.24-.23,.54-.17,1.03-.09,1.55,.08,.57,.23,.91,1,2.63,.6,1.34,.65,1.43,.72,1.73,.18,.67,.06,.65,.28,2.09,.15,1.02,.25,1.31,.18,1.9-.06,.44-.1,.82-.36,1.18-.38,.52-.96,.66-2.09,.91-1.09,.25-1.19,.12-2.09,.36-.25,.07-.47,.14-1.73,.64-1.17,.46-1.56,.63-1.81,.73-1.32,.5-2.5,.41-3.82,.36-2.15-.09-4.3,.01-6.45,0-3.71-.03-4.02,.04-5.54-.09-1.68-.14-3.12-.38-4.35-.64-.37-.08-2.45-.53-4.36-1.27,0,0-.86-.33-1.96-.59-.18-.04-.44-.1-.77-.14-.17-.02-.22-.02-.77-.05-.8-.04-.93-.05-1.17,0-.26,.05-.47,.13-.6,.19-.09,.13-.21,.3-.34,.52-.08,.14-.24,.4-.32,.61-.1,.23-.1,.39-.1,1.5,0,.85,0,.96,.01,1.07,.04,.58,.05,.87,.13,1.1,.1,.31,.21,.48,.16,.77-.03,.17-.09,.24-.06,.39,.02,.09,.05,.13,.29,.43,.22,.28,.27,.35,.3,.39,.06,.08,.13,.18,.21,.32,.11,.19,.12,.25,.23,.45,.08,.15,.15,.26,.24,.39,.17,.27,.54,.8,1.31,1.59,.98,.98,1.44,1.19,2.45,2.04,1.28,1.08,1.04,1.16,2.59,2.59,1.3,1.19,1.53,1.18,2.73,2.31,1.47,1.39,1.19,1.46,2.18,2.32,1.33,1.16,1.68,.9,4.63,2.72,.98,.61,2.12,1.37,2.72,1.77,1.82,1.22,1.83,1.29,2.32,1.5,1.26,.57,1.57,.27,3.81,.82,.58,.14,1.67,.41,3,.95,1.37,.56,1.49,.79,2.72,1.23,1.15,.41,2.08,.57,2.73,.68,1.66,.29,2.94,.28,3.27,.27,.83-.01,1.97-.03,3.4-.4,1.34-.35,2.2-.82,2.45-.96,.85-.47,1.37-.76,1.78-1.36,.49-.74,.21-1.53,.81-1.91,.07-.04,.34-.21,.62-.13,.1,.03,.46,.16,.75,1.49,.23,1.09-.07,1.66,.34,1.98,.1,.08,.08,.02,.7,.29,.49,.22,.52,.27,.72,.32,.46,.1,.56-.06,.8,.07,.34,.19,.22,.59,.55,.75,.25,.12,.38-.1,.86-.07,.38,.03,.38,.17,.93,.27,.36,.07,.6,.11,.82-.02,.21-.13,.21-.32,.41-.36,.16-.04,.25,.08,.52,.18,.07,.03,.42,.17,.77,.11,0,0,.21-.03,.94-.55l.56-.29c.35-.24,.42-.75,.45-1.04,.19-1.78,.09-4.47,.09-4.47-.02-.68-.02-1.65,.14-2.84,.08-.31,.24-.76,.61-1.14,.33-.33,.51-.28,1.64-.81,.12-.06,.91-.44,1.77-.96,.85-.52,.76-.58,1.22-.81,.35-.18,.97-.45,1.54-.54,.45-.07,.87-.05,1.12,.19,.06,.05,.1,.11,.13,.19v.02c.44,.73,.31,1.69,.07,2.86,.24-1.17,0-2.62-.07-2.86,.07,.24,.05,.71-.06,1.91-.14,1.46-.22,2.2-.27,2.58-.15,1.09-.44,1.99-.68,2.6-.04,.13-.06,.17-.28,.67-.13,.32-.56,1.32-.98,2.32,.04-.08,.07-.14,.1-.21-.07,.16-.15,.34-.24,.54-.05,.11-.1,.24-.16,.37-.01,.02-.02,.04-.02,.06-.07,.15-.13,.3-.2,.47-.48,1.15-.72,1.73-.81,2.01,0,.01,0,.03,0,.04-.04,.1-.07,.21-.11,.32-.26,.79-.55,1.81-.66,3.05-.01,.17-.02,.35-.02,.53-.01,.03-.01,.07-.01,.11v.06c-.03,1.06-.04,1.91,.4,2.87,.45,.99,.88,.98,1.53,2.02,.56,.89,.74,1.69,.96,2.98,.03,.18,.07,.38,.1,.58,.04,.24,.07,.46,.1,.67,.01,.05,.02,.09,.02,.14,.22,1.39,.29,2.22,0,3.14-.36,1.22-1,1.7-.82,2.73,.14,.79,.67,1.34,.82,1.49,.71,.73,1.84,1.18,2.32,1.37,.17,.06,.3,.12,.41,.18,.01,0,.02,.01,.03,.02,.22,.11,.33,.2,.42,.27,.03,.02,.06,.05,.09,.07,.26,.17,.82,.55,1.31,1.15,.02,.02,.04,.05,.06,.07,.37,.44,.37,.6,.81,1.37,.39,.67,.62,.97,.81,1.21h.01c.19,.24,.33,.41,.54,.83,.47,.99,.62,2.03,.68,2.45,.12,.82,.15,1.17,.41,1.78,.2,.46,.67,1.36,.96,1.29,.29-.07,.22-1.16,.13-3.75-.13-4.02-.04-3.58-.13-4.63-.2-2.12-.46-2.09-.82-5.04-.34-2.75-.21-3.58-.14-3.95,.33-1.73,.9-1.69,1.36-3.4,.25-.93,.19-1.32,.1-2.83v-.08c-.04-.7-.08-1.63-.1-2.95,0-.22,0-.43-.01-.63,0-2.01,.08-2.79,.15-3.32,.15-1.1,.29-2.16,.82-3.41,.23-.53,.43-.88,.61-1.16,.01-.01,.01-.02,.01-.02,.25-.36,.35-.78,.48-1.26,.08-.23,.16-.5,.26-.83,.24-.62,.55-.63,.55-2.08,0-.46,0-1.02,0-1.73-.01-3.91,.05-3.36,0-4.77-.05-1.76-.14-3.08-.27-4.9-.05-.78-.04-1.34-.04-1.82,0-.08,0-.15,0-.23,0-.4-.03-.74-.16-1.14-.01-.07-.03-.14-.06-.22-.02-.05-.04-.1-.05-.14-.12-.3-.24-.46-1.04-2.17-.04-.09-.08-.17-.11-.24-.1-.21-.18-.39-.24-.54-.08-.18-.15-.32-.2-.45-.16-.37-.22-.53-.27-.68-.08-.24-.14-.47-.19-.68-.03-.11-.05-.21-.07-.31-.1-.51-.15-.96-.19-1.37-.09-.88-.17-1.74,0-2.14,.02-.03,.03-.09,.06-.11,.01-.03,.03-.05,.05-.06,.02-.02,.04-.04,.07-.05,.03-.01,.05-.02,.08-.02,.19-.03,.43,.13,.83,.38,.31,.19,.4,.31,.91,.73,.05,.04,.1,.08,.16,.13,.13,.1,.27,.2,.41,.32,.08,.06,.16,.12,.24,.18,.17,.13,.33,.24,.47,.34,.07,.04,.14,.09,.21,.13s.14,.08,.21,.12c.09,.05,.19,.09,.29,.14,.09,.04,.17,.07,.25,.09,.14,.04,.26,.07,.36,.09h.04c.13,.02,.24,.02,.35,.05,.08,.03,.17,.06,.28,.13,.05,.03,.09,.06,.13,.11,.43,.33,.61,.87,.77,1.35,.08,.23,.15,.67,.28,1.54,.1,.72,.16,1.07,.18,1.36,.05,.61,.02,.94,0,1.73v.13c-.01,.21-.02,.41-.02,.61-.02,.61-.02,1.19,.02,1.8,.01,.19,.06,1.1,.27,2.27,.24,1.35,.42,1.52,.91,3.54,.38,1.57,.28,1.5,.54,2.36,.12,.4,.45,1.21,1.09,2.82,.21,.5,.49,1.21,.91,2.27,0,0,.23,.57,.64,1.63,.42,1.1,.48,1.29,.54,1.55,.08,.33,.16,.76,.18,1.72,.03,1.17-.05,1.61-.09,2.64-.02,.75,.02,.56,.09,2.9,.06,1.97,.03,2.07,.09,3.09,.07,1.03,.12,1.12,.19,2.18,.04,.73,.06,1.37,.09,2.63,.06,2.62,.03,3.44-.09,4.36-.07,.48-.14,.89-.28,1.36-.18,.63-.39,1.07-.81,1.91-.65,1.27-.98,1.91-1.46,2.73-.56,.95-.89,1.52-1.45,2.27-.65,.87-.91,1.05-1.54,1.9-.63,.84-.96,1.29-1.27,2-.2,.43-.47,1.06-.55,1.91-.05,.5,.02,.53,.09,1.81,.06,1.07,.08,1.61,0,2.09-.1,.58-.18,.45-.54,1.73-.15,.5-.25,.94-.46,1.81-.26,1.11-.27,1.25-.27,1.37-.01,.4-.04,1.31,.54,1.81,.2,.17,.44,.24,.91,.37,.44,.11,.74,.15,1.82,.27,.83,.09,1.26,.13,1.82,.18,.49,.04,.85,.07,1.18,.09,.38,.03,1.02,.07,1.81,.09,.95,.03,1.1-.01,1.27-.09,.46-.22,.68-.64,.82-.91,.16-.3,.27-.64,.36-1.54,.08-.75,.07-1.16,.09-2,.05-1.56,.12-1.34,.1-1.91-.07-1.39-.44-1.37-.46-2.63-.01-.93,.19-1.27-.09-1.91-.22-.5-.45-.55-.54-1-.11-.5,.1-.88,.45-1.63,.64-1.37,.24-.7,.91-2.09,.21-.44,.5-1.01,1.27-2.45,.82-1.53,.77-1.39,1.18-2.18,.6-1.15,1-1.92,1.45-3,.41-.96,.65-1.69,.91-2.45,.09-.25,.16-.48,.23-.69,.29-.87,.45-1.4,.53-1.98,.03-.23,.05-.47,.06-.77,0-.15,.01-.31,.01-.49,0-.31-.01-.68-.01-1.13-.01-1.12-.05-1.47-.07-2.17v-.28c-.01-1.34,.08-1.7,.14-3.07,.03-.68,.02-1.38-.01-2.38,0-.12-.01-.23-.01-.36-.01-.45-.03-.96-.05-1.55-.06-1.79-.1-2.87-.16-3.61-.02-.2-.03-.38-.05-.54-.14-1.2-.41-2.79-.95-4.57-.34-1.12-.85-2.3-1.87-4.66-1.35-3.12-1.73-3.69-1.94-5.15-.15-.95,.02-.95-.14-3.06-.09-1.18-.18-1.89-.07-3,.05-.45,.09-.58,.14-1.16,.03-.31,.07-.97,.03-1.84,0-.11,0-.24-.01-.36-.01-.1-.01-.21-.02-.33v-.04s0-.1,0-.15c-.01-.07-.02-.15-.02-.22-.04-.3-.08-.65-.15-1.04,0-.02-.01-.04-.01-.06,0-.07-.02-.14-.04-.2-.09-.53-.17-.84-.31-1.18,0-.01-.01-.02-.01-.03-.25-.55-.58-.95-1-1.47-.27-.35-.51-.6-.59-.68-1.17-1.24-2.58-2.19-2.79-2.47-.04-.03-.05-.06-.04-.07,.01-.02,.05-.02,.12,.01,.05,.02,.12,.05,.21,.09l.67,.03c.26,.05,.86,.3,1.23,.34,.07,.01,.74,.06,.82,.07,.2,.01,.57,.03,.84,.05,1.06,.09,1.69,.2,2.61,.23,.3,0,1.09,.23,1.95,.18,.12-.01,.25-.02,.38-.03,.01,.01,.03,0,.04,0,.11-.01,.22-.02,.33-.03,.12,0,.24-.02,.36-.03,1.26-.11,1.88-.17,2.46-.36,.07-.02,.15-.05,.24-.08,.47-.18,1.25-.53,2.03-1.19,.35-.3,.77-.65,1.13-1.11,.01-.01,.02-.03,.03-.04,.22-.3,.42-.63,.56-1.03,.04-.1,.08-.22,.11-.57,0-.05,.01-.09,.01-.14,.01-.13,.02-.27,.03-.44,0-.17,0-.37,.02-.61,0-.23,.01-.49,.01-.78,0-.33,.01-.62,.01-.88-.01-.18-.01-.37-.01-.58Zm-26.4,11.23c.02-.26,.07-.46,.14-.61-.08,.16-.13,.36-.14,.61Zm4.67-20.39c.2,.26,.31,.42,.43,.53-.15-.12-.29-.28-.43-.53Zm12.19,17.12c.3,0,.94-.01,1.8-.06-.62,.06-1.15,.08-1.8,.06Zm-100.75,11.55c.21-.11,.45-.24,.59-.16,.16,.1,.07,.42,.02,1.09,0,0-.05,.7,.03,1.52,.02,.28,.06,.74,.19,1.15,.26,.86,.85,1.37,1.8,2.18,.77,.66,.71,.47,1.89,1.41,.85,.69,1.28,1.03,1.63,1.36,.44,.41,.57,.59,.94,.78,.33,.18,.54,.21,.61,.41,.08,.23-.11,.49-.39,.85-.4,.52-.6,.78-1,1.28-.56,.7-.96,1.32-1.45,1.76-.49,.44-.62,.42-1.54,1.09-.86,.62-1.47,1.16-1.82,1.45-1.16,1-1.14,1.17-2.22,2.09-.18,.16-.18,.15-1.68,1.32-1.84,1.43-1.89,1.48-2.22,1.73-1.11,.82-1.52,1-2.54,1.68-.81,.54-.86,.63-3.63,2.82-3.93,3.1-3.6,2.74-3.95,3.09-.67,.66-1.52,1.11-2.22,1.73-.13,.11-.48,.42-1,.5-.13,.02-.41,.05-.73-.05-.3-.09-.44-.22-.82-.5-.69-.51-.73-.43-1.14-.77-.35-.29-.46-.47-.82-.86-.39-.44-.58-.59-1.41-1.36-1.65-1.54-1.44-1.44-2-1.91-1.04-.88-2.4-1.77-3.86-3.04-.21-.18-.63-.56-.59-1,.01-.14,.07-.33,.58-.84,.34-.35,.52-.52,.92-.8,.67-.47,.72-.7,1.86-1.82,1.32-1.29,1.37-1.08,2.42-2.15,1.02-1.05,.93-1.21,1.63-1.74,.79-.59,1.05-.5,2.15-1.19,.94-.59,.81-.7,1.91-1.46,.32-.23,1.35-.93,2.76-1.57,1.41-.64,1.78-.56,2.76-1.2,.45-.3,.36-.31,1.4-1.15,1.13-.92,2.05-1.57,2.62-1.98,.73-.52,.68-.45,2.18-1.46,.44-.3,1.26-.86,2.32-1.6,1.28-.9,1.78-1.21,2.52-1.74,.58-.42,.87-.62,.89-.64,.07-.06,.21-.19,.43-.31Z" style="fill:#3169b3;"/><path id="FigureB" d="M31.43,342.76c-.17-.5-.19-.98-.19-1.15,0-.43,.05-.89,.09-1.16,.09-.7,.2-.98,.03-1.12-.11-.1-.3-.08-.51-.03-.75,.17-1.34,.55-2.07,1.09-.49,.35-.48,.37-1.1,.82-.35,.25-.62,.45-.92,.65-.17,.12-.63,.45-1.3,.91-.16,.11-.73,.5-1.58,1.08-1.17,.79-1.15,.76-1.61,1.08-.76,.53-1.31,.95-1.76,1.3-1.66,1.28-1.62,1.39-2.26,1.83-1.21,.81-1.61,.59-3.32,1.31-.87,.37-1.93,1.11-4.09,2.54-1.7,1.13-2.56,1.7-3.27,2.36-1.08,1-1.83,1.97-2.09,1.82-.17-.1,.04-.56,.09-1.54,.04-.75-.05-1.03-.09-1.73-.09-1.52,.26-1.69,.27-3.18,0-1.17-.21-2.07-.36-2.72-.36-1.51-.63-1.49-1-2.82-.32-1.15-.09-1.06-.45-4.72-.12-1.22-.2-1.72-.09-2.54,.06-.49,.15-.81,.64-2.27,.58-1.76,.87-2.65,1.18-3.45,.85-2.24,.76-1.53,1.27-2.91,.12-.32,.26-.72,.64-1.09,.4-.39,.68-.37,1-.73,.32-.36,.37-.76,.45-1.36,.11-.79,.26-1.57,.36-2.36,.13-1.03,.42-1.19,1.45-3.45,.09-.21,.85-1.86,1.54-3.81,.83-2.32,.59-2.26,1.18-3.63,.63-1.45,.79-1.25,2.18-3.9,.74-1.41,.87-1.8,1.45-2.63,.23-.33,.91-1.27,1.91-2.18,1.39-1.27,2.35-1.53,4.18-2.54,.79-.44,.47-.31,5.09-3.54,3.42-2.39,3.9-2.67,4.54-3,.95-.48,2.53-1.26,4.72-1.73,2.41-.51,4.72-.64,4.72-.64,.92-.05,1.78-.05,2.91-.45,1.01-.36,1.7-.86,2-1.09,.4-.31,1.19-.99,1.82-2.09,.38-.66,.68-1.2,.64-1.91-.03-.49-.21-.69-.54-1.45-.35-.81-.52-1.43-.73-2.18-.23-.83-.48-1.76-.5-3-.02-1.51,.33-2.62,.41-2.86,.38-1.15,.91-1.95,1.16-2.28,.46-.63,1.1-1.51,2.25-2.08,1.06-.52,2-.52,3.24-.51,.61,0,1.76,.02,3.17,.47,1.97,.62,3.23,1.68,3.81,2.18,.7,.61,1.15,1.13,1.63,1.71,.85,1.02,1.56,1.86,2.08,3.13,.23,.57,.38,1.32,.67,2.83,.16,.85,.26,1.58,.16,2.4-.06,.45-.17,.86-.18,.91-.17,.6-.31,.78-.45,1.18-.28,.78-.01,.86-.23,2.11-.13,.78-.24,.79-.34,1.57-.03,.24-.06,.53-.14,1.16-.09,.69-.12,.88-.27,1.09-.15,.22-.33,.33-.68,.54-.23,.14-.51,.32-.89,.41-.15,.04-.41,.08-1.16,0-.39-.04-.84-.1-1.5-.27-.76-.2-.77-.3-1.63-.54-1.11-.32-1.4-.26-1.57-.2-.48,.15-.75,.51-.89,.68-.41,.53-.33,.91-.61,1.77-.2,.61-.28,.56-.82,1.7-.52,1.1-.77,1.65-.82,1.98-.14,1.06,.47,1.9,1.67,3.54,.73,1,1.26,1.72,2.21,2.42,.79,.58,1.23,.66,1.94,1.4,.32,.33,.79,.89,1.16,1.67,.11,.23,.39,.86,.58,2.1,.17,1.08,.07,1.37,.13,3.52,.03,1.1,.08,1.94,.14,2.66,.05,.61,.12,1.36,.27,2.25,.11,.68,.21,1.09,.34,1.5,.14,.45,.27,.86,.54,1.29,.26,.41,.41,.48,1.12,1.16,.87,.83,1.31,1.26,1.6,1.8,.16,.3,.37,.79,.45,1.4,.12,.86-.13,1.08-.05,1.59,.12,.71,.72,.94,2.63,2.22,0,0,1.14,.77,2.82,2.09,1.53,1.21,1.7,1.49,1.63,1.68-.11,.34-.96,.3-2.36,.27-3.72-.06-5.58-.09-6.72,.14-1.53,.3-2.29,.75-3.09,.27-.66-.4-.92-1.18-1.04-1.82-.99-1.66-1.54-2.26-1.86-2.5-.04-.03-.28-.2-.54-.5-.19-.22-.38-.43-.45-.73-.08-.29,.02-.4,.05-.82,.02-.4-.04-.69-.18-1.27-.11-.45-.16-.52-.36-1.18-.27-.88-.22-.91-.45-1.63-.13-.4-.28-.88-.54-1.45-.38-.83-.54-.86-.82-1.45-.28-.62-.36-1.18-.5-2.32-.17-1.32-.25-1.98-.18-2.27,.07-.28-.01-.45-.05-.77-.03-.32-.05-.48-.09-.52-.28-.27-1.61,.64-2.72,1.43-2.18,1.55-2.33,1.77-3.41,2.45-.74,.47-1.42,.82-2.76,1.53-2.39,1.26-2.93,1.39-3.37,2.15-.23,.4-.29,1.13-.41,2.59-.09,1.15-.1,1.89-.14,3.81-.04,1.95-.06,2.93-.07,3.13-.1,1.95-.25,2.53-.1,3.81,.09,.76,.15,1.34,.44,2.04,.45,1.08,1.11,1.65,2.18,2.72,1.73,1.75,2.6,2.62,2.86,2.86,2.87,2.65,3.05,2.59,4.77,4.22,3.01,2.87,2.39,3,4.36,4.5,.83,.63,2.2,1.57,4.22,3.27,1.35,1.13,1.91,1.71,1.77,2.18-.19,.65-1.6,.79-2.86,.95-.42,.06-1.13,.15-2.04,0-.91-.15-1.56-.45-2.04-.68-1.23-.59-1.14-.87-2.04-1.23-.74-.29-.89-.14-2.59-.41-1.23-.2-1.84-.3-2.45-.54-.35-.14-.63-.3-2.59-1.77-1.65-1.24-1.63-1.27-2.18-1.63-.62-.42-1.29-.78-2.59-1.5-2.13-1.17-2.1-1.07-2.72-1.5-1.05-.72-.93-.86-2.45-2.04-.29-.23-.52-.4-.71-.53-.44-.31-.6-.39-.94-.66-.24-.19-.42-.34-.53-.44-.96-.86-1.53-1.36-1.8-2.18Zm-25.81,22.68c.12,.49,.26,1.02,.31,1.98,.05,1.15,.17,1.56,.11,3.09-.04,1.02,.01,.8,0,3.18-.02,3.47-.13,2.31-.09,3.27,.04,1.06,.13,1.49-.18,1.91-.5,.66-1.24,.28-1.82,.91-.3,.32-.28,.63-.36,2.91-.08,2.33-.09,1.74-.09,2.27-.02,1.81,.11,2.09-.18,2.54-.44,.69-.97,.44-1.73,1.27-.71,.79-.88,1.71-.91,1.91-.16,.98,.22,1.34,.27,2.63,0,.13-.06,.9-.18,1.91-.07,.6-.13,.99,.09,1.18,.31,.27,.9-.08,1,.09,.11,.18-.55,.61-1,1.27-.36,.53-.31,.81-.64,3.18-.22,1.65-.33,2.1,0,2.45,.24,.26,.56,.3,1.27,.36,1.47,.13,2.2,.19,3.09,.18,.13,0,1.18,.06,3.27,.18,3.84,.22,7.11,.7,10.17,.09,.47-.09,1.26-.28,1.63-.91,.25-.42,.13-.73,0-2.36-.16-1.95-.02-1.83-.18-2.45-.29-1.07-.69-1.36-.54-2.09,.07-.37,.26-.68,.54-1.18,.26-.45,.39-.67,.64-.82,.5-.3,.83,.03,1.18-.18,.39-.24,.32-.89,.27-3-.03-1.35-.01-1.77,0-2,.06-1.08,.09-1.62,.27-2.09,.33-.82,1-1.27,2.36-2.18,.82-.55,1.66-1.11,2.91-1.54,1.11-.38,1.16-.19,3-.73,1.26-.37,1.37-.5,2.18-.64,.87-.14,.99-.03,2.36-.18,1.02-.11,1.03-.18,2-.27,.84-.08,1.38-.13,2.09-.09,1.47,.09,2.02,.48,2.27,.18,.23-.27-.12-.7-.54-2.18-.26-.9-.37-1.61-.45-2.09-.13-.8-.08-.76-.27-2.54-.14-1.28-.2-1.59-.09-1.63,.21-.08,.79,.92,1.45,2.09,.7,1.22,1.04,1.84,1.36,2.63,.49,1.23,.67,2.2,.91,3.54,.4,2.26,.15,2.33,.54,4,.17,.73,.45,1.88,1.09,3.27,.59,1.27,.95,1.58,1.18,2.63,.14,.66,.13,1.24,.09,2.36-.05,1.53-.17,1.51-.27,3.27,0,0-.12,2.03,.36,3.72,.03,.11,.08,.27,.19,.45,.06,.09,.28,.45,.82,.75,.16,.09,.41,.21,1.23,.37,.54,.11,1.05,.18,1.57,.24,.71,.07,1.26,.09,1.63,.1,.55,.02,.95,0,1.5,0,.83-.01,1.24-.02,1.7-.07,.8-.08,.76-.16,1.4-.2,.68-.05,.66,.04,1.8,.03,.92,0,1.02-.06,1.57,0,.48,.05,.55,.11,1.02,.14,.55,.03,.62-.05,1.12,0,.47,.05,.6,.13,.72,.03,.2-.17,.04-.6-.07-1.12-.07-.35,0-.2-.1-1.91-.06-1.13-.08-1.09-.17-2.45-.1-1.51-.17-2.89-.17-2.89-.07-1.35-.07-1.57-.2-2.01-.22-.74-.57-1.26-.95-1.84-.73-1.09-.97-1.08-1.43-1.77-.7-1.06-.83-2.12-1.02-3.75-.19-1.58,.03-1.71-.27-2.72-.14-.47-.41-1.39-1.14-2.31-.61-.77-.92-.74-1.31-1.44-.47-.83-.48-1.66-.48-2.04,0-1.25,.5-1.64,.75-2.79,.24-1.11,.05-1.96-.27-3.41-.32-1.4-.83-2.48-1.84-4.56-1.16-2.4-1.27-2.22-1.77-3.54-.57-1.5-.59-2.14-1.23-3.41-.61-1.2-1.3-2.01-1.63-2.38-.6-.67-1.27-1.18-2.59-2.18-.78-.59-1.92-1.45-3.54-2.45-1.74-1.08-1.51-.76-2.59-1.5-1.47-1.01-2.05-1.69-2.72-1.5-.2,.06-.42,.2-1.01,1.25-.97,1.72-.92,2.3-1.48,3.1-.66,.93-1.17,.78-2.54,1.78-1.72,1.24-1.79,2.1-3.13,3.41-1.65,1.61-2.22,.98-5.04,2.72-2.76,1.71-2.4,2.43-6.13,5.04-1.61,1.13-2.04,1.25-3,2.18-1.07,1.05-1.41,1.74-2.32,1.91-1.01,.18-1.93-.45-2.45-.82-1.17-.81-1.51-1.69-2.18-2.59-.67-.89-.78-.34-2.96-1.91" style="fill:#6bcef3;"/><path id="FigureA" d="M239.16,43.1c.01-1.46,.31-1.78,0-2.36-.4-.74-1.28-.99-1.63-1.09-.29-.08-.96-.23-3.27,.36-1.63,.42-1.57,.56-2.54,.73-1.72,.29-1.89-.17-2.91,.18-1.15,.4-1.15,1.06-2.72,2-.78,.47-1.42,.68-2.09,.91-2.77,.94-3.59,.23-5.02,1.25-.4,.28-1.11,.89-1.79,1.65-.34,.38-.43,.53-.82,.95-.19,.21-.72,.78-1.54,1.45-.9,.75-1.29,.91-2.77,1.91-1.79,1.2-1.66,1.26-3.04,2.13-1.15,.73-2.21,1.3-2.3,1.39-.49,.22-1.36,.6-2.05,.91-1.38,.63-1.3,.64-1.79,.83-.83,.31-1.31,.38-2.68,.68-1.6,.34-2.4,.52-3.09,.73-.63,.19-.61,.22-3.36,1.27-1.83,.7-2.02,.76-2.36,.82-.67,.12-.78,.04-3,0-.64-.01-.1,0-2.91,0-1.52,0-1.71,0-2.09,.09-.6,.16-1.14,.5-2.18,1.18-.93,.61-1.04,.75-2.09,1.45-.95,.64-1.43,.96-1.91,1.18-1.24,.58-2.32,.59-3.18,.64-.02,0-1.86,.33-5.54,1-5.29,.96-6.03,1.19-6.72,1.45-2.01,.76-3.18,1.27-3.18,1.27-2.23,.98-3.07,1.55-3.54,1.18-.5-.38-.24-1.5,0-2.54,.13-.56,.31-1.13,1.45-3.45,.98-2,1.28-2.46,1.45-2.72,.53-.79,.93-1.39,1.63-2,1-.85,1.36-.64,2.54-1.45,.94-.64,.86-.88,2.54-2.54,1.44-1.43,1.42-1.18,2.36-2.18,1.39-1.48,1.27-1.85,2.54-3.09,.85-.83,.82-.58,2.18-1.82,.37-.33,1.02-.98,2.32-2.27,1.24-1.24,1.34-1.34,1.5-1.54,.45-.57,.78-1.18,1.45-2.36,.72-1.26,.63-1.27,1.09-2,.61-.97,1.17-1.62,1.82-2.36,.87-1,1.61-1.64,1.82-1.82,.66-.57,1.03-.9,1.59-1.23,.98-.58,1.87-.78,2.66-.95,1.76-.39,2.22-.1,3.13-.68,.32-.2,.94-.61,1.16-1.36,.2-.68-.04-1.29-.2-1.7-.27-.67-.57-.91-1.23-1.7-.46-.56-.85-1.15-1.63-2.32-.9-1.34-.85-1.42-1.43-2.18-.7-.92-.82-.86-1.5-1.77-.49-.66-.53-.8-1.5-2.32-.66-1.03-1.06-1.66-1.63-2.45-1.21-1.68-1.45-1.91-1.63-2.04-.49-.35-1.07-.55-2.22-.95-.26-.09-.77-.26-1.45-.32-.87-.07-1.15,.12-1.23,.18-.37,.29-.43,.76-.44,.87-.06,.53,.2,.95,.44,1.31,.21,.32,.32,.39,.86,.95,.56,.59,.84,.88,1.09,1.22,.47,.65,.67,1.26,.77,1.59,.16,.51,.29,1.15,.27,2.36-.01,.82-.08,1.38-.41,3.54-.41,2.69-.47,2.93-.59,3.27-.09,.25-.5,1.41-1.45,2.72-.24,.33-.47,.6-.5,.63-.49,.58-.93,.96-1.13,1.13-.85,.74-1.7,1.49-2.56,2.23,0,0-.5,.43-1.68,1.46-1.76,1.54-2.26,2.11-3.9,3.63-2.92,2.69-2.87,2.3-4.68,4.13-.92,.94-1.46,1.57-2.72,2.72-.77,.7-1.4,1.27-2.32,1.95-2.1,1.56-2.52,1.3-3.27,2.27-.45,.58-.26,.62-1.36,3.13-.55,1.27-.83,1.9-1.09,2.32-.86,1.38-1.6,1.56-3.36,3.09-.48,.41-2.04,1.8-3.59,3.86-.98,1.31-1.61,2.18-2.18,3.54-.49,1.16-.43,1.5-.95,2.32-.69,1.07-1.45,1.51-2.32,2.18-1.95,1.52-1.47,1.95-3.41,3.68-1.81,1.61-2.29,1.29-5.04,3.54-1.53,1.26-1.99,1.85-2.32,2.45-.7,1.28-.36,1.76-1.09,3-.84,1.42-1.48,1.27-2.45,2.59-.57,.78-.89,2.16-1.5,4.9-.44,1.96-.65,2.94-.82,4.36-.24,2.06-.06,2.36-.41,3.81-.34,1.41-.64,1.68-.82,3-.15,1.14-.07,2.03,0,2.86,.09,.96,.19,2.08,.68,3.41,.47,1.25,.7,1.13,1.23,2.45,.68,1.72,.32,2.03,.95,3.27,.62,1.21,1.51,1.98,1.91,2.32,.94,.8,1.35,.79,2.45,1.77,.64,.57,1.02,.91,1.36,1.5,.65,1.1,.67,2.2,.68,3.13,0,.52,.02,1.33-.27,2.32-.36,1.22-.72,1.19-1.23,2.59-.38,1.06-.23,1.24-.68,2.45-.25,.66-.47,1.11-.82,1.77-.4,.78-.99,1.91-1.91,3.13-1.01,1.36-1.09,1.03-1.91,2.18-.85,1.19-1.3,2.28-1.77,3.41-.33,.79-.59,1.42-.82,2.32-.13,.52-.28,1.23-.41,3.13-.1,1.49-.18,2.57-.14,3.95,.07,2.31,.37,2.42,.54,4.77,.21,2.78-.05,4.91-.14,5.58-.29,2.17-.78,3.79-1.09,4.77-.56,1.79-.84,2.68-1.5,3.81-.66,1.13-1.06,1.42-1.63,2.72-.47,1.07-.71,2-.82,2.45-.21,.87-.29,1.5-.41,2.45-.18,1.48-.24,2.7-.27,3.54-.09,2,.02,2-.14,2.72-.21,.99-.46,1.27-.54,2.32-.05,.56-.1,1.19,.14,1.91,.2,.62,.38,.59,.95,1.63,.65,1.18,.58,1.49,1.09,1.91,.14,.11,.71,.58,1.41,.5,.36-.04,.67-.27,1.27-.73,.74-.56,.65-.65,1.09-.91,.77-.46,1.08-.2,1.63-.64,.39-.31,.56-.69,.82-1.27,.31-.7,.4-1.3,.45-1.73,.07-.48,.07-.85,.09-1.54,.03-1.23-.05-1.48,.18-1.73,.2-.22,.56-.27,1.27-.36,.89-.12,1.07,0,1.27-.18,.31-.29,.11-.78,.09-1.82-.02-1.04,.17-.95,.18-2,0-.84-.12-1.47-.36-2.72-.2-1-.41-1.74-.45-1.91-.31-1.07-.4-1.09-.54-1.73-.16-.71-.17-1.3-.18-2.45-.01-1.32,.07-2.32,.09-2.54,.11-1.32,.3-2.31,.45-3.09,.31-1.58,.4-1.51,.64-2.91,.11-.66,.16-1.1,.36-1.82,.22-.79,.35-.94,.54-1.54,.21-.67,.19-.95,.36-2.82,.05-.55,.12-1.27,.27-2.72,.22-2.2,.22-1.98,.27-2.63,.07-.95,.06-1.25,.18-1.91,.15-.87,.37-1.5,.45-1.73,.26-.73,.4-.85,.82-1.73,.83-1.77,.57-1.94,1.18-2.82,.55-.79,.8-.7,1.27-1.54,.06-.1,.28-.58,.73-1.54,.37-.81,.44-.96,.64-1.18,.18-.21,.33-.31,1.18-.82,1.3-.77,1.35-.77,1.63-1,.32-.25,.73-.59,1.09-1.18,.36-.6,.49-1.17,.54-1.45,.1-.48,.15-.72,.14-1.04-.01-.35-.08-.54,.05-.77,.02-.03,.18-.31,.5-.36,.31-.05,.55,.14,.59,.18,.23,.19,.25,.42,.36,.82,.08,.28,.24,.61,.54,1.27,.24,.51,.36,.76,.54,1.04,.47,.7,.69,.62,.91,1.09,.11,.25,.12,.7,.14,1.59,0,.55,0,.67,0,1.32,0,.96,0,1.44,.09,1.73,.22,.74,.67,1.21,.82,1.36,.49,.5,1.04,.73,1.45,.91,.59,.25,.86,.25,1.41,.59,.34,.21,.56,.36,.68,.64,.16,.37-.01,.62,.18,.91,.16,.25,.46,.32,.64,.36,1.81,.45,1.12,.45,2.32,.64,.54,.08,1.68,.23,3.22,.23,.96,0,1.44,0,1.95-.18,.42-.14,.86-.41,1.73-.95,.52-.32,.85-.53,1.27-.86,.32-.25,.72-.57,1.14-1.04,.26-.29,.74-.86,1.09-1.73,.33-.83,.37-1.52,.41-2.27,.03-.5,.05-1.08-.09-1.82-.12-.62-.3-1.07-.5-1.54-.22-.53-.39-.96-.73-1.45-.37-.55-.72-.87-1.36-1.45-.65-.59-.97-.89-1.41-1.09-.17-.08-.86-.38-1.77-.36-.59,.01-.56,.14-1.41,.23-.46,.04-.36,0-1.73,0-.8,0-1,.02-1.27-.14-.45-.26-.62-.72-.64-.77-.13-.37,.03-.45,.05-1.27,.02-.69-.08-.89,.09-1.23,.13-.25,.33-.4,.45-.5,.38-.29,.73-.33,1-.41,.81-.24,.84-.85,1.68-1.45,.56-.4,.62-.18,1.86-.68,.57-.23,1.59-.65,2.63-1.5,.32-.26,.82-.68,1.32-1.36,.48-.67,.72-1.27,.77-1.41,.18-.46,.13-.51,.41-1.54,.24-.86,.28-.86,.41-1.41,.12-.49,.17-.89,.27-1.68,.15-1.19,.12-1.27,.23-1.95,.16-1.03,.26-.96,.41-1.86,.04-.23,.09-.56,.18-2.77,.06-1.34,.05-1.41,.09-1.95,.13-1.66,.3-2.22,.36-2.41,.1-.29,.28-.85,.68-1.5,.45-.73,.69-.8,.82-1.29,.2-.8-.21-1.52-.27-1.63-.33-.55-.65-.55-1.43-1.16-.39-.31-.38-.36-1.84-1.98-1.12-1.24-1.01-1.07-1.43-1.57-.89-1.04-1.33-1.56-1.7-2.25-.57-1.05-.44-1.36-1.02-1.98-.25-.26-.55-.5-.89-1.02-.24-.38-.42-.65-.41-1.02,.01-.42,.25-.73,.54-1.09,.4-.49,.8-.76,.89-.82,.14-.09,.5-.3,1.43-.51,.56-.13,.97-.17,1.63-.24,.85-.09,.7-.02,1.63-.1,.99-.09,1.27-.17,1.63,.03,.22,.12,.34,.29,.58,.61,.17,.24,.55,.76,.72,1.57,.03,.14,.16,.79,0,1.63-.14,.74-.33,.74-.61,1.7-.01,.04-.03,.11-.06,.22-.2,.72-.28,1.48-.28,1.48-.16,1.54,.22,1.92-.14,2.32-.41,.46-1.2,.28-1.27,.63-.03,.15,.1,.19,.31,.73,.12,.32,.1,.37,.2,.51,.1,.14,.21,.21,.61,.41,.47,.23,.58,.26,.95,.44,.39,.19,.41,.23,.68,.34,.46,.19,.69,.28,.82,.2,.2-.12,.11-.51,.07-1.77-.02-.79,0-.94,.07-1.09,.05-.11,.11-.23,.82-.95,.29-.29,.4-.4,.75-.75,.67-.67,.75-.78,.82-.89,.07-.11,.26-.42,.41-1.02,.19-.8,.05-1.08,.07-2.35,.02-1.19,.14-1.36,0-2.04-.06-.3-.15-.71-.41-1.19-.23-.43-.38-.48-.54-.89-.08-.19-.24-.62-.2-1.16,.05-.66,.37-1.12,.54-1.36,.31-.42,.68-.67,1.43-1.16,.66-.43,1.13-.74,1.84-1.02,.61-.25,.65-.18,1.84-.54,.92-.29,1.38-.43,1.91-.68,1.11-.53,1.83-1.17,1.98-1.29,.61-.54,.58-.7,1.29-1.36,.58-.55,.98-.8,1.44-1.14,.98-.73,1.59-1.39,2.72-2.61,1.54-1.67,1.24-1.69,2.25-2.59,.56-.5,1.21-.97,2.52-1.91,1.38-.99,1.01-.63,1.7-1.16,.49-.37,.75-.61,1.23-.75,.44-.13,.78-.1,1.29-.07,.77,.05,1.54,.08,2.32,.14,1.24,.09,1.09-.05,2.79,0,1.98,.06,2.22,.24,3.06,0,.59-.17,.54-.29,1.63-.68,1.03-.37,1.19-.31,1.98-.61,.7-.27,.79-.4,1.98-1.02,1.62-.85,1.51-.63,2.25-1.09,.65-.4,.7-.55,2.45-2.04,1.46-1.25,1.28-1.02,1.7-1.43,1.26-1.23,1.2-1.63,2.38-2.66,.54-.47,.56-.39,1.57-1.23,.64-.53,1.19-1.02,1.57-1.36,.89-.8,.91-.86,1.43-1.29,.33-.28,.79-.66,1.43-1.09,.56-.38,1.12-.75,1.91-1.09,.69-.29,.76-.22,1.5-.54,.78-.35,.85-.5,1.43-.75,.55-.24,1.06-.32,2.04-.48,.58-.09,1.36-.21,2.52-.27,1.25-.07,1.28,.02,2.93,0,1.14-.02,1.2-.06,3.34-.14,2.2-.08,1.95-.03,2.25-.07,.44-.06,3.62-.52,4.45-2.54,.19-.46,.18-1.03,.18-2.18,0-1.29-.19-1.37-.18-2.54Zm-87.13,62.32c-.02,.12-.09,.46-.36,1.27-.18,.53-.35,1.01-.64,1.63-.43,.94-.65,1.41-1.14,1.91-.02,.02,0,0-.91,.77-.33,.28-.51,.44-.82,.54-.16,.06-.4,.14-.68,.09-.32-.05-.53-.25-.77-.5-.57-.61-.9-1.19-1-1.36-.53-.94-.83-1.7-.91-1.91-.22-.56-.41-1.05-.54-1.73-.13-.64-.15-1.12-.18-2.09-.02-.59-.01-1.07,0-2,.03-1.96,.09-2.3,.18-2.63,.19-.7,.46-1.21,.54-1.36,.13-.23,.3-.47,.64-.95,.53-.75,.75-.99,.95-1.18,.34-.32,.58-.54,.86-.5,.31,.04,.5,.37,.64,.59,.63,1.03,.65,.56,1.54,1.91,.52,.79,.33,.67,1.32,2.45,.63,1.13,.9,1.54,1.14,2.36,.17,.61,.21,1.08,.23,1.36,0,.18,.02,.68-.09,1.32Z" style="fill:#de4097;"/></svg>