<?xml version="1.0" encoding="UTF-8"?><svg id="Main" xmlns="http://www.w3.org/2000/svg" viewBox="0 0 3232 5142"><path id="JohnDanielsA" d="M3063.06,529.73c-1.85-3.64-2.77-5.46-3.09-6.62-1.7-6.09,.8-8.24-.44-13.68-.79-3.44-2.47-5.57-5.74-9.71-2.42-3.07-5.78-7.32-10.15-9.71-6.5-3.55-16.54-.94-36.63,4.29-7.56,1.97-6.12,1.99-13.44,3.85-5.75,1.46-8.05,1.81-11.32,3.76-4.11,2.45-3.92,3.96-7.04,5.32-4.25,1.85-6.72-.04-13.24-.44-4.93-.31-9.62,.83-18.98,3.09-2.65,.64-6.33,1.75-13.68,3.97-6.78,2.05-10.2,3.09-11.92,3.97-6.09,3.14-5.89,5.34-12.36,9.27-6.01,3.65-6.57,1.99-12.9,5.56-8.59,4.85-8.54,8.47-14.39,9.7-3.78,.79-3.89-.7-12.44-1.13-5.22-.27-9.62-.49-14.57,.88-7.22,2.01-7.11,5.06-13.68,7.06-6.61,2.01-7.72-.79-17.22,0-5.09,.42-14.2,1.17-20.75,7.5-2.6,2.51-4.23,5.65-7.5,11.92-3.03,5.81-3.72,8.43-5.21,11.62-2.07,4.42-4.32,7-24.37,24.58-11.4,9.99-12.74,10.96-14.13,11.92-2.13,1.46-4.62,3.04-21.19,11.48-13.28,6.77-14.36,7.11-18.54,9.71-5.65,3.51-5.88,4.24-13.68,9.27-5.25,3.38-9.1,5.6-15.45,9.27-4.95,2.86-11.43,6.51-19.16,10.64-4.58,1.42-11.48,3.69-19.69,7.02-9.19,3.72-10.67,4.96-22.51,10.15-14.03,6.16-15.58,6.01-26.49,11.04-14.02,6.46-11.98,6.94-20.75,10.59-15.06,6.28-19.83,4.35-38.85,10.59-8.12,2.67-4.77,2.21-22.07,8.83-28.88,11.05-25.23,7.37-39.29,13.68-9.78,4.39-14.69,7.59-22.07,6.62-2.96-.39-6.38-1.45-12.27-1.37-4.04,.06-7.24,.62-10.69,1.37-16.49,3.56-16.37,6.35-22.38,6.24-10.12-.18-10.49-8.08-23.09-9.77-2.39-.32-10.37-1.11-18.54,2.65-6.87,3.16-6.94,6.35-16.04,10.76-5.4,2.62-6.39,1.99-11.66,4.91-1.3,.72-6.07,3.44-11.59,8.61-6.16,5.77-6.82,8.58-10.59,12.58-5.37,5.68-10.37,6.71-22.73,11.32-21.15,7.88-17.51,8.97-30.9,13.18-14.07,4.42-26.07,5.72-37.41,6.95-18.59,2.01-20.91,.27-30.46,3.64-10.01,3.54-11.63,6.92-22.85,10.26-9.61,2.86-14.32,2.13-22.85,3.31-8.62,1.19-21.01,4.31-35.76,13.24-6.65,3.22-17.46,8.02-31.35,12.23-25.57,7.75-28.53,3.47-44.47,10.94-10.68,5.01-20.57,12.19-36.75,18.87-.41,.17-6.32,2.56-14.57,3.64-4.68,.61-14.06,1.84-15.56-1.32-1.01-2.12,1.95-5.33,7.95-11.59,19.37-20.23,24.74-24.61,30.08-33.95,1.01-1.76,2.59-5.06,5.74-11.67,5.04-10.54,8.43-18.45,9.21-20.27,2.51-5.89,4.05-9.86,9.1-23.21,11.2-29.57,10.72-28.68,11.43-30.1,1.21-2.42,1.06-1.93,19.87-31.12,5.26-8.17,6.53-10.15,9.27-13.24,3.03-3.42,5.77-5.82,20.53-16.55,12.95-9.42,14.21-10.02,19.87-14.57,3.25-2.62,2.87-2.45,13.91-11.92,2.39-2.05,3.12-2.67,17.88-15.23,12.16-10.35,18.26-15.55,19.2-16.55,4.93-5.29,3.85-5.32,16.55-21.85,8.31-10.81,10.76-13.38,11.92-14.57,1.4-1.43,4.66-4.69,16.55-13.91,14.73-11.41,15.94-11.23,20.53-15.89,5.72-5.82,4.35-6.63,13.24-19.2,8.46-11.96,15.06-21.31,25.82-30.46,4.77-4.06,7.29-5.47,10.59-9.93,4.53-6.12,3.91-9.04,9.27-17.88,2.56-4.22,2.91-3.9,8.61-11.92,7.48-10.53,6.59-10.68,10.59-15.89,3.1-4.04,8.91-9.32,20.53-19.87,7.88-7.15,10.11-8.89,12.58-10.59,1.46-1.01,5.53-3.75,15-8.34,9.88-4.79,14.81-7.18,20.76-8.88,13.61-3.88,14.65,.63,27.81-2.65,13.09-3.26,22.07-10.21,26.82-13.96,3.71-2.93,7.79-6.21,11.59-11.86,2.52-3.75,6.28-9.34,6.62-17.22,.29-6.69-2.02-11.67-3.97-15.89-3.57-7.71-8.39-12.46-11.26-15.23-3.46-3.35-6.73-5.75-14.57-10.59-21.09-13.05-23.23-11.7-30.46-18.54-6.03-5.71-10.27-12.08-13.24-16.55-4.18-6.28-6.79-11.51-7.95-13.91-2.03-4.23-4.28-8.9-5.96-15.23-2.4-9.02-.57-9.79-2.65-16.55-1.43-4.64-4.48-9.05-10.59-17.88-5.5-7.95-10.14-13.71-11.92-15.89-6.6-8.1-8-8.91-14.57-16.55-14.45-16.81-14.61-20.98-23.84-27.15-4.56-3.05-11.54-7.71-17.88-5.96-1.64,.45-4.29,1.63-8.61,1.99-3.44,.29-4.05-.27-6.62,0-.8,.08-7.2,.83-10.68,5.08-3.49,4.26-3.12,10.89-1.24,15.45,3.27,7.93,10.03,6.91,21.19,17.88,2.8,2.75,6.61,6.55,9.93,12.58,4.27,7.75,5.42,14.96,6.62,22.51,1.08,6.79,1.23,12.1,1.32,15.89,.2,8-.36,12.87-.66,17.88-.49,7.95,.04,15.6,1.1,30.9,1.11,16.01,2.28,22.61,.88,33.33-.52,3.96-1.56,9.84-5.3,15.89-1.4,2.27-1.77,2.28-6.62,7.95-6.29,7.35-11.47,14.11-14.7,18.34-2.96,3.86-3.88,5.2-6.24,7.97-6.2,7.3-11.66,12.04-14.19,14.23-10.76,9.34-21.39,18.83-32.23,28.08,0,0-6.28,5.36-21.14,18.36-22.23,19.45-28.42,26.58-49.2,45.76-36.74,33.92-36.2,28.98-58.92,52.06-24.98,25.38-24.69,27.33-34.32,34.32-9.39,6.81-18.02,10.69-25.33,13.96-18.17,8.15-23.03,6.6-33.11,14.57-8.68,6.87-14.81,15.72-17.22,19.2-3.1,4.49-5.36,7.75-7.28,12.58-4.52,11.38-.73,15.23-3.48,26.47-2.64,10.74-8.78,18.08-16.38,27.17-5.54,6.62-8.7,8.87-14.57,14.57-13.29,12.91-14.25,18.08-26.21,32.22-22.09,26.12-29.99,21.72-41.44,41.88-2.82,4.96-3.02,6.42-13.14,25.89-2.57,4.93-1.98,3.73-11.26,21.19-11.51,21.65-12.27,23.22-15.11,26.79-7.1,8.91-8.81,7.17-15.35,16.26-5.57,7.73-5.51,10.63-11.92,19.2-1.03,1.38-5.28,6.98-11.92,13.24-9.3,8.77-12.18,8.35-22.76,17.66-6.87,6.05-11.65,11.5-13.85,14.11-7.65,9.06-7,10.83-11.73,15.91-8.09,8.68-13.17,6.96-27.81,15.89-4.1,2.5-10.46,7.85-23.18,18.54-5.59,4.7-14.03,11.94-23.84,21.85-8.9,9-11.01,12.19-12.58,15.89-3,7.09-1.32,9.63-4.39,18.12-3.24,8.98-8.27,14.86-10.51,17.43-7.91,9.09-13.15,8.9-21.52,15.43-15.57,12.14-20.86,31.02-25.16,46.35-.5,1.78-3.17,11.46-4.64,24.5-1.19,10.57-.37,12.56-1.34,19.87-2.04,15.42-6.86,15.63-10.58,31.11-4.2,17.48-2.44,35.42-1.99,39.73,.96,9.17,2.41,12.95,.66,19.87-2.13,8.44-6.04,9.74-10.59,19.87-3.7,8.23-4.55,14.99-5.66,23.87-1.53,12.24-2.49,19.91,1.02,28.44,2.27,5.5,4.56,6.92,9.27,13.24,6.81,9.14,9.93,16.82,15.03,29.37,13.29,32.7,7.22,38.22,18.08,58.7,10.85,20.46,27.14,34.21,29.8,36.42,11.26,9.34,20.92,13.78,33.11,28.47,7.37,8.89,10.28,15.04,11.26,17.22,5.8,12.91,5.94,24.61,5.96,31.12,.02,9.99-1.66,17.56-2.65,21.85-.89,3.88-1.75,6.61-9.27,26.49-7.07,18.67-7.08,18.3-8.17,21.85-4.13,13.53-2.65,14.88-6.62,26.05-2.64,7.44-5.44,12.87-9.27,20.31-4.44,8.62-6.66,12.93-10.15,17.22-5.37,6.59-7.92,6.92-13.24,13.68-4.23,5.37-5.52,8.86-8.39,14.13-7.89,14.51-12.46,14.54-28.25,37.08-6.24,8.9-8.11,12.58-9.27,17.22-2.26,9.03,.89,10.89-2.12,17.55-.67,1.48-1.44,2.75-14.43,16.88-4.66,5.07-4.77,5.14-5.3,5.96-4.93,7.75-4.33,16.66-3.97,21.19,.66,8.31,2.85,8.87,2.29,15.71-.36,4.43-1.39,5.48-2.29,11.77-.45,3.17-.56,5.47-.66,12.91-.16,12.08-.25,18.12,0,23.84,.35,8.06,.52,12.09,1.32,17.22,1.43,9.08,3.07,11.65,5.59,23.42,.4,1.84,1.67,7.9,2.68,15.32,.8,5.89,2.29,18.79,1.59,35.43-.24,5.66-.58,13.12-2.25,22.84-1.81,10.49-3.21,12.18-5.63,23.84-2.88,13.88-1.34,13.61-3.97,26.82-2.07,10.4-4.58,18.38-8.28,30.13-2.48,7.87-2.86,8.3-6.59,20.09-3.41,10.79-3.61,12.06-5.26,16.13-1.05,2.6-2.91,6.88-10.34,19.4-6.94,11.69-7.81,12.15-13.91,22.51-8.23,14-9.78,18.51-10.59,21.19-2.19,7.2-2.7,13.34-2.98,16.89-.7,8.92,.4,11.67,.33,19.87-.09,10.93-2.16,19.21-3.53,24.72-4.5,18.04-9.3,18.8-8.39,28.69,.54,5.89,2.61,9.6,.44,15.01-1.99,4.96-5.02,5.08-6.62,9.71-1.73,5.01,.74,7.99,2.65,16.78,.44,2.01,2.33,11.16,1.32,21.19-.75,7.44-2.25,6.96-4.86,20.75-2.3,12.17-1.59,14.96-.88,16.78,1.71,4.38,4.27,5.35,6.15,11.45,1.35,4.39,.35,4.96,1.79,8.42,.55,1.33,3.1,7,8.83,9.71,4.76,2.26,6.42-.03,10.15,2.21,4.51,2.71,3.1,6.67,7.5,10.59,3.88,3.45,10.06,4.91,15.01,3.53,5.32-1.48,4.76-5.02,12.36-9.27,6.04-3.38,7.02-1.5,11.48-4.86,2.78-2.09,5.48-5.15,9.41-9.59,.6-.68,2.11-2.4,4.49-4.24,.15-.12,1.78-1.37,2.99-2.05,4.7-2.62,8.47,.39,14.89-.89,1.58-.32,5.01-1.01,7.5-3.53,2.81-2.85,2.58-6.15,3.09-14.57,1.07-17.43,2.9-16.59,2.21-25.6-.34-4.48-.95-6.75,0-10.59,1.31-5.29,3.67-5.82,6.18-11.04,4.67-9.72,1-17.28,5.11-19.26,.89-.43,3.31-.05,8.13,.72,4.22,.67,4.4,.99,7.06,1.32,4.4,.55,8.35,1.05,11.48-.88,1.08-.67,3.09-2.26,4.67-7.44,2.26-7.44,.81-13.08-.25-21.26-1.59-12.21,.25-10.41-1.32-22.51-1.6-12.3-3.47-13.88-4.41-23.4-1.12-11.24,1.2-11.95,1.02-23.54-.34-21.75-8.83-40.43-10.18-43.34-2.92-6.28-5.6-10.34-7.62-18.54-.96-3.9-2.5-10.4-1.66-18.54,.81-7.84,2.84-7.64,4.97-17.88,1.84-8.88,1.88-16.57,1.9-22.17,.04-7.95-.65-7.92-.25-13.91,.47-6.98,1.46-8.02,2.32-16.89,.77-7.89,.08-8.1,.99-13.24,.73-4.11,1.26-4.53,3.97-13.57,2.38-7.94,3.57-11.91,4.39-16.69,1.09-6.3,.38-6.44,1.57-14.1,1.14-7.37,1.75-6.94,2.98-14.24,1.57-9.37,.78-11.36,2.65-18.87,.9-3.6,1.48-4.78,2.98-9.27,2.15-6.44,5-15.01,6.29-24.17,1.72-12.15-.92-13.9,1.66-26.49,.72-3.54,.9-3.25,2.65-10.93,2.12-9.32,3.18-13.97,3.64-19.2,.64-7.23-.35-7.25,.33-15.56,.64-7.86,2-13.59,2.32-14.9,1.2-4.95,1.9-5.82,6.62-18.21,5.51-14.45,5.35-15.32,7.95-20.2,1.79-3.37,1.23-1.75,8.61-13.57,4.37-7.01,6.61-10.61,9.27-15.56,1.19-2.22,2.78-5.45,5.96-11.92,4.44-9.03,4.07-8.54,6.29-12.91,4.47-8.8,4.97-8.82,6.95-13.57,1.87-4.5,3.18-8.69,3.97-11.26,2.44-7.86,1.71-7.57,2.65-9.27,3.01-5.44,8.6-4.96,23.18-10.59,9.25-3.57,13.93-5.43,16.55-8.94,3.49-4.67,2.53-8.19,7.28-12.25,3.41-2.92,5.52-2.48,8.14-5.82,1.9-2.42,2.47-4.79,3.44-9.08,1.31-5.76,.56-6.67,1.66-13.24,.66-3.95,1.64-7.85,3.31-11.92,2.08-5.06,3.7-6.67,4.97-7.61,.76-.57,4.13-3.07,6.95-1.99,1.95,.75,2.08,2.61,4.3,6.95,2.51,4.89,3.21,4.2,6.62,10.26,2.31,4.11,3.76,7.58,4.25,8.77,1.52,3.73,1.52,4.58,3.5,9.59,1.64,4.15,2.46,6.23,3.47,7.51,2.25,2.85,3.71,2.68,6.67,6.25,.64,.77,1.54,2.18,3.31,4.97,3,4.72,4.5,7.08,4.86,8.16,.41,1.25,.6,2.39,.11,10.71-.3,5.1-.5,6.88-.66,9.6-.31,5.21-.17,9.01,0,13.57,.46,12.37,.74,18.67,3.42,24.46,2.13,4.6,4.64,7.39,5.19,7.99,3.55,3.86,7.35,5.81,10.93,7.62,6.14,3.09,6.94,2.09,11.92,4.97,1.37,.79,.51,.4,9.26,6.91,5.83,4.34,7.67,5.59,10.6,6.66,3.17,1.16,3.64,.66,4.64,1.66,3.28,3.3-1.36,9.34,1.99,14.24,1.89,2.77,5.18,3.48,5.96,3.64,4.06,.87,6.21-1.39,10.59-2.65,8.58-2.46,10.87,3.18,21.52,1.66,6.44-.92,6.96-3.18,11.92-2.65,5.46,.58,5.64,3.4,11.92,4.97,7.5,1.87,10.1-1.44,15.23,1.32,4.19,2.26,3.26,4.9,6.95,6.29,2.93,1.1,3.87-.43,15.89-3.31,6.24-1.5,9.36-2.24,10.26-2.32,3.06-.25,4.8,0,5.96-1.32,1.46-1.67-.04-3.53,1.32-6.95,1.06-2.66,3.02-4.17,3.64-4.64,2.9-2.18,6.21-2.24,7.28-2.32,4.7-.34,8.28-4,19.2-15.56,17.27-18.27,18.33-19.7,19.87-22.51,4.62-8.49,5.98-15.79,6.29-17.55,1.22-6.97,.67-12.01-.33-21.19-.39-3.57-1.54-12.9-4.92-25.01-2.64-9.43-4.16-14.86-7.99-21.67-2.83-5.03-5.75-8.54-11.59-15.56-7.16-8.62-10.74-12.92-14.57-15.56-10.99-7.58-22.8-8.12-26.16-8.28-2.55-.12-6.7-.31-11.92,.66-2.2,.41-2.93,.72-8.94,1.99-4.76,1-6.3,1.23-6.95,1.32-3.16,.45-5.38,.54-8.28,.66-7.07,.3-8.27-.27-8.94-.66-1.01-.59-1.62-1.27-3.31-1.99-.14-.06-1.95-.81-3.97-.99-4.82-.44-6.31,2.7-9.93,2.32-3.4-.36-5.69-3.51-7.3-5.73-2.04-2.81-2.69-5.42-3.62-9.17-.93-3.72-1.13-6.59-1.32-9.6-.34-5.17-.51-7.76,.33-10.93,1.05-3.95,3.02-6.59,4.3-8.28,3.1-4.07,5.66-5.33,14.57-11.26,7.01-4.66,10.52-7,14.24-9.93,6.58-5.2,6.71-6.35,10.93-8.94,5.32-3.26,9.15-3.9,14.9-5.63,2.02-.61,13.69-4.11,22.85-9.6,8.98-5.39,14.14-11.85,23.18-23.18,3.91-4.9,6.89-9.24,12.58-17.55,4.93-7.2,1.4-2.45,7.61-11.92,3.52-5.37,4.49-6.63,4.97-9.27,.76-4.17-.86-5.31,.33-9.93,.89-3.47,2.22-4.46,1.66-6.62-.5-1.89-1.72-1.9-3.97-4.97-1.49-2.03-3.37-4.59-2.65-6.62,.55-1.53,2.06-1.3,4.3-2.98,2.8-2.09,3.86-4.99,5.3-8.94,.68-1.87,1.48-4.56,1.99-8.61,.87-7.03-.23-9.46,0-14.9,.21-4.84,1.35-8.2,3.64-14.9,3.94-11.54,6.09-11.16,8.61-19.53,2.22-7.38,2.3-13.48,2.4-21.47,.12-9.65-.99-18.27-1.08-18.93-1.05-7.88-2.15-10.38-1.66-16.22,.3-3.53,1.08-6.33,2.65-11.92,1.67-5.97,2.68-8.09,4.97-14.9,4.39-13.09,2.81-11.64,4.97-16.22,3.45-7.33,6.35-8.57,10.26-17.88,1.38-3.29,2.47-6.57,1.32-9.93-.68-2.01-1.94-3.41-3.64-5.3-1.98-2.19-3.76-4.17-6.62-5.3-3.95-1.55-6.03,.06-7.62-1.66-1.59-1.72,.13-3.72-.66-7.61-.9-4.4-3.54-4.04-6.62-9.93-2.69-5.13-2-7.92-4.9-9.59-1.22-.7-1.61-.36-5.03-1.01-2.9-.55-4.91-1.25-8.94-2.65-5.71-1.99-8.56-2.98-9.93-4.3-1.38-1.33-1.44-2.06-4.3-7.61,0,0-1.76-3.41-4.3-7.95-3.88-6.91-6.18-6.82-13.91-16.55-4.31-5.44-3.82-5.75-8.61-11.59-3.41-4.16-4.48-5-6.29-7.95-2.74-4.47-2.66-6.38-4.97-11.26-1.03-2.18-3.42-7.13-7.62-11.59-6.99-7.43-12.86-6.95-14.24-12.58-.55-2.26,.42-2.21,0-7.95-.37-5-1.2-6.32-.33-8.61,.87-2.3,2.38-2.72,5.38-5.39,4.79-4.27,3.91-5.85,7.53-9.18,2.91-2.68,6.69-3.99,14.24-6.62,6.24-2.18,7.41-1.89,11.26-3.97,4.7-2.54,4.5-3.8,7.62-4.64,3.87-1.04,4.9,.71,12.39,.64,4.16-.04,6.31-.09,8.14-1.63,2.43-2.06,1.57-4.48,3.64-5.96,1.58-1.13,3.75-.9,10.93,1.66,9.45,3.37,10.31,4.63,16.22,6.29,7,1.96,7.38,.65,9.95,2.49,4.88,3.48,4.36,8.83,9.57,11.06,2.75,1.18,3.68,.02,5.31,1.35,2.71,2.19,1.07,6.09,1.43,15.04,.34,8.6,2.04,9.66,.62,14.08-.99,3.08-2,3.15-4.03,8.28-.8,2.01-1.96,4.95-2.65,8.94-.66,3.83-.43,5.95-1.66,10.74-.35,1.34-.62,2.16-.81,2.79-2.14,7.03-1.23,13.69-1.5,18.59-.22,3.86-1.33,9.45-5.63,16.22-1.08,1.19-2.6,3.06-3.97,5.63-2.01,3.76-1.47,4.87-2.98,5.96-2.09,1.5-4,0-9.93,1.32-2.09,.47-2.63,.83-2.98,1.32-.93,1.34,.18,2.78,.99,7.28,.52,2.86,.29,3.48,.99,5.96,.42,1.47,1.19,4.19,2.12,4.17,.99-.02,.71-3.15,2.85-4.83,2.21-1.74,5.62-.85,7.62-.33,1.97,.51,4.73,1.59,8.28,4.64,5.39,4.62,8.31,10.07,9.55,12.68,3.02,6.34,3.1,10.52,5.35,10.83,1.69,.23,3.27-1.91,4.3-3.31,2.91-3.95,2.85-7.42,4.3-15.56,.65-3.67,1.55-7.28,2.32-10.93,2.33-11,2.53-11.7,2.98-12.91,2.48-6.59,6.06-10.86,7.28-12.25,2.49-2.82,4.8-4.57,7.95-6.95,5.5-4.17,6.33-3.69,9.6-6.62,1.9-1.7,5.52-5.01,7.62-10.26,1.06-2.65,1.27-6.11,1.66-12.91,.38-6.76,.57-10.14,.33-13.91-.28-4.38-1.07-8.44-2.65-16.55-1.64-8.44-1.91-8.11-1.99-10.59-.18-6.11,1.45-8.34,.33-13.24-.16-.72-.41-1.61-3.64-7.62-5.76-10.72-6.9-11.47-8.28-15.89-1.38-4.44-1.62-8.16-1.66-10.26-.03-2.11-.07-4.73,.66-7.28,1.4-4.86,4.71-6.28,10.93-11.92,.99-.89,5.07-5.34,13.24-14.24,5.23-5.69,6.58-7.26,9.6-9.27,4.68-3.11,9.14-4.48,10.93-4.97,.96-.26,2.06-.52,7.62-1.32,7.7-1.11,9.59-1.19,12.58-1.66,5.56-.87,9.4-2.24,15.23-4.3,3.31-1.17,9.65-3.58,17.22-7.62,1.98-1.05,8.43-4.56,16.22-10.26,4.36-3.19,10.49-7.73,17.22-14.9,5.13-5.48,4.29-5.75,8.94-10.59,5.81-6.06,7.66-6.19,17.88-14.57,9.83-8.06,8.88-8.57,17.88-15.56,5.38-4.19,7.18-5.14,10.59-8.61,4.95-5.03,5.04-6.97,9.93-13.24,5.62-7.21,6.25-5.61,16.89-17.22,3.38-3.69,3.99-4.58,10.93-12.25,4.73-5.23,7.1-7.84,7.62-8.28,8.48-7.12,12.75-3.72,22.18-10.93,2.93-2.24,4.97-4.44,10.26-7.95,2.27-1.5,3.08-1.88,5.63-3.64,4.86-3.36,5.75-4.62,8.61-6.62,5.35-3.75,10.52-5.14,13.57-5.96,5.12-1.37,9.08-1.52,13.24-1.66,7.42-.24,13.05,.6,19.87,1.66,8.44,1.3,8.48,1.91,16.22,2.98,1.42,.19,7.8,1.05,16.4,1.35,8.01,.28,12.28,.4,18.03-.69,4.51-.86,4.01-1.33,9.75-2.67,5.79-1.35,7.42-1.12,19.39-2.63,11.12-1.4,13.76-2.11,16.22-2.98,3.8-1.34,3.48-1.75,9.27-4.3,7.97-3.52,10.21-3.46,19.2-6.95,.73-.28,5.02-2.18,13.57-5.96,4.2-1.86,10.07-4.45,17.88-7.95,7-3.13,9.77-4.4,13.57-6.29,3.28-1.64,5.68-2.91,8.28-4.3,8.73-4.67,13.09-7,16.55-9.27,6.09-3.99,10.12-7.65,15.89-12.91,2.43-2.21,1.99-1.93,12.58-11.92,.88-.83,3.02-2.85,5.96-5.63,5.41-5.12,7.58-7.2,10.26-9.93,2.29-2.33,3.47-3.53,4.97-5.3,2.64-3.11,3.27-4.37,5.3-6.95,1.44-1.84,3.72-4.1,8.28-8.61,3.19-3.16,5.59-5.44,9.27-8.94,2.78-2.65,4.2-3.99,5.3-4.97,4.06-3.61,5.91-4.79,8.94-7.28,4.84-3.99,4.09-4.26,10.59-10.26,4.49-4.14,7.42-6.85,11.92-9.93,4.37-3,5.5-3.11,8.94-5.96,4-3.31,4-4.42,7.62-7.62,4.14-3.66,6.07-3.92,11.72-7.6,7.55-4.92,5.9-5.63,11.78-9.28,5.89-3.66,8.63-3.63,22.39-9.35,1.21-.5,2.85-1.21,5.18-2.01,2.76-.95,4.65-1.38,7.36-2.32,2.32-.8,4.33-1.49,6.33-2.53,4.05-2.13,5.11-4.19,8.4-6.96,3.5-2.95,6.69-4.3,10.59-5.96,8.17-3.47,15.3-4,19.87-4.3,7.55-.5,7.06,.68,13.58,.02,9.3-.93,9.86-3.29,17.54-3.67,5.56-.27,4.79,.99,15.85,1.67,3.14,.19,6.82,.23,14.18,.32,6.57,.07,10.81,.02,12.39,0,10.27-.14,13.56-.46,24.48-.99,14-.68,13.04,.04,17.57-.73,5.44-.92,6.02-1.78,13.86-3.25,2.22-.42,6.32-1.18,11.59-1.66,10.55-.96,12.83,.39,18.54-1.32,4.14-1.24,6.74-3.09,9.93-5.3,25.24-17.43,26.99-15.35,30.45-21.37,3.87-6.72,7.16-18.85,2.29-27.46-2.67-4.71-6.66-6.39-6.69-11.21-.04-5.37,4.89-6.44,4.7-11.91-.09-2.46-1.1-2.65-6.02-12.37Zm-1102.52,781.81c-2.19,4.62-2.42,4.43-3.09,6.4-1.26,3.71-.6,4.77-1.55,8.39-1.08,4.12-2.5,4.86-3.97,8.39-1.71,4.09-.92,5.74-1.55,13.02-.83,9.62-3.05,16.33-4.41,19.87-2.48,6.41-4.55,8.54-5.96,9.71-1.23,1.02-3.41,2.02-7.73,3.97-3.55,1.61-6.57,2.97-10.82,4.41-4.59,1.56-6.88,2.35-8.61,2.21-4.08-.33-6.95-2.88-10.82-6.4-3.07-2.8-4.02-4.4-7.95-9.05-5.82-6.91-5.74-5.79-9.01-9.96-4.63-5.89-9.65-12.28-10.41-19.84-.14-1.38-.29-4.32-1.33-8.4-.72-2.81-1.52-4.83-1.9-5.79-2.07-5.25-3.98-10.57-6.05-15.83-3.08-7.82-2.64-15.51-1.77-30.9,.51-8.9,.99-17.4,3.97-22.96,.5-.94,2.43-4.32,3.57-8.19,.72-2.46,1.52-5.64,1.52-5.64s.3-1.2,.53-2.16c1.25-5.28-.47-11.98,.99-18.22,.83-3.54,2.43-5.88,5.52-10.37,2.84-4.14,3.61-4.01,6.84-8.17,5.63-7.24,5.05-9.91,10.59-15.89,5.48-5.91,8.08-5.49,8.83-5.3,1.77,.46,2.86,2.17,3.31,2.87,1.74,2.72,.96,4.94,1.55,7.73,.62,2.93,2.13,3.53,6.62,8.61,5.03,5.69,3.76,5.66,9.49,12.36,3.47,4.06,4.4,4.62,7.73,8.83,1.45,1.84,3.15,4.01,5.08,7.06,1.66,2.63,2.75,4.81,4.86,9.05,2.85,5.72,2.65,5.82,4.86,10.15,2.53,4.97,3.07,5.39,5.08,9.49,2.37,4.86,2.06,5.18,3.91,9.08,4.77,10.03,8.18,10.72,9.11,17.19,.59,4.1-.22,7.7-.4,8.48-.18,.76-.38,1.44-3.35,8.29-1.73,4-2.6,6.01-3.31,7.5Z" style="fill:#f208c6;"/><path id="Scarf" d="M1545.44,3938.29c-1.85-3.54-4.67-5.54-6.17-6.61-1.47-1.05-3.2-2.29-5.85-2.98-.79-.21-4.45-1.09-8.77,.33-3.5,1.15-5.73,3.22-7.15,4.63-2.49,2.47-2.25,3.55-4.55,5.29-2.51,1.9-4.21,2-7.47,3.31-3.42,1.37-5.55,2.97-9.1,5.62-5.93,4.44-8.9,9.91-12.35,15.54-2.71,4.42-7.6,11.03-17.27,24.33-9.72,13.37-9.85,11.8-16.07,21.19-1.89,2.84-5.98,9.8-14.1,23.6-6.77,11.51-7.04,12.08-7.47,13.23-1.07,2.82-2.41,7.16-3.57,27.78-.62,10.91-.3,10.71-.87,17.34-.19,2.24-.75,8.37-2.92,21.97-1.83,11.49-2.14,11.56-4.01,22.86-2.21,13.36-3.32,20.2-3.57,28.11-.11,3.31-.02,6.53-.02,6.53,.15,6.77,.78,11.14,.99,13.64,.64,7.36-1.24,10.33-2.6,19.18-2.4,15.59,1.77,17.03,0,38.36-.59,7.09-1.51,12.54-2.17,16.32-1.32,7.67-2.13,12.23-4.33,18.08-1.05,2.79-1.45,3.3-2.6,6.61-.86,2.48-2.62,7.59-3.36,12.94-.58,4.2,.17,5.82,.11,12.85-.11,13.7-.74,16.12,0,25.14,.63,7.7,1.28,8.38,1.3,13.89,.02,8.36-1.48,10.93-3.25,23.15-1.04,7.15-1.42,12.42-1.95,19.84-.98,13.59-.35,15.49-1.3,23.15-1.1,8.86-3.03,15.25-5.09,21.92-11.68,37.84-17.55,56.83-18.95,60.1-10.51,24.51-15.3,25.19-22.75,47.62-.97,2.92-5,15.32-7.8,32.41-1.7,10.38-4.9,30.82-2.07,55.68,.8,7.06,3.84,18.65,9.87,41.55,11.25,42.71,12.18,42.05,15.69,59.35,4.16,20.51,7.51,44.5,7.84,46.9,1.59,11.44,2.38,17.15,2.57,18.96,1.05,9.96,.76,11.75,2.13,16.22,2.41,7.84,6.6,13.07,9.47,16.65,5.97,7.44,12.11,11.57,13.65,12.57,8.42,5.49,10.71,3.66,17.55,8.6,5.31,3.83,8.08,7.94,13,15.21,2.31,3.42,2.55,4.17,11.7,21.17,6.37,11.84,8.15,14.99,11.7,19.18,1.6,1.89,2.79,3,3.38,3.61,1.48,1.52,2.01,2.73,4.61,8.25,3.94,8.36,3.56,7.39,3.97,8.39,3.4,8.12,2.19,9.25,5.3,17.66,2.67,7.23,4.07,7.74,4.86,12.8,.89,5.72-.25,9.21,.62,9.48,1.64,.5,6.8-11.48,9.75-19.18,2.99-7.81,5.97-15.71,7.73-26.49,.69-4.24,1.05-8.42,1.77-16.78,.38-4.45,.51-6.79,.44-9.71-.09-3.93-.5-7.25-.88-10.37-.16-1.34-.54-4.41-1.1-7.5-1.62-8.92-2.77-15.24-7.06-21.19-3.45-4.77-7.77-8.52-7.77-8.52-.97-.84-2.64-2.29-4.76-4.52-.95-1-2-2.25-3.3-4.06-8.12-11.33-10.37-22.98-12.25-32.73-1.53-7.92-2.82-14.94-1.4-24.15,1.12-7.25,3.39-12.47,5.2-16.54,1.37-3.07,2.69-5.59,4.02-7.79,5.25-8.74,8.99-12.78,12.23-17.34,8.54-12.03,10.24-25.16,11.12-32.02,.45-3.52,.38-9.04,.22-20.09-.24-17.31-1.43-21.68-3.11-25.42-1.54-3.43-2.72-4.63-4.51-9.45-1.24-3.36-2.02-6.7-3.57-13.38-1.1-4.74-1.76-8.17-2.02-9.58-.26-1.39-.77-4.16-1.31-7.73,0,0-.54-3.53-.89-6.49-1.1-9.15-2.16-17.98,.73-27.26,1.04-3.34,2.37-5.91,5.02-11.04,1.61-3.13,3.22-5.88,6.38-11.25,2.48-4.22,4.36-7.34,4.94-8.29,5.77-9.56,5.11-8.75,14.24-24.17,6.2-10.47,7.23-12.07,8.6-15.89,1.66-4.62,1.33-5.56,3.54-11.17,1.76-4.48,2.8-5.97,5.64-12.87,1.37-3.33,2.06-4.99,2.76-7.14,1.85-5.62,2.56-10.11,3.07-13.4,.41-2.69,.9-6.56,1.1-11.37,.18-4.13,.13-8.74-2.06-28.93-.58-5.3-1.05-9.37-1.58-13.89-1.58-13.56-1.7-13.65-2.39-19.81-1.16-10.38-2.24-21.14-2.38-34.4-.22-20.34,2.62-19.93,2.6-42.99-.01-16.7-1.53-25.71-3.9-33.73-2.17-7.34-3.57-12.09-7.38-17.58-4.86-7.01-9.11-8.71-12.77-16.82-1.68-3.72-2.31-6.74-3.25-11.24-1.87-8.95-1.91-15.97-1.95-19.18-.11-9.2-.61-17.52-1.61-34.15-.3-4.98-1.17-14.1-2.94-32.33-2.73-28.08-3.3-30.04-4.42-32.64-1.51-3.52-4.28-8.81-4.86-16.57-.11-1.4-.07-4.36,0-10.26,.1-7.96,.14-11.95,.33-12.91,1.17-6.01,4.07-11.51,4.4-15.92,.16-2.14,.24-3.75,.24-3.75,.12-2.47,.07-3.3,.41-6.84,.57-5.85,1.11-7.76,1.14-12.55,.02-3.73-.3-3.82-.1-6.65,.14-2.07,.43-6.19,2.2-9.9,1.44-3.02,2.93-3.8,6.82-7.61,7.62-7.46,6.62-9.09,12.47-13.85,2.47-2.01,5.62-4.53,10.44-6.18,5.68-1.95,11.11-1.81,11.53-1.8,4.21,.14,5.52,1.08,8.75,.28,2.45-.61,4.04-1.73,6.64-3.6,4.65-3.34,6.98-5.01,8.33-7.93,2.76-5.95,.02-12.6-.65-14.22-1.59-3.87-2.78-3.41-4.34-7.51-.57-1.49-.77-2.49-1.83-11.34-.4-3.35-.59-5.69-1.3-9.92-.69-4.14-1.06-6.24-1.95-7.94Z" style="fill:#ff794a;"/><path id="Totem" d="M585.64,2674.08c-.53,4.84-1.1,10.05-4.75,12.84-6.56,5-20.68,.32-27.7-8.2-4.48-5.44-2.85-8.54-8.61-17.88-.55-.89-4.72-7.55-11.12-13.32-11.47-10.35-24.62-12.92-34.08-14.77-5.31-1.04-18.68-3.16-35.22,0-8.02,1.53-15.35,2.94-23.54,8.23-5.12,3.31-16.01,10.34-19.63,22.45-1.43,4.78-1.22,8.67-4.87,13.31-1.99,2.53-3.81,3.61-9.27,7.28-12.56,8.45-10.91,8.12-13.7,9.51-5.71,2.86-12.52,3.04-26.13,3.41-8.56,.23-14.51-.16-20.45-.57-11.86-.81-17.85-1.27-21.17-3.75-3.82-2.84-5.76-8.07-9.5-18.41-2.75-7.6-3.78-11.96-5.73-18.67-5.47-18.87-7.15-18.22-9.27-27.81-2.26-10.22-.44-11.31-1.32-32.45-.84-20.02-2.5-19.68-2.65-33.11-.21-18.29,2.87-19.69,3.97-39.73,.82-14.81-.86-14.06-1.99-45.69-.77-21.56,.14-18.44-.66-43.7-.6-19.11-1.3-26.64-.86-42.52,.19-6.92,.41-14.37,1.46-24.21,1.99-18.66,4.31-18.81,5.68-34.08,1.08-11.96,.53-16.54,1.14-40.9,.57-22.81,1.14-22.59,1.14-32.38,0-24.87-3.84-28.83-5.11-51.13-.65-11.37,.16-26.27,3.41-56.24,1.08-9.95,2.68-23.45,5-39.51,2.97-12.51,5.98-23.47,8.68-32.64,5.25-17.8,7.46-22.34,11.92-26.49,4.97-4.61,8.76-5.04,9.93-9.27,1.17-4.22-1.43-8.1-10.59-19.87-11.38-14.61-17.17-22-21.85-25.82-9.62-7.87-18.48-11.72-20.53-12.58-14.41-6.09-17.62-2.31-39.07-7.95-15.37-4.04-24.32-6.51-31.12-14.57-2.87-3.4-4.3-6.54-9.27-11.26-6.69-6.35-13.13-9.22-15.89-10.59-13.85-6.86-23.23-19.33-41.05-43.04-9.97-13.26-9.74-14.99-17.22-25.16-9.05-12.32-23.66-29.22-47.01-46.35-6.84-15.23-13.68-30.46-20.53-45.69-3.77-14.99-7.33-30.67-10.59-47.01-2.14-10.72-4.05-21.22-5.75-31.48-.62-26.04-1.24-52.07-1.87-78.11,.8-15.41,4.9-25.08,8.61-31.12,1.91-3.11,5.24-7.76,8.08-15.43,2.58-6.98,3.34-12.67,3.51-14.03,1.35-10.73-1.51-12.99-1.66-26.82-.1-9.8-.08-15.12,3.64-20.2,.81-1.11,5.28-7.2,12.15-8.03,4.15-.5,5.8,1.36,9.04,.08,4-1.58,2.93-6.46,7.28-9.27,1.72-1.11,2.71-.95,6.95-1.66,8.51-1.41,9.17-2.79,15.51-3.82,2.24-.36,7.76-1.21,14.52-.24,2.16,.31,9.4,1.53,17.31,6.38,7.28,4.47,6.48,7.04,16.55,14.57,7.36,5.5,8.38,4.98,13.24,9.27,8.35,7.36,12.57,15.21,13.91,17.88,3.22,6.41,2.26,7.64,5.91,18.47,3.42,10.16,4.51,9.81,9.37,22.15,7.38,18.72,5.7,21.58,11.08,27.27,4.27,4.52,5.01,2.37,18,10.9,3.81,2.5,11.05,7.3,19.2,14.57,8.63,7.7,8.42,9.38,14.57,13.24,5.4,3.4,10.85,5.41,15.89,7.28,7.86,2.91,8.38,2.2,13.91,4.64,9.54,4.2,10.82,7.57,13.91,6.62,3.88-1.2,3.3-6.95,9.27-19.2,1.17-2.4,2.66-4.91,5.63-9.93,8.7-14.71,11.01-15.9,13.91-22.18,1.31-2.85,5.54-12.31,4.3-23.51-.83-7.5-5.82-15.35-15.79-30.76-7.77-12.01-8.29-11.48-13.02-19.57-6.1-10.44-9.76-19.1-12.58-25.82-4.63-11.03-6.94-16.55-8.61-24.17-1.06-4.86-2.06-11.37-1.66-29.14,.47-20.64,2-19.98,2.65-40.39,.33-10.36,.35-23.55-.99-39.07-.58-6.7-.87-10.05-1.44-12.57-2.45-10.95-7.33-17.54-20.92-35.32-12.28-16.07-18.42-24.11-21.02-27.27-11.85-14.44-14.05-15.68-19.87-24.5-5.62-8.53-8.6-15-13.57-25.82-7.4-16.1-7.47-20.26-7.28-22.85,.41-5.55,2.28-7.12,2.65-15.56,.37-8.37-1.22-12.4-2.32-14.57-1.03-2.03-2.87-5.66-6.62-7.28-3.88-1.68-7.57-.23-10.93,.66-9.9,2.64-9.94-1.36-30.79-.99-10.14,.18-13.4,1.18-18.54-1.32-2.31-1.13-4.52-3.07-8.94-6.95-5.66-4.98-8.8-7.79-10.93-12.25-2.09-4.39-1.22-6.23-2.32-10.26-2.34-8.62-9.13-10.68-21.52-21.19-8.72-7.39-5.7-6.67-19.53-19.53-4.32-4.02-9.34-8.36-19.2-16.89-6.72-5.81-12.32-10.59-16.23-13.92-.11-19.53-.22-39.06-.33-58.59,2.81,3.38,6.53,8.07,10.59,13.91,6.13,8.79,7.34,11.99,11.92,15.56,4.93,3.85,7.08,2.92,15.89,6.62,8.9,3.74,8.37,5.38,22.51,13.57,13.58,7.87,13.59,6.08,22.85,12.25,7.08,4.72,8.82,6.93,17.55,12.25,4.48,2.73,8.17,4.96,13.57,7.28,8.38,3.61,15.33,5.04,19.87,5.96,4.41,.89,7.35,1.19,9.6,1.32,1.21,.07,4.11,.21,7.62,0,7.11-.43,11.59-2.01,14.57-2.65,11.7-2.5,23.21,4.67,28.47,7.95,9.51,5.92,14.58,13.32,16.22,15.89,4,6.26,5.75,12.13,6.68,15.34,2.6,8.96,.8,9.92,3.41,17.04,1.09,2.99,3.66,7.2,8.78,15.63,3.22,5.29,4.83,7.94,6.95,10.93,2.4,3.38,5.92,8.34,10.93,13.24,6.05,5.92,7.11,4.75,15.23,11.59,4.43,3.73,9.42,7.99,14.24,14.9,.77,1.1,4.16,6.03,7.28,13.24,2.4,5.53,1.9,6.09,3.64,9.93,2.54,5.61,9.22,16.83,15.23,15.89,3.54-.55,5.56-5.11,8.28-11.26,1.23-2.77,3.39-7.81,3.31-14.57-.04-2.94-.8-5.93-2.32-11.92-1.68-6.63-2.52-9.94-4.39-12.76-2.01-3.04-2.99-2.91-7.52-8.1,0,0-3.43-3.92-5.96-7.61-5.24-7.66-1.81-16.75-1.82-30.61-.01-16.81-5.05-15.68-4.54-31.81,.28-9.11,2-15.96,4.54-26.13,1.78-7.11,3.4-13.97,6.82-22.72,5.8-14.87,10.76-20.15,12.22-33.41,.26-2.35,.55-5.01,.33-8.61-.68-11.16-5.48-18.06-21.85-42.71-8.01-12.06-8.86-13.41-10.01-16.39-4.47-11.56-3.84-22.65-2.57-30.29l154.62-.99c1.1-106.83,2.21-213.66,3.31-320.49,1.71-4.88,4.8-11.07,10.52-12.92,3.7-1.2,5.42,.42,9.35-.66,6.25-1.71,6.78-7.13,13.37-14.11,3.26-3.45,2.36-1.31,20.4-13.37,5.43-3.63,8.82-6.03,14.75-9.38,4.6-2.6,6.97-3.92,10.41-5.19,5.4-1.99,7.57-1.7,16.89-3.31,6.23-1.08,10.65-2.15,18.22-3.97,8.45-2.04,12.67-3.06,16.21-4.3,10.18-3.58,11.3-6.22,27.48-14.24,5.93-2.94,9.79-4.85,15.56-6.95,11.53-4.2,10.48-1.79,20.53-5.63,4.88-1.87,9.21-4,11.92-1.99,.07,.05,1.65,1.26,1.66,2.98,.02,3.47-6.34,6.12-8.28,6.95-6.73,2.91-16.19,9.33-35.1,22.18-5.91,4.02-13.32,10.18-28.14,22.51-3.18,2.65-7.25,6.07-12.25,10.93-3.23,3.13-6.92,6.73-11.26,11.92-6.81,8.14-11.17,15.33-13.1,18.69-2.68,4.65-2.11,4.33-6.82,13.07-3.68,6.83-4.83,8.48-8.22,14.6-4.48,8.06-7.35,13.22-10.26,19.87-3.59,8.17-6.24,14.2-7.62,22.84-.85,5.31-2.14,13.42,.39,22.99,.63,2.37,2.95,7.19,7.56,16.75,5.89,12.2,7.09,13.09,8.5,17.71,1.99,6.54,1.92,11.66,1.77,19.04-.28,13.32-2.85,15.98-4.3,32.45-.21,2.32-.79,9.51-.66,18.87,.04,2.56,.25,14.23,2.65,29.47,2.11,13.41,4.3,22.51,4.3,22.51,1.17,4.87,1.87,7.05,2.32,11.26,.76,7.09-.33,9.25,0,16.22,.25,5.22,.94,5.8,2.65,15.56,1.64,9.36,2.46,14.04,2.65,19.87,.39,11.8-1.92,21.62-2.65,24.5-1.59,6.29-3.13,9.37-4.3,17.22-.29,1.96-.96,6.4-.94,10.89,.05,9.38,3.11,15.36,6.23,23.54,6.24,16.35,2.74,15.34,8.94,31.78,1.98,5.24,1.59,3.38,10.93,25.49,3.19,7.55,5.34,12.78,5.96,20.2,.29,3.44,.18,6.63,0,12.25-.14,4.47-.36,6.31-.99,15.23-.98,13.75-.74,13.03-1.03,14.25-2.12,8.99-6.12,9.44-8.57,17.86-1.82,6.24-1.19,11.34-.33,18.21,.91,7.31,2.49,10.99,5.96,21.85,1.5,4.69,4.43,14.12,6.95,23.84,4,15.38,5.21,24.66,5.63,32.12,0,0,.31,5.41-.45,13.32-.72,7.6-1.14,11.44-3.53,13.5-3.76,3.23-8.04,.26-11.92,3.97-2.8,2.68-1.46,5.09-4.26,7.2-3.77,2.84-7.68-.45-10.64,2.07-2.98,2.54-2.03,8.43-1.3,12.98,.36,2.24,1.01,4.9,2.62,8.87,4.07,10.01,7.12,10.69,9.39,17.76,1.1,3.42,2.79,8.69,.87,14.36-2.32,6.84-8.63,10.52-12.36,12.69-4.85,2.83-5.43,1.67-12.36,5.3-3.89,2.03-7.85,4.15-11.48,7.95-2.79,2.92-4.11,5.51-6.62,10.59-9.7,19.65-9.49,20.52-12.73,25.63-5.08,8.01-6.44,7.2-9.78,13.66-1.21,2.34-4.56,9.27-5.74,20.31-1.22,11.39,.99,16.7,7.02,45.8,2.74,13.25,4.13,19.99,4.72,25.62,1.57,14.94,.51,27.43-.71,35.85-.46,12.08-1.2,38.32,.44,64.45,.12,1.99,.9,14,3.09,29.58,1.76,12.57,3.06,17.57,3.97,20.75,1.88,6.52,2.27,5.67,7.06,18.98,4.37,12.14,4.54,14.22,7.06,15.45,1.81,.88,5.17,1.49,20.09-6.86,6.87-3.84,11.39-6.89,16.06-9.98,23.98-15.86,32.84-20.12,35.98-21.59,1.47-.69,3.92-1.8,13.7-5.62,20.35-7.94,34.96-12.96,43.51-15.99,30.88-10.97,54.36-21.56,63.13-25.6,14.59-6.73,23.75-11.58,32.67-16.33,21.19-11.29,31.89-17.06,37.08-23.4,4.94-6.03,7.89-12.15,12.8-11.92,3.94,.19,5.83,4.29,11.48,11.48,2.31,2.94,8,8.54,19.37,19.75,9.38,9.24,14.07,13.86,20.45,18.75,2.76,2.11,12.63,9.49,27.27,16.19,15.7,7.18,18.51,5.18,37.09,11.97,9.46,3.46,18.81,8.19,37.52,17.66,28.28,14.31,29.16,16.53,37.96,17.66,14.33,1.84,17.22-3.34,33.11,0,9.58,2.01,17.84,5.86,25.16,9.27,13.26,6.18,13.27,8.25,21.19,10.59,7.26,2.15,14.21,1.9,27.81,1.32,20.16-.86,20.52-4.23,31.78-2.65,6.2,.87,10.35,2.42,18.1,1.77,5.31-.45,6.79-1.47,12.8-1.77,2.37-.12,8.88-.29,15.45,1.32,7.64,1.87,12.37,5.43,18.98,10.15,19.53,13.96,10.22,5.82,27.81,18.98,22.29,16.67,19.62,16.57,28.69,22.51,14.19,9.3,16.99,7.02,49,21.19,20.12,8.9,19.84,10.03,37.08,17.22,15.51,6.46,26.68,11.12,41.05,14.57,21.49,5.16,21.7,.8,51.65,5.3,22.09,3.32,13.71,4.45,54.3,13.24,15.79,3.42,25.82,5.15,27.15,10.93,.29,1.25,.79,5.39-10.76,15.46-10.35,9.04-20.14,13.89-40.23,22.62-13.19,5.72-18.31,7.69-37.08,15.89-5.39,2.36-11.7,5.14-19.87,9.27-10.15,5.13-10.36,5.88-17.22,9.27-10.83,5.36-19.67,8.15-31.78,11.92-13.03,4.05-11.13,2.68-23.84,6.62-18.81,5.84-20.98,8.26-33.11,10.59-11.3,2.18-11.02,.39-21.19,2.65-14.27,3.16-16.16,6.98-29.14,10.59-2.89,.81-6.33,1.6-31.78,3.31-20.72,1.39-24.01,1.24-33.77,1.99-29.52,2.26-28.32,5.86-43.7,5.96-20.39,.13-16.39-6.23-60.26-15.23-16.47-3.38-27.45-4.62-39.73-13.24-4.64-3.26-6.75-5.66-13.24-9.27-4.69-2.61-15.21-8.31-29.14-9.27-9.96-.68-9.24,1.92-22.51,1.32-7.92-.35-11.19-1.42-18.54-.66-6.39,.65-8.15,1.89-14.57,3.31-.89,.2-13.81,2.96-28.47,1.32-2.91-.32-10.55-2.42-25.82-6.62-4.13-1.13-14.77-4.08-25.16-3.31-2.48,.18-6.37,.69-9.93,3.31-2.01,1.48-2.89,2.88-4.64,5.3-3.71,5.12-7.21,9.97-11.26,13.24-1.36,1.1-5.12,2.74-12.58,5.96-8.6,3.71-12.95,5.58-15.23,5.96-9.43,1.57-17.88-1.32-17.88-1.32-5-1.72-7.75-4.02-12.58-3.31-1.35,.2-4.05,.59-5.96,2.65-2.75,2.95-1.32,6.58-1.99,12.58-.53,4.73-2.12,8.01-5.3,14.57-3.7,7.64-5.56,11.46-9.27,14.57-8.21,6.87-15.21,2.52-21.19,9.27-3.19,3.61-1.07,4.7-5.3,13.91-1.75,3.82-2.42,4.28-11.26,17.88-6.56,10.09-6.4,10.16-7.95,11.92-3.68,4.19-8.73,9.95-16.55,11.92-6.75,1.7-8.77-1.12-13.24,1.32-4.3,2.35-4.21,5.93-8.61,13.91-2.46,4.46-6.78,12.29-14.57,17.88-3.45,2.48-9.88,7.09-17.88,6.62-10.94-.65-13.4-10.13-21.19-8.61-5.74,1.12-5.89,6.58-15.86,10.4-3.61,1.38-6.77,1.89-8.64,2.18-2.15,.33-8.3,1.24-14.57,0-7.8-1.54-8.63-5-15.89-7.95-5.85-2.37-18.38-5.44-24.5,0-4.55,4.04-1.98,9.6-3.31,31.12-.69,11.27-1.4,9.74-2.31,22.66-.72,10.1-1.57,22.14-.33,34.29,1.43,14.03,4.8,19.98,8.61,33.11,7.26,25.04,7.27,45.83,7.28,65.56,.02,30.42-4.99,26.51-4.5,53.79,.43,23.65,4.18,25.9,7.23,64.26,1.92,24.1,.45,23.29,2.56,42.19,3.22,28.74,6.56,30.06,7.28,50.33,.81,22.8-2.66,42.7-3.31,46.35-2,11.17-3.85,16.3-5.96,31.12-1,7.01-2.3,16.18-2.65,27.81-.61,20.2-1.09,36.2,3.97,52.31,.68,2.16,2.95,9.08,1.99,17.88Z" style="fill:#eaea2a;"/><path id="FigureA" d="M435.1,4324.88c-2.26-4.78-2.87-10.01-3.09-11.92-.52-4.46-.24-7.86,0-10.59,1.88-21.41,3.09-26.66,.88-27.81-2.05-1.07-5.69,2.08-8.39,4.41-5.79,5.01-6.13,8.6-10.15,13.69-3.32,4.19-3.72,2.56-18.56,13.19-5.49,3.93-5.3,4.07-14.09,10.44-6.48,4.7-9.72,7.06-11.71,8.36-3.31,2.16-5.63,3.22-16.56,7.74-22.84,9.45-23.7,9.39-26.05,11.92-6.63,7.16-10.81,14.45-10.81,14.45-1,1.74-2.15,3.92-4.64,5.86-3.66,2.85-7.48,3.06-10.15,3.53-5.91,1.05-8.7,3.91-17.11,10.04-8.18,5.98-17.08,10.91-25.49,16.55-17.59,11.81-20.48,10.44-51.43,27.7-23.31,13-34.97,19.51-41.94,26.05-3.08,2.9-10.59,8.99-25.6,21.19-7.96,6.47-13.07,10.5-17.22,8.83-4.02-1.62-5.14-7.81-6.18-13.91-1.6-9.41-.05-14.81,0-22.51,.06-8.21-1.29-16.73-3.97-33.77-2.32-14.73-3.49-22.1-4.64-25.16-5.64-15.04-13.55-19.69-13.86-33.32-.12-5.14,1-4.74,1.28-11.04,.65-14.34-4.91-21.21-8.61-33.77-3.93-13.34,.9-10.5-1.99-45.69-1.15-14.03-2.31-19.27-.09-28.1,2.08-8.24,4.64-9.87,11.34-22.23,7.9-14.56,5.68-14.79,19.2-44.37,4.35-9.52,7.49-15.85,11.92-23.18,3.89-6.43,7.61-11.69,9.84-14.84,9.97-14.06,10.67-12.47,13.34-17.61,6.9-13.28-.49-18.63,5.96-33.77,3.6-8.46,6.29-7.68,11.92-19.2,4.04-8.27,5.61-14.73,7.28-21.19,8.12-31.36,9.57-27.8,15.89-54.3,2.69-11.3,6.24-22.4,8.61-33.77,1.12-5.35,2.12-10.77,5.96-16.89,4.44-7.08,8.7-8.74,13.57-13.91,6.57-6.96,6.44-12,11.92-26.49,2.74-7.24,9.52-24.82,22.53-41.9,9.84-12.92,17.59-18.13,19.97-19.67,8.05-5.19,12.65-5.66,20.29-8.95,5.69-2.46,8.15-4.36,34.4-27.32,21.29-18.62,29.81-26.24,41.62-28.36,1.61-.29,4.16-.63,7.54-1.93,9.56-3.66,13.39-10.17,20.24-17.53,6.8-7.3,14.14-15.19,25.5-19.41,9.02-3.35,12.79-1.49,23.79-6.76,4.13-1.98,6.49-3.63,11.59-5.3,7.28-2.39,12.75-2.39,16.22-2.65,7.7-.57,10.98-2.78,38.08-16.22,14.39-7.14,21.58-10.71,22.45-11,10.98-3.63,15.55-2.67,46.63-6.55,9.23-1.15,13.94-1.75,18.1-2.65,11.11-2.41,21.19-4.59,31.73-11.59,14.16-9.4,20.77-21.9,23.25-26.73,4.23-8.24,9.03-17.6,7.39-29.02-.67-4.64-4.44-11.09-11.95-23.81-7.83-13.25-9.79-15.11-15.19-25.16-4.82-8.98-7.23-13.46-9.18-20.1-2.65-9.03-2.68-15.97-2.65-26.49,.05-14.66,.09-26.45,5.3-40.61,3.47-9.43,7.78-15.99,12.36-22.96,7.89-12.01,15.4-19.6,17.44-21.63,6.94-6.9,13-11.31,14.79-12.58,19.9-14.19,40.03-17.98,44.59-18.76,19.46-3.36,34.58-.33,45.03,1.77,15.73,3.15,27.12,8.19,34.43,11.48,9.42,4.23,20.04,9,31.78,18.54,9.47,7.69,15.22,14.86,23.84,25.6,8.52,10.63,12.79,15.94,15.89,22.96,5.78,13.05,1.46,14.33,7.95,31.78,3.71,9.99,7.08,14.84,5.3,22.07-.6,2.42-2.12,5.52-5.16,11.73-3.86,7.87-5.08,8.9-5.87,12.33-1.29,5.58,.24,10.28,1.89,15.14,5.09,14.96,12.77,16.06,14,27.57,.22,2.06,.99,9.28-3.25,13.02-1.99,1.75-4.79,2.49-5.02,2.55-3.21,.82-4.61-.19-8.62,.65-2.39,.5-3.78,.8-4.64,1.99-.92,1.29-.4,2.5,.83,8.61,1.27,6.34,1.1,6.97,2.15,8.44,1.45,2.03,2.87,2.37,3.15,4.14,.21,1.33-.39,2.39-1.99,4.8-4.37,6.58-6.15,8.07-5.63,9.93,.38,1.35,1.45,1.03,2.65,3.15,1.04,1.84,1.8,4.84,.5,6.46-.9,1.12-1.88,.43-4.3,1.49-2.39,1.04-1.99,1.95-5.63,4.64-2.29,1.69-3.33,1.99-4.3,3.64-.38,.65-1.07,1.82-.8,3.13,.32,1.56,1.71,1.87,2.95,3.33,1.34,1.58,1.51,3.31,1.82,6.62,.28,2.94,.52,5.5-.66,8.44-1.37,3.41-3.84,5.31-5.3,6.4-1.83,1.38-4.41,2.28-9.49,4.03-4.17,1.44-6.26,2.16-9.22,2.81-.27,.06-5.04,1.11-9.51,1.33-6.11,.3-8.71-1.09-19.18-3.49-10.19-2.33-8-1.08-20.81-3.8,0,0-4.36-.93-13.57-1.66-4.63-.37-5.64-.24-6.7,.37-3.46,1.97-2.14,5.95-6.21,12.22-2.74,4.22-3.93,3.33-5.3,6.62-1.51,3.62-.32,5.31-1.32,12.25-.53,3.64-.79,5.46-1.66,7.28-1.8,3.78-4.75,5.77-10.59,9.6-5.92,3.88-6.37,3.12-9.6,5.96-1.76,1.54-1.21,1.4-7.28,7.95-3.16,3.41-3.63,3.79-3.97,4.97-1.04,3.61,1.26,7.41,2.98,10.26,2.23,3.69,3.86,4.38,4.71,7.75,.58,2.3-.04,2.58,.59,4.5,1.1,3.37,3.52,4.19,5.96,6.95,1.16,1.31,1.73,2.39,4.47,10.1,4.2,11.8,3.33,10.55,4.29,12.48,.81,1.63,5.92,11.89,16.17,16.69,2.7,1.26,4.71,1.66,6.53,3.94,2.52,3.17,1.25,5.67,3.48,9.6,.42,.75,.89,1.4,7.78,6.79,4.96,3.87,7.49,5.85,10.43,7.78,4.65,3.06,4.41,2.35,7.45,4.47,4.8,3.34,10.11,7.04,11.59,12.91,.83,3.32-.39,4.03,.66,8.94,.83,3.87,2.23,6.45,2.98,7.95,3.15,6.32,4.07,12.33,5.63,22.51,1.38,9.01,.2,8.72,1.32,18.54,.88,7.71,2.35,13.53,5.3,25.16,3.52,13.89,6.8,24.01,7.62,26.49,3.82,11.66,5.96,18.1,10.26,26.49,.81,1.58,3.19,5.58,7.95,13.57,6.77,11.39,8.64,14.25,14.9,24.83,6.01,10.15,7.85,13.52,8.94,15.56,2.23,4.15,2.24,4.41,6.95,13.57,6.15,11.96,6.51,12.27,8.28,16.22,2.06,4.59,2.53,6.31,5.96,15.56,.87,2.35,4.11,11.07,7.62,19.87,7.74,19.4,10.81,24.19,14.05,28.14,3.64,4.44,6.91,7.12,7.85,7.87,5.22,4.19,8.74,5.28,13.3,7.91,6.51,3.76,10.38,7.91,15.5,13.4,4.46,4.78,10.41,12.17,15.54,22.47-1.71,1.16-4.32,2.73-7.73,4.01-8.54,3.19-14.87,1.79-27.73,.74-9.49-.78-16.97-1.39-26.49-.88-12.23,.65-13.07,2.36-22.36,1.99-11.51-.46-10.46-3.1-21.79-3.31-16.48-.31-22.51,0-22.51,0-2.59,.13-5.48,.33-8.39-1.32-4.43-2.52-6.01-7.69-6.62-10.59-2.3-10.13-6.13-17.09-9.27-21.63-1.22-1.77-5.98-6.94-15.45-17.22-8.89-9.64-10.37-11.25-12.8-14.57-4.39-5.98-7.2-11.18-9.27-15.01-3.73-6.89-6.08-12.47-7.5-15.89-2.71-6.5-2.48-6.91-4.86-12.8-4.16-10.33-5.99-11.84-10.4-21.86-1.68-3.82-3.45-8.75-6.97-18.6-4.31-12.05-6.47-18.07-8.23-23.99-2.18-7.34-3.81-14.9-7.06-30.02-2.69-12.48-3.47-17.41-3.89-23.28-.43-6.03,0-6.29-.58-9.88-.3-1.87-3.21-19.65-12.75-22.02-3.56-.88-7.08,1.03-14.13,4.86-6.79,3.68-10.94,7.1-15.45,10.59-13.88,10.75-13.11,8.3-21.63,15.45-13.46,11.29-12.91,15.34-20.89,17.69-4.65,1.37-8.01,.94-15.64,3.83-3.45,1.31-6.79,2.93-10.15,5.3-2.03,1.43-4.14,2.91-6.29,5.52-.3,.37-.33,.42-4.3,6.29-1.8,2.65-2.72,4-3.76,5.16-1.03,1.14-.97,.9-3.86,3.67-3.16,3.04-3.35,3.45-4.45,3.94-2.44,1.08-3.5-.1-5.09,.71-2.43,1.23-1.8,4.88-3.04,11.68-.61,3.38-1.59,8.51-4.64,13.91-1.74,3.08-2.91,5.16-5.3,7.28-1.96,1.75-3.5,2.42-4.86,4.64-1.32,2.15-1.55,4.25-1.66,5.41-1.28,13.74-.44,21.85-.44,21.85,1.86,18.04-3.84,23.03-2.43,41.17,.07,.9,.44,5.51,.66,11.75,.24,6.85,.36,10.27,0,12.25-1.44,7.92-5.26,8.62-5.96,16.06-.39,4.19,.83,3.88,.5,9.44-.25,4.18-1.04,6.09-2.48,12.75-.94,4.32-1.66,8.38-1.99,10.59-1.65,11.2,.09,20.86,2.13,32.23,.9,4.99,1.35,7.49,2.1,10.08,3.31,11.38,9.54,18.49,21.04,30.97,19.47,21.12,29.21,31.68,34.87,35.76,11.49,8.27,15.34,8.21,23.84,16.78,6.28,6.33,8.98,11.2,17.21,15.89,6.01,3.42,7.86,2.71,14.13,6.18,6.08,3.37,10.62,7.53,16.78,14.57,11.35,12.99,13.84,19.38,20.75,28.25,6.85,8.8,15.02,14.84,31.34,26.93,9.85,7.29,20.06,13.74,40.47,26.64,6.49,4.1,16.79,10.62,26.68,17.24,21.24,14.23,18.63,13.74,23.64,15.94,5.03,2.21,7.6,3.75,7.77,5.23,.37,3.16-10.71,6.84-12.26,7.35-8.92,2.91-12.22,1.69-19.2,3.97-7.43,2.43-8.2,5.29-14.57,8.61-14.82,7.72-32.02,3.42-43.04,.66-10.2-2.55-7.49-3.63-22.31-8.37-17.39-5.56-18.75-3.33-39.04-9.41-11.1-3.33-24.22-8.05-26.06-8.71-3.92-1.41-6.87-2.48-9.01-3.34-16.94-6.79-21.57-16.02-35.8-25.48-16.6-11.04-18.55-3.97-35.57-15.84-2.4-1.67-9.68-7.64-24.24-19.57-11.33-9.29-11.34-9.43-13.91-11.26-12.63-8.99-16.05-8.03-27.15-15.89-7.72-5.47-12.87-10.74-18.54-16.55-7.23-7.41-7.8-9.27-17.88-19.87-2.49-2.62-7.01-7.36-13.24-13.24-8.65-8.17-15.89-14.35-15.89-14.35-9.32-7.95-11.85-9.32-14.13-14.13Zm106.83,373.47c-.51,5.36-1.12,11.66,1.77,18.1,2.09,4.66,3.63,4.09,8.39,10.59,4.87,6.66,5.02,9.69,9.85,18.65,5.33,9.9,6.79,9.27,10.46,16.22,3.36,6.35,2.96,8.44,8.03,32.64,3.99,19.05,5.5,23.81,6.98,27.84,3.37,9.21,4.3,8.48,6.78,16.04,3.4,10.34,2,12.75,5.13,29.87,.91,4.96,.5,1.88,5.3,23.84,4.4,20.12,4.26,17.98,4.34,18.56,.88,6.4,.74,10.06,3.61,14.1,.36,.51,.51,.66,5.51,6.83q3.59,4.43,3.76,4.64c1.1,1.5,3.01,4.58,4.41,13.68,1.39,9.02,2.08,13.53,.88,18.54-1.88,7.86-5.68,8.76-6.6,16.9-.34,3,.22,2.5,.42,10.02,.15,5.67-.1,8.4-.44,17.22-.29,7.52-.14,6.5-.44,15.45-.6,17.94-.93,27-2.21,31.34-2.48,8.43-4.93,9.46-5.3,16.33-.22,4.16,.41,8.78,1.35,15.61,.4,2.94,.54,3.33,.86,3.81,2.55,3.85,9.38,1.92,23.84,1.77,.02,0-.8,0,15.89,.44,11.48,.3,17.22,.45,18.1,.44,12.98-.07,15.03-1.46,26.93-1.77,7.9-.2,10.19,.32,21.63,.88,10.78,.53,10.39,.14,35.76,.44,19.31,.23,33.17,.62,46.79,.44,14.18-.18,11.42-.76,15.89-.44,5.74,.4,9.23,1.27,10.62-.57,1.73-2.29-1.05-7.05-2.15-9.02-3.9-7.02-6.13-18.7-11.51-41.85-3.08-13.24-4.61-19.86-3.59-28.9,.52-4.56,1.64-9.37,2.65-19.87,.62-6.42,.93-9.63,.88-12.8-.1-6.89-1.29-11.93-5.74-27.37-3.55-12.33-5.33-18.5-5.74-19.42-6.36-14.21-12.78-15.09-18.54-28.25-.47-1.07-1.93-7.48-4.86-20.31-5.1-22.37-6.45-30.35-7.36-36.69-1.17-8.13-.65-6.82-1.55-12.1-2.89-17-4.38-25.76-10.95-32.43-5.26-5.35-9.27-4.78-15.01-12.36-2.47-3.26-3.85-6.17-5.3-9.27-1.13-2.43-4.88-10.57-6.23-20.03-1.61-11.3,.8-20.21,4.02-31.62,4.85-17.18,8.95-19.11,8.83-28.69-.09-7.19-2.45-9.55-9.13-24.19-11.47-25.16-9.64-29.51-21.16-53.22-3.21-6.61-5.39-10.95-7.35-14.69-1.9-3.63-2.06-4.17-2.74-5.15-3.71-5.32-8.06-6.74-11.28-9.13-3.96-2.94-4.54-6.12-8.83-18.1-3.78-10.54-7-19.52-11.48-29.14-6.38-13.7-9.34-15.82-9.27-22.96,.03-3.46,.76-7.12-1.22-11.67-1.58-3.61-3.3-4.2-7.11-8.59-7.65-8.82-6.1-12.67-10.65-14.61-1.48-.63-2.08-.41-16.03,2.45-11.36,2.33-12.59,2.51-14.88,2.41-5.83-.25-7.14-1.76-10.57-.51-4.29,1.56-8.69,6.06-8.69,6.07,0,0,.92,3.52,1.49,5.82,1.24,4.9,1.85,7.35,1.99,8.61,.29,2.81,.53,5.04-.33,7.61-1.1,3.3-2.8,3.61-4.64,7.28-1.16,2.31-1.48,4.16-1.99,7.28-.64,3.91-.6,6.68-.33,14.9,.35,10.86,.43,10.54,.33,11.92-.24,3.25-.93,6.69-2.32,13.57-1.04,5.17-.98,4.29-1.99,9.27-1.68,8.31-1.52,9.11-2.65,11.92-1.34,3.34-1.91,3.08-3.97,7.95-.88,2.07-1.86,4.42-2.65,7.61-.96,3.9-.4,4.1-1.32,7.28-.54,1.88-1.47,3.79-3.31,7.62-1.44,2.99-2.17,4.49-3.31,6.29-.77,1.21-2.08,3.14-3.97,5.3-2.47,2.81-3.25,2.98-4.97,4.97-1.24,1.44-1.54,2.17-4.3,7.61-3.34,6.57-2.62,4.93-5.63,10.93-2.49,4.97-2.4,4.92-3.64,7.28-2.97,5.65-3.75,6.39-4.97,8.94-2.51,5.24-2.96,9.88-3.31,13.57Zm-497.29,284.96c-.72,.4-1.18,1.32-1.32,9.27-.15,7.79,.26,8.25,0,12.36-.39,6.01-1.37,6.7-1.6,12.55-.15,3.77,.15,6.21,.45,9.46,1.06,11.6,.19,10.82,.94,20.58,.73,9.44,1.43,11.19,.66,16.11-.76,4.86-1.63,4.36-2.1,8.83-.59,5.67,.77,6.98,1.06,16.33,.16,5-.2,5.55,.6,6.62,2.36,3.16,8.16,1.85,18.32,1.1,5.58-.41,11.22,.2,16.78-.44,6.56-.76,25.06-.51,61.8,0,31.5,.44,47.25,.66,50.33,.88,24.95,1.8,50.03-.84,75.05-.44,2.14,.03,7.8,.14,11.04-3.53,.73-.83,2.22-2.86,2.42-12.15,.13-5.88-.41-7.74-1-17.01-.55-8.63-.17-8.39-.75-13.74-.65-5.98-1.24-7.36-1.42-11.86-.2-4.99,.38-7.01,.75-11.91,.64-8.29,1.32-17.14-2.38-24.92-1.69-3.56-4.19-5.95-9.19-10.74-10.64-10.19-21.3-16.2-26.39-18.86-11.31-5.9-12.48-4.26-21.19-9.93-5.97-3.89-7.58-6.07-11.92-6.62-5.37-.68-7.96,2.02-18.1,6.18-6.65,2.73-11.76,4.13-17.66,5.74-12.8,3.5-14.02,2.15-23.18,5.3-8.21,2.83-14.61,6.45-17.22,7.95-7.16,4.1-8.34,5.88-15.23,9.27-3.14,1.55-7.7,3.76-13.91,5.3-9.89,2.46-17.94,1.72-21.85,1.32-6.94-.7-14.22-1.43-21.85-5.96-6.4-3.8-9.71-8.28-11.92-7.06Zm36.09-87.96c2.92,1.91,10.29-8.89,28.8-21.19,2.12-1.41,10.69-7.02,22.85-12.58,10.85-4.96,16.7-7.64,25.49-9.27,6.42-1.19,9.55-.93,15.89-3.31,6.08-2.29,10.69-5.35,13.57-7.28,3.45-2.32,6.21-4.67,11.59-9.27,7.62-6.52,7.76-7.21,12.36-10.93,5.36-4.32,6.78-4.7,14.57-10.15,4.12-2.89,10.75-7.54,16.78-12.8,7.63-6.66,12.32-12.61,17.66-19.42,3.37-4.31,8.8-11.58,19.42-29.14,14.92-24.67,12.4-23.87,18.54-31.78,14.16-18.26,21.77-15.02,30.02-28.25,4.25-6.82,4.92-21.82,6.07-51.54,1.21-31.12-.23-43.6,7.28-56.28,1.22-2.06,6.39-10.4,4.97-11.59-.64-.54-2.3,.67-5.3,2.32-3.26,1.8-6.26,2.96-12.25,5.3-9.96,3.88-11.14,2.19-15.89,5.3-3.1,2.03-2.89,2.94-7.95,8.28-7.91,8.36-9.38,7.13-15.56,13.91-6.84,7.49-5.5,9.49-11.62,14.35-5.26,4.18-11.56,7.17-11.56,7.17-4.18,1.98-5.06,1.8-7.95,3.64-3.95,2.53-4.57,4.32-8.92,8.11-1.93,1.68-2.39,1.83-8.63,6.13-7.93,5.45-11.89,8.18-13.91,9.93-6.03,5.23-4.92,6.3-11.26,11.92-4.84,4.29-8.09,7.17-13.24,8.61-6.51,1.81-12.15,.24-15.23-.66-8.3-2.43-13.81-7.51-19.53-12.91-8.14-7.67-11.34-13.52-13.57-12.58-1.43,.6-.92,3.33-1.66,10.93-.6,6.11-1.08,5.86-2.32,14.57-1.92,13.44-.68,13.38-1.99,17.88-2.07,7.14-6.03,10.2-12.58,17.55-9.43,10.58-15.89,20.66-18.87,25.82-3.59,6.2-11.41,19.73-13.28,37.92-.97,9.47,.33,13.78-2.32,24.41-1.6,6.42-2.55,6.76-6.91,18.46-5.36,14.37-8.03,21.55-9.27,31.12-1.43,11.04,.84,11.16-.66,23.84-1.81,15.26-5.92,22.02-3.64,23.51Zm1575.48-980.19c-3.62-1.87-11.13-4.12-26.16-8.61-1.98-.59-4.53-1.32-7.28-.33-3.02,1.08-5.53,3.96-6.32,7.06-.49,1.93-.23,4.01,.29,8.16,.36,2.92,.79,4.41-.12,5.74-.88,1.27-2.49,1.67-3.64,1.82-1.02-.27-2.24-.5-3.61-.61-2.42-.18-4.47,.1-5.99,.44-.94,.53-2.27,1.15-3.95,1.55-2.14,.5-3.98,.43-5.19,.29-.55-.1-1.4-.17-2.29,.15-2.32,.83-2.2,3.31-4.2,4.27-1.35,.65-2.21-.1-5.81-.72,0,0-2-.35-6.16-.5-8.26-.31-17.51,3.18-20.58,5.4-.24,.17-1.43,1.06-3.21,1.53-.9,.24-1.95,.49-3.05,.18-1.59-.45-2.48-2.23-2.98-3.64-.94-1.25-1.87-2.51-2.81-3.81-.8-1.1-1.58-2.19-2.34-3.27-.99-.64-2.47-1.71-3.95-3.35-1.47-1.63-1.76-2.51-3.31-4.64-2.04-2.79-2.71-2.87-4.64-5.3-2.04-2.57-1.71-3.02-4.07-6.72-2.51-3.92-3.05-3.69-6.69-8.84-2.82-4-2.69-4.42-4.47-6.46-1.77-2.03-3.6-3.57-6.79-5.79-4.73-3.3-9.51-6.63-16.72-9.6-3.66-1.51-7.24-2.49-14.4-4.47-4.21-1.16-6.53-1.8-9.93-2.48-5.58-1.12-9.93-1.52-15.33-2.01-4.88-.45-8.64-.63-10.03-.69-5.88-.27-12.77-.33-16.67-.1-7.73,.46-15.01,3.59-29.25,9.82-9.95,4.36-16.95,8.03-24.02,11.74-11.96,6.27-17.94,9.41-22.36,13.04-1.45,1.19-4.69,3.98-9.65,7.05-2.33,1.44-3.16,1.78-6.67,3.83-6.31,3.67-6.73,4.38-9.98,6.19-8.46,4.73-9.74,2.29-15.89,6.42-3.95,2.65-3.21,3.53-9.73,8.39-2.94,2.19-3.42,2.27-7.62,5.41-3.37,2.53-3.98,3.17-5.96,4.19-2.79,1.44-5.5,2.19-7.17,2.65-2.08,.57-3.69,.85-4.52,.99-12.26,2.11-18.38,3.17-23.87,3.15-1.22,0-3.4-.06-6.26,.5-1.87,.36-2.95,.77-5.74,1.66-2.51,.8-5.21,1.66-7.39,2.21-5.62,1.41-6.19,.37-11.81,1.66-2.41,.55-5.17,1.18-8.39,2.87-3.66,1.92-4.49,3.43-8.72,6.29-2.98,2.02-5.68,3.38-7.61,4.25-1.76,.51-4.31,1.34-7.28,2.65-2.97,1.31-5.5,2.72-6.01,2.09-.36-.44,.66-1.4,.97-3.7,.17-1.23,.02-2.06-.01-2.57-.31-4.39,5.68-6.56,7.04-12.86,.23-1.07,.39-2.52,1.16-4.8,.66-1.93,.92-1.98,1.32-3.31,.94-3.06-.11-3.87,.49-7.12,.51-2.74,1.29-2.39,1.96-5.59,.18-.86,.62-3.05,.36-5.83-.26-2.76-.9-2.87-.83-5.13,.06-1.96,.56-2.47,.39-4.37-.14-1.5-.53-2.13-.88-3.41-.59-2.14-.42-3.8-.17-6.46,.34-3.53,.62-7.07,.99-10.59,.6-5.72,.9-8.58,.99-11.92,.15-5.14-.2-6.67,1-9.19,1.05-2.19,2.18-2.85,2.14-4.72-.04-1.95-1.3-2.25-2.32-5.63-.19-.64-.4-1.86-.83-4.3-.37-2.12-.55-3.18-.66-4.3-.21-2.13-.36-3.68-.04-5.39,.38-1.99,.98-1.99,2.35-5.04,.87-1.94,2.14-4.83,2.24-8.5,.04-1.52-.13-2.67-.32-3.99-.41-2.8-.89-3.41-1.59-6.38-.66-2.78-1.21-5.21-.95-8.31,.08-.95,.23-2.61,.95-4.61,1.13-3.12,2.28-3.22,3.31-5.79,1.32-3.31-.27-3.9,.99-7.45,.62-1.74,1.68-3.2,3.81-6.13,2.09-2.88,2.17-2.46,2.98-3.89,.95-1.66,1.47-3.81,2.48-8.03,.81-3.39,.79-3.9,1.49-4.97,.77-1.17,1.39-1.45,2.98-3.56,.84-1.11,1.27-1.69,1.74-2.57,1.3-2.46,1.49-4.73,1.57-5.79,.03-.41,.12-1.89-.17-3.81-.39-2.57-1.09-3.5-1.57-5.38-.46-1.8-.31-3.46,0-6.7,.45-4.68,.68-7.09,1.9-10.02,.58-1.38,2.12-3.71,5.2-8.39,.76-1.16,1.69-2.54,2.91-4.6,1.13-1.91,1.81-3.07,2.4-4.47,.78-1.86,1.11-3.42,1.57-6.62,.67-4.64,1.04-8.61,1.32-12.42,.29-3.88,.43-5.86,.33-7.95-.12-2.72-.39-3.08-.6-6.61-.22-3.74-.34-5.61,.1-7.95,.18-.97,.29-1.13,2-6.06,1.73-4.97,1.48-4.4,2.3-6.68,1.65-4.59,2.47-6.89,3.48-8.94,1.23-2.52,2.44-4.25,4.8-7.62,2.04-2.9,4.81-6.83,9.1-11.59,2.77-3.07,5.38-5.97,9.44-9.27,3.11-2.53,4.49-3.2,7.79-6.26,2-1.86,3.34-3.33,5.62-5.82,2.08-2.28,2.79-3.21,3.48-4.3,1.34-2.14,1.1-2.6,2.23-4.58,1.29-2.28,1.85-2.12,5.31-6.26,2.87-3.43,3.56-4.83,3.89-5.55,.22-.48,.91-2.07,1.32-4.3,.58-3.16,.01-4.47,0-7.95,0-2.27,.33-2.24,.94-8.2,.91-8.89,.78-8.4,.88-8.85,.7-3.03,2.69-8.67,7.28-13.08,1.97-1.89,4.45-3.58,5.78-7.14,.4-1.07,.73-1.98,.52-3.12-.34-1.82-1.81-2.89-6.58-6-4.58-2.98-4.16-2.6-5.33-3.44-3.71-2.64-3.7-3.38-7.12-5.79-3.27-2.31-3.63-1.88-6.13-3.81-.9-.69-3.51-2.79-5.96-6.29-3.75-5.36-4.64-10.48-4.81-11.59-.56-3.54-.26-6.29-.15-7.12,.37-2.88,1.16-4.91,2.15-7.45,1.29-3.31,1.94-4.96,3.48-6.79,1.57-1.87,3.2-3.81,5.79-4.3,2.03-.39,3.77,.27,4.97-.99,.5-.54,.69-1.18,.83-1.66,.49-1.7,0-3.18-.17-3.64-.88-2.52-3.21-3.82-5.42-5.05-.47-.26-1.77-.81-4.34-1.9-4.31-1.83-4.49-1.87-5.46-2.32-1.2-.55-3.72-1.75-6.46-3.48-3.29-2.07-5.51-4.03-7.12-5.46-4.09-3.63-6.72-6.88-8.77-9.44-1.67-2.08-3.9-4.87-6.3-8.86-1.87-3.11-1.89-3.7-3.64-6.37-2.62-3.99-3.6-4.23-5.84-7.42-3.12-4.45-4.48-8.62-5.33-11.3-.8-2.51-1.84-5.9-2.03-10.41-.11-2.76,.22-2.96,.45-9.1,.21-5.67-.08-5.33,.17-8.33,.38-4.59,1.27-8.02,2.15-11.37,1.07-4.09,1.6-6.13,2.78-8.33,.5-.93,1.3-2.27,5.49-7.07,2.88-3.29,3.69-4.01,7.28-7.95,3.17-3.47,5.29-5.92,7.61-8.61,3.85-4.44,5.06-6,6.13-7.45,1.13-1.54,2.37-3.22,3.81-5.63,2.09-3.49,4.5-8.34,4.64-8.61,.83-1.67,1.29-2.67,2.32-3.97,1.14-1.44,2.36-2.47,3.7-3.43,3.26-2.33,6.28-3.49,8.06-4.19,7.14-2.79,10.71-4.19,13.34-5.66,2.18-1.21,4.45-2.78,9-5.93,2.71-1.87,4.41-3.13,7.28-4.64,2.32-1.21,3.73-1.99,5.81-2.54,3.98-1.07,7.6-.76,11.41-.44,2.67,.23,4.97,.62,6.13,.83,3.35,.59,3.48,.84,5.75,1.17,3.39,.5,6.08,.39,8.29,.28,1.34-.06,1.96-.14,7.15-.79,6.36-.8,9.58-1.19,11.59-1.16,2.9,.05,5.03,.11,7.67,1.11,3.2,1.21,5.46,3.18,6.23,3.86,2.83,2.5,2.89,3.87,5.46,5.21,.58,.3,.57,.23,4.55,1.41,3.62,1.07,5.44,1.61,6.37,1.99,3.11,1.26,3.27,1.91,6.06,2.82,1.94,.63,3.48,.85,4.54,.99,3.14,.42,3.92,0,8.86,0,3.52,0,5.34,0,7.86,.5,.73,.14,2.88,.6,5.55,1.66,2.09,.83,3.24,1.54,5.13,2.57,4.92,2.69,7.68,4.19,11.26,5.13,.61,.16,2.82,.44,7.2,.99,4.65,.59,6.98,.88,9.6,1.16,9.36,.99,9.22,.46,13.62,1.26,3.22,.58,6.42,1.19,10.3,2.97,4.3,1.98,7.11,4.34,9.11,6.04,1.07,.92,4.69,4.08,9.27,10.51,3.23,4.53,2.89,5.01,7.78,13.16,4.54,7.57,5.31,7.95,9.19,14.82,1.64,2.9,2.81,5.3,5.17,10.12,1.48,3.03,2.23,4.68,2.86,7.01,.25,.91,.89,3.42,1.08,6.79,.11,2.02,.21,3.85-.25,6.21-.34,1.75-.91,4.63-3.15,7.28-.49,.57-2.24,2.61-5.13,3.81-1.84,.77-2.88,.66-4.88,1.9-.56,.35-1.24,.88-2.61,1.95-2.03,1.59-2.79,2.36-3.02,2.6-.67,.69-1.47,1.51-1.82,2.15-1.31,2.43,1.87,6,5.63,12.25,1.75,2.91,2.99,5.42,5.46,10.43,1.9,3.85,3.19,6.46,4.56,9.97,1.5,3.85,3.49,9.77,4.55,17.18,1,6.99,.34,9.51-.17,10.93-.59,1.66-.82,1.37-2.81,5.79-1.7,3.77-2.55,5.66-3.07,7.75-.36,1.44-.4,2.23-1.07,3.5-.61,1.18-1.2,1.7-.99,2.32,.14,.42,.61,.77,2.32,1.16,2.45,.56,4.14,.5,4.14,.5,1.52-.06,.42,.14,7.96,.87,7.52,.73,5.85,.27,7.77,.62,2.41,.44,4.17,1.01,5.9,.06,.46-.25,.38-.32,1.89-1.71,2.05-1.9,3.08-2.85,4.14-3.31,.77-.33,1.78-.56,4.64-.17,2.82,.39,5.56,1.13,8.61,2.32,5.19,2.02,7.78,3.04,8.94,4.8,.37,.56,1.04,1.76,2.31,2.08,.8,.2,1.48-.02,2.65-.43,2.86-.99,4.29-1.48,4.3-1.49,.43-.19,4.49-1.96,8.28-2.32,2.83-.27,2.25,.56,7.95,.99,5.41,.41,7.88-.19,8.94-.5,1.72-.49,1.45-.69,3.81-1.49,1.72-.59,3.27-.96,8.65-1.69,4.27-.58,7.22-.97,11.55-1.29,3.48-.25,5.22-.38,6.62-.33,4.23,.15,7.39,1.06,13.24,2.98,7.64,2.5,9.01,3.16,12.58,4.3,7.79,2.5,14.07,3.49,17.22,3.97,14.16,2.18,15.09-.65,23.18,1.99,5.25,1.71,8.8,4.23,15.89,9.27,4.04,2.87,8.52,6.05,13.24,11.26,6.06,6.69,4.17,7.5,9.93,13.91,6.74,7.49,14.99,12.67,17.66,14.35,2.85,1.79,4.24,2.44,7.28,4.64,4.2,3.03,4.56,3.97,10.15,8.39,4.57,3.61,5.2,3.67,7.06,5.74,1.09,1.21,1.93,2.36,4.86,7.28,4.48,7.55,3.89,7.17,5.74,9.93,2.69,4.02,5.32,6.85,8.17,9.93,1.79,1.94,3.53,3.82,5.96,5.96,4.03,3.56,7.31,5.51,11.26,7.95,4.9,3.02,9.71,6.18,14.57,9.27,11.12,7.07,18.55,15.14,22.29,19.2,6.1,6.62,6.61,8.86,20.31,30.02,14.44,22.32,13.06,18.58,16.66,25.27,6.94,12.88,11.4,25.5,16.55,40.06,3.42,9.66,5.3,15.23,5.3,15.23,2.48,7.35,3.08,9.44,4.97,14.57,1.47,3.98,2.63,6.85,4.97,12.58,5.32,13.08,5.63,12.92,6.29,15.89,.35,1.55,1.8,8.48,.44,17.22-1.18,7.57-3.02,7.24-3.97,15.01-.41,3.35-1.11,9.06,.66,15.23,.69,2.4,1.25,3.12,2.76,8.06,.21,.69,.8,2.64,1.94,5.03,.89,1.88,1.54,2.81,2.25,3.58,1.05,1.14,1.94,1.6,2.65,2.1,.81,.57,2.02,1.62,5.25,9.06,.91,2.1,1.75,4.02,2.75,6.83,1.53,4.28,2.3,6.42,2.64,9.12,.21,1.68,.14,3.76,.01,7.93-.13,4.22-.4,5.74-.5,6.29-.44,2.43-.71,2.12-1.49,5.63-.51,2.27-.83,4.32-1.16,6.46-.26,1.67-.39,2.5-.45,3.13-.3,3.23,.16,4.58,.21,7.2,.09,4.68-1.32,4.29-.93,7.55,.46,3.77,2.3,3.94,2.59,8.06,.06,.86,.09,2.37,.44,4.64,.28,1.78,.52,2.49,.66,2.87,.64,1.7,1.53,2.65,2.21,3.53,1.75,2.27,2.09,4.11,2.87,5.96,1.94,4.58,5.2,5.95,8.61,10.15,2.71,3.35,1.22,3.19,7.06,17,3.07,7.25,4.65,10.92,6.62,13.24,2.51,2.95,4.4,3.95,5.3,7.06,.98,3.38-.42,5.05-.44,9.27-.02,4.22,1.37,7.25,3.09,11.04,2.9,6.37,5.65,8.28,10.59,14.79,1.78,2.35,6.75,9.1,10.59,17.44,3.56,7.72,4.86,13.98,6.18,20.31,2.88,13.84,2.71,24.71,2.65,27.37-.28,11.69-2.31,20.26-4.41,29.14-2.13,8.99-2.58,7.98-7.95,27.37-3.17,11.45-2.96,11.59-5.3,19.42-2.36,7.9-3.74,11.64-6.18,20.53-1.45,5.29-2.18,7.94-2.98,11.59-2.22,10.13-2,13.88-4.3,27.81-.93,5.59-1.39,8.38-1.99,10.93-3.04,12.92-6.33,16.28-7.95,27.48-.36,2.49-.87,6.16-.66,10.93,.48,10.92,4.35,18.74,5.3,20.86,6.22,13.87-.45,33.51-8.61,93.26-2.78,20.36-4.17,30.78-4.41,42.38-.19,9.19,.19,16-.88,29.14-.62,7.64-1.24,11.32-2.21,21.63-.97,10.4-1.49,18.86-1.77,24.28-1.95,13.22-2.63,20.69-2.83,25.22-.04,.89-.11,2.75-.75,5.12-1.35,5.02-3.83,6.99-6.13,10.71-2.67,4.31-1.57,5.26-4.8,15.35-2.02,6.31-4.03,10.11-4.83,12.69-5.38,17.37-6.41,31.49-6.92,40.69-1.15,17.76,.9,27.35,3.46,51.19,.03,33.49,2.31,49.5,4.61,57.93,1.32,4.84,4.39,13.58,.95,21.65-.62,1.46-2.15,4.53-3.51,9.3-1.82,6.41-1.38,9.06-1.14,10.16,.77,3.44,2.24,3.32,3.79,7.06,1.72,4.15,2.64,10.9-.44,15.89-2.38,3.85-5.25,3.58-5.74,6.62-.52,3.24,2.53,4.69,3.97,9.71,1.11,3.87,.29,6.47,0,9.71-.85,9.45,3.98,10.83,5.74,22.51,1.7,11.3-2.37,12.89,.44,23.84,1.28,4.98,3.43,9.74,4.41,11.92,.93,2.06,1.64,3.43,6.62,12.36,5.84,10.47,7.52,13.36,7.06,17.66-.14,1.29-.38,3.58-1.93,5.8-2.37,3.39-5.25,2.99-7.78,6.12-2.27,2.82-.86,4.29-2.65,7.95-2.3,4.72-5.7,4.39-11.92,9.71-5.44,4.66-3.43,5.41-9.27,10.59-6.05,5.38-8.46,4.78-11.92,9.71-1.66,2.36-2.24,4.11-4.86,6.62-1.79,1.71-2.34,1.69-5.74,4.41-3.04,2.44-4.65,3.73-6.18,5.74-1.18,1.55-3.33,4.38-3.53,7.5-.48,7.42,10.2,13.81,13.68,15.89,6.63,3.97,9.11,3.1,13.68,7.5,3.73,3.59,3.02,5.07,6.62,7.95,4.74,3.78,7.86,2.72,13.24,5.74,1.2,.67,6.84,3.98,9.71,9.71,3.72,7.43-.16,13.1-.88,30.9-.18,4.56-.09,8.27,0,10.59-48.86,.68-97.73,1.37-146.59,2.05-2.85-9.69-3.93-17.66-4.38-23.24-.61-7.52-1.65-14.99-2.21-22.51-.24-3.26-.47-6.79-2.65-10.59-2.18-3.82-4.77-5.2-7.95-7.95-4.37-3.78-4.46-5.49-11.04-14.57-8.83-12.19-9.82-10.69-15.89-19.87-6.79-10.26-4.52-10.56-9.71-16.78-7.11-8.51-11.73-8.39-16.33-16.78-1.59-2.89-2.57-6.12-4.54-12.58-1.89-6.2-2.94-11.24-3.85-15.67-.97-4.71-1.65-8.05-2.21-12.8-.56-4.77-.67-8.28-.88-14.57-.16-4.94-.24-7.45,0-9.71,.58-5.43,1.72-6.3,2.65-11.48,1.41-7.85-.9-7.56,.44-15.01,1.14-6.3,3.14-8.44,2.36-13.72-.27-1.82-.62-2.29-1.15-5.51-.72-4.35-.72-7.26-.82-9.23-.37-7.11-2.44-7.37-3.92-16.13-.92-5.42,.14-3.76-.88-14.57-.52-5.56-1.06-8.71,0-13.24,.43-1.85,.67-1.97,2.26-6.16,3.64-9.57,5.45-14.35,5.24-19-.21-4.55-1.67-5.24-1.02-9.22,.56-3.44,1.99-5.02,3.67-8.44,1.63-3.32,2.34-6.57,3.76-13.09,1.69-7.73,1.79-11.14,3.16-20.85,.73-5.18,1.47-9.36,2.94-17.72,3.19-18.19,4.09-19.9,4.31-26.88,.01-.48-.2-5.54-.62-15.66-.64-15.33-.71-16.62-.78-19.5-.26-10.9,.24-11.31,.12-21.17-.09-8.18-.77-16.53-2.11-33.22-.64-7.98-1.11-8.39-2.31-20.04-.6-5.79-1.26-11.57-1.85-17.36-.91-8.91-.9-9.5-1.47-11.41-1.95-6.54-4.47-7.8-4.81-13.54-.07-1.15-.02-3.29,.09-7.59,.07-2.98,.11-4.47,.22-5.91,.36-4.94,.55-7.44,1.78-10.33,1.31-3.07,2.16-2.72,3.75-6.18,1.48-3.21,1.32-4.76,2.21-8.17,.71-2.74,2.24-5.72,5.3-11.7,3.54-6.92,4.78-8.32,5.02-11.81,.19-2.79-.55-2.59-.66-6.29-.14-4.68,1-6.49,2.65-14.4,.92-4.42,1.38-6.63,1.49-8.77,.29-5.7-1.04-8.26-1.9-14.09-.69-4.7-.53-8.14-.21-15.02,.34-7.28,1.1-9.95,2.44-20.22,1.23-9.45,1.84-14.18,1.99-18.87,.25-8.37-.71-15.07-2.65-28.47-1.53-10.57-1.62-8.28-3.31-19.87-1.1-7.56-1.78-13.46-3.97-21.85-1.25-4.79-1.91-7.24-3.31-9.93-2.35-4.5-4.56-6.13-6.11-10.92-.84-2.6-.46-4.02-1.17-6.74-2.69-10.28-6.56-13.2-7.25-22.76-.3-4.2-1.62-8.32-1.57-12.52,.03-2.01,.22-5.33-1.95-7.8-.34-.39-1.09-1.25-2.26-1.72-4.67-1.88-11.1,4.49-12.14,5.52-3.63,3.59-2.83,4.75-7.28,10.59-3.97,5.21-4.56,4.22-8.61,9.49-3.72,4.83-3.68,6.25-8.17,12.14-3.78,4.96-3.81,3.96-5.52,6.62-2.19,3.42-1.83,4.58-5.65,19,0,0-1.39,5.23-4.8,11.96-1.29,2.56-1.63,2.85-1.91,2.81-2.03-.3-1.59-18.44-.17-28.1,.17-1.19,.61-3.94,.93-7.81,.31-3.8,.21-5.13,.43-7.96,.19-2.46,.62-5.96,1.68-10.21-.23-2.33-.46-4.66-.69-7.01-.27-2.79-.53-5.57-.78-8.34-.01-.08-.04-.22-.06-.39,0,0-.41-2.45-1.09-5.31-.46-1.95-1.68-6.68-3.46-12.96,0-.13-.13-.26-.13-.39,2.47-18.46-.79-25.25-4.6-27.85-1.16-.79-4.8-2.84-9.93-6.62-1.88-1.39-3.97-3-5.74-5.74-1.2-1.85-1.46-2.98-2.21-4.64-1.7-3.78-3.98-5.96-7.06-9.05-6.23-6.24-9.34-9.36-11.48-11.92-9.33-11.17-6.41-15.68-13.91-22.51-1.08-.99-4.46-3.92-3.75-6.18,.39-1.26,2.01-2.19,2.43-2.43,.58-.33,1.7-.98,3.09-.88,1.67,.11,1.85,1.14,3.97,1.77,1.61,.47,2.99,.31,3.75,.22,2.32-.28,2.53-1.13,4.19-1.32,2.05-.24,2.64,.94,6.18,2.21,.5,.18,3.09,1.08,6.4,1.32,2.29,.17,3.98-.05,7.06-.44,2.22-.28,4.05-.62,5.3-.88,4.88,.72,7.5,1.1,7.5,1.1h0l9.93,1.77c1.11,.75,.78,.9,3.72,3.48,0,0,1.73,1.51,3.32,2.72,3.31,2.52,7.15,4.09,9.62,5.06,6.22,2.46,10.55,4.17,17.22,5.96,3.13,.84,7.85,2.09,14.24,2.98,4.52,.63,7.82,.79,11.92,.99,6.94,.34,11.61,.57,17.88,0,4.27-.39,7.92-1.14,15.23-2.65,8.71-1.8,11.55-2.85,14.24-4.3,3.12-1.68,5.43-3.57,6.95-4.97,.04-.03,4.6-3.94,4.64-3.97s4.6-3.94,4.64-3.97c1.43-1.67,3.5-4.24,5.63-7.61,2.21-3.51,2.34-4.46,4.64-8.61,4.01-7.25,5.19-7.17,8.28-13.24,2.01-3.96,3.16-7.24,3.97-9.6,.99-2.86,1.41-4.56,3.55-13,2.72-10.71,2.69-10.53,2.74-10.84,1.27-7.05,1.12-12.69,.99-17.55-.16-6.11-.78-10.74-.99-12.25-.92-6.49-2.21-11.06-3.97-17.22-5.69-19.86-8.57-29.87-10.26-33.44-3.34-7.06-4.79-8-7.61-15.23-1.5-3.82-2.46-7.06-5.3-10.93-2.49-3.39-5.07-5.42-6.74-6.71-15.34-11.87-22.99-17.87-31-20.93-6.23-2.38-12.51-4.73-20.86-5.13-2.74-.13-7.75-.15-15.73-.83-5.32-.45-6.92-.77-8.22-1.09-6.12-1.52-6.8-3.46-12.64-5.7-3.85-1.48-11.39-4.37-18.29-1.45-3.86,1.63-6.71,4.43-6.71,4.43-2.79,2.75-2.78,4.35-5.04,5.5-.85,.43-2.93,1.27-8.7-.2-4.86-1.24-8.16-3.05-10.26-4.14Zm-67.87,491.33c2.18-5.14,3.27-7.71,3.81-9.6,2.53-8.98,1.37-16.94,.47-22.69-.51-3.28-.49-1.72-3.67-15.12-1.98-8.36-2.98-12.54-3.64-16.32-1.31-7.43-1.07-9-2.65-16.33-.55-2.54-.97-4.19-1.77-8.17-.22-1.1-.94-4.72-1.77-9.71-.93-5.59-1.39-8.38-1.77-12.14-.48-4.79-.22-4.99-.77-11.59-.39-4.65-.54-4.78-.99-9.6-.38-4.04-.59-7.71-.99-14.9-.51-9.01-.47-10.14-.92-13.52-.24-1.81-.71-4.91-1.96-10.26-3.45-14.73-5.2-22.09-9.35-27.19-2.18-2.68-6.31-6.75-13.93-9.62-1.69-2.98-3.38-5.95-5.07-8.93-3.54-4.85-8.04-9.34-12.7-8.8-4.49,.51-6.79,5.41-9.05,4.49-2.58-1.06,.31-7.5-3.34-14.29-1.51-2.82-4-4.82-8.98-8.83-3.81-3.07-7.47-5.31-9.1-6.29-2.6-1.54-6.97-3.93-6.99-3.94-.64,.57-4.29,3.9-4.47,9.38-.14,4.43,2.07,7.52,2.75,8.4,0,3.46-.12,8.6-.64,14.81-.59,7.07-1.09,8.02-1.45,12.88-.74,10.03,.47,18.02,1.18,22.51,1.27,8.06,2.62,10.53,3.89,18,.15,.89,.58,3.49,1.65,6.83,.16,.51,.65,1.99,1.66,4.43,.66,1.58,2.11,5.05,4.3,8.94,1.36,2.42,3.23,5.02,6.89,10.14,5.05,7.05,5.47,7.24,6.18,9.22,.7,1.94,1.34,4.65,2.32,8.77,.52,2.18,.38,1.76,.83,3.64,1.52,6.39,2.43,8.38,2.79,12.36,.12,1.34,.13,2.43,.13,3.03,.15,1.45,.35,3.54,.53,6.05,.35,5.07,.45,10.03,.2,19.96-.24,9.17-.43,9.14-.66,18.54-.13,5.43-.22,8.93-.17,13.57,.05,4.71,.14,10.59,.83,17.88,.43,4.55,1.12,8.83,2.48,17.22,2.21,13.58,2.35,12.43,3.21,18.77,1.48,10.98,.27,11.06,1.83,22.88,.6,4.57,1.1,7.06,1.11,11.5,.03,6.56-.86,12.23-.86,12.23-.35,2.24-.87,4.81-1.15,8.85-.14,2.03-.12,2.95-.17,4.06-.41,9.11-4.92,17.71-6.29,20.31-.38,.72-1.35,2.62-2.48,5.32-.45,1.07-.91,2.35-1.44,4.08-1.42,4.68-3.81,12.07-4.9,15.25-1,2.92-2.56,7-4.93,11.81-2.38,2.82-5.87,7.18-9.65,12.88-1.21,1.82-2.26,3.5-6.9,11.29-5.19,8.71-7.79,13.07-8.61,14.57-5.27,9.63-7.9,14.45-9.27,20.53-1.42,6.31-.48,13.21,1.39,27,.34,2.54,1.55,11.04,4.24,22,1.08,4.41,2.14,8.13,2.98,10.93,1.06,2.94,2.57,7.32,4.08,12.72,3.57,12.68,6.7,23.83,5.66,37.63-.83,10.98-3.96,19.03-4.78,21.07-5.57,13.81-14.77,23.25-17.88,26.25-5.07,4.91-7.19,5.59-10.93,10.59-1.71,2.3-6.33,8.94-7.95,16.89-1.98,9.75,2.21,18.64,10.59,36.42,5.06,10.73,3.55,4.68,16.22,27.15,2.55,4.53,4.82,8.68,6.62,8.28,2.37-.53,.74-8.19,3.71-20.18,2.43-9.82,4.89-10.22,6.56-19.88,1.13-6.55,1.04-12.38,.99-14.9-.17-8.28-1.38-9.05-.99-15.89,.31-5.33,1.38-10.57,1.99-13.57,1.03-5.05,1.65-6.48,1.85-10.17,.23-4.16-.46-4.26-.53-9.7-.07-5.39,.6-5.73,.66-12.42,.04-4.17,.06-6.25-.33-8.77-.57-3.67-1.38-5.23-1.49-9.1-.02-.7-.05-2.73,.33-5.3,.27-1.79,.86-4.72,2.97-9.44,2.89-6.48,3.88-5.72,5.64-10.42,1.93-5.14,.94-6.61,3.15-9.6,1.97-2.68,3.58-2.62,6.46-4.97,3.8-3.1,5.3-6.75,7.78-12.75,.96-2.33,3.16-8.12,3.97-16.06,.71-6.93-.54-6.68,.47-10.31,2.33-8.34,10.2-14.17,11.61-15.19,3.97-2.84,5.29-4.38,7.95-7.45,.36-.42,.88-1.04,1.32-1.99,1.14-2.45,.59-4.61,.33-7.12-.29-2.85,.26-1.72,.33-8.61,.05-4.67,.07-7-.17-8.94-.4-3.23-.99-4.83-.17-7.12,.62-1.73,1.24-1.6,2.15-3.48,1.5-3.09,.45-4.74,1.16-8.44,.63-3.27,1.56-2.55,3.25-7.37,1.37-3.91,.79-4.49,2.38-9.35,.86-2.62,1.04-2.5,2.15-5.79,.55-1.62,1.22-3.78,2.15-7.45,1.42-5.59,1.49-7.04,2.32-10.43,.52-2.13,2.01-6.08,4.97-13.91,2.8-7.41,4.22-11.15,5.3-12.91,1.51-2.47,2.77-3.96,4.1-7.22,.69-1.7,1.24-3.48,2.02-7.51,.94-4.86,1.81-9.37,1.97-15.19,.05-1.92,.02-3.88-.81-12.62-1.64-17.25-2.46-19.32-1.97-25.68,.24-3.08,.59-7.39,2.3-12.73,1.48-4.63,2.82-6.4,6.29-14.57Zm-153.79,600.26c-2.79-8.42-4.38-8.63-4.8-13.41-.42-4.72,.8-8.36,2.65-13.91,1.64-4.92,2.61-5.9,5.95-13.43,4.21-9.5,2.98-8.65,5.9-14.66,5.45-11.21,8.68-12.01,8.51-17.43-.08-2.4-.81-5.5,.99-8.61,1.07-1.83,1.95-1.84,2.65-3.81,.78-2.2,.21-3.69,1.33-6.4,.35-.83,.73-1.48,.98-1.88-.68-1.77-1.93-4.6-4.14-7.62-2.34-3.2-4.66-5.1-5.46-5.79-4.42-3.79-9.22-11.9-18.63-27.96-2.78-4.74-4.81-8.34-8.4-13.35-3.2-4.46-5.85-7.52-9.72-10.18-2.56-1.76-4.94-2.85-6.65-3.51-1.72-.5-4.06-1.28-6.7-2.55-2.37-1.13-6.2-2.96-9.54-6.22-3.87-3.78-5.44-7.92-8.57-16.2-.91-2.4-1.49-4.25-2.65-7.95-1.82-5.81-3.45-10.98-4.97-17.55-1.88-8.11-3.07-13.3-3.31-20.53-.17-5.23,.34-6.06,0-12.91-.12-2.42-.43-7.19-1.32-13.24-.96-6.44-1.33-5.91-1.99-10.59-1.43-10.23-.07-15.93-1.98-21.24-.29-.79-1.51-3.99-2.64-6.48-.41-.91-.8-1.73-1.15-2.44-.58-1.18-1.02-2.03-1.08-2.13-.39-.75-6.35-12.56-10.7-32.61-1.08-4.96-1.78-9.18-2.23-11.88-.18-1.1-.78-4.71-1.74-11.96-.73-5.51-1.37-10.31-1.91-15.57-1.21-11.94-.54-13.18-1.79-28.07-.51-6.03-1.17-12.38-1.27-13.31-1.42-13.57-1.84-13.79-1.66-17.22,.28-5.4,1.85-9.89,4.97-18.87,2.23-6.41,4.45-11.78,6.29-15.89,3.4-5.64,6.04-10.52,7.95-14.24,3.61-7.01,6.12-12.75,6.62-13.91,3.54-8.11,3.44-9.19,5.96-13.91,3.01-5.64,4.29-6.24,7.06-10.93,3.42-5.8,4.31-9.7,7.28-19.42,5.16-16.86,5.78-15.88,7.5-22.73,4.18-16.57,.64-22.65,1.99-42.93,.52-7.75,1.83-18.89,5.52-32.34-4,3.86-7.54,6.57-10.05,8.34-4.32,3.05-6.29,3.81-8.05,6.67-1.86,3.03-.98,4.33-2.65,9.27-1.25,3.69-2.79,6.07-5.3,9.93-4.95,7.64-6.95,7.58-7.95,11.92-.51,2.23-.37,3.91-1.77,6.4-1.28,2.28-2.32,2.52-3.09,4.64-.57,1.57-.33,2.36-.22,6.18,.12,4.35,.19,6.52-.22,7.95-.95,3.35-2.56,2.88-4.41,6.84-1.83,3.92-.46,4.81-2.43,9.05-1.53,3.29-2.56,3.21-3.31,5.96-.64,2.35-.14,3.38-.22,7.06-.03,1.18-.1,2.3-.88,7.5-1.4,9.36-2.1,14.04-3.04,16.71-.35,1-1.65,3.7-4.25,9.12-1.98,4.12-2.68,5.47-5.3,10.82-3.79,7.72-5.71,11.65-7.06,14.79-1.78,4.13-2.98,7.35-4.19,10.59-1.77,4.75-2.93,7.84-4.19,12.14-1.52,5.17-2.44,8.3-2.87,12.77-.36,3.69-.2,6.47,0,9.97,.32,5.47,.91,8.63,1.66,13.74,.73,4.99,.22,2.37,2.42,22.02,1.13,10.1,1.35,11.58,.78,14.56-.92,4.79-3.38,10.71-3.97,12.14-.87,2.1-1.61,3.64-2.78,6.81-1.26,3.42-1.9,5.13-2.29,7.01-1.12,5.35,.22,6.66-1.33,10.68-.63,1.64-1.36,2.7-2.81,4.83-2.07,3.02-3.32,4.03-6.46,7.53-4,4.46-5.99,6.7-7.28,9.49-1.52,3.28-2.03,6.36-2.21,7.5-.13,.83-.22,1.64-.44,7.06-.29,7.35-.18,7.32-.44,8.17-.88,2.86-2.11,3.12-5.52,8.17-1.12,1.65-2.67,3.96-4.01,6.83-1.88,4.03-1.84,5.99-3.49,12.15,0,0-1.3,4.86-3.31,10.37-2.23,6.12-3.09,6.5-6.84,14.79-5.13,11.34-4.35,12.46-7.95,18.54-.78,1.31-2.73,4.5-5.06,9.16-1.19,2.38-1.79,3.57-2.44,5.19-.68,1.7-2.51,6.53-3.09,13.02-.3,3.36-.02,4.36,.44,12.14,0,0,.45,7.56,.6,14.81,.2,9.16,.31,14.04-.6,19.63-2.04,12.52-6.5,12.07-7.61,22.18-.7,6.3,1.24,4.64,3.16,23.33,.61,5.89,.98,12.37,.98,19.48,0,3.01-.15,6.37-.54,10.66-.29,3.26-.61,5.71-.99,7.94-1.35,7.79-1.83,11.72-3.47,15.34-.6,1.33-2.65,4.45-6.75,10.67-2.09,3.18-3.69,5.54-3.97,5.96-12.48,18.43-12.91,18.35-13.91,21.19-2.5,7.1,.2,7.54-2.65,16.89-2.04,6.67-3.95,8.2-6.29,14.24-1.75,4.52-3.68,11.41-3.64,20.86-.06,1.76,.08,4.66,1.53,7.63,3.5,7.16,11.45,8.24,28.93,15.54,15.82,6.61,17.64,9.21,18.54,11.26,3,6.86-1.91,13.15,1.99,17.88,3.11,3.78,9.27,3.44,11.92,3.31,24.69-1.23,49.46,.24,74.16-.66,9.72-.35,30.62-1.11,48.86,.51,3.52,.31,15.73,1.5,32.26,1.64,2.6,.02,4.73,.01,6.13,0,.4-.25,1.02-.67,1.66-1.32,3.18-3.24,2.65-7.84,1.99-19.53-.37-6.58-.53-10.86,0-15.23,.39-3.21,1.1-6.05,1.16-6.29,.69-2.72,1.27-4.05,1.82-5.79,1.06-3.38,1.23-5.96,1.52-10.27,.19-2.8,.4-8.35-.53-15.39-.93-7.08-2.6-12.58-3.48-15.23Z" style="fill:#5a00ce;"/><path id="JohnDanielsB" d="M69.17,4567.23c2.68,1.82,7.89,5.41,13.46,9.48,8.04,5.87,12.27,9.61,19.7,15.74,5.76,4.75,14,11.39,24.39,19.26,3.48,2.48,6.95,4.97,10.43,7.45-.8,.46-2.12,1.2-3.81,1.99-12.84,6-21.58,3.22-32.45,6.13-4.87,1.3-9.1,4.12-17.55,9.77-11.03,7.36-22.42,14.96-27.21,26.07-.72,1.66-2.27,5.67-5.4,10.84-2.28,3.76-4.47,6.63-5.96,8.44-.09-38.37-.18-76.74-.28-115.11,3.13-3.13,6.26-6.26,9.38-9.38,.26-.26,.63-.32,.94-.12,3.81,2.42,8.71,5.6,14.35,9.44Zm1443.48-627.79c-2.3,2.17-4.42,2.17-7.61,3.31-4.62,1.66-7.32,4.23-12.25,8.94-4.63,4.42-5.43,6.54-13.65,18.2-3.77,5.36-7.9,11.22-13.55,18.4-5.5,7-6.94,8.26-11.52,14.53-3.79,5.19-6.47,9.35-8.81,12.98-4.49,7-4.2,7.13-10.41,17.33-7.14,11.72-8.17,12.6-9.2,16.53-.73,2.79-.37,2.92-1.06,14.92-.4,6.86-.68,11.79-1.32,17.55-.87,7.81-2.03,13.74-2.98,18.54-2.04,10.31-2.88,11.64-4.29,18.54-.8,3.9-1.52,13.85-2.94,33.58-.77,10.72-1.13,16.16-.8,23.99,.3,7.19,.74,5.72,.86,11.28,.33,14.82-2.88,19.4-.94,30.49,.34,1.93,.79,3.8,1.03,6.99,.36,4.83-.12,7.87-.53,12.87-.62,7.62-.05,7.25-.55,12.8-.73,8.16-2.45,14.37-3.97,19.87-2.22,8.03-3.31,9.34-4.75,16.33-.8,3.87-1.21,7.1-1.6,10.96-1.2,11.81-1.6,23.87-1.71,33.07,4.38,17.41,1.74,32.72-4.3,40.06-5.67,6.89-11.59,8.94-11.59,8.94-2.61,.9-3.29,.54-7.39,1.88-3.61,1.17-4.74,1.99-10.82,4.75-4.46,2.02-6.69,3.04-9.27,3.97-6.86,2.49-8.23,1.98-11.59,4.3-1.79,1.24-2.55,2.16-5.3,3.81-2.61,1.57-3.08,1.43-5.13,2.65-4.09,2.44-3.76,3.93-7.12,5.96-3.47,2.1-4.16,.72-8.17,2.81-4.24,2.22-3.64,3.86-7.5,5.74-3.84,1.87-5.43,.74-9.33,2.54-3.04,1.4-5.07,3.48-6.29,4.97-1.99,.76-5.03,2.26-7.12,5.3-2.38,3.46-2.02,6.71-2.81,15.73-.27,3.03-.67,6.85-1.32,11.26-1.23,8.38-.53,10.4-1.09,17.02-.79,9.42-1.58,8.55-2.39,17.41-.98,10.64,.08,12.8-1.07,20.86-.95,6.65-3.06,12.76-3.9,15.39-1.13,3.57-2.25,6.54-3.12,8.74-2.78,3.65-4.23,6.93-5.05,9.36-.96,2.87-1.27,5.25-3.31,6.62-1.68,1.13-3.75,1.05-5.3,.77-1.44-.36-3.87-1.21-5.96-3.31-.88-.89-2.2-2.5-3.53-6.84-1.65-5.39-1.75-9.88-1.77-11.48-.07-6.59,.79-11.12,1.32-14.79,.6-4.15,.7-10.2,.88-22.29,.15-9.8,.4-25.97-.66-26.05-.97-.07-2.6,13.26-2.76,14.58-1.81,14.87-1.86,28.37-3.2,41.26-.15,1.41-.66,6.11-2.52,11.85-.63,1.94-1.19,3.65-2.33,5.81-1.13,2.14-3.38,6.29-7.95,9.05-1.63,.98-3.19,1.9-5.3,1.77-2.8-.18-4.77-2.12-5.08-2.43-1.6-1.61-1.44-2.85-3.75-5.3-1.25-1.32-1.8-1.49-1.99-1.55-1.43-.4-2.45,.53-5.3,1.99-3.02,1.55-4.57,2.32-6.4,2.21-.35-.02-2.51-.18-4.19-1.77-1.71-1.61-1.99-3.84-2.43-7.73-.48-4.32,.02-6.13-1.55-7.95-.2-.23-1.38-1.59-2.43-1.32-1.1,.28-.85,2.05-2.21,3.97-1.36,1.92-3.38,2.68-5.08,3.31-1.71,.64-3.42,1.28-5.52,.88-3.45-.66-5.4-3.66-6.18-4.86-1.71-2.63-2.09-5.17-2.23-6.05-1.34-8.15-4.76-8.47-8.37-20-1.5-4.81-2.68-10.41-4.86-15.45-.21-.48-1.35-3.07-3.75-5.74-1.47-1.63-2.2-2.44-2.87-2.43-2.74,.06-2.69,10.04-7.73,20.97-1.63,3.53-5.3,11.28-13.24,17.22-4.67,3.49-9.04,5.03-13.69,6.62-8.33,2.86-13.83,3.1-19.64,3.97-16.99,2.56-16.27,7.45-34.21,11.26-3.44,.73-3.08,.46-31.34,2.65-23.76,1.84-23.52,1.99-26.05,1.77-14.14-1.23-26.04-6.33-37.52-11.26-7.69-3.3-6.87-3.52-13.91-6.4-11.29-4.62-14.43-4.46-30.24-9.27-22.95-6.98-23.8-9.59-34.43-10.15-5.82-.31-9.11,.28-15.45-1.32-7.83-1.99-9.44-4.57-17.88-6.62-7.05-1.71-7-.17-14.79-1.77-1.75-.36-10.1-2.15-19.69-7.5-4.55-2.54-4.63-3.23-13.57-9.5-4.36-3.06-8.85-5.96-17.84-11.74-10-6.44-11.01-6.95-22.44-14.24-16.45-10.5-10.36-6.9-21.51-13.98-11.41-7.25-15.92-9.84-20.79-15.2-1.17-1.29-3.15-3.61-6.45-6.85-4.33-4.25-5.72-4.97-9.05-8.17-3.81-3.65-6.1-6.64-10.03-11.78-2.43-3.18-4.58-6.32-8.88-12.6-5.59-8.17-5.02-7.67-6.06-8.84-4.22-4.76-6-4.34-14.76-11.61-3.58-2.98-3.9-3.56-7.42-6.31-4.24-3.32-6.87-4.89-9.14-6.46-9.38-6.46-8.95-10.28-20.09-19.64-1.73-1.45-4.61-3.54-10.37-7.73-10.37-7.52-12.52-8.51-17.44-12.58-5.58-4.62-9.22-8.65-12.36-12.14-10.09-11.19-9.89-14.53-16.78-19.42-1.78-1.27-3.9-2.54-5.52-5.3-1.93-3.29-1.02-5.05-3.31-9.71-1.13-2.29-1.42-2.01-3.31-5.52-1.32-2.44-2.12-4.32-3.09-6.62-1.83-4.34-3-7.85-3.53-9.49-1.22-3.78-2.06-7.11-2.65-9.71-.83-3.69-1.87-8.43-2.28-14.63-.47-7.13-.76-11.6,1.18-16.93,1.47-4.04,2.42-3.62,3.46-7.49,1.07-3.99,.4-5.69,1.71-12.75,.48-2.59,.88-4.02,1.67-5.59,1.22-2.41,2.82-4.06,3.97-5.08,1.42,.19,3.65,.49,6.4,.88,5.74,.82,6.39,.99,9.27,1.32,4.29,.49,6.44,.74,9.05,.66,2.51-.07,3.33-.32,5.25-.06,3.12,.42,5.31,1.64,6.29,2.16,4.77,2.53,6.87,2.02,14.95,4.75,7.28,2.46,7.8,3.62,15.23,6.62,10.22,4.13,18.78,5.78,25.85,7.15,11.58,2.24,11.2,.96,19.62,3,9.85,2.39,9.68,3.98,22.51,7.95,8.94,2.76,9.16,2.03,22.96,5.96,10.73,3.05,10.31,3.41,15.23,4.41,11,2.24,12.08,.23,22.07,2.21,11.05,2.18,11.5,4.98,20.09,5.52,6.84,.43,12.01-1,17.78-2.6,13.43-3.72,14.54-7.7,24.82-9.32,4.31-.68,2.43,.28,18.32,.54,14.29,.23,16.87-.53,25.38,.5,8.91,1.08,7.77,2.12,14.79,2.71,8.88,.74,10.66-.92,26.04-1.94,6.91-.46,11.76-.78,18.55-.49,17.11,.74,20.09,1.1,20.09,1.1,3.17,.39,6.25,.88,10.07-.3,3.02-.93,3.56-2,7.73-4.01,5.05-2.43,5.64-1.53,10.46-3.64,6.52-2.86,6.11-4.8,11.48-6.62,3.85-1.3,3.81-.22,10.59-1.55,3.26-.64,6.59-1.68,13.24-3.75,4.74-1.48,5.78-1.92,9.27-2.87,4.73-1.29,6.08-1.37,8.39-1.99,2.53-.68,14.59-3.92,18.76-12.8,1.99-4.24,.92-7.06,4.27-10.83,2.56-2.88,4.02-2.17,5.22-4.18,2.58-4.33-3.4-8.92-7.5-22.51-1.96-6.49-1.63-8.86-4.41-14.57-1.47-3.02-2.42-4.12-3.97-7.95-1.87-4.62-2.71-8.51-3.09-10.59-.45-2.49-.54-3.97-.88-9.27-.87-13.32-.87-12.3-.88-13.24-.14-9.67,1.68-17.25,2.65-21.19,1.64-6.68,3.62-11.45,5.3-15.45,.87-2.07,4.25-9.98,11.04-20.75,7.62-12.09,11.56-18.2,18.1-21.19,5.07-2.32,10.74-2.92,12.36-3.09,2.4-.25,6.49-.17,14.57,0,6.65,.14,8.44,.27,11.48-.44,3.09-.72,4.5-1.62,8.34-3.36,5.91-2.67,7.42-2.74,14.61-5.47,2.91-1.1,10.26-3.98,17.22-7.5,14.12-7.16,19.41-13.37,30.9-18.54,5.14-2.31,9.41-3.47,11.48-3.97,2.89-.71,5.34-1.1,7.06-1.32,6.84-3.58,12.62-5.51,16.78-6.62,4.97-1.33,6.45-1.18,12.8-3.09,3.84-1.15,5.56-1.89,8.83-2.21,3.99-.39,4.86,.37,8.94,.33,5.12-.05,5.61-1.35,12.25-2.32,6.79-.99,7.07,.18,11.62-.83,1.55-.34,3.97-1.02,12.14-5.85,3.95-2.33,8.82-5.21,15.31-9.88,6.29-4.52,8.39-6.62,12.66-8.39,.65-.27,3.64-1.48,7.46-2.92,2.3-.87,3.84-1.42,4.36-1.61,3.8-1.39,13.26-5.56,22.02-13.29,2.99-2.63,3.68-3.73,6.62-5.74,3.96-2.71,8.43-4.64,8.94-4.86,1.68-.72,1.86-.69,3.2-1.32,3.69-1.74,6.1-3.72,6.84-4.3,2.2-1.73,6.3-3.64,14.41-7.38,10.9-5.03,18.59-8.43,29.09-11.78,3.79-1.21,6.47-1.92,9.78-2.4,3.75-.54,6.87-.55,16.67,.1,9.18,.61,13.77,.91,15.89,1.32,7.31,1.42,9.19,3.24,17.55,6.29,14.93,5.46,16.19,2.05,25.49,6.62,10.04,4.93,16.22,12.49,18.07,14.79,4.52,5.64,3.51,6.73,9.41,14.35,6.06,7.83,11.06,11.76,9.96,13.63-.68,1.15-2.83,.05-8.3,.61-4.27,.43-8.5,.77-11.26,3.64-2.94,3.07-1.56,5.37-4.64,8.28Zm-1080.06,353.72c-1.4-4.04-3.65-6.97-5.36-8.83-.65-2.03-1.65-4.29-3.09-4.41-1.35-.12-1.87,1.75-5.12,5.85-4.49,5.66-8.27,8.1-10.72,9.39-.02,.01,.02-.02,0,0-5.95,4.05-10.57,7.39-12.6,8.87-.47,.34-.7,.51-.87,.64-6.68,4.77-13.26,6.43-15.27,7.03-11.71,3.52-10.32,14.06-26.49,21.63-3.06,1.43-3.8,1.38-11.37,4.67-8.53,3.72-12.33,5.85-14.67,7.25-3.78,2.26-6.12,3.65-8.83,6.18-4.45,4.15-3.82,5.65-7.5,9.71-5,5.51-7.72,4.43-19.33,12.76-4.6,3.3-4.07,3.39-7.04,5.23-5.65,3.49-7.75,3.27-15.56,7.17-4.13,2.06-7.3,4-10.15,5.74-3.37,2.06-4.33,2.8-8.83,5.74-5.97,3.9-7.25,4.53-13.7,8.62-10.39,6.6-9.15,6.28-13.21,8.65-11.36,6.6-12.79,4.23-24.03,10.73-.31,.18-5.33,3.43-15.36,9.92-.87,.57-5.91,3.83-8.67,5.62-7.05,4.57-10.58,6.86-11.46,7.42-10.59,6.89-15.88,10.34-20.61,14.06-6.59,5.19-6.02,5.73-21.62,19.37-5.94,5.19-5.23,4.43-6.61,5.74-3.45,3.29-6.21,6.87-6.21,6.87-2.91,3.75-9.23,10.34-21.86,23.52-7.51,7.84-8.82,8.93-10.59,10.15-4.86,3.34-7.22,3.52-10.15,7.06-2.89,3.5-1.81,4.8-5.04,10.23-4.03,6.78-7.3,7.4-7.31,10.3,0,4.24,6.99,6.41,15.83,11.19,16.71,9.04,13.67,13.16,33.16,25.23,3.88,2.4,10.11,6.02,15.89,12.8,1.98,2.32,4.51,5.71,4.86,6.18,5.24,7.05,5.27,8.37,8.39,11.92,4.62,5.25,5.32,3.2,9.71,8.39,3.06,3.6,3.83,5.9,8.5,10.99,1.39,1.52,1.33,1.31,3.25,3.4,4.48,4.86,5.95,7.05,10.36,10.63,1.54,1.25,2.51,1.87,3.11,2.31,3.23,2.39,3.21,4.97,5.88,8.19,1.62,1.95,3.18,2.88,6.26,4.7,2.34,1.38,7.47,4.42,13.88,5.03,7.69,.74,13.72-2.36,16.79-3.99,10.21-5.41,8.95-10.81,21.59-20.52,6.84-5.26,7.6-3.98,13.68-9.27,5.55-4.83,7.43-8.08,13.68-11.48,3.05-1.66,3.32-1.27,7.95-3.64,1.51-.77,7.27-3.73,11.56-7.17,5.33-4.28,6.94-8.16,10.54-13.41,.85-1.25,9.97-14.32,24.59-23.12,6.92-4.17,9.31-3.91,19.65-10.31,3.46-2.14,4.23-2.82,10.76-6.89,6.94-4.33,7.9-4.72,13.04-8.08,4.86-3.18,8.8-5.97,10.24-7,1.01-.72,1.71-1.23,1.91-1.37,10.05-7.27,21.84-8.73,30.74-17.78,4.32-4.39,10.56-13.21,15.8-17.48,.08-.06,.49-.4,1.06-.87,3.56-2.95,6.18-5.26,8.37-7.3,3.07-2.85,7.07-6.48,10.85-10.5,6.82-7.25,5.93-8.2,11.45-14.24,4.62-5.06,9.85-9.13,20.3-17.27,2.31-1.8,6.33-4.88,10.74-9.98,1.83-2.12,3.06-3.8,4.27-5.47,5.45-7.53,5.59-9.82,10.56-16.69,1.06-1.47,3.17-4.37,6.34-7.86,4.48-4.95,5.71-5.17,7.98-8.55,1.56-2.32,3.96-5.99,4.1-11.09,.12-4.2-1.34-7.35-2.04-8.82-2.14-4.48-4.88-6.31-9.56-10.47-4.78-4.26-1.76-2.2-14.73-15.09-5.85-5.81-8.77-8.72-11.48-11.04-5.39-4.62-6.34-4.69-12.88-10.14-4.85-4.05-3.96-3.7-11.4-10.16-6.25-5.43-13.16-11.12-13.16-11.12,0,0-1.81-8.31-2.38-15.81-.84-11,1.51-13.38-.73-19.85Zm179.22,172.63c-2.5-3.04-5.18-5.93-7.69-8.96-2.02-2.44-2.6-3.21-3.9-4.25-3.16-2.51-5.77-2.72-9.65-4.04-2.39-.82-5.28-2.46-11.04-5.74-6.87-3.91-10.3-5.87-11.92-7.95-2.35-3.02-2.48-5.11-5.63-7.52-2.21-1.69-4.25-1.93-6.1-2.85-7.02-3.49-13.04-7.09-13.99-7.66-2.79-1.68-7.22-4.07-16.04-8.91,0,0-4.36-2.39-11.55-3.03-.97-.09-2.69-.18-3.34,.79-.59,.88,.09,2.06,.29,3.2,.56,3.25-2.84,6.4-4.39,7.89-6.92,6.64-15.19,17.01-19.58,23.83-3.21,4.99-2.24,4.82-5.3,9.27-5.03,7.32-10.18,11.45-15.01,15.45-15.22,12.6-22.82,18.89-29.31,26.48-5.4,6.31-5.7,8.02-12.18,15.02-6.55,7.07-7.23,6.4-15.45,14.57-11.01,10.95-12.64,15-21.19,20.31-3.15,1.95-3.07,1.5-9.71,4.86-17.19,8.7-28.27,14.47-34.16,25.65-.75,1.42-1.73,4.57-3.69,10.88-3.43,11.02-5.68,18.26-6.4,27.5-.55,7.11,.38,8.04-.52,17.24-.91,9.33-2.27,12.55-4.23,14.97-2.27,2.79-4.69,3.74-10.59,6.18-13.89,5.74-20.91,8.66-24.72,11.04-2.6,1.62-2.23,1.74-14.13,13.24-17.77,17.18-21,19.24-25.6,20.31-7.86,1.81-15.3-.31-17.22-.88-3.45-1.02-7.49-3.05-15.45-7.06-9.04-4.56-10.58-5.7-11.92-4.86-3.11,1.96-1.75,12.46,3.23,20.54,5.24,8.51,9.67,6.51,18.84,16.99,6.18,7.06,5.62,9.62,13.24,17.66,1.94,2.04,1.79,1.68,10.59,9.71,12.94,11.8,15.39,14.52,15.06,17.98-.15,1.6-.79,2.17-5.38,8.08-6.6,8.52-6.64,9.1-9.35,12.44-5.73,7.03-13.59,14.25-31.23,28.17-10.25,8.08-15.37,12.13-22.54,17.24-19.88,14.19-31.3,22.18-47.83,26.53-6.92,1.82-6.91,.94-13.95,3.02-12.7,3.75-21.21,9.1-32.01,16-6.38,4.08-16.74,10.71-28.8,21.19-6.85,5.95-9.95,9.41-17.01,13.9-7.94,5.05-15.27,7.83-20.18,9.38,.37,21.56,.74,43.11,1.1,64.67,5.16,3.87,14.45,9.71,27.33,12.26,10.78,2.13,19.42,1.04,22.73,.52,4.17-.66,9.23-1.89,19.46-6.37,19.61-8.6,19.09-12.01,32.45-17.22,14.19-5.53,13.89-1.33,31.91-7.81,10.95-3.94,15.39-7.04,23.94-6.43,4.57,.33,8.82,1.91,17.3,5.07,4.86,1.81,11.26,4.2,18.89,8.5,7.49,4.22,8.09,5.73,20.78,13.85,11.17,7.14,14,8.08,17.18,7.57,2.08-.34,5.53-3.17,12.36-8.83,9.69-8.03,9-8.61,13.68-11.48,3.38-2.07,5.14-2.63,6.84-5.08,1.9-2.73,2.18-5.56,2.65-10.26,.45-4.5,.2-8.22-.09-10.67-.63-5.37-1.99-9.49-2.84-11.74-1.58-4.19-2.93-6-4.8-9.49-1.34-2.51-5.11-9.53-6.62-17.22-.53-2.71-2.5-13.47,2.65-24.28,1.3-2.72,3.97-5.83,9.27-11.92,15.66-18.01,22.2-21.21,24.61-22.29,2.13-.96,4.73-1.74,9.93-3.31,2.19-.66,8.97-2.66,18.87-4.64,9.31-1.85,17.21-3.43,27.15-3.97,2.85-.16,7.12-.3,12.95-1.46,4.36-.87,4.27-1.24,9.37-2.43,8.57-1.99,10.59-1.34,17.72-3.23,3.88-1.03,2.86-1.11,9.29-3.14,12.12-3.84,12.71-2.6,18.87-5.3,6.87-3.01,7.4-5.12,11.92-5.3,3.71-.15,4.59,1.22,9.93,1.32,1.16,.02,5.14,.04,9.93-1.32,5.19-1.48,5.49-2.91,12.25-5.3,5.06-1.79,5.14-1.07,7.12-2.23,4.68-2.73,6.26-7.89,8.18-14.14,1.49-4.84,3.5-11.38,2.58-19.71-.71-6.4-2.48-7.9-1.32-12.25,1.12-4.23,3.46-5.3,3.94-10.24,.3-3.15-.33-6.02-.63-7.31-.88-3.83-1.91-4.42-2.32-6.95-.53-3.28,.71-5.39,2.32-9.6,3.49-9.12,1.45-8.98,4.3-15.23,2.95-6.46,7.71-12.23,8.28-12.91,3-3.6,5.62-5.89,5.63-9.6,0-2.22-.93-3.52,0-4.97,1.14-1.78,3.19-.81,5.95-2.99,.31-.25,2.22-1.81,3.15-4.46,.55-1.56,.48-2.81,.5-3.48,.07-3.86,3.07-6.68,5.63-10.1,5.15-6.88,2.68-8.43,7.95-15.73,3.45-4.79,3.91-3.28,7.69-8.41,1.46-1.98,5.32-7.53,7.87-15.76,1.45-4.66,.6-4.14,2.1-8.71,2.05-6.25,3.84-7.86,5.84-14.13,.35-1.1,.58-1.95,1.96-8.42,1.98-9.26,2.97-13.9,3.29-15.86,1.19-7.26,1.19-15.29,1.19-31.34,0-4.86-.07-8.02,1.79-11.63,1.89-3.66,4.14-4.64,5.34-8.9,.3-1.06,1.1-4.06,.33-7.61-.83-3.81-2.64-4.45-3.48-8.77-.38-1.96-.72-3.73,0-5.65,1.63-4.4,7.34-5.75,8.69-6.07,4.08-.96,6.09,.12,10.57,.51,1.26,.11,10.93,.89,20.06-3.47,2.76-1.32,7.08-3.88,11.28-8.89-24.34-12.15-33.22-18.49-36.15-22.04Zm920.04-464.77c-8.39,.63-11.58-.94-16.47,1.03-4.4,1.77-6.43,4.88-11.86,13.23-15.4,23.68-15.53,23.87-15.96,25.12-2.48,7.17,.15,5.21-1.73,29.82-1.02,13.35-2.33,20.9-1.45,32.34,.27,3.47,.93,9.88,.97,10.23,.94,9,1.41,13.51,2.14,16.69,1.96,8.54,3.64,8.3,4.3,14.9,.45,4.5-.16,6.35,1.42,8.76,2.08,3.18,4.93,2.71,9.84,5.14,5.91,2.93,4.99,5.19,15.23,13.91,3.18,2.71,2.65,1.96,9.27,7.28,5.29,4.26,6.61,5.52,11.92,9.93,13.33,11.08,14.55,11.04,17.88,15.23,3.03,3.82,4.45,6.96,7.28,13.24,3.5,7.77,7.74,17.16,9.04,28.92,1.19,10.71-1.48,10.56-1.76,28.69-.05,2.99-.13,13.08,1.32,25.16,.65,5.4,1.85,13.21,7.28,33.11,6.9,25.29,8.57,25.87,13.24,45.03,2.89,11.83,4.87,20.1,5.96,31.78,1.41,15.18-.58,15.75,1.32,25.16,2.73,13.46,7.35,14.93,14.57,33.77,5.54,14.46,2.51,12.78,7.95,26.49,3.9,9.82,7.19,15.05,15.27,34.17,3.09,7.31,4.35,10.66,4.59,15.49,.35,7.04-1.87,8.92-3.97,20.53-1.1,6.06-1.39,10.88-1.99,20.53-.54,8.83-.2,9.36-.66,20.53-.75,18.04-1.65,16.83-1.32,24.5,.39,9.18,1.64,9.69,2.65,23.84,.48,6.68,.61,12.38,.66,15.23,.21,12.96-.65,14.41,0,21.19,.77,8.03,2.17,7.88,4.28,18.66,1.61,8.25,3.21,16.41,2.34,26.37-1.13,12.97-5.08,13.34-4.64,24.5,.14,3.46,.7,8.11-.66,14.57-.74,3.52-1.8,6.36-2.65,8.61-2.14,5.68-4.29,9.49-5.96,12.58,0,0-3.89,7.18-9.2,18.81-2.85,6.23-3.94,9.59-8.01,20.92-13.61,37.84-14.41,36.44-15.78,44.74-2.12,12.9-.18,16.15-4.35,22.23-5.71,8.32-12.47,6.77-19.72,15.75-4.48,5.55-5.81,11.22-8.48,22.56-3.31,14.04-1.36,18.25-5.96,29.14-3.06,7.25-4.32,6.3-5.96,11.92-2.87,9.83,.86,13.09-.85,25.24-.33,2.33-1.92,7.48-5.11,17.8-2.31,7.47-2.97,9.07-5.96,18.54-3.31,10.48-4.97,15.78-5.3,18.54-1.31,10.96,1.17,19.34,1.99,21.85,1.58,4.88,3.66,8.68,5.3,11.26,36.86,1.77,73.72,3.53,110.58,5.3,3.48-6.74,6.96-13.48,10.45-20.22,1.2-5.48,2.58-13.58,2.8-23.48,.11-5.14-.13-8.56-.66-16.55-1.18-17.83-1.77-26.75-1.99-31.78-1.06-24.12,.88-25.54-1.99-34.43-3.39-10.51-6.65-10.25-7.95-19.2-1.81-12.43,2.9-23.79,4.49-27.28,1.04-2.27,3.3-6.19,7.64-14.14,2.51-4.59,3.88-7.04,5.57-10.17,.25-.46,1.48-2.76,2.12-3.99,3.62-6.94,5.94-13.35,6.67-15.27,1.69-4.5,4.8-10.49,11.02-22.46,12.39-23.83,15.56-27.5,25.4-47.07,5.29-10.52,7.98-15.92,10.59-23.18,3.89-10.8,5.9-20.2,7.95-29.8,3.3-15.46,2.67-17.79,5.96-27.81,1.79-5.46,3.08-8.12,4.64-14.57,1.51-6.26,1.44-8.52,2.94-17.72,1.99-12.28,2.83-12.64,3.69-19.36,1.28-9.97,.49-17.36,0-23.18-2.06-24.19,.74-22.84-1.32-53.64-1.57-23.42-2.36-35.14-5.3-48.34-2.87-12.91-5.86-19.78-4.77-30.32,.25-2.4,.97-7.54-.52-14.05-1.21-5.27-3.01-7.66-4.87-11.67-5.92-12.71-.69-16.21-5.72-28.72-3.81-9.47-7.41-8.96-9.93-18.54-1.2-4.57-.48-5.04-1.99-15.23-1.55-10.46-2.42-10.69-3.31-17.88-1.27-10.24,.22-11.91-.66-21.85-.49-5.49-1.66-10.35-3.97-19.87-3.99-16.37-5.98-24.55-9.27-32.45-2.15-5.16-6.34-15.04-14.24-26.16-5.86-8.24-8.28-9.45-10.6-15.81-2.83-7.75-3.23-16.92-2.31-22.27,.1-.59,.59-3.28,1.32-7.61,.27-1.6,.77-4.54,.99-5.96,.82-5.25,.85-9.18,.99-13.57,.37-11.45,.93-9.72,.99-17.22,.07-9.37,.11-14.06-1.66-20.2-.87-3.02-1.64-4.52-2.32-8.28-1.11-6.13-.04-7.46-.66-11.92-.12-.89-1.74-11.4-9.6-17.22-4.06-3-5.74-1.76-9.36-5.24-2.95-2.84-2.03-3.84-6.2-9.65-3.73-5.2-7.44-8.53-8.28-9.27-2.44-2.16-2.83-2.09-5.3-4.3-3.63-3.27-5.93-6.27-7.03-7.71-7.44-9.79-4.85-13.07-11.51-20.76-2.34-2.71-4.5-4.42-3.97-6.29,.78-2.79,6.98-3.29,7.28-3.31,3.58-.26,4.13,1.04,8.5,1.1,4.47,.07,4.37-1.29,7.39-.77,4.07,.7,4.7,3.23,8.84,3.33,.8,.02,.9-.07,4.19-.18,0,0,2.18-.07,4.17-.09,5.48-.04,6.49,.35,14.8,.69,2.15,.09,3.11,.1,4.52,.55,3.09,.98,4.96,2.97,5.52,3.53,4.98,5.03,19.17,11.74,26.71,14.46,7.7,2.77,13.62,3.24,23.07,3.97,11.83,.92,20.55-.02,29.47-.99,11.32-1.23,17.11-1.9,22.96-4.75,1.5-.73,8.83-4.39,15.58-12.26,5.19-6.05,4.12-7.68,11.79-20.05,6.06-9.76,7.3-9.67,10.32-16.03,3.41-7.17,4.64-13.21,5.63-18.21,1.45-7.36,2.27-15.69,1.82-27.48-.33-8.55-.89-24.85-7.28-45.69-5.25-17.13-11.54-36.88-28.47-54.96-10.03-10.71-18.35-14.8-21.64-16.2-.36-.15-.75-.31-.88-.36-3.46-1.4-10.68-4.03-20.06-5.24-3.23-.41-5.98-.56-11.19-.85-1.02-.06-1.25-.06-5.97-.3-7.1-.36-8.42-.44-10.52-.98-2.2-.57-3.95-1.01-5.87-2.34-1.14-.79-1.72-1.48-3.5-2.61-.16-.1-1.8-1.13-3.45-1.86-2.62-1.16-5.14-1.35-10.06-1.69-3.86-.27-5.83-.39-7.71,.06-2.66,.64-4.68,1.84-5.53,2.35-.54,.33-1.88,1.17-3.84,2.93-3.19,2.88-3.97,4.57-5.04,5.5-3.16,2.77-9.73-.15-28.26-7.87,0,0-11.15-4.45-21.19-4.14-.91,.03-2.53,.15-4.3,.99-.4,.19-3.56,1.74-4.97,4.8-2.49,5.43,2.87,10.53,.17,13.91-.92,1.15-2.29,1.49-3.64,1.82-4.33,1.07-6.79-1.7-9.6-.17-1.78,.97-1.13,2.26-2.81,2.98-2.88,1.23-5.67-2.19-8.61-.99-1.23,.5-1.94,1.59-2.32,2.32-1.18,.95-3.16,2.27-5.79,2.65-4.59,.65-6.33-2.47-12.25-2.65-2.22-.07-5.75-.18-9.44,1.66-2.51,1.25-2.88,2.29-6.95,4.47-3,1.6-3.52,1.42-4.64,2.48-.66,.63-2.29,2.42-2.81,8.11-.64,6.99,1.06,12.43,1.32,13.24,2.14,6.59,4.21,6.16,6.29,12.42,1.2,3.6,3,9,.66,14.24-1.98,4.45-5.8,6.98-8.49,7.94-3.49,1.24-8.91,2.82-15.68,3.32Z" style="fill:#22ff51;"/><path id="House" d="M1447.79,2378.97c-9.54,4.57-19.79,7.47-29.58,11.48-11.91,4.87-12.97,5.24-15.01,5.74-6.99,1.72-10,1.17-19.42,1.77-5.92,.38-14.39,1.72-31.34,4.41-12.47,1.98-16.06,2.79-18.98,3.53-6.08,1.54-5.18,1.72-15.01,4.41-7.3,2-10.29,2.59-15.01,4.86-7.23,3.48-8.83,6.24-9.27,7.06-2.41,4.53-1.15,9.22-.88,10.15,1.34,4.62,4.72,7.11,7.06,8.83,3.01,2.22,5.83,3.1,11.48,4.86,3.95,1.23,7.23,2.25,11.48,2.65,5.15,.48,7.89-.32,12.8-.88,1.71-.2,11.54-1.27,21.63,.44,7.23,1.23,12.31,3.49,20.31,7.06,10.62,4.74,9.56,5.81,16.78,8.39,10.84,3.88,13.21,1.46,21.19,5.74,4.77,2.56,4.13,3.54,12.36,8.83,4.15,2.67,4.46,2.52,13.24,7.5,8.85,5.03,9.72,5.86,16.78,9.71,7.1,3.88,10.71,5.84,13.68,6.62,6.22,1.64,7.49,.21,16.33,1.77,3.47,.61,6.73,1.59,13.24,3.53,5.15,1.54,10.54,3.15,17.22,5.74,11.5,4.46,10.4,5.46,17.66,7.5,6.04,1.7,14.78,3.26,16.33,3.53,2.81,.5,5.03,.83,8.39,1.77,4.72,1.31,5.01,1.94,8.39,2.65,4.92,1.03,5.62-.04,10.15,.88,4.09,.83,3.74,1.75,9.27,3.53,2.03,.66,5.5,1.33,12.36,2.65,5.26,1.01,5.64,1.03,9.27,1.77,5.04,1.03,7.55,1.54,9.71,2.21,4.99,1.54,5.11,2.33,9.71,3.53,1.74,.45,4.42,1.14,7.95,1.32,4.6,.24,4.7-.69,8.39-.44,3.82,.26,6.74,1.46,11.26,3.31,4.22,1.74,4.35,2.29,7.28,3.09,2.66,.72,4.87,.89,7.95,1.1,5.19,.36,5.05-.18,8.17,.22,2.03,.26,4.66,1.13,9.93,2.87,3.65,1.2,5.5,1.82,8.17,2.87,4.09,1.62,4.32,1.99,7.5,3.09,3.48,1.2,5.22,1.8,7.73,1.99,3.17,.23,3.74-.46,6.18,.22,1.18,.33,1.13,.51,5.08,2.21,3.22,1.38,3.79,1.49,4.19,1.55,2.2,.31,2.73-.46,5.08-.44,2.01,.02,3.43,.6,5.74,1.55,2.39,.98,3,1.62,6.18,3.31,0,0,2.42,1.29,5.52,2.65,5.18,2.27,9.71,2.99,11.48,3.31,10.47,1.89,19.92,6.94,47.46,14.13,16.78,4.38,16.24,3.28,26.49,6.4,3.6,1.1,7.33,2.35,12.8,2.87,3.17,.3,3.58,.04,12.58,.44,4.94,.22,7.45,.34,9.27,.66,2.86,.51,4.61,1.13,9.05,1.77,2.54,.36,3.91,.44,5.52,.22,.83-.11,3.96-.54,5.3-1.77,3.17-2.9-1.99-11.77-5.52-22.96-2.51-7.97-3.22-14.58-4.64-27.81-1.31-12.28-1.34-21.75-1.32-25.16,.04-6.44,.46-12.24,1.32-23.84,.9-12.18,1.2-12.8,1.99-23.84,.38-5.32,.93-13.76,1.32-23.84,.68-17.33,.02-16.46,.66-25.16,.46-6.24,1.85-14.31,4.64-30.46,3.28-19.04,4.35-22.46,7.28-26.49,3.45-4.74,5.62-5.01,9.93-11.26,3.27-4.73,5.47-9.56,7.95-17.22,3.81-11.79,3.86-16.69,6.62-29.14,2.87-12.93,4.68-21.08,9.27-31.12,5.45-11.93,8.16-11.96,13.91-25.82,1.92-4.64,3.33-8.77,7.28-17.88,3.66-8.44,5.32-11.53,7.28-14.57,1.14-1.77,1.25-1.76,7.95-10.59,7.02-9.26,6.93-9.3,8.61-11.26,5.18-6.03,6.01-5.59,10.26-10.71,2.26-2.71,1.56-2.28,8.94-13.13,6.79-9.99,8.43-11.9,10.59-13.91,3.49-3.24,6.26-4.8,5.96-5.41-.59-1.18-11.68,3.26-13.46,3.97-69.17,27.83-123.16,52.86-123.16,52.86-32.98,15.29-23.77,9.46-77.7,33.55-47.64,21.28-49.53,23.47-80.34,36.2-51.66,21.34-62.86,22.01-82.99,30.9-.17,.08-20.08,8.87-29.91,9.49-1,.06-3.69,.16-7.12,1.16-3.26,.95-6.05,2.4-8.77,3.81-2.54,1.31-3.49,1.44-4.47,2.48-.7,.74-1.64,2.03-2.31,5.29-.79,3.81-.2,5.47-.28,10.11-.06,3.14-.32,2.3-.77,8.39-.2,2.69-.31,5.37-.53,10.73-.21,5.17-.21,6.02-.48,8.02-.83,6.25-2.19,7.91-2.74,8.51-1.6,1.75-3.56,2.41-4.98,2.89-2.13,.72-4.19,.77-8.22,.86-4.26,.09-5.2-.22-6.67,.67-1.79,1.08-1.46,2.17-3.31,2.98-1.65,.72-2.4,.07-5.3,.83-1.47,.38-2.2,.57-2.81,1.16-1.3,1.25-.61,2.57-1.59,4.7-.47,1.03-1.59,2.02-3.81,3.98-2.4,2.13-3.61,3.19-4.69,3.57-1.39,.5-2.97,.61-6.13,.82-1.44,.1-2.19,.09-2.98,.66-.93,.67-1,1.49-1.86,2.99-.81,1.43-1.68,2.33-2.44,3.13-1.87,1.96-3.79,2.96-5.2,3.69-1.61,.83-3.02,1.55-5.06,1.89-2.83,.47-5.07-.1-6.38-.45-1.6-.42-4.4-1.17-6.71-3.47-.92-.92-.55-.88-3.99-6.37-1.64-2.62-2.27-3.5-3.51-4.22-1.64-.95-3.39-1.06-4.08-1.09-2.14-.11-2.49,.54-3.98,.43-2.01-.15-3.36-1.5-5.78-3.99-2.27-2.33-3.68-4.51-4.35-5.59-1.09-1.78-1.95-3.7-3.61-7.47-1.92-4.34-1.97-4.87-2.98-6.29-1.03-1.45-2.37-3.34-4.8-4.47-2.75-1.28-5.41-.9-7.95-.5-3.54,.56-6.07,1.78-6.62,2.04Z" style="fill:#3a5fac;"/></svg>