<?xml version="1.0" encoding="UTF-8"?><svg id="uuid-18a99275-e2a2-46c0-ad28-33e04dcab101" xmlns="http://www.w3.org/2000/svg" viewBox="0 0 2733 4351"><path id="uuid-ce7bd2d6-2057-4ebf-9ced-2774dba8b083" d="M2590.72,448.57c-1.56-3.08-2.34-4.62-2.61-5.6-1.43-5.15,.68-6.97-.37-11.58-.67-2.91-2.09-4.71-4.86-8.22-2.05-2.6-4.89-6.19-8.59-8.22-5.5-3.01-13.99-.79-30.99,3.63-6.4,1.67-5.18,1.68-11.37,3.25-4.86,1.24-6.81,1.53-9.58,3.18-3.48,2.07-3.32,3.35-5.96,4.5-3.6,1.56-5.69-.03-11.2-.37-4.17-.26-8.14,.7-16.06,2.61-2.24,.54-5.35,1.48-11.58,3.36-5.74,1.73-8.63,2.61-10.08,3.36-5.15,2.66-4.98,4.52-10.46,7.84-5.09,3.09-5.56,1.68-10.91,4.7-7.26,4.1-7.23,7.17-12.18,8.21-3.2,.67-3.29-.59-10.52-.96-4.42-.22-8.14-.41-12.32,.75-6.11,1.7-6.02,4.28-11.58,5.98-5.6,1.7-6.53-.66-14.57,0-4.31,.36-12.01,.99-17.55,6.35-2.2,2.13-3.58,4.78-6.35,10.08-2.56,4.91-3.14,7.14-4.41,9.83-1.75,3.74-3.65,5.92-20.62,20.79-9.65,8.46-10.77,9.28-11.95,10.08-1.8,1.23-3.91,2.57-17.93,9.71-11.24,5.72-12.15,6.02-15.69,8.22-4.78,2.97-4.98,3.59-11.58,7.84-4.44,2.86-7.7,4.74-13.07,7.84-4.19,2.42-9.67,5.51-16.21,9-3.88,1.2-9.71,3.13-16.66,5.94-7.78,3.15-9.03,4.19-19.05,8.59-11.87,5.21-13.18,5.09-22.41,9.34-11.86,5.46-10.14,5.87-17.55,8.96-12.74,5.32-16.77,3.68-32.87,8.96-6.87,2.26-4.04,1.87-18.67,7.47-24.43,9.35-21.34,6.23-33.24,11.58-8.27,3.72-12.43,6.42-18.67,5.6-2.5-.33-5.39-1.23-10.38-1.16-3.42,.05-6.12,.53-9.04,1.16-13.95,3.01-13.85,5.37-18.94,5.28-8.56-.15-8.87-6.84-19.53-8.27-2.02-.27-8.78-.94-15.69,2.24-5.81,2.68-5.87,5.37-13.57,9.11-4.57,2.22-5.41,1.68-9.86,4.15-1.1,.61-5.14,2.91-9.8,7.28-5.21,4.88-5.77,7.26-8.96,10.64-4.54,4.81-8.78,5.68-19.23,9.57-17.9,6.67-14.82,7.59-26.14,11.15-11.91,3.74-22.06,4.84-31.65,5.88-15.72,1.7-17.69,.23-25.77,3.08-8.46,2.99-9.84,5.86-19.33,8.68-8.13,2.42-12.11,1.8-19.33,2.8-7.29,1.01-17.77,3.65-30.25,11.2-5.63,2.72-14.77,6.79-26.52,10.35-21.63,6.56-24.13,2.93-37.62,9.26-9.03,4.24-17.4,10.31-31.09,15.97-.35,.14-5.35,2.17-12.32,3.08-3.96,.52-11.89,1.56-13.16-1.12-.85-1.79,1.65-4.51,6.72-9.8,16.39-17.11,20.93-20.82,25.45-28.73,.85-1.49,2.19-4.28,4.86-9.87,4.26-8.92,7.13-15.61,7.79-17.14,2.12-4.98,3.42-8.34,7.7-19.64,9.47-25.01,9.07-24.26,9.67-25.46,1.02-2.05,.89-1.63,16.81-26.33,4.45-6.91,5.52-8.59,7.84-11.2,2.57-2.89,4.88-4.92,17.37-14.01,10.96-7.97,12.02-8.48,16.81-12.32,2.75-2.21,2.43-2.07,11.76-10.08,2.02-1.73,2.64-2.26,15.13-12.88,10.29-8.76,15.45-13.15,16.25-14.01,4.17-4.47,3.25-4.5,14.01-18.49,7.03-9.15,9.1-11.32,10.08-12.32,1.18-1.21,3.94-3.97,14.01-11.76,12.46-9.65,13.49-9.5,17.37-13.45,4.84-4.92,3.68-5.61,11.2-16.25,7.15-10.12,12.74-18.03,21.85-25.77,4.04-3.43,6.17-4.63,8.96-8.4,3.83-5.18,3.31-7.64,7.84-15.13,2.17-3.57,2.46-3.3,7.28-10.08,6.33-8.91,5.58-9.03,8.96-13.45,2.62-3.42,7.54-7.88,17.37-16.81,6.66-6.05,8.55-7.52,10.64-8.96,1.23-.85,4.68-3.17,12.69-7.06,8.36-4.05,12.53-6.08,17.56-7.51,11.52-3.28,12.39,.53,23.53-2.24,11.07-2.76,18.67-8.64,22.69-11.81,3.14-2.48,6.59-5.25,9.81-10.04,2.13-3.17,5.31-7.9,5.6-14.57,.25-5.66-1.71-9.88-3.36-13.45-3.02-6.52-7.1-10.54-9.52-12.88-2.93-2.84-5.7-4.86-12.32-8.96-17.84-11.04-19.66-9.9-25.77-15.69-5.1-4.83-8.69-10.22-11.2-14.01-3.53-5.31-5.75-9.73-6.72-11.76-1.72-3.58-3.62-7.53-5.04-12.88-2.03-7.63-.48-8.28-2.24-14.01-1.21-3.93-3.79-7.66-8.96-15.13-4.66-6.72-8.58-11.6-10.08-13.45-5.58-6.85-6.77-7.54-12.32-14.01-12.22-14.22-12.36-17.75-20.17-22.97-3.86-2.58-9.76-6.52-15.13-5.04-1.39,.38-3.63,1.38-7.28,1.68-2.91,.24-3.43-.23-5.6,0-.68,.07-6.09,.71-9.03,4.3-2.95,3.6-2.64,9.22-1.05,13.07,2.77,6.71,8.49,5.85,17.93,15.13,2.37,2.33,5.59,5.54,8.4,10.64,3.61,6.56,4.59,12.66,5.6,19.05,.91,5.74,1.04,10.24,1.12,13.44,.17,6.77-.3,10.89-.56,15.13-.41,6.73,.04,13.2,.93,26.14,.94,13.55,1.93,19.13,.75,28.2-.44,3.35-1.32,8.32-4.48,13.44-1.19,1.92-1.5,1.93-5.6,6.72-5.32,6.22-9.7,11.94-12.44,15.51-2.5,3.27-3.29,4.4-5.28,6.74-5.25,6.17-9.86,10.18-12,12.04-9.1,7.91-18.1,15.93-27.26,23.76,0,0-5.31,4.54-17.88,15.54-18.81,16.45-24.04,22.49-41.62,38.72-31.09,28.7-30.63,24.52-49.85,44.04-21.14,21.47-20.89,23.12-29.04,29.04-7.94,5.76-15.24,9.04-21.43,11.81-15.37,6.9-19.49,5.58-28.01,12.32-7.34,5.81-12.53,13.3-14.57,16.25-2.63,3.79-4.54,6.56-6.16,10.64-3.83,9.63-.61,12.88-2.95,22.39-2.23,9.09-7.43,15.3-13.86,22.99-4.68,5.6-7.36,7.5-12.32,12.32-11.24,10.92-12.06,15.3-22.17,27.26-18.69,22.1-25.37,18.37-35.06,35.43-2.38,4.2-2.55,5.43-11.12,21.9-2.17,4.18-1.67,3.15-9.52,17.93-9.74,18.32-10.38,19.65-12.78,22.66-6.01,7.54-7.45,6.06-12.99,13.75-4.71,6.54-4.66,8.99-10.08,16.25-.87,1.17-4.47,5.91-10.08,11.2-7.87,7.42-10.31,7.06-19.25,14.94-5.81,5.12-9.86,9.73-11.72,11.94-6.47,7.67-5.92,9.16-9.93,13.46-6.84,7.35-11.14,5.89-23.53,13.45-3.46,2.11-8.85,6.64-19.61,15.69-4.73,3.97-11.87,10.1-20.17,18.49-7.53,7.61-9.32,10.31-10.64,13.45-2.54,5.99-1.12,8.15-3.71,15.33-2.74,7.59-7,12.57-8.89,14.75-6.69,7.69-11.12,7.53-18.21,13.06-13.17,10.27-17.65,26.24-21.29,39.21-.42,1.51-2.68,9.7-3.92,20.73-1.01,8.94-.32,10.62-1.13,16.81-1.72,13.05-5.8,13.22-8.95,26.32-3.56,14.79-2.06,29.96-1.68,33.61,.82,7.76,2.04,10.96,.56,16.81-1.8,7.14-5.11,8.24-8.96,16.81-3.13,6.96-3.85,12.68-4.79,20.2-1.3,10.36-2.11,16.84,.86,24.06,1.92,4.66,3.86,5.85,7.84,11.2,5.76,7.73,8.4,14.23,12.72,24.85,11.25,27.66,6.11,32.34,15.29,49.66,9.18,17.31,22.96,28.94,25.21,30.81,9.52,7.9,17.7,11.65,28.01,24.09,6.24,7.52,8.7,12.72,9.52,14.57,4.9,10.92,5.03,20.82,5.04,26.33,.02,8.46-1.41,14.85-2.24,18.49-.75,3.28-1.48,5.59-7.84,22.41-5.98,15.79-5.99,15.49-6.91,18.49-3.49,11.45-2.25,12.59-5.6,22.03-2.24,6.3-4.6,10.89-7.84,17.18-3.76,7.29-5.63,10.94-8.59,14.57-4.54,5.57-6.7,5.86-11.2,11.58-3.58,4.54-4.67,7.49-7.1,11.95-6.68,12.28-10.54,12.3-23.9,31.37-5.28,7.53-6.86,10.65-7.84,14.57-1.91,7.64,.75,9.22-1.79,14.85-.57,1.26-1.22,2.33-12.21,14.28-3.94,4.29-4.04,4.35-4.48,5.04-4.17,6.56-3.67,14.1-3.36,17.93,.56,7.03,2.41,7.51,1.94,13.29-.31,3.74-1.17,4.63-1.94,9.96-.38,2.68-.47,4.63-.56,10.92-.14,10.22-.21,15.33,0,20.17,.29,6.82,.44,10.23,1.12,14.57,1.21,7.68,2.6,9.86,4.73,19.81,.33,1.56,1.41,6.68,2.27,12.96,.68,4.98,1.94,15.89,1.35,29.97-.2,4.79-.49,11.1-1.91,19.33-1.53,8.88-2.71,10.3-4.76,20.17-2.44,11.75-1.14,11.52-3.36,22.69-1.75,8.8-3.88,15.55-7,25.49-2.09,6.66-2.42,7.02-5.57,17-2.89,9.13-3.05,10.2-4.45,13.65-.89,2.2-2.46,5.82-8.75,16.41-5.87,9.89-6.61,10.28-11.76,19.05-6.96,11.84-8.27,15.66-8.96,17.93-1.85,6.09-2.29,11.29-2.52,14.29-.59,7.55,.34,9.88,.28,16.81-.08,9.25-1.82,16.25-2.99,20.91-3.81,15.26-7.87,15.9-7.1,24.28,.46,4.99,2.21,8.12,.37,12.7-1.68,4.2-4.25,4.3-5.6,8.22-1.47,4.24,.63,6.76,2.24,14.19,.37,1.7,1.97,9.44,1.12,17.93-.63,6.3-1.9,5.89-4.11,17.55-1.95,10.29-1.35,12.65-.75,14.19,1.45,3.71,3.61,4.53,5.2,9.69,1.15,3.72,.3,4.2,1.52,7.12,.47,1.12,2.63,5.92,7.47,8.22,4.02,1.91,5.43-.03,8.59,1.87,3.82,2.29,2.62,5.65,6.35,8.96,3.28,2.92,8.51,4.16,12.7,2.99,4.5-1.26,4.02-4.24,10.46-7.84,5.11-2.86,5.94-1.27,9.71-4.11,2.35-1.77,4.64-4.36,7.96-8.12,.51-.58,1.78-2.03,3.8-3.59,.13-.1,1.5-1.16,2.53-1.73,3.97-2.21,7.17,.33,12.59-.76,1.33-.27,4.24-.85,6.35-2.99,2.38-2.41,2.18-5.2,2.61-12.32,.9-14.75,2.45-14.04,1.87-21.66-.29-3.79-.81-5.71,0-8.96,1.11-4.48,3.11-4.92,5.23-9.34,3.95-8.22,.85-14.62,4.32-16.3,.76-.36,2.8-.04,6.88,.61,3.57,.57,3.73,.84,5.98,1.12,3.72,.47,7.07,.89,9.71-.75,.91-.56,2.62-1.91,3.95-6.29,1.92-6.3,.69-11.06-.21-17.98-1.35-10.33,.21-8.81-1.12-19.05-1.35-10.41-2.93-11.74-3.73-19.79-.95-9.51,1.01-10.11,.86-19.92-.29-18.4-7.47-34.21-8.61-36.66-2.47-5.31-4.74-8.74-6.44-15.69-.81-3.3-2.11-8.8-1.4-15.69,.69-6.64,2.41-6.47,4.2-15.13,1.56-7.51,1.59-14.01,1.61-18.76,.03-6.73-.55-6.7-.21-11.77,.39-5.9,1.23-6.78,1.96-14.29,.65-6.67,.07-6.85,.84-11.2,.62-3.48,1.07-3.83,3.36-11.48,2.01-6.72,3.02-10.08,3.72-14.12,.92-5.33,.32-5.45,1.32-11.93,.97-6.24,1.48-5.87,2.52-12.04,1.33-7.93,.66-9.61,2.24-15.97,.76-3.05,1.26-4.04,2.52-7.84,1.82-5.45,4.23-12.7,5.32-20.45,1.45-10.28-.78-11.76,1.4-22.41,.61-2.99,.76-2.75,2.24-9.24,1.79-7.88,2.69-11.82,3.08-16.25,.54-6.11-.3-6.13,.28-13.16,.55-6.65,1.69-11.5,1.96-12.6,1.02-4.19,1.61-4.93,5.6-15.41,4.66-12.22,4.53-12.96,6.72-17.09,1.52-2.85,1.04-1.48,7.28-11.48,3.7-5.93,5.59-8.98,7.84-13.16,1.01-1.88,2.35-4.61,5.04-10.08,3.75-7.64,3.44-7.23,5.32-10.92,3.78-7.45,4.21-7.46,5.88-11.48,1.58-3.8,2.69-7.35,3.36-9.52,2.07-6.65,1.44-6.4,2.24-7.84,2.54-4.6,7.27-4.2,19.61-8.96,7.83-3.02,11.79-4.6,14.01-7.56,2.95-3.95,2.14-6.93,6.16-10.36,2.89-2.47,4.67-2.1,6.89-4.92,1.61-2.05,2.09-4.05,2.91-7.68,1.11-4.87,.47-5.64,1.4-11.2,.56-3.34,1.39-6.64,2.8-10.08,1.76-4.28,3.13-5.64,4.2-6.44,.64-.48,3.49-2.6,5.88-1.68,1.65,.64,1.76,2.21,3.64,5.88,2.12,4.14,2.71,3.55,5.6,8.68,1.96,3.48,3.19,6.41,3.59,7.42,1.29,3.15,1.28,3.87,2.96,8.11,1.39,3.51,2.08,5.27,2.93,6.35,1.9,2.41,3.14,2.27,5.64,5.29,.54,.66,1.3,1.85,2.8,4.2,2.54,3.99,3.81,5.99,4.11,6.9,.35,1.06,.51,2.02,.09,9.06-.25,4.32-.42,5.82-.56,8.12-.26,4.41-.14,7.62,0,11.48,.39,10.46,.62,15.8,2.89,20.69,1.8,3.9,3.93,6.25,4.39,6.76,3,3.26,6.21,4.92,9.24,6.44,5.19,2.61,5.87,1.77,10.08,4.2,1.16,.67,.43,.34,7.84,5.85,4.93,3.67,6.49,4.73,8.97,5.64,2.68,.98,3.08,.56,3.92,1.4,2.78,2.79-1.15,7.91,1.68,12.04,1.6,2.34,4.38,2.94,5.04,3.08,3.44,.74,5.25-1.18,8.96-2.24,7.26-2.08,9.2,2.69,18.21,1.4,5.45-.78,5.89-2.69,10.08-2.24,4.62,.49,4.77,2.88,10.08,4.2,6.35,1.58,8.55-1.22,12.88,1.12,3.55,1.91,2.76,4.15,5.88,5.32,2.48,.93,3.28-.36,13.44-2.8,5.28-1.27,7.92-1.9,8.68-1.96,2.59-.21,4.06,0,5.04-1.12,1.23-1.41-.04-2.98,1.12-5.88,.9-2.25,2.56-3.53,3.08-3.92,2.46-1.84,5.25-1.89,6.16-1.96,3.98-.29,7-3.39,16.25-13.16,14.61-15.45,15.51-16.67,16.81-19.05,3.91-7.18,5.06-13.36,5.32-14.85,1.03-5.9,.57-10.16-.28-17.93-.33-3.02-1.3-10.92-4.16-21.16-2.23-7.97-3.52-12.57-6.76-18.34-2.39-4.25-4.86-7.22-9.8-13.16-6.06-7.29-9.09-10.93-12.32-13.16-9.29-6.41-19.29-6.87-22.13-7-2.16-.1-5.67-.26-10.08,.56-1.87,.35-2.48,.61-7.56,1.68-4.03,.85-5.33,1.04-5.88,1.12-2.67,.38-4.55,.46-7,.56-5.98,.25-7-.23-7.56-.56-.85-.5-1.37-1.08-2.8-1.68-.12-.05-1.65-.68-3.36-.84-4.08-.38-5.33,2.28-8.4,1.96-2.88-.3-4.81-2.97-6.18-4.85-1.72-2.38-2.27-4.59-3.06-7.75-.78-3.15-.95-5.57-1.12-8.12-.29-4.38-.43-6.56,.28-9.24,.88-3.34,2.55-5.58,3.64-7,2.62-3.44,4.78-4.51,12.32-9.52,5.93-3.95,8.9-5.92,12.04-8.4,5.56-4.4,5.68-5.37,9.24-7.56,4.5-2.76,7.74-3.3,12.6-4.76,1.71-.51,11.58-3.47,19.33-8.12,7.59-4.56,11.96-10.03,19.61-19.61,3.31-4.14,5.83-7.82,10.64-14.85,4.17-6.09,1.18-2.07,6.44-10.08,2.98-4.54,3.8-5.61,4.2-7.84,.64-3.53-.73-4.49,.28-8.4,.76-2.94,1.88-3.78,1.4-5.6-.42-1.6-1.46-1.61-3.36-4.2-1.26-1.72-2.86-3.89-2.24-5.6,.46-1.3,1.74-1.1,3.64-2.52,2.37-1.77,3.26-4.22,4.48-7.56,.58-1.59,1.26-3.86,1.68-7.28,.74-5.94-.2-8,0-12.6,.17-4.1,1.14-6.93,3.08-12.6,3.34-9.77,5.15-9.44,7.28-16.53,1.88-6.25,1.95-11.41,2.03-18.16,.11-8.16-.84-15.45-.91-16.01-.88-6.67-1.82-8.78-1.4-13.73,.25-2.99,.91-5.35,2.24-10.08,1.41-5.05,2.27-6.84,4.2-12.6,3.71-11.07,2.38-9.85,4.2-13.73,2.92-6.2,5.37-7.25,8.68-15.13,1.17-2.78,2.09-5.56,1.12-8.4-.58-1.7-1.64-2.88-3.08-4.48-1.67-1.86-3.18-3.53-5.6-4.48-3.34-1.31-5.1,.05-6.44-1.4-1.35-1.45,.11-3.14-.56-6.44-.76-3.72-3-3.42-5.6-8.4-2.27-4.34-1.69-6.7-4.15-8.11-1.03-.59-1.36-.3-4.25-.85-2.45-.46-4.16-1.06-7.56-2.24-4.83-1.68-7.24-2.52-8.4-3.64-1.17-1.13-1.22-1.74-3.64-6.44,0,0-1.49-2.89-3.64-6.72-3.28-5.84-5.23-5.77-11.76-14.01-3.65-4.6-3.24-4.87-7.28-9.8-2.88-3.52-3.79-4.23-5.32-6.72-2.32-3.78-2.25-5.4-4.2-9.52-.87-1.84-2.9-6.03-6.44-9.8-5.91-6.29-10.88-5.88-12.04-10.64-.47-1.91,.36-1.87,0-6.72-.31-4.23-1.02-5.35-.28-7.28,.74-1.95,2.02-2.3,4.55-4.56,4.05-3.61,3.31-4.95,6.37-7.77,2.46-2.26,5.66-3.38,12.04-5.6,5.28-1.84,6.27-1.6,9.52-3.36,3.98-2.15,3.81-3.21,6.44-3.92,3.28-.88,4.15,.6,10.48,.54,3.52-.03,5.34-.08,6.88-1.38,2.05-1.74,1.33-3.79,3.08-5.04,1.34-.96,3.17-.77,9.24,1.4,7.99,2.85,8.72,3.92,13.73,5.32,5.92,1.66,6.25,.55,8.42,2.1,4.13,2.95,3.69,7.47,8.09,9.36,2.32,1,3.11,.02,4.49,1.14,2.29,1.85,.9,5.16,1.21,12.73,.29,7.27,1.73,8.18,.53,11.91-.84,2.61-1.69,2.66-3.41,7.01-.67,1.7-1.66,4.18-2.24,7.56-.56,3.24-.36,5.03-1.41,9.08-.29,1.13-.52,1.83-.69,2.36-1.81,5.94-1.04,11.59-1.27,15.73-.18,3.27-1.13,7.99-4.76,13.72-.91,1-2.2,2.59-3.36,4.76-1.7,3.18-1.24,4.12-2.52,5.04-1.77,1.27-3.39,0-8.4,1.12-1.77,.39-2.23,.7-2.52,1.12-.79,1.13,.15,2.35,.84,6.16,.44,2.42,.24,2.95,.84,5.04,.35,1.24,1.01,3.54,1.79,3.53,.84-.02,.6-2.66,2.41-4.09,1.87-1.47,4.75-.72,6.44-.28,1.67,.43,4,1.35,7,3.92,4.56,3.91,7.03,8.52,8.08,10.73,2.56,5.37,2.62,8.9,4.52,9.16,1.43,.2,2.77-1.62,3.64-2.8,2.46-3.34,2.42-6.28,3.64-13.16,.55-3.1,1.31-6.16,1.96-9.24,1.97-9.31,2.14-9.9,2.52-10.92,2.1-5.58,5.12-9.19,6.16-10.36,2.11-2.39,4.06-3.87,6.72-5.88,4.66-3.53,5.35-3.12,8.12-5.6,1.6-1.44,4.67-4.24,6.44-8.68,.89-2.24,1.08-5.17,1.4-10.92,.32-5.72,.48-8.58,.28-11.76-.24-3.71-.91-7.14-2.24-14.01-1.39-7.14-1.62-6.86-1.68-8.96-.15-5.17,1.23-7.05,.28-11.2-.14-.61-.35-1.36-3.08-6.44-4.87-9.07-5.84-9.71-7-13.44-1.17-3.75-1.37-6.91-1.4-8.68-.03-1.79-.06-4,.56-6.16,1.19-4.12,3.99-5.31,9.24-10.08,.83-.76,4.29-4.52,11.2-12.04,4.42-4.81,5.56-6.14,8.12-7.84,3.96-2.63,7.74-3.79,9.24-4.2,.81-.22,1.74-.44,6.44-1.12,6.52-.94,8.11-1,10.64-1.4,4.7-.74,7.96-1.89,12.88-3.64,2.8-.99,8.16-3.03,14.57-6.44,1.67-.89,7.13-3.86,13.73-8.68,3.69-2.7,8.88-6.54,14.57-12.6,4.34-4.63,3.63-4.86,7.56-8.96,4.92-5.13,6.48-5.24,15.13-12.32,8.32-6.82,7.52-7.25,15.13-13.16,4.55-3.54,6.08-4.35,8.96-7.28,4.19-4.26,4.27-5.9,8.4-11.2,4.76-6.1,5.29-4.74,14.29-14.57,2.86-3.13,3.37-3.88,9.24-10.36,4-4.42,6-6.64,6.44-7,7.17-6.02,10.79-3.15,18.77-9.24,2.48-1.9,4.21-3.76,8.68-6.72,1.92-1.27,2.6-1.59,4.76-3.08,4.12-2.84,4.87-3.91,7.28-5.6,4.52-3.18,8.9-4.35,11.48-5.04,4.33-1.16,7.68-1.29,11.2-1.4,6.28-.2,11.04,.51,16.81,1.4,7.14,1.1,7.17,1.62,13.73,2.52,1.2,.16,6.6,.89,13.88,1.14,6.78,.24,10.39,.34,15.25-.58,3.82-.72,3.39-1.13,8.25-2.26,4.9-1.14,6.28-.95,16.4-2.23,9.41-1.19,11.64-1.79,13.73-2.52,3.21-1.13,2.94-1.48,7.84-3.64,6.74-2.98,8.64-2.93,16.25-5.88,.61-.24,4.25-1.84,11.48-5.04,3.56-1.57,8.52-3.77,15.13-6.72,5.92-2.65,8.27-3.72,11.48-5.32,2.78-1.38,4.8-2.47,7-3.64,7.38-3.95,11.07-5.92,14.01-7.84,5.15-3.37,8.56-6.47,13.44-10.92,2.05-1.87,1.68-1.63,10.64-10.08,.74-.7,2.56-2.41,5.04-4.76,4.58-4.33,6.41-6.09,8.68-8.4,1.94-1.97,2.93-2.99,4.2-4.48,2.24-2.63,2.77-3.7,4.48-5.88,1.22-1.56,3.15-3.46,7-7.28,2.7-2.67,4.73-4.61,7.84-7.56,2.35-2.24,3.55-3.37,4.48-4.2,3.43-3.05,5-4.05,7.56-6.16,4.1-3.38,3.46-3.6,8.96-8.68,3.8-3.5,6.28-5.79,10.08-8.4,3.7-2.54,4.65-2.63,7.56-5.04,3.38-2.8,3.38-3.74,6.44-6.44,3.5-3.1,5.14-3.32,9.92-6.43,6.39-4.16,4.99-4.76,9.97-7.85,4.98-3.09,7.3-3.07,18.94-7.91,1.02-.43,2.41-1.02,4.39-1.7,2.33-.8,3.93-1.17,6.23-1.96,1.96-.68,3.67-1.26,5.35-2.14,3.43-1.8,4.32-3.54,7.1-5.89,2.96-2.5,5.66-3.64,8.96-5.04,6.91-2.93,12.94-3.38,16.81-3.64,6.39-.42,5.97,.57,11.49,.02,7.87-.79,8.34-2.78,14.84-3.1,4.71-.23,4.05,.84,13.41,1.41,2.65,.16,5.77,.2,12,.27,5.56,.06,9.15,.02,10.48,0,8.69-.12,11.47-.39,20.71-.84,11.84-.57,11.03,.03,14.86-.62,4.6-.78,5.09-1.5,11.73-2.75,1.88-.35,5.35-1,9.8-1.4,8.93-.81,10.85,.33,15.69-1.12,3.5-1.05,5.7-2.61,8.4-4.48,21.35-14.74,22.83-12.98,25.76-18.08,3.27-5.69,6.06-15.95,1.94-23.23-2.26-3.98-5.63-5.41-5.66-9.49-.03-4.55,4.14-5.45,3.97-10.08-.07-2.08-.93-2.24-5.09-10.46Zm-932.74,661.42c-1.86,3.91-2.05,3.75-2.61,5.42-1.07,3.14-.5,4.03-1.31,7.1-.91,3.49-2.11,4.11-3.36,7.1-1.45,3.46-.77,4.85-1.31,11.02-.7,8.14-2.58,13.82-3.73,16.81-2.1,5.42-3.85,7.23-5.04,8.22-1.04,.86-2.89,1.71-6.54,3.36-3.01,1.36-5.56,2.51-9.15,3.73-3.88,1.32-5.82,1.98-7.28,1.87-3.45-.28-5.88-2.43-9.15-5.42-2.6-2.37-3.4-3.72-6.72-7.66-4.92-5.84-4.85-4.9-7.63-8.42-3.92-4.99-8.17-10.39-8.81-16.79-.12-1.16-.24-3.66-1.12-7.1-.61-2.38-1.28-4.09-1.6-4.9-1.75-4.44-3.36-8.95-5.12-13.39-2.61-6.61-2.24-13.12-1.49-26.14,.43-7.53,.84-14.72,3.36-19.42,.43-.79,2.06-3.65,3.02-6.93,.61-2.08,1.29-4.77,1.29-4.77s.26-1.02,.45-1.83c1.05-4.46-.39-10.14,.84-15.42,.7-3,2.06-4.97,4.67-8.78,2.4-3.5,3.06-3.39,5.79-6.91,4.76-6.13,4.27-8.39,8.96-13.44,4.64-5,6.83-4.65,7.47-4.48,1.49,.39,2.42,1.84,2.8,2.43,1.48,2.3,.81,4.18,1.31,6.54,.52,2.48,1.81,2.98,5.6,7.28,4.25,4.81,3.18,4.79,8.03,10.46,2.94,3.44,3.73,3.91,6.54,7.47,1.23,1.56,2.67,3.39,4.3,5.98,1.4,2.23,2.32,4.07,4.11,7.66,2.41,4.84,2.24,4.92,4.11,8.59,2.14,4.21,2.6,4.56,4.29,8.03,2.01,4.11,1.74,4.38,3.31,7.68,4.03,8.48,6.92,9.07,7.71,14.54,.5,3.47-.18,6.51-.34,7.18-.15,.65-.33,1.22-2.83,7.02-1.47,3.39-2.2,5.08-2.8,6.35Z" style="fill:#f208c6;"/><path id="uuid-4334e31c-f9be-48d5-876e-ce01e8107571" d="M1306.8,3332.24c-1.57-2.99-3.95-4.69-5.22-5.6-1.24-.89-2.71-1.93-4.95-2.52-.67-.18-3.76-.92-7.42,.28-2.96,.97-4.85,2.73-6.05,3.92-2.1,2.09-1.9,3-3.85,4.48-2.12,1.61-3.56,1.69-6.32,2.8-2.89,1.16-4.7,2.51-7.7,4.76-5.02,3.76-7.53,8.39-10.45,13.15-2.29,3.74-6.43,9.33-14.61,20.59-8.23,11.31-8.33,9.98-13.6,17.92-1.59,2.4-5.06,8.29-11.93,19.97-5.73,9.74-5.95,10.22-6.32,11.19-.9,2.39-2.04,6.06-3.02,23.5-.52,9.23-.25,9.06-.74,14.67-.16,1.9-.64,7.08-2.47,18.59-1.55,9.72-1.81,9.78-3.39,19.34-1.87,11.3-2.81,17.09-3.02,23.78-.09,2.8-.01,5.53-.01,5.53,.13,5.73,.66,9.43,.84,11.54,.54,6.23-1.05,8.74-2.2,16.23-2.03,13.19,1.5,14.41,0,32.46-.5,6-1.28,10.61-1.83,13.8-1.12,6.49-1.8,10.35-3.67,15.3-.89,2.36-1.22,2.79-2.2,5.6-.73,2.1-2.22,6.42-2.84,10.95-.49,3.56,.14,4.93,.1,10.87-.09,11.59-.62,13.63,0,21.26,.53,6.52,1.09,7.09,1.1,11.75,.02,7.08-1.25,9.25-2.75,19.59-.88,6.05-1.2,10.51-1.65,16.79-.83,11.49-.3,13.1-1.1,19.59-.93,7.5-2.57,12.9-4.31,18.55-9.88,32.01-14.85,48.07-16.03,50.84-8.89,20.74-12.95,21.31-19.24,40.29-.82,2.47-4.23,12.96-6.6,27.42-1.44,8.78-4.14,26.07-1.75,47.1,.68,5.97,3.24,15.78,8.35,35.16,9.51,36.13,10.31,35.58,13.27,50.21,3.52,17.36,6.35,37.65,6.63,39.68,1.34,9.67,2.01,14.51,2.17,16.04,.89,8.43,.64,9.94,1.8,13.72,2.04,6.64,5.58,11.06,8.01,14.09,5.05,6.3,10.25,9.79,11.55,10.63,7.12,4.65,9.06,3.1,14.84,7.27,4.49,3.24,6.84,6.72,11,12.87,1.96,2.89,2.15,3.53,9.9,17.91,5.39,10.01,6.9,12.68,9.9,16.23,1.35,1.6,2.36,2.54,2.86,3.06,1.25,1.29,1.7,2.31,3.9,6.98,3.33,7.07,3.01,6.25,3.36,7.1,2.88,6.87,1.85,7.82,4.48,14.94,2.26,6.12,3.44,6.55,4.11,10.83,.75,4.84-.21,7.79,.53,8.02,1.39,.42,5.75-9.71,8.25-16.23,2.53-6.6,5.05-13.29,6.54-22.41,.59-3.59,.89-7.12,1.49-14.19,.32-3.76,.43-5.74,.37-8.22-.08-3.32-.42-6.14-.75-8.78-.14-1.13-.46-3.73-.93-6.35-1.37-7.55-2.34-12.9-5.98-17.93-2.92-4.04-6.58-7.2-6.58-7.2-.82-.71-2.23-1.93-4.03-3.82-.8-.85-1.69-1.9-2.79-3.43-6.87-9.58-8.77-19.44-10.36-27.69-1.29-6.7-2.38-12.64-1.18-20.43,.95-6.14,2.87-10.55,4.4-13.99,1.15-2.6,2.28-4.73,3.4-6.59,4.44-7.39,7.61-10.81,10.35-14.67,7.23-10.18,8.66-21.29,9.41-27.09,.38-2.98,.32-7.65,.19-16.99-.21-14.64-1.21-18.34-2.63-21.51-1.3-2.9-2.3-3.92-3.81-7.99-1.05-2.85-1.71-5.67-3.02-11.32-.93-4.01-1.49-6.91-1.71-8.11-.22-1.17-.65-3.52-1.11-6.54,0,0-.45-2.98-.76-5.49-.93-7.74-1.83-15.21,.62-23.06,.88-2.83,2-5,4.24-9.34,1.36-2.64,2.73-4.97,5.4-9.52,2.1-3.57,3.69-6.21,4.18-7.02,4.88-8.08,4.32-7.4,12.04-20.45,5.24-8.86,6.12-10.22,7.28-13.44,1.4-3.9,1.13-4.71,3-9.45,1.49-3.79,2.37-5.05,4.77-10.89,1.16-2.82,1.74-4.23,2.34-6.04,1.57-4.75,2.17-8.55,2.6-11.34,.35-2.27,.76-5.55,.93-9.62,.15-3.5,.11-7.4-1.74-24.48-.49-4.48-.89-7.93-1.34-11.75-1.34-11.47-1.44-11.55-2.02-16.76-.98-8.78-1.89-17.89-2.02-29.1-.19-17.21,2.21-16.86,2.2-36.37-.01-14.13-1.29-21.75-3.3-28.54-1.84-6.21-3.02-10.23-6.24-14.87-4.11-5.93-7.71-7.37-10.8-14.23-1.42-3.14-1.95-5.7-2.75-9.51-1.58-7.57-1.62-13.51-1.65-16.23-.09-7.78-.51-14.82-1.36-28.89-.25-4.22-.99-11.93-2.49-27.35-2.31-23.75-2.79-25.41-3.74-27.61-1.28-2.98-3.62-7.45-4.11-14.02-.09-1.19-.06-3.69,0-8.68,.08-6.74,.12-10.11,.28-10.92,.99-5.09,3.44-9.74,3.72-13.46,.14-1.81,.2-3.17,.2-3.17,.1-2.09,.06-2.79,.35-5.78,.48-4.94,.94-6.56,.97-10.62,.02-3.15-.25-3.23-.08-5.63,.12-1.75,.37-5.24,1.86-8.38,1.22-2.55,2.48-3.21,5.77-6.44,6.45-6.31,5.6-7.69,10.55-11.72,2.09-1.7,4.75-3.83,8.83-5.23,4.81-1.65,9.4-1.53,9.75-1.52,3.56,.12,4.67,.91,7.4,.24,2.07-.51,3.42-1.46,5.62-3.04,3.94-2.83,5.9-4.24,7.05-6.71,2.33-5.03,.02-10.66-.55-12.03-1.35-3.27-2.35-2.89-3.67-6.35-.48-1.26-.65-2.1-1.55-9.6-.34-2.83-.5-4.81-1.1-8.39-.59-3.5-.9-5.28-1.65-6.72Z" style="fill:#ff794a;"/><path id="uuid-e7aad525-4e18-41d5-8f9a-97df19934718" d="M494.8,2262.71c-.45,4.09-.93,8.51-4.02,10.86-5.55,4.23-17.5,.27-23.43-6.94-3.79-4.6-2.41-7.23-7.28-15.13-.46-.75-3.99-6.38-9.4-11.27-9.7-8.76-20.83-10.93-28.84-12.5-4.49-.88-15.81-2.68-29.8,0-6.78,1.3-12.98,2.48-19.92,6.96-4.33,2.8-13.54,8.75-16.61,18.99-1.21,4.04-1.04,7.34-4.12,11.26-1.68,2.14-3.23,3.06-7.84,6.16-10.62,7.15-9.23,6.87-11.59,8.05-4.83,2.42-10.59,2.57-22.11,2.88-7.25,.2-12.28-.14-17.3-.48-10.03-.69-15.1-1.08-17.91-3.17-3.23-2.41-4.88-6.83-8.04-15.57-2.33-6.43-3.2-10.12-4.84-15.8-4.63-15.97-6.05-15.41-7.84-23.53-1.92-8.65-.37-9.57-1.12-27.45-.71-16.94-2.11-16.65-2.24-28.01-.17-15.48,2.43-16.66,3.36-33.61,.69-12.53-.73-11.9-1.68-38.65-.65-18.24,.12-15.6-.56-36.97-.51-16.17-1.1-22.54-.73-35.97,.16-5.86,.35-12.15,1.24-20.48,1.69-15.79,3.64-15.91,4.81-28.84,.91-10.12,.45-14,.96-34.6,.48-19.3,.96-19.11,.96-27.39,0-21.04-3.25-24.39-4.33-43.25-.55-9.62,.13-22.23,2.88-47.58,.91-8.42,2.27-19.84,4.23-33.43,2.51-10.59,5.06-19.86,7.34-27.61,4.44-15.05,6.31-18.9,10.08-22.41,4.2-3.9,7.41-4.27,8.4-7.84,.99-3.57-1.21-6.85-8.96-16.81-9.63-12.36-14.53-18.61-18.49-21.85-8.14-6.66-15.63-9.91-17.37-10.64-12.19-5.15-14.9-1.96-33.05-6.72-13.01-3.42-20.58-5.51-26.33-12.32-2.43-2.88-3.63-5.53-7.84-9.52-5.66-5.37-11.1-7.8-13.44-8.96-11.72-5.8-19.65-16.36-34.73-36.41-8.44-11.22-8.24-12.68-14.57-21.29-7.66-10.42-20.02-24.72-39.77-39.21-5.79-12.88-11.58-25.77-17.37-38.65-3.19-12.68-6.2-25.94-8.96-39.77-1.81-9.07-3.42-17.96-4.86-26.63-.53-22.03-1.05-44.05-1.58-66.08,.67-13.04,4.15-21.22,7.28-26.33,1.61-2.63,4.43-6.56,6.83-13.06,2.18-5.9,2.83-10.72,2.97-11.87,1.14-9.08-1.28-10.99-1.4-22.69-.09-8.29-.07-12.79,3.08-17.09,.69-.94,4.46-6.09,10.28-6.79,3.51-.42,4.91,1.15,7.64,.07,3.38-1.33,2.48-5.47,6.16-7.84,1.45-.94,2.29-.81,5.88-1.4,7.2-1.19,7.76-2.36,13.13-3.23,1.9-.31,6.56-1.03,12.28-.2,1.83,.26,7.95,1.29,14.64,5.4,6.16,3.78,5.49,5.96,14.01,12.32,6.23,4.65,7.09,4.22,11.2,7.84,7.07,6.22,10.63,12.87,11.76,15.13,2.72,5.42,1.91,6.46,5,15.63,2.89,8.59,3.81,8.3,7.93,18.74,6.24,15.84,4.82,18.26,9.37,23.07,3.61,3.82,4.24,2.01,15.23,9.22,3.22,2.11,9.35,6.17,16.25,12.32,7.3,6.51,7.13,7.94,12.32,11.2,4.57,2.87,9.18,4.58,13.44,6.16,6.65,2.46,7.09,1.86,11.76,3.92,8.07,3.56,9.15,6.41,11.76,5.6,3.28-1.01,2.79-5.88,7.84-16.25,.99-2.03,2.25-4.16,4.76-8.4,7.36-12.44,9.32-13.45,11.76-18.77,1.11-2.41,4.68-10.41,3.64-19.89-.7-6.34-4.93-12.99-13.36-26.02-6.57-10.16-7.02-9.71-11.01-16.56-5.16-8.83-8.26-16.16-10.64-21.85-3.91-9.33-5.87-14-7.28-20.45-.9-4.11-1.74-9.62-1.4-24.65,.4-17.46,1.69-16.91,2.24-34.17,.28-8.76,.3-19.93-.84-33.05-.49-5.67-.74-8.5-1.21-10.64-2.07-9.27-6.2-14.84-17.7-29.88-10.39-13.6-15.59-20.4-17.78-23.07-10.03-12.21-11.89-13.26-16.81-20.73-4.75-7.22-7.27-12.69-11.48-21.85-6.26-13.62-6.32-17.14-6.16-19.33,.35-4.69,1.93-6.02,2.24-13.16,.31-7.08-1.03-10.49-1.96-12.32-.87-1.71-2.43-4.79-5.6-6.16-3.28-1.42-6.41-.2-9.24,.56-8.38,2.23-8.41-1.15-26.05-.84-8.58,.15-11.34,1-15.69-1.12-1.96-.95-3.83-2.6-7.56-5.88-4.79-4.21-7.45-6.59-9.24-10.36-1.77-3.71-1.04-5.27-1.96-8.68-1.98-7.3-7.72-9.04-18.21-17.93-7.38-6.26-4.83-5.64-16.53-16.53-3.65-3.4-7.9-7.07-16.25-14.29-5.68-4.91-10.42-8.96-13.73-11.78-.09-16.52-.18-33.04-.28-49.57,2.38,2.86,5.52,6.83,8.96,11.76,5.18,7.44,6.21,10.14,10.08,13.16,4.17,3.25,5.99,2.47,13.44,5.6,7.53,3.16,7.08,4.55,19.05,11.48,11.48,6.66,11.5,5.15,19.33,10.36,5.99,3.99,7.46,5.86,14.85,10.36,3.79,2.31,6.91,4.2,11.48,6.16,7.09,3.05,12.97,4.27,16.81,5.04,3.73,.75,6.22,1.01,8.12,1.12,1.02,.06,3.48,.18,6.44,0,6.01-.37,9.81-1.7,12.32-2.24,9.9-2.11,19.64,3.95,24.09,6.72,8.05,5.01,12.33,11.27,13.73,13.44,3.38,5.29,4.86,10.26,5.65,12.98,2.2,7.58,.68,8.39,2.88,14.42,.92,2.53,3.09,6.09,7.43,13.22,2.73,4.48,4.09,6.72,5.88,9.24,2.03,2.86,5.01,7.06,9.24,11.2,5.12,5.01,6.02,4.02,12.88,9.8,3.75,3.16,7.97,6.76,12.04,12.6,.65,.93,3.52,5.11,6.16,11.2,2.03,4.68,1.61,5.15,3.08,8.4,2.15,4.74,7.8,14.24,12.88,13.44,2.99-.47,4.7-4.32,7-9.52,1.04-2.34,2.87-6.61,2.8-12.32-.03-2.49-.67-5.02-1.96-10.08-1.42-5.61-2.14-8.41-3.72-10.79-1.7-2.57-2.53-2.47-6.37-6.85,0,0-2.9-3.31-5.04-6.44-4.44-6.48-1.53-14.17-1.54-25.9,0-14.22-4.27-13.26-3.84-26.91,.24-7.71,1.69-13.5,3.84-22.11,1.51-6.01,2.88-11.82,5.77-19.22,4.91-12.58,9.1-17.05,10.34-28.26,.22-1.99,.47-4.24,.28-7.28-.58-9.44-4.63-15.28-18.49-36.13-6.78-10.21-7.5-11.35-8.47-13.87-3.78-9.78-3.25-19.16-2.17-25.63,43.6-.28,87.21-.56,130.81-.84,.93-90.38,1.87-180.76,2.8-271.14,1.45-4.12,4.06-9.36,8.9-10.93,3.13-1.01,4.58,.36,7.91-.56,5.29-1.45,5.73-6.03,11.32-11.94,2.76-2.92,1.99-1.11,17.26-11.31,4.59-3.07,7.46-5.1,12.48-7.94,3.89-2.2,5.9-3.32,8.81-4.39,4.57-1.68,6.41-1.43,14.29-2.8,5.27-.91,9.01-1.82,15.42-3.36,7.14-1.72,10.72-2.59,13.72-3.64,8.61-3.03,9.56-5.26,23.25-12.04,5.02-2.49,8.28-4.1,13.16-5.88,9.75-3.55,8.87-1.51,17.37-4.76,4.13-1.58,7.79-3.38,10.08-1.68,.06,.04,1.39,1.06,1.4,2.52,.02,2.94-5.36,5.17-7,5.88-5.7,2.46-13.7,7.9-29.69,18.77-5,3.4-11.27,8.62-23.81,19.05-2.69,2.24-6.14,5.14-10.36,9.24-2.73,2.65-5.85,5.7-9.52,10.08-5.76,6.88-9.45,12.97-11.09,15.81-2.27,3.94-1.78,3.67-5.77,11.05-3.12,5.78-4.08,7.18-6.96,12.35-3.79,6.82-6.22,11.19-8.68,16.81-3.03,6.91-5.28,12.02-6.44,19.33-.72,4.49-1.81,11.36,.33,19.45,.53,2,2.49,6.09,6.39,14.17,4.98,10.32,6,11.07,7.19,14.98,1.68,5.53,1.63,9.86,1.49,16.11-.24,11.27-2.41,13.52-3.64,27.45-.17,1.96-.67,8.05-.56,15.97,.03,2.16,.21,12.04,2.24,24.93,1.78,11.35,3.64,19.05,3.64,19.05,.99,4.12,1.58,5.97,1.96,9.52,.64,6-.28,7.83,0,13.72,.21,4.41,.8,4.91,2.24,13.16,1.38,7.92,2.08,11.88,2.24,16.81,.33,9.98-1.63,18.29-2.24,20.73-1.34,5.32-2.64,7.92-3.64,14.57-.25,1.66-.81,5.42-.79,9.22,.05,7.94,2.63,13,5.27,19.91,5.28,13.84,2.32,12.98,7.56,26.89,1.67,4.44,1.35,2.86,9.24,21.57,2.7,6.39,4.52,10.81,5.04,17.09,.24,2.91,.15,5.61,0,10.36-.12,3.78-.3,5.34-.84,12.88-.83,11.64-.62,11.02-.87,12.06-1.8,7.6-5.18,7.99-7.25,15.11-1.54,5.28-1,9.59-.28,15.41,.77,6.19,2.11,9.3,5.04,18.49,1.27,3.97,3.75,11.95,5.88,20.17,3.38,13.01,4.41,20.87,4.76,27.17,0,0,.26,4.58-.38,11.27-.61,6.43-.96,9.68-2.98,11.42-3.18,2.74-6.8,.22-10.08,3.36-2.37,2.27-1.24,4.31-3.61,6.09-3.19,2.4-6.5-.38-9,1.76-2.52,2.15-1.72,7.13-1.1,10.98,.3,1.89,.85,4.15,2.22,7.51,3.44,8.47,6.03,9.04,7.95,15.02,.93,2.9,2.36,7.35,.74,12.15-1.96,5.79-7.3,8.9-10.46,10.74-4.11,2.39-4.6,1.41-10.46,4.48-3.29,1.72-6.64,3.51-9.71,6.72-2.36,2.47-3.48,4.66-5.6,8.96-8.21,16.63-8.03,17.36-10.77,21.68-4.3,6.78-5.45,6.09-8.28,11.56-1.02,1.98-3.86,7.84-4.86,17.18-1.03,9.64,.84,14.13,5.94,38.75,2.32,11.21,3.49,16.91,3.99,21.67,1.33,12.64,.43,23.2-.6,30.33-.39,10.22-1.02,32.42,.37,54.53,.11,1.68,.77,11.85,2.61,25.02,1.49,10.63,2.59,14.86,3.36,17.55,1.59,5.51,1.92,4.79,5.98,16.06,3.7,10.27,3.84,12.03,5.98,13.07,1.53,.75,4.37,1.26,17-5.8,5.81-3.25,9.63-5.83,13.59-8.45,20.28-13.42,27.79-17.03,30.44-18.26,1.24-.58,3.31-1.52,11.59-4.75,17.22-6.72,29.58-10.96,36.81-13.53,26.12-9.28,45.99-18.24,53.41-21.66,12.34-5.69,20.09-9.8,27.64-13.82,17.93-9.55,26.98-14.43,31.37-19.79,4.18-5.1,6.67-10.28,10.83-10.08,3.33,.16,4.93,3.63,9.71,9.71,1.96,2.49,6.77,7.23,16.39,16.71,7.94,7.82,11.9,11.73,17.3,15.86,2.33,1.79,10.68,8.03,23.07,13.7,13.28,6.08,15.66,4.38,31.38,10.13,8,2.93,15.92,6.93,31.75,14.94,23.93,12.11,24.67,13.98,32.12,14.94,12.12,1.56,14.57-2.82,28.01,0,8.11,1.7,15.1,4.96,21.29,7.84,11.22,5.23,11.22,6.98,17.93,8.96,6.14,1.82,12.02,1.61,23.53,1.12,17.06-.73,17.36-3.58,26.89-2.24,5.25,.74,8.76,2.05,15.31,1.49,4.49-.38,5.74-1.24,10.83-1.49,2.01-.1,7.51-.24,13.07,1.12,6.47,1.59,10.47,4.59,16.06,8.59,16.52,11.81,8.65,4.93,23.53,16.06,18.86,14.11,16.6,14.02,24.28,19.05,12,7.86,14.37,5.94,41.46,17.93,17.02,7.53,16.78,8.49,31.37,14.57,13.12,5.47,22.57,9.41,34.73,12.32,18.18,4.36,18.36,.67,43.7,4.48,18.69,2.81,11.6,3.77,45.94,11.2,13.36,2.89,21.84,4.35,22.97,9.24,.24,1.06,.66,4.56-9.1,13.08-8.76,7.64-17.03,11.75-34.04,19.14-11.16,4.84-15.49,6.5-31.37,13.44-4.56,1.99-9.9,4.35-16.81,7.84-8.58,4.34-8.76,4.97-14.57,7.84-9.16,4.53-16.64,6.9-26.89,10.08-11.02,3.43-9.42,2.26-20.17,5.6-15.91,4.94-17.75,6.98-28.01,8.96-9.56,1.84-9.33,.33-17.93,2.24-12.07,2.68-13.67,5.9-24.65,8.96-2.45,.68-5.35,1.35-26.89,2.8-17.53,1.18-20.31,1.05-28.57,1.68-24.98,1.91-23.96,4.96-36.97,5.04-17.25,.11-13.87-5.27-50.98-12.88-13.94-2.86-23.22-3.91-33.61-11.2-3.92-2.76-5.71-4.79-11.2-7.84-3.97-2.21-12.87-7.03-24.65-7.84-8.43-.58-7.82,1.62-19.05,1.12-6.7-.3-9.46-1.2-15.69-.56-5.41,.55-6.9,1.6-12.32,2.8-.75,.17-11.68,2.5-24.09,1.12-2.46-.27-8.92-2.05-21.85-5.6-3.49-.96-12.49-3.46-21.29-2.8-2.1,.16-5.39,.58-8.4,2.8-1.7,1.25-2.44,2.44-3.92,4.48-3.14,4.33-6.1,8.43-9.52,11.2-1.15,.93-4.33,2.32-10.64,5.04-7.28,3.14-10.95,4.72-12.88,5.04-7.98,1.33-15.13-1.12-15.13-1.12-4.23-1.45-6.56-3.4-10.64-2.8-1.14,.17-3.43,.5-5.04,2.24-2.32,2.5-1.11,5.57-1.68,10.64-.45,4-1.79,6.78-4.48,12.32-3.13,6.46-4.7,9.69-7.84,12.32-6.94,5.81-12.87,2.13-17.93,7.84-2.7,3.05-.91,3.98-4.48,11.76-1.48,3.23-2.04,3.62-9.52,15.13-5.55,8.54-5.42,8.6-6.72,10.08-3.12,3.55-7.39,8.42-14.01,10.08-5.71,1.44-7.42-.95-11.2,1.12-3.63,1.99-3.56,5.02-7.28,11.76-2.08,3.78-5.74,10.39-12.32,15.13-2.92,2.1-8.36,6-15.13,5.6-9.25-.55-11.34-8.57-17.93-7.28-4.86,.95-4.99,5.56-13.42,8.8-3.05,1.17-5.73,1.6-7.31,1.84-1.82,.28-7.02,1.05-12.32,0-6.6-1.31-7.3-4.23-13.44-6.72-4.95-2.01-15.55-4.6-20.73,0-3.85,3.42-1.68,8.12-2.8,26.33-.59,9.54-1.18,8.24-1.96,19.17-.6,8.54-1.33,18.73-.28,29.01,1.21,11.87,4.06,16.9,7.28,28.01,6.14,21.19,6.15,38.77,6.16,55.46,.02,25.74-4.22,22.43-3.8,45.51,.36,20.01,3.53,21.91,6.12,54.36,1.62,20.39,.38,19.7,2.17,35.7,2.72,24.32,5.55,25.43,6.16,42.58,.69,19.29-2.25,36.12-2.8,39.21-1.69,9.45-3.26,13.79-5.04,26.33-.84,5.93-1.95,13.69-2.24,23.53-.51,17.09-.92,30.63,3.36,44.26,.57,1.83,2.5,7.68,1.68,15.13Z" style="fill:#eaea2a;"/><path id="uuid-237c4b3e-5655-4a4f-998f-9f0ce89e6178" d="M367.45,3659.3c-1.91-4.04-2.43-8.47-2.61-10.08-.44-3.78-.2-6.65,0-8.96,1.59-18.11,2.62-22.55,.75-23.53-1.73-.91-4.81,1.76-7.1,3.73-4.89,4.24-5.18,7.27-8.59,11.58-2.81,3.54-3.15,2.17-15.7,11.16-4.64,3.33-4.49,3.44-11.92,8.83-5.48,3.98-8.22,5.97-9.91,7.07-2.8,1.83-4.76,2.72-14.01,6.55-19.32,8-20.05,7.94-22.03,10.08-5.61,6.05-9.15,12.22-9.15,12.22-.84,1.47-1.82,3.32-3.92,4.96-3.09,2.41-6.33,2.58-8.59,2.99-5,.89-7.36,3.31-14.47,8.5-6.92,5.06-14.45,9.23-21.57,14.01-14.88,9.99-17.33,8.83-43.51,23.44-19.72,11-29.59,16.5-35.48,22.03-2.61,2.45-8.96,7.61-21.66,17.93-6.74,5.47-11.06,8.89-14.57,7.47-3.4-1.37-4.35-6.6-5.23-11.76-1.35-7.96-.05-12.53,0-19.05,.05-6.95-1.09-14.16-3.36-28.57-1.97-12.46-2.95-18.7-3.92-21.29-4.77-12.72-11.46-16.66-11.73-28.19-.1-4.35,.84-4.01,1.08-9.34,.55-12.13-4.16-17.94-7.28-28.57-3.32-11.29,.76-8.89-1.68-38.65-.97-11.87-1.96-16.3-.07-23.77,1.76-6.97,3.93-8.35,9.6-18.8,6.68-12.32,4.81-12.52,16.25-37.53,3.68-8.06,6.33-13.41,10.08-19.61,3.29-5.44,6.44-9.89,8.32-12.55,8.44-11.9,9.03-10.55,11.29-14.9,5.84-11.23-.42-15.76,5.04-28.57,3.05-7.16,5.32-6.5,10.08-16.25,3.42-7,4.75-12.46,6.16-17.93,6.87-26.53,8.1-23.52,13.44-45.94,2.28-9.56,5.28-18.95,7.28-28.57,.94-4.53,1.8-9.12,5.04-14.29,3.76-5.99,7.36-7.4,11.48-11.76,5.56-5.89,5.45-10.16,10.08-22.41,2.32-6.13,8.06-21,19.06-35.45,8.32-10.93,14.88-15.34,16.89-16.64,6.81-4.39,10.7-4.78,17.16-7.58,4.81-2.08,6.89-3.69,29.1-23.11,18.01-15.75,25.22-22.2,35.21-23.99,1.36-.24,3.52-.54,6.38-1.63,8.09-3.1,11.33-8.6,17.12-14.83,5.75-6.18,11.96-12.85,21.57-16.42,7.63-2.83,10.82-1.26,20.12-5.72,3.49-1.67,5.49-3.07,9.8-4.48,6.16-2.02,10.79-2.02,13.73-2.24,6.51-.48,9.29-2.35,32.21-13.73,12.17-6.04,18.25-9.06,19-9.3,9.29-3.07,13.15-2.26,39.45-5.54,7.81-.97,11.79-1.48,15.31-2.24,9.4-2.04,17.92-3.88,26.85-9.81,11.98-7.95,17.57-18.53,19.67-22.62,3.58-6.97,7.64-14.89,6.25-24.55-.57-3.92-3.76-9.38-10.11-20.14-6.63-11.21-8.28-12.79-12.85-21.29-4.08-7.59-6.12-11.39-7.77-17.01-2.25-7.64-2.27-13.51-2.24-22.41,.04-12.4,.08-22.38,4.48-34.36,2.93-7.98,6.58-13.52,10.46-19.42,6.68-10.16,13.03-16.58,14.75-18.3,5.87-5.83,11-9.57,12.51-10.64,16.83-12.01,33.87-15.21,37.72-15.87,16.46-2.84,29.25-.28,38.09,1.49,13.3,2.67,22.95,6.93,29.13,9.71,7.97,3.58,16.95,7.62,26.89,15.69,8.02,6.51,12.88,12.57,20.17,21.66,7.21,8.99,10.82,13.49,13.44,19.42,4.89,11.04,1.23,12.12,6.72,26.89,3.14,8.45,5.99,12.56,4.48,18.67-.51,2.04-1.79,4.67-4.37,9.92-3.26,6.66-4.3,7.53-4.97,10.43-1.09,4.72,.21,8.7,1.6,12.81,4.3,12.66,10.8,13.59,11.84,23.33,.19,1.74,.84,7.85-2.75,11.02-1.68,1.48-4.05,2.11-4.25,2.16-2.71,.69-3.9-.16-7.29,.55-2.02,.43-3.2,.68-3.92,1.68-.78,1.09-.34,2.11,.7,7.28,1.08,5.36,.93,5.89,1.82,7.14,1.23,1.72,2.42,2,2.66,3.5,.18,1.12-.33,2.02-1.68,4.06-3.69,5.57-5.21,6.82-4.76,8.4,.32,1.15,1.23,.87,2.24,2.66,.88,1.56,1.52,4.1,.42,5.46-.76,.95-1.59,.37-3.64,1.26-2.02,.88-1.68,1.65-4.76,3.92-1.93,1.43-2.82,1.68-3.64,3.08-.32,.55-.9,1.54-.68,2.64,.27,1.32,1.44,1.58,2.5,2.82,1.14,1.33,1.27,2.8,1.54,5.6,.24,2.49,.44,4.65-.56,7.14-1.16,2.88-3.25,4.49-4.48,5.42-1.55,1.16-3.73,1.93-8.03,3.41-3.53,1.22-5.3,1.82-7.8,2.38-.22,.05-4.26,.94-8.05,1.12-5.17,.25-7.37-.92-16.22-2.95-8.62-1.98-6.77-.91-17.6-3.21,0,0-3.69-.78-11.48-1.4-3.92-.31-4.77-.2-5.67,.31-2.93,1.67-1.81,5.03-5.25,10.33-2.31,3.57-3.32,2.82-4.48,5.6-1.28,3.07-.27,4.49-1.12,10.36-.44,3.08-.67,4.62-1.4,6.16-1.52,3.2-4.02,4.88-8.96,8.12-5.01,3.29-5.39,2.64-8.12,5.04-1.49,1.31-1.03,1.19-6.16,6.72-2.68,2.88-3.07,3.21-3.36,4.2-.88,3.05,1.06,6.27,2.52,8.68,1.89,3.12,3.27,3.7,3.98,6.55,.49,1.95-.03,2.18,.5,3.81,.93,2.85,2.98,3.55,5.04,5.88,.98,1.11,1.46,2.02,3.78,8.54,3.56,9.99,2.82,8.93,3.63,10.56,.69,1.38,5.01,10.06,13.68,14.12,2.28,1.07,3.99,1.41,5.52,3.34,2.13,2.68,1.05,4.8,2.94,8.12,.36,.63,.76,1.19,6.58,5.74,4.19,3.28,6.34,4.95,8.82,6.58,3.94,2.59,3.73,1.99,6.3,3.78,4.06,2.83,8.56,5.96,9.8,10.92,.71,2.81-.33,3.41,.56,7.56,.7,3.27,1.89,5.46,2.52,6.72,2.67,5.35,3.44,10.43,4.76,19.05,1.17,7.62,.17,7.38,1.12,15.69,.74,6.52,1.99,11.45,4.48,21.29,2.98,11.75,5.76,20.31,6.44,22.41,3.23,9.87,5.04,15.31,8.68,22.41,.69,1.34,2.7,4.72,6.72,11.48,5.73,9.63,7.31,12.06,12.6,21.01,5.08,8.59,6.64,11.44,7.56,13.16,1.88,3.51,1.9,3.73,5.88,11.48,5.2,10.12,5.5,10.38,7,13.73,1.74,3.89,2.14,5.34,5.04,13.16,.74,1.98,3.48,9.37,6.44,16.81,6.54,16.41,9.15,20.46,11.89,23.81,3.08,3.76,5.85,6.03,6.64,6.66,4.42,3.54,7.39,4.46,11.25,6.69,5.5,3.18,8.78,6.69,13.11,11.34,3.77,4.04,8.81,10.3,13.15,19.01-1.44,.98-3.65,2.31-6.54,3.39-7.23,2.7-12.58,1.52-23.46,.63-8.03-.66-14.36-1.18-22.41-.75-10.35,.55-11.05,2-18.91,1.68-9.73-.39-8.85-2.62-18.43-2.8-13.95-.26-19.05,0-19.05,0-2.19,.11-4.63,.28-7.1-1.12-3.74-2.13-5.08-6.5-5.6-8.96-1.95-8.57-5.19-14.46-7.84-18.3-1.03-1.5-5.06-5.87-13.07-14.57-7.52-8.16-8.78-9.52-10.83-12.32-3.71-5.06-6.09-9.46-7.84-12.7-3.15-5.83-5.14-10.55-6.35-13.44-2.3-5.5-2.1-5.85-4.11-10.83-3.52-8.74-5.07-10.01-8.8-18.5-1.43-3.24-2.92-7.4-5.9-15.73-3.65-10.19-5.47-15.29-6.96-20.3-1.84-6.21-3.22-12.61-5.98-25.4-2.27-10.56-2.93-14.73-3.29-19.7-.36-5.1,0-5.32-.49-8.36-.26-1.58-2.71-16.63-10.79-18.63-3.01-.75-5.99,.87-11.95,4.11-5.74,3.12-9.26,6.01-13.07,8.96-11.74,9.1-11.09,7.02-18.3,13.07-11.39,9.55-10.92,12.97-17.67,14.97-3.93,1.16-6.78,.79-13.23,3.24-2.92,1.11-5.74,2.48-8.59,4.48-1.71,1.21-3.5,2.47-5.32,4.67-.26,.31-.28,.36-3.64,5.32-1.52,2.25-2.3,3.39-3.18,4.37-.87,.97-.82,.76-3.26,3.1-2.67,2.57-2.84,2.92-3.77,3.33-2.06,.91-2.96-.08-4.31,.6-2.06,1.04-1.53,4.13-2.57,9.88-.52,2.86-1.34,7.2-3.92,11.76-1.47,2.6-2.47,4.36-4.48,6.16-1.66,1.48-2.96,2.04-4.11,3.92-1.11,1.82-1.31,3.59-1.4,4.58-1.08,11.62-.37,18.49-.37,18.49,1.57,15.26-3.25,19.48-2.05,34.83,.06,.76,.37,4.67,.56,9.94,.2,5.79,.3,8.69,0,10.36-1.22,6.7-4.45,7.29-5.04,13.59-.33,3.54,.7,3.28,.42,7.98-.21,3.54-.88,5.15-2.1,10.78-.79,3.65-1.4,7.09-1.68,8.96-1.4,9.48,.07,17.64,1.8,27.27,.76,4.22,1.14,6.33,1.78,8.53,2.8,9.63,8.07,15.64,17.8,26.2,16.47,17.87,24.71,26.8,29.5,30.25,9.72,6.99,12.98,6.94,20.17,14.19,5.31,5.35,7.6,9.48,14.56,13.45,5.08,2.9,6.65,2.29,11.95,5.23,5.15,2.85,8.99,6.37,14.19,12.32,9.6,10.99,11.71,16.4,17.55,23.9,5.8,7.45,12.7,12.56,26.52,22.78,8.34,6.17,16.97,11.63,34.24,22.54,5.49,3.47,14.2,8.99,22.57,14.59,17.97,12.04,15.76,11.62,20,13.48,4.26,1.87,6.43,3.17,6.58,4.42,.31,2.68-9.06,5.79-10.37,6.22-7.55,2.46-10.34,1.43-16.25,3.36-6.29,2.06-6.93,4.47-12.32,7.28-12.53,6.54-27.09,2.89-36.41,.56-8.63-2.16-6.33-3.07-18.87-7.08-14.71-4.71-15.86-2.81-33.03-7.96-9.39-2.81-20.49-6.81-22.05-7.37-3.32-1.2-5.81-2.1-7.62-2.82-14.33-5.75-18.25-13.55-30.29-21.56-14.05-9.34-15.69-3.36-30.1-13.4-2.03-1.42-8.19-6.46-20.5-16.56-9.59-7.86-9.6-7.98-11.76-9.52-10.69-7.61-13.58-6.8-22.97-13.44-6.53-4.62-10.89-9.09-15.69-14.01-6.12-6.27-6.6-7.84-15.13-16.81-2.11-2.22-5.93-6.23-11.2-11.2-7.31-6.91-13.44-12.14-13.44-12.14-7.88-6.72-10.03-7.88-11.95-11.95Zm90.38,315.96c-.43,4.53-.95,9.87,1.49,15.31,1.77,3.94,3.07,3.46,7.1,8.96,4.12,5.64,4.25,8.2,8.33,15.78,4.51,8.37,5.74,7.85,8.85,13.72,2.84,5.38,2.5,7.14,6.79,27.61,3.38,16.12,4.66,20.14,5.91,23.55,2.85,7.79,3.64,7.18,5.74,13.57,2.88,8.75,1.7,10.78,4.34,25.27,.77,4.19,.42,1.59,4.48,20.17,3.72,17.02,3.6,15.21,3.67,15.71,.74,5.42,.63,8.51,3.05,11.93,.3,.43,.43,.55,4.66,5.78q3.03,3.75,3.18,3.93c.93,1.27,2.55,3.87,3.73,11.58,1.17,7.63,1.76,11.45,.75,15.69-1.59,6.65-4.8,7.41-5.58,14.3-.29,2.54,.19,2.12,.35,8.48,.13,4.8-.09,7.11-.37,14.57-.24,6.36-.12,5.5-.37,13.07-.51,15.18-.79,22.84-1.87,26.52-2.1,7.13-4.17,8-4.48,13.82-.19,3.52,.35,7.43,1.14,13.21,.34,2.49,.46,2.82,.72,3.22,2.16,3.26,7.93,1.62,20.17,1.49,.01,0-.68,0,13.44,.37,9.71,.25,14.57,.38,15.31,.37,10.98-.06,12.71-1.23,22.78-1.49,6.68-.17,8.62,.27,18.3,.75,9.12,.45,8.79,.12,30.25,.37,16.33,.19,28.06,.52,39.59,.37,12-.15,9.66-.64,13.44-.37,4.85,.34,7.81,1.08,8.99-.48,1.46-1.94-.89-5.97-1.82-7.63-3.3-5.94-5.18-15.82-9.74-35.41-2.6-11.2-3.9-16.8-3.03-24.45,.44-3.85,1.38-7.92,2.24-16.81,.52-5.43,.79-8.15,.75-10.83-.08-5.83-1.1-10.09-4.86-23.16-3-10.44-4.51-15.65-4.86-16.43-5.38-12.02-10.82-12.77-15.69-23.9-.4-.91-1.63-6.33-4.11-17.18-4.32-18.93-5.46-25.68-6.23-31.04-.99-6.88-.55-5.77-1.31-10.24-2.45-14.38-3.71-21.79-9.26-27.44-4.45-4.52-7.84-4.04-12.7-10.46-2.09-2.76-3.25-5.22-4.48-7.84-.96-2.05-4.13-8.95-5.27-16.95-1.37-9.56,.68-17.1,3.4-26.75,4.1-14.53,7.58-16.17,7.47-24.28-.08-6.09-2.08-8.08-7.72-20.47-9.7-21.29-8.16-24.96-17.9-45.03-2.71-5.59-4.56-9.26-6.21-12.43-1.6-3.07-1.74-3.53-2.32-4.36-3.14-4.5-6.82-5.7-9.54-7.73-3.35-2.49-3.84-5.18-7.47-15.31-3.2-8.91-5.92-16.52-9.71-24.65-5.4-11.59-7.9-13.39-7.84-19.42,.03-2.93,.65-6.03-1.03-9.87-1.33-3.05-2.79-3.55-6.02-7.27-6.47-7.46-5.16-10.72-9.01-12.36-1.25-.54-1.76-.35-13.56,2.07-9.61,1.97-10.65,2.12-12.59,2.04-4.93-.21-6.04-1.49-8.94-.43-3.63,1.32-7.35,5.13-7.35,5.13,0,0,.77,2.98,1.26,4.92,1.05,4.14,1.57,6.22,1.68,7.28,.25,2.38,.45,4.26-.28,6.44-.93,2.79-2.37,3.06-3.92,6.16-.98,1.95-1.25,3.52-1.68,6.16-.54,3.31-.51,5.65-.28,12.6,.3,9.19,.36,8.92,.28,10.08-.2,2.75-.79,5.66-1.96,11.48-.88,4.37-.83,3.63-1.68,7.84-1.42,7.03-1.28,7.71-2.24,10.08-1.14,2.83-1.62,2.61-3.36,6.72-.74,1.75-1.58,3.74-2.24,6.44-.81,3.3-.34,3.47-1.12,6.16-.46,1.59-1.24,3.21-2.8,6.44-1.22,2.53-1.83,3.8-2.8,5.32-.65,1.02-1.76,2.65-3.36,4.48-2.09,2.38-2.75,2.52-4.2,4.2-1.05,1.21-1.3,1.84-3.64,6.44-2.83,5.55-2.22,4.17-4.76,9.24-2.11,4.2-2.03,4.16-3.08,6.16-2.51,4.78-3.17,5.41-4.2,7.56-2.12,4.43-2.5,8.36-2.8,11.48Zm-420.72,241.08c-.61,.34-.99,1.12-1.12,7.84-.12,6.59,.22,6.98,0,10.46-.33,5.09-1.16,5.67-1.36,10.62-.13,3.19,.13,5.25,.38,8.01,.9,9.82,.16,9.16,.79,17.41,.62,7.99,1.21,9.47,.56,13.63-.64,4.12-1.38,3.69-1.77,7.47-.5,4.8,.65,5.9,.9,13.82,.13,4.23-.17,4.7,.5,5.6,2,2.68,6.9,1.57,15.5,.93,4.72-.35,9.49,.17,14.19-.37,5.55-.64,21.2-.44,52.29,0,26.65,.37,39.98,.56,42.58,.75,21.11,1.52,42.33-.71,63.49-.37,1.81,.03,6.6,.12,9.34-2.99,.62-.7,1.88-2.42,2.05-10.28,.11-4.97-.35-6.55-.85-14.39-.47-7.3-.15-7.1-.64-11.63-.55-5.06-1.05-6.23-1.2-10.03-.17-4.22,.32-5.93,.64-10.07,.54-7.02,1.11-14.5-2.01-21.08-1.43-3.01-3.55-5.04-7.78-9.09-9-8.62-18.02-13.71-22.33-15.95-9.57-4.99-10.56-3.6-17.93-8.4-5.05-3.29-6.41-5.14-10.08-5.6-4.55-.58-6.74,1.7-15.31,5.23-5.63,2.31-9.95,3.49-14.94,4.86-10.83,2.96-11.86,1.82-19.61,4.48-6.95,2.39-12.36,5.46-14.57,6.72-6.06,3.47-7.06,4.98-12.88,7.84-2.66,1.31-6.52,3.18-11.76,4.48-8.37,2.08-15.18,1.45-18.49,1.12-5.87-.59-12.03-1.21-18.49-5.04-5.42-3.21-8.21-7.01-10.08-5.98Zm30.53-74.41c2.47,1.61,8.7-7.52,24.37-17.93,1.79-1.19,9.04-5.94,19.33-10.64,9.18-4.19,14.13-6.46,21.57-7.84,5.43-1.01,8.08-.79,13.44-2.8,5.14-1.93,9.05-4.52,11.48-6.16,2.92-1.96,5.25-3.95,9.8-7.84,6.44-5.52,6.56-6.1,10.46-9.24,4.53-3.66,5.74-3.97,12.32-8.59,3.48-2.44,9.1-6.38,14.19-10.83,6.45-5.64,10.43-10.66,14.94-16.43,2.85-3.65,7.45-9.79,16.43-24.65,12.63-20.87,10.49-20.19,15.69-26.89,11.98-15.45,18.41-12.71,25.4-23.9,3.6-5.77,4.16-18.46,5.14-43.6,1.02-26.33-.19-36.88,6.16-47.62,1.03-1.75,5.41-8.8,4.2-9.8-.55-.45-1.95,.56-4.48,1.96-2.76,1.52-5.29,2.51-10.36,4.48-8.43,3.28-9.43,1.85-13.44,4.48-2.62,1.72-2.45,2.49-6.72,7-6.69,7.07-7.94,6.04-13.16,11.76-5.78,6.34-4.65,8.03-9.83,12.14-4.45,3.54-9.78,6.06-9.78,6.06-3.54,1.68-4.28,1.52-6.72,3.08-3.34,2.14-3.86,3.66-7.54,6.86-1.63,1.42-2.02,1.55-7.3,5.18-6.71,4.61-10.06,6.92-11.76,8.4-5.1,4.42-4.16,5.33-9.52,10.08-4.1,3.63-6.85,6.07-11.2,7.28-5.51,1.54-10.28,.2-12.88-.56-7.02-2.05-11.68-6.36-16.53-10.92-6.89-6.49-9.59-11.44-11.48-10.64-1.21,.51-.77,2.82-1.4,9.24-.5,5.17-.91,4.96-1.96,12.32-1.62,11.37-.57,11.32-1.68,15.13-1.75,6.04-5.1,8.63-10.64,14.85-7.98,8.95-13.44,17.48-15.97,21.85-3.04,5.25-9.65,16.69-11.23,32.08-.82,8.01,.28,11.65-1.97,20.65-1.36,5.43-2.16,5.72-5.85,15.62-4.53,12.16-6.8,18.23-7.84,26.33-1.21,9.34,.71,9.44-.56,20.17-1.53,12.91-5.01,18.63-3.08,19.89Zm1332.87-829.25c-3.06-1.59-9.42-3.48-22.13-7.28-1.67-.5-3.83-1.11-6.16-.28-2.56,.92-4.68,3.35-5.35,5.98-.41,1.64-.19,3.39,.25,6.91,.31,2.47,.67,3.73-.11,4.86-.74,1.07-2.1,1.42-3.08,1.54-.86-.23-1.89-.43-3.06-.51-2.05-.15-3.79,.09-5.07,.37-.79,.45-1.92,.97-3.34,1.31-1.81,.43-3.36,.37-4.39,.25-.47-.08-1.18-.14-1.94,.13-1.96,.7-1.86,2.8-3.55,3.61-1.14,.55-1.87-.08-4.92-.61,0,0-1.69-.29-5.21-.42-6.99-.26-14.81,2.69-17.41,4.57-.2,.15-1.21,.89-2.72,1.3-.76,.2-1.65,.42-2.58,.15-1.35-.38-2.1-1.89-2.52-3.08-.79-1.05-1.59-2.13-2.38-3.22-.67-.93-1.34-1.85-1.98-2.77-.83-.54-2.09-1.45-3.34-2.83-1.25-1.38-1.49-2.12-2.8-3.92-1.72-2.36-2.29-2.43-3.92-4.48-1.73-2.18-1.45-2.55-3.45-5.68-2.12-3.32-2.58-3.12-5.66-7.48-2.39-3.38-2.28-3.74-3.78-5.46-1.5-1.72-3.05-3.02-5.74-4.9-4-2.79-8.05-5.61-14.15-8.12-3.1-1.28-6.13-2.11-12.18-3.78-3.56-.98-5.53-1.52-8.4-2.1-4.72-.95-8.4-1.28-12.97-1.7-4.13-.38-7.31-.53-8.48-.59-4.97-.22-10.81-.28-14.1-.08-6.54,.39-12.7,3.03-24.75,8.31-8.42,3.69-14.34,6.79-20.32,9.93-10.12,5.31-15.17,7.96-18.91,11.03-1.22,1-3.97,3.37-8.16,5.96-1.97,1.22-2.67,1.51-5.65,3.24-5.34,3.11-5.69,3.7-8.44,5.24-7.16,4-8.24,1.93-13.44,5.43-3.34,2.25-2.72,2.98-8.23,7.1-2.49,1.86-2.9,1.92-6.44,4.58-2.85,2.14-3.37,2.68-5.04,3.55-2.36,1.22-4.66,1.86-6.07,2.24-1.76,.48-3.12,.72-3.83,.84-10.37,1.79-15.55,2.68-20.19,2.66-1.04,0-2.87-.05-5.3,.42-1.58,.3-2.49,.65-4.86,1.4-2.12,.67-4.4,1.4-6.26,1.87-4.75,1.2-5.23,.32-9.99,1.4-2.04,.46-4.38,1-7.1,2.43-3.1,1.63-3.8,2.9-7.38,5.32-2.52,1.71-4.8,2.86-6.44,3.59-1.49,.43-3.65,1.13-6.16,2.24-2.51,1.11-4.65,2.3-5.09,1.77-.31-.37,.56-1.19,.82-3.13,.14-1.04,.02-1.74,0-2.17-.26-3.71,4.8-5.55,5.96-10.88,.2-.91,.33-2.14,.98-4.06,.55-1.64,.77-1.68,1.12-2.8,.8-2.59-.09-3.27,.42-6.02,.43-2.32,1.1-2.02,1.66-4.73,.15-.73,.52-2.58,.3-4.93-.22-2.33-.76-2.43-.7-4.34,.05-1.65,.48-2.09,.33-3.7-.12-1.27-.45-1.81-.75-2.88-.5-1.81-.36-3.21-.14-5.46,.29-2.99,.53-5.98,.84-8.96,.51-4.84,.76-7.26,.84-10.08,.12-4.35-.17-5.64,.85-7.77,.89-1.86,1.85-2.41,1.81-3.99-.04-1.65-1.1-1.9-1.96-4.76-.16-.54-.34-1.57-.7-3.64-.31-1.8-.47-2.69-.56-3.64-.18-1.8-.3-3.11-.03-4.56,.32-1.68,.83-1.68,1.99-4.27,.74-1.64,1.81-4.08,1.9-7.19,.04-1.28-.11-2.26-.27-3.38-.35-2.37-.75-2.88-1.34-5.4-.55-2.35-1.02-4.41-.81-7.03,.07-.8,.19-2.21,.81-3.9,.96-2.64,1.93-2.72,2.8-4.9,1.12-2.8-.23-3.3,.84-6.3,.52-1.47,1.42-2.71,3.22-5.18,1.77-2.43,1.83-2.08,2.52-3.29,.8-1.41,1.25-3.22,2.1-6.79,.69-2.87,.67-3.3,1.26-4.2,.65-.99,1.18-1.23,2.52-3.01,.71-.94,1.08-1.43,1.47-2.17,1.1-2.08,1.26-4,1.33-4.9,.03-.35,.1-1.59-.14-3.22-.33-2.18-.92-2.96-1.33-4.55-.39-1.52-.26-2.93,0-5.67,.38-3.96,.58-6,1.61-8.47,.49-1.17,1.8-3.14,4.4-7.1,.65-.98,1.43-2.15,2.46-3.89,.95-1.62,1.53-2.59,2.03-3.78,.66-1.57,.94-2.89,1.33-5.6,.57-3.93,.88-7.28,1.12-10.5,.24-3.28,.36-4.96,.28-6.72-.1-2.3-.33-2.6-.51-5.6-.19-3.16-.28-4.74,.09-6.73,.15-.82,.24-.96,1.69-5.13,1.46-4.2,1.25-3.73,1.95-5.65,1.39-3.88,2.09-5.82,2.94-7.56,1.04-2.13,2.06-3.6,4.06-6.44,1.72-2.45,4.07-5.78,7.7-9.8,2.34-2.6,4.55-5.05,7.98-7.84,2.63-2.14,3.8-2.71,6.59-5.3,1.69-1.57,2.83-2.82,4.75-4.92,1.76-1.92,2.36-2.72,2.94-3.64,1.13-1.81,.93-2.2,1.88-3.87,1.09-1.93,1.57-1.8,4.49-5.3,2.43-2.9,3.01-4.09,3.29-4.69,.18-.4,.77-1.75,1.12-3.64,.49-2.67,.01-3.78,0-6.72,0-1.92,.28-1.9,.79-6.94,.77-7.52,.66-7.1,.75-7.49,.59-2.57,2.27-7.33,6.16-11.06,1.67-1.6,3.76-3.03,4.89-6.04,.34-.9,.62-1.68,.44-2.64-.29-1.54-1.53-2.45-5.57-5.07-3.88-2.52-3.52-2.2-4.51-2.91-3.14-2.24-3.13-2.86-6.02-4.9-2.76-1.95-3.07-1.59-5.18-3.22-.76-.58-2.97-2.36-5.04-5.32-3.17-4.54-3.92-8.87-4.07-9.8-.48-2.99-.22-5.32-.13-6.02,.31-2.44,.98-4.16,1.82-6.3,1.1-2.8,1.64-4.2,2.94-5.74,1.33-1.58,2.71-3.22,4.9-3.64,1.72-.33,3.19,.23,4.2-.84,.43-.45,.58-1,.7-1.4,.42-1.44,0-2.69-.14-3.08-.74-2.13-2.71-3.23-4.59-4.27-.4-.22-1.5-.69-3.68-1.61-3.65-1.55-3.8-1.58-4.62-1.96-1.02-.46-3.14-1.48-5.46-2.94-2.78-1.75-4.66-3.41-6.02-4.62-3.46-3.07-5.68-5.82-7.42-7.98-1.42-1.76-3.3-4.12-5.33-7.5-1.58-2.63-1.6-3.13-3.08-5.39-2.22-3.38-3.04-3.58-4.94-6.28-2.64-3.76-3.79-7.29-4.51-9.56-.67-2.12-1.56-4.99-1.71-8.81-.09-2.33,.19-2.51,.38-7.7,.18-4.8-.07-4.51,.14-7.05,.32-3.88,1.08-6.79,1.82-9.62,.9-3.46,1.36-5.19,2.35-7.05,.42-.78,1.1-1.92,4.65-5.98,2.44-2.78,3.12-3.4,6.16-6.72,2.68-2.94,4.48-5.01,6.44-7.28,3.25-3.76,4.28-5.08,5.18-6.3,.96-1.3,2-2.72,3.22-4.76,1.77-2.95,3.81-7.05,3.92-7.28,.7-1.42,1.09-2.26,1.96-3.36,.96-1.22,1.99-2.09,3.13-2.9,2.76-1.97,5.32-2.95,6.82-3.54,6.04-2.36,9.06-3.55,11.29-4.79,1.84-1.02,3.77-2.35,7.62-5.02,2.29-1.58,3.73-2.65,6.16-3.92,1.96-1.03,3.16-1.68,4.91-2.15,3.37-.9,6.43-.64,9.65-.37,2.26,.19,4.2,.53,5.18,.7,2.83,.5,2.94,.71,4.87,.99,2.87,.42,5.15,.33,7.01,.24,1.14-.05,1.66-.12,6.05-.67,5.38-.67,8.1-1.01,9.8-.98,2.45,.04,4.26,.09,6.49,.94,2.71,1.03,4.62,2.69,5.27,3.26,2.4,2.12,2.45,3.27,4.62,4.41,.49,.26,.48,.19,3.85,1.19,3.07,.91,4.6,1.36,5.39,1.68,2.63,1.07,2.76,1.62,5.13,2.39,1.64,.53,2.94,.72,3.84,.83,2.65,.35,3.32,0,7.49,0,2.98,0,4.52,0,6.65,.42,.62,.12,2.44,.5,4.69,1.4,1.77,.7,2.74,1.3,4.34,2.17,4.16,2.27,6.49,3.55,9.52,4.34,.52,.14,2.38,.37,6.09,.84,3.94,.5,5.91,.75,8.12,.98,7.92,.84,7.8,.39,11.52,1.06,2.72,.49,5.43,1.01,8.71,2.51,3.64,1.67,6.02,3.67,7.7,5.11,.91,.77,3.97,3.45,7.84,8.89,2.73,3.84,2.44,4.24,6.58,11.13,3.84,6.41,4.49,6.73,7.77,12.53,1.38,2.45,2.38,4.49,4.37,8.56,1.25,2.57,1.89,3.96,2.42,5.93,.21,.77,.75,2.9,.91,5.74,.09,1.71,.18,3.26-.21,5.25-.29,1.48-.77,3.92-2.66,6.16-.41,.49-1.9,2.21-4.34,3.22-1.56,.65-2.44,.56-4.13,1.61-.47,.29-1.05,.75-2.21,1.65-1.72,1.35-2.36,1.99-2.56,2.2-.57,.58-1.25,1.28-1.54,1.82-1.11,2.05,1.58,5.08,4.76,10.36,1.48,2.46,2.53,4.58,4.62,8.82,1.61,3.26,2.7,5.46,3.86,8.43,1.27,3.25,2.95,8.27,3.85,14.53,.84,5.91,.29,8.05-.14,9.24-.5,1.4-.69,1.16-2.38,4.9-1.44,3.19-2.16,4.79-2.6,6.56-.3,1.22-.34,1.89-.9,2.96-.52,.99-1.02,1.44-.84,1.96,.12,.35,.51,.65,1.96,.98,2.07,.47,3.5,.42,3.5,.42,1.29-.05,.35,.12,6.73,.74,6.36,.62,4.95,.23,6.57,.52,2.04,.37,3.52,.85,4.99,.05,.39-.21,.32-.27,1.59-1.45,1.74-1.61,2.61-2.41,3.5-2.8,.65-.28,1.5-.47,3.92-.14,2.39,.33,4.71,.95,7.28,1.96,4.39,1.71,6.58,2.57,7.56,4.06,.31,.47,.88,1.49,1.96,1.76,.67,.17,1.25-.02,2.24-.36,2.42-.84,3.63-1.25,3.64-1.26,.36-.16,3.8-1.66,7-1.96,2.4-.23,1.91,.48,6.72,.84,4.57,.35,6.66-.16,7.56-.42,1.46-.42,1.23-.58,3.22-1.26,1.45-.5,2.77-.82,7.32-1.43,3.61-.49,6.11-.82,9.77-1.09,2.95-.21,4.42-.32,5.6-.28,3.58,.12,6.25,.9,11.2,2.52,6.46,2.12,7.62,2.67,10.64,3.64,6.59,2.11,11.9,2.95,14.57,3.36,11.98,1.84,12.77-.55,19.61,1.68,4.44,1.45,7.44,3.58,13.44,7.84,3.42,2.43,7.21,5.12,11.2,9.52,5.13,5.66,3.53,6.35,8.4,11.76,5.7,6.34,12.68,10.72,14.94,12.14,2.41,1.51,3.59,2.06,6.16,3.92,3.55,2.56,3.86,3.36,8.59,7.1,3.87,3.06,4.4,3.1,5.98,4.86,.92,1.02,1.63,2,4.11,6.16,3.79,6.38,3.29,6.06,4.86,8.4,2.28,3.4,4.5,5.8,6.91,8.4,1.52,1.64,2.99,3.23,5.04,5.04,3.41,3.01,6.19,4.67,9.52,6.72,4.15,2.55,8.22,5.23,12.32,7.84,9.41,5.98,15.69,12.81,18.86,16.25,5.16,5.6,5.59,7.49,17.18,25.4,12.22,18.88,11.05,15.71,14.1,21.38,5.87,10.9,9.65,21.57,14.01,33.89,2.89,8.17,4.48,12.88,4.48,12.88,2.1,6.22,2.6,7.99,4.2,12.32,1.24,3.37,2.23,5.79,4.2,10.64,4.5,11.07,4.76,10.93,5.32,13.44,.29,1.31,1.52,7.18,.37,14.57-.99,6.4-2.56,6.12-3.36,12.7-.35,2.84-.94,7.66,.56,12.88,.58,2.03,1.05,2.64,2.33,6.82,.18,.59,.68,2.24,1.64,4.25,.76,1.59,1.3,2.38,1.91,3.03,.89,.96,1.64,1.36,2.24,1.77,.69,.48,1.71,1.37,4.44,7.67,.77,1.78,1.48,3.4,2.33,5.78,1.3,3.62,1.95,5.43,2.23,7.72,.18,1.42,.12,3.18,0,6.71-.11,3.57-.33,4.85-.42,5.32-.38,2.06-.6,1.79-1.26,4.76-.43,1.92-.7,3.65-.98,5.46-.22,1.41-.33,2.11-.38,2.65-.25,2.74,.14,3.88,.18,6.09,.07,3.96-1.12,3.63-.78,6.39,.39,3.19,1.95,3.34,2.19,6.82,.05,.73,.07,2.01,.37,3.92,.24,1.51,.44,2.11,.56,2.43,.54,1.44,1.29,2.24,1.87,2.99,1.48,1.92,1.77,3.48,2.43,5.04,1.64,3.88,4.4,5.03,7.28,8.59,2.29,2.83,1.03,2.7,5.98,14.38,2.6,6.13,3.93,9.24,5.6,11.2,2.12,2.5,3.72,3.34,4.48,5.98,.83,2.86-.36,4.28-.37,7.84-.01,3.57,1.16,6.14,2.61,9.34,2.46,5.39,4.78,7.01,8.96,12.51,1.51,1.98,5.71,7.7,8.96,14.75,3.01,6.53,4.12,11.83,5.23,17.18,2.43,11.71,2.29,20.91,2.24,23.16-.24,9.89-1.96,17.14-3.73,24.65-1.8,7.6-2.18,6.75-6.72,23.16-2.68,9.69-2.5,9.81-4.48,16.43-2,6.69-3.16,9.84-5.23,17.37-1.23,4.48-1.84,6.72-2.52,9.8-1.88,8.57-1.69,11.75-3.64,23.53-.78,4.73-1.18,7.09-1.68,9.24-2.57,10.93-5.35,13.77-6.72,23.25-.3,2.1-.74,5.21-.56,9.24,.4,9.24,3.68,15.85,4.48,17.65,5.26,11.73-.38,28.35-7.28,78.9-2.35,17.23-3.53,26.04-3.73,35.85-.16,7.78,.16,13.54-.75,24.65-.53,6.46-1.05,9.58-1.87,18.3-.82,8.8-1.26,15.95-1.49,20.54-1.65,11.18-2.22,17.51-2.4,21.34-.03,.75-.09,2.33-.63,4.33-1.15,4.25-3.24,5.91-5.19,9.06-2.26,3.65-1.33,4.45-4.06,12.99-1.71,5.34-3.41,8.55-4.08,10.74-4.55,14.69-5.42,26.64-5.85,34.43-.98,15.02,.76,23.14,2.93,43.31,.03,28.34,1.96,41.88,3.9,49.01,1.12,4.09,3.72,11.49,.8,18.31-.53,1.24-1.82,3.83-2.97,7.87-1.54,5.43-1.17,7.67-.96,8.59,.65,2.91,1.89,2.8,3.21,5.97,1.46,3.51,2.24,9.22-.37,13.44-2.01,3.26-4.44,3.03-4.86,5.6-.44,2.74,2.14,3.97,3.36,8.22,.94,3.27,.25,5.47,0,8.22-.72,7.99,3.37,9.16,4.86,19.05,1.44,9.56-2.01,10.9,.37,20.17,1.08,4.21,2.9,8.24,3.73,10.08,.79,1.74,1.39,2.9,5.6,10.46,4.94,8.86,6.36,11.3,5.98,14.94-.12,1.09-.32,3.03-1.64,4.91-2,2.87-4.45,2.53-6.58,5.18-1.92,2.38-.73,3.63-2.24,6.72-1.95,3.99-4.82,3.72-10.08,8.22-4.61,3.94-2.9,4.57-7.84,8.96-5.12,4.55-7.15,4.05-10.08,8.22-1.4,2-1.9,3.48-4.11,5.6-1.51,1.45-1.98,1.43-4.86,3.73-2.57,2.06-3.94,3.15-5.23,4.86-1,1.31-2.82,3.71-2.99,6.35-.4,6.28,8.63,11.68,11.58,13.44,5.61,3.36,7.71,2.62,11.58,6.35,3.15,3.04,2.55,4.29,5.6,6.72,4.01,3.2,6.65,2.3,11.2,4.86,1.01,.57,5.79,3.37,8.22,8.22,3.15,6.29-.14,11.08-.75,26.14-.16,3.86-.08,7,0,8.96-41.34,.58-82.68,1.16-124.02,1.73-2.41-8.19-3.32-14.94-3.71-19.66-.52-6.36-1.39-12.69-1.87-19.05-.21-2.76-.4-5.74-2.24-8.96-1.85-3.23-4.04-4.4-6.72-6.72-3.7-3.2-3.77-4.64-9.34-12.32-7.47-10.32-8.3-9.05-13.44-16.81-5.75-8.68-3.83-8.93-8.22-14.19-6.01-7.2-9.93-7.1-13.82-14.19-1.34-2.45-2.18-5.18-3.84-10.64-1.6-5.24-2.48-9.51-3.25-13.26-.82-3.99-1.4-6.81-1.87-10.83-.47-4.03-.57-7-.75-12.32-.14-4.18-.2-6.31,0-8.22,.49-4.59,1.45-5.33,2.24-9.71,1.19-6.64-.77-6.4,.37-12.7,.96-5.33,2.66-7.14,1.99-11.61-.23-1.54-.52-1.93-.97-4.66-.61-3.68-.61-6.15-.69-7.81-.32-6.02-2.06-6.23-3.31-13.64-.77-4.58,.12-3.18-.75-12.32-.44-4.7-.9-7.37,0-11.2,.37-1.57,.57-1.67,1.92-5.21,3.08-8.1,4.61-12.14,4.43-16.07-.18-3.85-1.41-4.43-.86-7.8,.47-2.91,1.69-4.25,3.1-7.14,1.38-2.81,1.98-5.56,3.18-11.07,1.43-6.54,1.51-9.43,2.68-17.64,.62-4.38,1.24-7.92,2.48-14.99,2.7-15.39,3.46-16.84,3.64-22.74,.01-.4-.17-4.69-.53-13.25-.54-12.97-.6-14.06-.66-16.5-.22-9.22,.2-9.57,.1-17.91-.08-6.92-.65-13.98-1.79-28.11-.54-6.75-.94-7.1-1.96-16.96-.51-4.9-1.06-9.79-1.56-14.69-.77-7.54-.76-8.04-1.24-9.65-1.65-5.53-3.79-6.6-4.07-11.46-.06-.97-.01-2.79,.08-6.42,.06-2.52,.09-3.78,.18-5,.31-4.18,.46-6.3,1.51-8.74,1.11-2.6,1.83-2.3,3.17-5.23,1.25-2.71,1.12-4.02,1.87-6.91,.6-2.32,1.9-4.84,4.48-9.9,3-5.86,4.04-7.04,4.25-9.99,.16-2.36-.46-2.19-.56-5.32-.12-3.96,.85-5.49,2.24-12.18,.78-3.74,1.17-5.61,1.26-7.42,.24-4.82-.88-6.99-1.6-11.92-.58-3.97-.45-6.88-.18-12.71,.29-6.16,.93-8.42,2.06-17.11,1.04-8,1.56-12,1.68-15.97,.21-7.08-.6-12.75-2.24-24.09-1.29-8.94-1.37-7-2.8-16.81-.93-6.4-1.51-11.39-3.36-18.49-1.06-4.05-1.61-6.12-2.8-8.4-1.98-3.81-3.86-5.19-5.17-9.23-.71-2.2-.39-3.4-.99-5.7-2.28-8.7-5.55-11.17-6.13-19.26-.25-3.55-1.37-7.04-1.32-10.6,.02-1.7,.18-4.51-1.65-6.6-.29-.33-.93-1.06-1.91-1.45-3.95-1.59-9.39,3.8-10.27,4.67-3.07,3.04-2.4,4.02-6.16,8.96-3.36,4.41-3.85,3.57-7.28,8.03-3.15,4.09-3.11,5.29-6.91,10.27-3.2,4.2-3.22,3.35-4.67,5.6-1.85,2.89-1.55,3.87-4.78,16.08,0,0-1.17,4.43-4.06,10.12-1.09,2.16-1.38,2.41-1.62,2.37-1.72-.25-1.34-15.6-.14-23.77,.15-1,.52-3.34,.78-6.61,.26-3.21,.17-4.34,.36-6.74,.16-2.08,.52-5.04,1.42-8.64-.2-1.97-.39-3.95-.58-5.93-.23-2.36-.45-4.71-.66-7.05-.01-.07-.03-.19-.05-.33,0,0-.35-2.08-.92-4.5-.39-1.65-1.42-5.65-2.93-10.96,0-.11-.11-.22-.11-.33,2.09-15.62-.67-21.37-3.89-23.56-.98-.66-4.06-2.4-8.4-5.6-1.59-1.17-3.35-2.54-4.86-4.86-1.01-1.56-1.24-2.52-1.87-3.92-1.44-3.19-3.37-5.04-5.98-7.66-5.27-5.28-7.9-7.92-9.71-10.08-7.89-9.45-5.42-13.26-11.76-19.05-.92-.83-3.77-3.31-3.17-5.23,.33-1.06,1.7-1.85,2.05-2.05,.49-.28,1.43-.83,2.61-.75,1.41,.09,1.56,.97,3.36,1.49,1.36,.4,2.53,.27,3.17,.19,1.96-.24,2.14-.96,3.55-1.12,1.74-.2,2.23,.8,5.23,1.87,.42,.15,2.62,.92,5.42,1.12,1.93,.14,3.37-.04,5.98-.37,1.88-.24,3.42-.53,4.48-.75,4.13,.61,6.35,.93,6.35,.93h0l8.4,1.49c.94,.63,.66,.76,3.15,2.94,0,0,1.46,1.28,2.81,2.3,2.8,2.13,6.05,3.46,8.14,4.28,5.26,2.08,8.93,3.53,14.57,5.04,2.65,.71,6.64,1.77,12.04,2.52,3.83,.53,6.61,.67,10.08,.84,5.87,.29,9.82,.48,15.13,0,3.61-.33,6.7-.97,12.88-2.24,7.37-1.52,9.77-2.41,12.04-3.64,2.64-1.42,4.6-3.02,5.88-4.2,.03-.03,3.89-3.33,3.92-3.36s3.89-3.33,3.92-3.36c1.21-1.41,2.96-3.59,4.76-6.44,1.87-2.97,1.98-3.78,3.92-7.28,3.39-6.14,4.39-6.07,7-11.2,1.7-3.35,2.67-6.12,3.36-8.12,.83-2.42,1.19-3.86,3-11,2.3-9.06,2.27-8.91,2.32-9.17,1.07-5.96,.95-10.74,.84-14.85-.14-5.17-.66-9.08-.84-10.36-.78-5.49-1.87-9.36-3.36-14.57-4.81-16.8-7.25-25.27-8.68-28.29-2.83-5.97-4.05-6.77-6.44-12.88-1.27-3.23-2.08-5.98-4.48-9.24-2.11-2.87-4.29-4.59-5.7-5.68-12.98-10.04-19.45-15.12-26.23-17.71-5.27-2.01-10.58-4-17.65-4.34-2.31-.11-6.56-.13-13.3-.7-4.5-.38-5.85-.65-6.95-.92-5.18-1.28-5.75-2.93-10.69-4.82-3.26-1.25-9.64-3.69-15.47-1.23-3.26,1.38-5.67,3.75-5.67,3.75-2.36,2.33-2.35,3.68-4.26,4.65-.72,.37-2.48,1.07-7.36-.17-4.11-1.05-6.91-2.58-8.68-3.5Zm-57.42,415.67c1.85-4.35,2.77-6.52,3.22-8.12,2.14-7.59,1.16-14.33,.4-19.2-.43-2.77-.41-1.45-3.1-12.79-1.68-7.08-2.52-10.61-3.08-13.81-1.11-6.28-.91-7.61-2.24-13.82-.46-2.15-.82-3.55-1.49-6.91-.19-.93-.79-4-1.49-8.22-.78-4.73-1.17-7.09-1.49-10.27-.41-4.05-.18-4.22-.65-9.8-.33-3.93-.46-4.04-.84-8.12-.32-3.42-.5-6.53-.84-12.6-.43-7.62-.4-8.58-.78-11.44-.2-1.53-.6-4.15-1.66-8.68-2.92-12.46-4.4-18.69-7.91-23.01-1.84-2.27-5.34-5.71-11.79-8.14-1.43-2.52-2.86-5.03-4.29-7.55-2.99-4.11-6.8-7.9-10.75-7.45-3.8,.43-5.74,4.58-7.65,3.8-2.18-.89,.26-6.34-2.82-12.09-1.28-2.39-3.39-4.08-7.59-7.47-3.22-2.59-6.32-4.5-7.7-5.32-2.2-1.31-5.9-3.32-5.91-3.33-.55,.48-3.63,3.3-3.78,7.94-.12,3.75,1.75,6.36,2.32,7.1,0,2.93-.1,7.27-.54,12.53-.5,5.98-.92,6.78-1.22,10.89-.63,8.49,.4,15.24,1,19.05,1.08,6.82,2.21,8.91,3.29,15.23,.13,.75,.49,2.95,1.4,5.77,.14,.43,.55,1.68,1.41,3.75,.55,1.34,1.78,4.27,3.64,7.56,1.15,2.04,2.73,4.25,5.83,8.58,4.28,5.97,4.63,6.12,5.23,7.8,.59,1.64,1.13,3.93,1.96,7.42,.44,1.85,.32,1.49,.7,3.08,1.29,5.4,2.06,7.09,2.36,10.45,.1,1.14,.11,2.05,.11,2.56,.13,1.23,.3,2.99,.45,5.12,.29,4.29,.38,8.49,.17,16.88-.2,7.76-.37,7.73-.56,15.69-.11,4.59-.19,7.56-.14,11.48,.05,3.98,.11,8.96,.7,15.13,.37,3.85,.95,7.47,2.1,14.57,1.87,11.49,1.99,10.51,2.71,15.88,1.25,9.29,.23,9.35,1.55,19.35,.51,3.86,.93,5.97,.94,9.73,.02,5.55-.73,10.35-.73,10.35-.3,1.9-.73,4.07-.97,7.49-.12,1.72-.1,2.5-.15,3.44-.35,7.71-4.16,14.99-5.32,17.19-.32,.61-1.14,2.22-2.1,4.5-.38,.91-.77,1.99-1.22,3.45-1.2,3.96-3.22,10.21-4.15,12.9-.85,2.47-2.16,5.93-4.17,10-2.01,2.38-4.96,6.08-8.17,10.9-1.02,1.54-1.91,2.96-5.84,9.55-4.39,7.37-6.59,11.06-7.28,12.32-4.46,8.15-6.69,12.22-7.84,17.37-1.2,5.34-.41,11.17,1.17,22.85,.29,2.15,1.31,9.34,3.59,18.61,.92,3.73,1.81,6.88,2.52,9.24,.9,2.49,2.17,6.19,3.46,10.76,3.02,10.73,5.67,20.16,4.79,31.83-.7,9.29-3.35,16.1-4.04,17.83-4.71,11.69-12.5,19.67-15.12,22.21-4.29,4.15-6.08,4.73-9.24,8.96-1.45,1.94-5.36,7.57-6.72,14.29-1.68,8.25,1.87,15.77,8.96,30.81,4.28,9.08,3,3.96,13.73,22.97,2.16,3.83,4.07,7.34,5.6,7,2.01-.44,.63-6.93,3.14-17.07,2.05-8.31,4.14-8.64,5.55-16.82,.96-5.54,.88-10.48,.83-12.61-.14-7.01-1.17-7.66-.83-13.44,.26-4.51,1.16-8.94,1.68-11.48,.87-4.28,1.4-5.48,1.57-8.6,.19-3.52-.39-3.6-.45-8.2-.06-4.56,.51-4.85,.56-10.5,.03-3.53,.05-5.29-.28-7.42-.48-3.11-1.17-4.42-1.26-7.7-.02-.6-.04-2.31,.28-4.48,.22-1.51,.73-3.99,2.51-7.99,2.44-5.48,3.28-4.84,4.77-8.82,1.63-4.35,.8-5.59,2.66-8.12,1.67-2.27,3.03-2.22,5.46-4.2,3.21-2.63,4.49-5.71,6.58-10.78,.81-1.97,2.68-6.87,3.36-13.59,.6-5.86-.46-5.65,.4-8.72,1.97-7.05,8.63-11.99,9.83-12.85,3.35-2.4,4.48-3.7,6.72-6.3,.31-.35,.75-.88,1.12-1.68,.97-2.07,.5-3.9,.28-6.02-.25-2.41,.22-1.45,.28-7.28,.04-3.95,.06-5.92-.14-7.56-.34-2.73-.84-4.08-.14-6.02,.53-1.46,1.05-1.36,1.82-2.94,1.27-2.61,.38-4.01,.98-7.14,.53-2.77,1.32-2.16,2.75-6.24,1.16-3.31,.67-3.8,2.01-7.91,.72-2.22,.88-2.12,1.82-4.9,.46-1.37,1.03-3.2,1.82-6.3,1.2-4.73,1.26-5.96,1.96-8.82,.44-1.8,1.7-5.15,4.2-11.76,2.37-6.27,3.57-9.43,4.48-10.92,1.27-2.09,2.35-3.35,3.47-6.11,.59-1.43,1.05-2.94,1.71-6.35,.79-4.11,1.53-7.93,1.66-12.85,.04-1.63,.02-3.28-.68-10.68-1.39-14.6-2.08-16.35-1.67-21.72,.2-2.61,.5-6.26,1.95-10.77,1.26-3.92,2.39-5.42,5.32-12.32Zm-130.11,507.83c-2.36-7.13-3.71-7.3-4.06-11.34-.35-3.99,.68-7.07,2.24-11.76,1.39-4.16,2.21-4.99,5.04-11.36,3.56-8.04,2.52-7.32,4.99-12.4,4.61-9.49,7.34-10.16,7.2-14.75-.07-2.03-.69-4.65,.84-7.28,.9-1.55,1.65-1.55,2.24-3.22,.66-1.86,.17-3.12,1.13-5.41,.29-.71,.61-1.25,.83-1.59-.57-1.5-1.63-3.89-3.5-6.44-1.98-2.7-3.94-4.32-4.62-4.9-3.74-3.21-7.8-10.07-15.76-23.65-2.35-4.01-4.07-7.06-7.11-11.29-2.71-3.77-4.95-6.36-8.22-8.61-2.17-1.49-4.18-2.41-5.62-2.97-1.46-.42-3.44-1.09-5.67-2.15-2.01-.96-5.24-2.51-8.07-5.26-3.28-3.2-4.6-6.7-7.25-13.7-.77-2.03-1.26-3.59-2.24-6.72-1.54-4.91-2.92-9.29-4.2-14.85-1.59-6.86-2.6-11.25-2.8-17.37-.14-4.42,.29-5.13,0-10.92-.1-2.05-.36-6.08-1.12-11.2-.81-5.45-1.13-5-1.68-8.96-1.21-8.65-.06-13.47-1.68-17.97-.24-.67-1.28-3.37-2.23-5.48-.35-.77-.68-1.46-.97-2.07-.49-1-.87-1.72-.91-1.8-.33-.63-5.37-10.63-9.05-27.58-.91-4.2-1.51-7.77-1.89-10.05-.15-.93-.66-3.99-1.47-10.12-.62-4.66-1.16-8.72-1.61-13.17-1.02-10.1-.45-11.15-1.52-23.75-.43-5.1-.99-10.47-1.07-11.26-1.2-11.48-1.55-11.67-1.4-14.57,.24-4.57,1.56-8.37,4.2-15.97,1.88-5.42,3.77-9.96,5.32-13.44,2.88-4.77,5.11-8.9,6.72-12.04,3.05-5.93,5.18-10.79,5.6-11.76,2.99-6.86,2.91-7.78,5.04-11.76,2.55-4.77,3.63-5.28,5.98-9.24,2.9-4.9,3.65-8.21,6.16-16.43,4.36-14.27,4.89-13.44,6.35-19.23,3.53-14.01,.54-19.16,1.68-36.32,.44-6.56,1.55-15.98,4.67-27.36-3.38,3.26-6.38,5.56-8.5,7.06-3.66,2.58-5.32,3.22-6.81,5.64-1.58,2.56-.83,3.66-2.24,7.84-1.06,3.12-2.36,5.13-4.48,8.4-4.19,6.46-5.88,6.41-6.72,10.08-.43,1.89-.31,3.31-1.49,5.42-1.08,1.93-1.97,2.13-2.61,3.92-.48,1.32-.28,2-.19,5.23,.1,3.68,.16,5.52-.19,6.72-.81,2.83-2.17,2.44-3.73,5.79-1.55,3.32-.39,4.07-2.05,7.66-1.29,2.78-2.17,2.72-2.8,5.04-.54,1.99-.12,2.86-.19,5.98-.02,1-.09,1.95-.75,6.35-1.18,7.92-1.78,11.88-2.57,14.13-.3,.84-1.39,3.13-3.59,7.71-1.67,3.49-2.26,4.63-4.48,9.15-3.21,6.53-4.83,9.85-5.98,12.51-1.51,3.5-2.52,6.22-3.55,8.96-1.5,4.02-2.48,6.63-3.55,10.27-1.29,4.38-2.06,7.02-2.43,10.8-.3,3.12-.17,5.48,0,8.43,.27,4.62,.77,7.3,1.4,11.63,.61,4.22,.18,2,2.05,18.63,.96,8.55,1.14,9.8,.66,12.32-.78,4.05-2.86,9.06-3.36,10.27-.74,1.78-1.37,3.08-2.36,5.76-1.07,2.89-1.6,4.34-1.94,5.93-.95,4.52,.19,5.64-1.12,9.04-.53,1.39-1.15,2.29-2.38,4.08-1.75,2.56-2.81,3.41-5.46,6.37-3.38,3.78-5.07,5.67-6.16,8.03-1.28,2.77-1.71,5.38-1.87,6.35-.11,.7-.19,1.39-.37,5.98-.25,6.22-.15,6.19-.37,6.91-.74,2.42-1.78,2.64-4.67,6.91-.95,1.4-2.26,3.35-3.4,5.78-1.59,3.41-1.56,5.07-2.95,10.28,0,0-1.1,4.11-2.8,8.78-1.89,5.18-2.61,5.5-5.79,12.51-4.34,9.59-3.68,10.54-6.72,15.69-.66,1.11-2.31,3.81-4.28,7.75-1.01,2.01-1.51,3.02-2.07,4.39-.58,1.43-2.12,5.53-2.61,11.02-.25,2.84-.02,3.69,.37,10.27,0,0,.38,6.4,.51,12.53,.17,7.75,.26,11.88-.51,16.61-1.73,10.6-5.5,10.21-6.44,18.77-.59,5.33,1.05,3.93,2.67,19.73,.51,4.98,.83,10.47,.83,16.48,0,2.55-.13,5.39-.46,9.02-.25,2.76-.51,4.83-.84,6.71-1.14,6.59-1.55,9.92-2.93,12.97-.51,1.13-2.24,3.76-5.71,9.03-1.77,2.69-3.12,4.69-3.36,5.04-10.56,15.6-10.92,15.52-11.76,17.93-2.11,6.01,.17,6.38-2.24,14.29-1.72,5.65-3.34,6.93-5.32,12.04-1.48,3.83-3.12,9.65-3.08,17.65-.05,1.49,.07,3.94,1.29,6.46,2.96,6.05,9.69,6.97,24.48,13.15,13.38,5.59,14.93,7.79,15.69,9.52,2.54,5.8-1.62,11.12,1.68,15.13,2.63,3.19,7.84,2.91,10.08,2.8,20.89-1.04,41.84,.2,62.74-.56,8.22-.3,25.91-.94,41.34,.44,2.98,.27,13.31,1.27,27.29,1.39,2.2,.02,4,0,5.18,0,.33-.21,.86-.57,1.4-1.12,2.69-2.74,2.24-6.64,1.68-16.53-.32-5.57-.45-9.18,0-12.88,.33-2.72,.93-5.12,.98-5.32,.58-2.3,1.08-3.43,1.54-4.9,.9-2.86,1.04-5.04,1.29-8.69,.16-2.37,.34-7.06-.45-13.02-.79-5.99-2.2-10.65-2.94-12.88Z" style="fill:#5a00ce;"/><path id="uuid-81198226-ddbc-47c5-a908-df77cae1ddfa" d="M57.87,3864.33c2.27,1.54,6.67,4.58,11.38,8.02,6.8,4.97,10.38,8.13,16.67,13.32,4.87,4.02,11.84,9.64,20.63,16.29,2.94,2.1,5.88,4.2,8.82,6.3-.67,.39-1.79,1.01-3.22,1.68-10.86,5.07-18.26,2.72-27.45,5.18-4.12,1.1-7.69,3.49-14.85,8.26-9.33,6.23-18.96,12.66-23.02,22.06-.61,1.4-1.92,4.8-4.57,9.17-1.93,3.18-3.79,5.61-5.04,7.14-.08-32.46-.16-64.92-.23-97.38,2.65-2.65,5.29-5.29,7.94-7.94,.22-.22,.53-.27,.79-.1,3.22,2.05,7.37,4.74,12.14,7.99Zm1221.2-531.12c-1.94,1.84-3.74,1.83-6.44,2.8-3.91,1.4-6.19,3.58-10.36,7.56-3.92,3.74-4.6,5.54-11.55,15.4-3.19,4.53-6.69,9.49-11.46,15.57-4.65,5.92-5.87,6.99-9.75,12.29-3.21,4.39-5.48,7.91-7.45,10.98-3.8,5.92-3.55,6.03-8.81,14.66-6.04,9.92-6.91,10.66-7.79,13.99-.62,2.36-.31,2.47-.9,12.62-.33,5.81-.58,9.98-1.12,14.85-.74,6.61-1.72,11.63-2.52,15.69-1.72,8.72-2.44,9.85-3.63,15.69-.67,3.3-1.29,11.72-2.49,28.41-.65,9.07-.95,13.67-.68,20.3,.26,6.08,.62,4.84,.73,9.54,.28,12.54-2.44,16.41-.79,25.79,.29,1.63,.67,3.22,.87,5.91,.31,4.09-.1,6.66-.45,10.89-.53,6.45-.04,6.14-.47,10.83-.62,6.9-2.08,12.16-3.36,16.81-1.88,6.8-2.8,7.9-4.01,13.82-.67,3.27-1.03,6-1.36,9.28-1.01,9.99-1.35,20.19-1.44,27.98,3.71,14.73,1.47,27.68-3.64,33.89-4.79,5.83-9.8,7.56-9.8,7.56-2.21,.77-2.78,.46-6.26,1.59-3.05,.99-4.01,1.68-9.15,4.01-3.78,1.71-5.66,2.57-7.84,3.36-5.8,2.11-6.96,1.67-9.8,3.64-1.51,1.05-2.16,1.83-4.48,3.22-2.21,1.33-2.61,1.21-4.34,2.24-3.46,2.07-3.18,3.32-6.02,5.04-2.94,1.78-3.52,.61-6.91,2.38-3.58,1.88-3.08,3.26-6.35,4.86-3.25,1.58-4.59,.62-7.89,2.15-2.57,1.19-4.29,2.94-5.32,4.2-1.69,.64-4.26,1.91-6.02,4.48-2.01,2.92-1.71,5.68-2.38,13.3-.23,2.57-.57,5.79-1.12,9.52-1.04,7.09-.45,8.8-.92,14.4-.67,7.97-1.34,7.24-2.02,14.73-.83,9,.07,10.83-.9,17.65-.8,5.63-2.59,10.79-3.3,13.02-.96,3.02-1.9,5.53-2.64,7.39-2.35,3.08-3.58,5.86-4.27,7.92-.81,2.42-1.08,4.44-2.8,5.6-1.42,.96-3.17,.89-4.48,.65-1.22-.31-3.27-1.02-5.04-2.8-.75-.75-1.86-2.11-2.99-5.79-1.39-4.56-1.48-8.36-1.49-9.71-.06-5.57,.67-9.41,1.12-12.51,.51-3.51,.59-8.63,.75-18.86,.13-8.29,.34-21.97-.56-22.03-.82-.06-2.2,11.22-2.33,12.34-1.53,12.58-1.57,24-2.71,34.91-.12,1.19-.56,5.17-2.14,10.02-.53,1.64-1.01,3.09-1.97,4.91-.96,1.81-2.86,5.32-6.72,7.66-1.38,.83-2.7,1.61-4.48,1.49-2.37-.15-4.04-1.8-4.29-2.05-1.35-1.37-1.21-2.42-3.17-4.48-1.06-1.11-1.53-1.26-1.68-1.31-1.21-.34-2.08,.45-4.48,1.68-2.55,1.31-3.86,1.96-5.42,1.87-.29-.02-2.13-.15-3.55-1.49-1.45-1.37-1.69-3.25-2.05-6.54-.41-3.65,.02-5.19-1.31-6.72-.17-.19-1.16-1.35-2.05-1.12-.93,.24-.72,1.73-1.87,3.36-1.15,1.62-2.86,2.26-4.29,2.8-1.45,.54-2.9,1.08-4.67,.75-2.92-.55-4.57-3.09-5.23-4.11-1.44-2.22-1.76-4.38-1.89-5.11-1.13-6.9-4.03-7.16-7.08-16.92-1.27-4.07-2.26-8.81-4.11-13.07-.18-.41-1.15-2.6-3.17-4.86-1.24-1.38-1.86-2.07-2.43-2.05-2.32,.05-2.28,8.49-6.54,17.74-1.38,2.99-4.48,9.54-11.2,14.57-3.95,2.96-7.65,4.26-11.58,5.6-7.05,2.42-11.7,2.62-16.62,3.36-14.38,2.17-13.76,6.3-28.94,9.52-2.91,.62-2.6,.39-26.52,2.24-20.1,1.55-19.9,1.68-22.03,1.49-11.96-1.04-22.03-5.36-31.75-9.52-6.5-2.79-5.81-2.98-11.76-5.42-9.55-3.91-12.21-3.77-25.58-7.84-19.41-5.91-20.14-8.11-29.13-8.59-4.92-.26-7.71,.24-13.07-1.12-6.63-1.68-7.98-3.87-15.13-5.6-5.97-1.45-5.92-.14-12.51-1.49-1.48-.3-8.54-1.82-16.66-6.34-3.85-2.15-3.92-2.73-11.48-8.03-3.69-2.59-7.49-5.04-15.09-9.94-8.46-5.45-9.32-5.88-18.98-12.05-13.91-8.88-8.77-5.84-18.2-11.83-9.65-6.13-13.47-8.32-17.58-12.86-.99-1.09-2.66-3.05-5.45-5.8-3.66-3.6-4.84-4.21-7.66-6.91-3.22-3.09-5.16-5.62-8.48-9.97-2.06-2.69-3.88-5.35-7.51-10.66-4.73-6.91-4.24-6.49-5.12-7.48-3.57-4.03-5.08-3.67-12.48-9.83-3.03-2.52-3.3-3.01-6.27-5.34-3.59-2.81-5.81-4.13-7.74-5.46-7.93-5.47-7.57-8.7-16.99-16.62-1.46-1.23-3.9-3-8.78-6.54-8.77-6.37-10.59-7.2-14.75-10.64-4.72-3.91-7.8-7.32-10.46-10.27-8.53-9.46-8.37-12.29-14.19-16.43-1.51-1.07-3.3-2.15-4.67-4.48-1.64-2.78-.86-4.27-2.8-8.22-.95-1.94-1.2-1.7-2.8-4.67-1.11-2.06-1.79-3.65-2.61-5.6-1.55-3.67-2.54-6.64-2.99-8.03-1.03-3.2-1.75-6.01-2.24-8.22-.7-3.12-1.59-7.13-1.93-12.38-.39-6.03-.64-9.82,1-14.32,1.24-3.42,2.05-3.06,2.93-6.33,.91-3.37,.34-4.81,1.44-10.78,.4-2.19,.74-3.4,1.42-4.73,1.03-2.04,2.38-3.44,3.36-4.29,1.2,.16,3.09,.41,5.42,.75,4.86,.69,5.4,.84,7.84,1.12,3.63,.42,5.45,.62,7.66,.56,2.13-.06,2.81-.27,4.44-.05,2.64,.35,4.49,1.39,5.32,1.83,4.04,2.14,5.81,1.71,12.64,4.01,6.16,2.08,6.59,3.06,12.88,5.6,8.65,3.49,15.88,4.89,21.87,6.05,9.8,1.89,9.48,.81,16.6,2.54,8.33,2.03,8.19,3.37,19.05,6.72,7.56,2.34,7.75,1.72,19.42,5.04,9.08,2.58,8.73,2.89,12.88,3.73,9.3,1.89,10.22,.2,18.67,1.87,9.35,1.85,9.73,4.21,16.99,4.67,5.79,.36,10.16-.85,15.04-2.2,11.37-3.15,12.3-6.51,21-7.88,3.64-.57,2.06,.24,15.5,.45,12.09,.19,14.28-.45,21.47,.42,7.53,.92,6.57,1.8,12.51,2.3,7.51,.63,9.02-.78,22.03-1.64,5.85-.39,9.95-.66,15.69-.41,14.47,.62,16.99,.93,16.99,.93,2.68,.33,5.29,.75,8.52-.25,2.56-.79,3.02-1.69,6.54-3.39,4.27-2.06,4.77-1.29,8.85-3.08,5.51-2.42,5.17-4.06,9.71-5.6,3.26-1.1,3.22-.19,8.96-1.31,2.76-.54,5.58-1.42,11.2-3.17,4.01-1.25,4.89-1.62,7.84-2.43,4-1.09,5.14-1.16,7.1-1.68,2.14-.58,12.34-3.32,15.87-10.83,1.69-3.59,.78-5.98,3.61-9.16,2.17-2.43,3.4-1.83,4.42-3.54,2.18-3.66-2.87-7.55-6.35-19.05-1.66-5.49-1.38-7.49-3.73-12.32-1.24-2.55-2.05-3.48-3.36-6.72-1.58-3.91-2.29-7.2-2.61-8.96-.38-2.1-.46-3.36-.75-7.84-.73-11.27-.74-10.41-.75-11.2-.11-8.18,1.42-14.59,2.24-17.93,1.39-5.65,3.06-9.69,4.48-13.07,.74-1.76,3.59-8.44,9.34-17.55,6.45-10.23,9.78-15.39,15.31-17.93,4.29-1.96,9.08-2.47,10.46-2.61,2.03-.21,5.49-.15,12.32,0,5.63,.12,7.14,.23,9.71-.37,2.62-.61,3.81-1.37,7.06-2.84,5-2.26,6.28-2.32,12.36-4.63,2.46-.93,8.68-3.36,14.57-6.35,11.94-6.06,16.42-11.31,26.14-15.69,4.35-1.96,7.96-2.93,9.71-3.36,2.45-.6,4.52-.93,5.98-1.12,5.78-3.03,10.68-4.66,14.19-5.6,4.2-1.13,5.46-1,10.83-2.61,3.25-.98,4.71-1.6,7.47-1.87,3.38-.33,4.11,.32,7.56,.28,4.33-.05,4.75-1.14,10.36-1.96,5.74-.84,5.98,.15,9.83-.7,1.31-.29,3.36-.86,10.27-4.95,3.34-1.97,7.46-4.41,12.95-8.36,5.32-3.82,7.1-5.6,10.71-7.1,.55-.23,3.08-1.26,6.31-2.47,1.94-.73,3.25-1.2,3.69-1.36,3.21-1.18,11.22-4.71,18.63-11.24,2.53-2.23,3.11-3.15,5.6-4.86,3.35-2.29,7.13-3.92,7.56-4.11,1.43-.61,1.57-.58,2.71-1.12,3.13-1.47,5.16-3.14,5.79-3.64,1.86-1.47,5.33-3.08,12.19-6.25,9.22-4.25,15.72-7.13,24.61-9.97,3.21-1.02,5.47-1.63,8.27-2.03,3.17-.45,5.81-.47,14.1,.08,7.77,.51,11.65,.77,13.44,1.12,6.19,1.2,7.77,2.74,14.85,5.32,12.63,4.62,13.7,1.74,21.57,5.6,8.49,4.17,13.73,10.56,15.29,12.51,3.83,4.77,2.97,5.69,7.96,12.14,5.13,6.63,9.35,9.95,8.43,11.53-.57,.98-2.39,.05-7.03,.51-3.61,.36-7.19,.65-9.52,3.08-2.49,2.59-1.32,4.54-3.92,7Zm-913.74,299.25c-1.18-3.42-3.09-5.9-4.53-7.47-.55-1.72-1.4-3.63-2.61-3.73-1.14-.1-1.58,1.48-4.33,4.95-3.8,4.79-7,6.86-9.07,7.94-.02,0,.02-.01,0,0-5.03,3.43-8.94,6.25-10.66,7.5-.4,.29-.59,.44-.74,.54-5.65,4.04-11.22,5.44-12.92,5.95-9.91,2.98-8.73,11.9-22.41,18.3-2.59,1.21-3.21,1.16-9.62,3.95-7.22,3.14-10.44,4.95-12.41,6.13-3.2,1.91-5.17,3.09-7.47,5.23-3.77,3.51-3.23,4.78-6.35,8.22-4.23,4.66-6.53,3.75-16.36,10.79-3.89,2.79-3.44,2.87-5.96,4.42-4.78,2.95-6.56,2.77-13.16,6.07-3.49,1.74-6.18,3.38-8.59,4.86-2.85,1.74-3.66,2.37-7.47,4.86-5.05,3.3-6.13,3.83-11.59,7.3-8.79,5.58-7.74,5.32-11.18,7.32-9.61,5.59-10.82,3.58-20.33,9.07-.26,.15-4.51,2.9-13,8.39-.74,.48-5,3.24-7.33,4.75-5.97,3.87-8.95,5.8-9.69,6.28-8.96,5.83-13.44,8.75-17.44,11.9-5.58,4.39-5.1,4.85-18.29,16.38-5.02,4.39-4.43,3.74-5.59,4.85-2.92,2.79-5.25,5.81-5.25,5.81-2.46,3.18-7.81,8.75-18.49,19.9-6.36,6.63-7.46,7.56-8.96,8.59-4.11,2.83-6.11,2.98-8.59,5.98-2.45,2.96-1.53,4.06-4.26,8.66-3.41,5.74-6.18,6.26-6.18,8.71,0,3.59,5.92,5.43,13.39,9.47,14.14,7.65,11.57,11.13,28.05,21.34,3.28,2.03,8.55,5.09,13.44,10.83,1.67,1.96,3.81,4.83,4.11,5.23,4.44,5.96,4.46,7.08,7.1,10.08,3.91,4.44,4.5,2.71,8.22,7.1,2.58,3.05,3.24,4.99,7.19,9.3,1.18,1.28,1.12,1.11,2.75,2.88,3.79,4.11,5.04,5.97,8.77,9,1.3,1.06,2.12,1.58,2.63,1.96,2.74,2.02,2.72,4.2,4.97,6.93,1.37,1.65,2.69,2.44,5.3,3.98,1.98,1.17,6.32,3.74,11.74,4.26,6.51,.62,11.61-2,14.2-3.37,8.63-4.58,7.57-9.15,18.26-17.36,5.79-4.45,6.43-3.36,11.58-7.84,4.69-4.08,6.29-6.84,11.58-9.71,2.58-1.4,2.81-1.07,6.72-3.08,1.28-.65,6.15-3.15,9.78-6.06,4.51-3.62,5.87-6.9,8.91-11.35,.72-1.06,8.44-12.11,20.8-19.56,5.86-3.53,7.88-3.31,16.62-8.72,2.93-1.81,3.58-2.38,9.11-5.83,5.87-3.67,6.68-3.99,11.03-6.84,4.11-2.69,7.45-5.05,8.66-5.92,.85-.61,1.44-1.04,1.61-1.16,8.5-6.15,18.47-7.38,26.01-15.04,3.66-3.72,8.93-11.18,13.36-14.79,.06-.05,.42-.34,.89-.73,3.01-2.49,5.23-4.45,7.08-6.17,2.6-2.41,5.98-5.49,9.18-8.89,5.77-6.13,5.02-6.94,9.69-12.05,3.91-4.28,8.33-7.72,17.17-14.61,1.96-1.52,5.36-4.13,9.09-8.44,1.55-1.79,2.59-3.22,3.61-4.63,4.61-6.37,4.73-8.31,8.94-14.12,.9-1.24,2.68-3.7,5.36-6.65,3.79-4.19,4.83-4.37,6.75-7.23,1.32-1.96,3.35-5.07,3.47-9.38,.1-3.55-1.13-6.22-1.73-7.46-1.81-3.79-4.13-5.34-8.08-8.86-4.04-3.6-1.49-1.86-12.46-12.77-4.95-4.92-7.42-7.38-9.71-9.34-4.56-3.91-5.36-3.96-10.9-8.58-4.1-3.43-3.35-3.13-9.64-8.6-5.29-4.59-11.14-9.41-11.14-9.41,0,0-1.53-7.03-2.02-13.38-.71-9.3,1.28-11.32-.62-16.79Zm151.63,146.05c-2.12-2.57-4.38-5.01-6.5-7.58-1.71-2.06-2.2-2.72-3.3-3.59-2.68-2.12-4.88-2.3-8.17-3.42-2.03-.69-4.46-2.08-9.34-4.86-5.81-3.31-8.72-4.96-10.08-6.72-1.99-2.55-2.1-4.33-4.76-6.36-1.87-1.43-3.59-1.63-5.16-2.41-5.94-2.95-11.03-6-11.84-6.48-2.36-1.42-6.11-3.44-13.57-7.54,0,0-3.69-2.02-9.77-2.56-.82-.07-2.28-.15-2.83,.67-.5,.75,.08,1.74,.24,2.71,.48,2.75-2.41,5.42-3.71,6.67-5.85,5.62-12.85,14.39-16.56,20.16-2.72,4.22-1.9,4.08-4.48,7.84-4.26,6.2-8.61,9.69-12.7,13.07-12.87,10.66-19.31,15.98-24.8,22.4-4.57,5.34-4.82,6.78-10.31,12.7-5.54,5.98-6.12,5.41-13.07,12.32-9.31,9.26-10.7,12.69-17.93,17.18-2.66,1.65-2.6,1.27-8.22,4.11-14.55,7.36-23.91,12.24-28.9,21.7-.63,1.2-1.46,3.87-3.12,9.2-2.9,9.33-4.81,15.45-5.41,23.26-.47,6.02,.32,6.8-.44,14.59-.77,7.9-1.92,10.61-3.58,12.66-1.92,2.36-3.97,3.16-8.96,5.23-11.75,4.86-17.69,7.33-20.91,9.34-2.2,1.37-1.89,1.48-11.95,11.2-15.03,14.53-17.77,16.28-21.66,17.18-6.65,1.53-12.95-.27-14.57-.75-2.92-.87-6.34-2.58-13.07-5.98-7.65-3.86-8.95-4.82-10.08-4.11-2.63,1.66-1.48,10.54,2.73,17.37,4.43,7.2,8.18,5.5,15.94,14.37,5.23,5.97,4.76,8.14,11.2,14.94,1.64,1.73,1.51,1.42,8.96,8.22,10.94,9.98,13.02,12.28,12.74,15.21-.13,1.36-.67,1.83-4.55,6.84-5.59,7.2-5.62,7.7-7.91,10.52-4.85,5.94-11.5,12.06-26.42,23.83-8.67,6.84-13,10.26-19.07,14.59-16.82,12-26.48,18.76-40.46,22.45-5.85,1.54-5.84,.8-11.8,2.56-10.75,3.17-17.95,7.7-27.08,13.54-5.4,3.45-14.16,9.06-24.37,17.93-5.8,5.04-8.42,7.96-14.39,11.76-6.72,4.27-12.91,6.62-17.08,7.94,.31,18.24,.62,36.48,.93,54.71,4.37,3.27,12.22,8.21,23.12,10.37,9.12,1.8,16.43,.88,19.23,.44,3.53-.56,7.81-1.6,16.46-5.39,16.59-7.28,16.15-10.16,27.45-14.57,12.01-4.68,11.75-1.12,26.99-6.6,9.26-3.33,13.02-5.96,20.25-5.44,3.87,.28,7.46,1.62,14.64,4.29,4.11,1.53,9.52,3.55,15.99,7.19,6.34,3.57,6.85,4.85,17.58,11.71,9.45,6.04,11.85,6.83,14.54,6.4,1.76-.28,4.68-2.68,10.46-7.47,8.2-6.8,7.61-7.28,11.58-9.71,2.86-1.75,4.34-2.22,5.79-4.29,1.61-2.31,1.85-4.71,2.24-8.68,.38-3.81,.17-6.96-.08-9.02-.53-4.54-1.68-8.03-2.4-9.93-1.34-3.55-2.48-5.08-4.06-8.03-1.14-2.12-4.32-8.06-5.6-14.57-.45-2.29-2.11-11.39,2.24-20.54,1.1-2.3,3.36-4.93,7.84-10.08,13.25-15.24,18.78-17.95,20.82-18.86,1.81-.81,4.01-1.47,8.4-2.8,1.85-.56,7.59-2.25,15.97-3.92,7.87-1.57,14.56-2.9,22.97-3.36,2.41-.13,6.02-.25,10.96-1.23,3.69-.73,3.61-1.05,7.93-2.05,7.25-1.68,8.96-1.14,14.99-2.74,3.28-.87,2.42-.94,7.86-2.66,10.25-3.25,10.76-2.2,15.97-4.48,5.81-2.55,6.26-4.33,10.08-4.48,3.14-.13,3.88,1.03,8.4,1.12,.98,.02,4.35,.03,8.4-1.12,4.39-1.25,4.64-2.46,10.36-4.48,4.28-1.51,4.35-.91,6.02-1.89,3.96-2.31,5.3-6.67,6.92-11.97,1.26-4.09,2.96-9.63,2.18-16.68-.6-5.42-2.1-6.68-1.12-10.36,.95-3.58,2.93-4.49,3.33-8.66,.26-2.67-.28-5.09-.53-6.18-.74-3.24-1.62-3.74-1.96-5.88-.45-2.77,.6-4.56,1.96-8.12,2.95-7.71,1.22-7.6,3.64-12.88,2.5-5.46,6.52-10.35,7-10.92,2.54-3.05,4.76-4.98,4.76-8.12,0-1.88-.79-2.98,0-4.2,.97-1.51,2.7-.68,5.04-2.53,.27-.21,1.88-1.53,2.67-3.78,.46-1.32,.41-2.38,.42-2.94,.06-3.27,2.6-5.65,4.76-8.54,4.35-5.82,2.27-7.14,6.72-13.3,2.92-4.05,3.31-2.78,6.51-7.12,1.24-1.68,4.5-6.37,6.66-13.33,1.22-3.94,.51-3.51,1.78-7.37,1.74-5.28,3.25-6.65,4.94-11.96,.3-.93,.49-1.65,1.66-7.12,1.68-7.84,2.51-11.76,2.79-13.42,1.01-6.14,1.01-12.93,1.01-26.51,0-4.11-.06-6.78,1.52-9.84,1.6-3.09,3.5-3.92,4.51-7.53,.25-.9,.93-3.44,.28-6.44-.7-3.22-2.24-3.77-2.94-7.42-.32-1.66-.61-3.15,0-4.78,1.38-3.72,6.21-4.86,7.35-5.13,3.45-.82,5.16,.1,8.94,.43,1.06,.09,9.25,.76,16.97-2.94,2.33-1.12,5.99-3.28,9.54-7.52-20.59-10.28-28.11-15.65-30.58-18.65Zm778.36-393.2c-7.1,.53-9.8-.79-13.93,.87-3.72,1.49-5.44,4.13-10.03,11.19-13.03,20.03-13.14,20.2-13.5,21.25-2.1,6.07,.13,4.41-1.46,25.23-.86,11.3-1.97,17.68-1.23,27.36,.23,2.93,.79,8.36,.82,8.66,.79,7.62,1.19,11.43,1.81,14.12,1.66,7.23,3.08,7.02,3.64,12.6,.38,3.81-.13,5.37,1.2,7.41,1.76,2.69,4.17,2.29,8.32,4.35,5,2.48,4.22,4.39,12.88,11.76,2.69,2.29,2.24,1.66,7.84,6.16,4.48,3.6,5.59,4.67,10.08,8.4,11.27,9.37,12.31,9.34,15.13,12.88,2.57,3.23,3.77,5.89,6.16,11.2,2.96,6.57,6.55,14.52,7.65,24.46,1.01,9.06-1.25,8.93-1.49,24.28-.04,2.53-.11,11.07,1.12,21.29,.55,4.57,1.57,11.17,6.16,28.01,5.84,21.39,7.25,21.89,11.2,38.09,2.44,10.01,4.12,17,5.04,26.89,1.19,12.84-.49,13.33,1.12,21.29,2.31,11.39,6.22,12.63,12.32,28.57,4.69,12.23,2.12,10.81,6.72,22.41,3.3,8.3,6.08,12.73,12.92,28.91,2.62,6.19,3.68,9.02,3.89,13.11,.3,5.95-1.58,7.55-3.36,17.37-.93,5.13-1.18,9.21-1.68,17.37-.46,7.47-.17,7.92-.56,17.37-.63,15.26-1.4,14.24-1.12,20.73,.33,7.77,1.39,8.19,2.24,20.17,.4,5.66,.52,10.47,.56,12.88,.18,10.97-.55,12.19,0,17.93,.65,6.79,1.83,6.66,3.62,15.79,1.36,6.98,2.72,13.88,1.98,22.31-.95,10.97-4.29,11.28-3.92,20.73,.12,2.92,.59,6.86-.56,12.32-.63,2.97-1.52,5.38-2.24,7.28-1.81,4.81-3.63,8.03-5.04,10.64,0,0-3.29,6.08-7.78,15.92-2.41,5.27-3.33,8.12-6.78,17.69-11.52,32.02-12.19,30.83-13.35,37.85-1.8,10.91-.15,13.67-3.68,18.81-4.83,7.04-10.55,5.73-16.69,13.33-3.79,4.69-4.92,9.49-7.18,19.08-2.8,11.88-1.15,15.44-5.04,24.65-2.59,6.13-3.65,5.33-5.04,10.08-2.43,8.32,.73,11.07-.72,21.35-.28,1.97-1.63,6.33-4.33,15.06-1.96,6.32-2.51,7.67-5.04,15.69-2.8,8.87-4.2,13.35-4.48,15.69-1.11,9.28,.99,16.36,1.68,18.49,1.34,4.13,3.09,7.34,4.48,9.52,31.18,1.49,62.37,2.99,93.55,4.48,2.95-5.7,5.89-11.4,8.84-17.11,1.01-4.64,2.18-11.49,2.37-19.87,.1-4.34-.11-7.24-.56-14.01-1-15.09-1.49-22.63-1.68-26.89-.89-20.41,.74-21.61-1.68-29.13-2.87-8.89-5.62-8.67-6.72-16.25-1.53-10.52,2.45-20.13,3.8-23.08,.88-1.92,2.79-5.24,6.47-11.96,2.12-3.89,3.28-5.95,4.71-8.61,.21-.39,1.25-2.33,1.79-3.37,3.06-5.87,5.03-11.29,5.64-12.92,1.43-3.81,4.06-8.87,9.32-19,10.48-20.16,13.17-23.26,21.49-39.82,4.47-8.9,6.75-13.47,8.96-19.61,3.29-9.13,4.99-17.09,6.72-25.21,2.79-13.08,2.26-15.05,5.04-23.53,1.52-4.62,2.61-6.87,3.92-12.32,1.27-5.29,1.22-7.21,2.48-14.99,1.69-10.39,2.39-10.69,3.12-16.38,1.08-8.44,.42-14.69,0-19.61-1.74-20.47,.63-19.32-1.12-45.38-1.33-19.82-1.99-29.72-4.48-40.9-2.43-10.92-4.96-16.74-4.04-25.65,.21-2.03,.82-6.38-.44-11.89-1.02-4.46-2.54-6.48-4.12-9.88-5-10.76-.58-13.71-4.84-24.3-3.23-8.01-6.27-7.58-8.4-15.69-1.02-3.86-.41-4.26-1.68-12.88-1.31-8.85-2.04-9.04-2.8-15.13-1.08-8.66,.19-10.07-.56-18.49-.41-4.64-1.4-8.76-3.36-16.81-3.37-13.85-5.06-20.77-7.84-27.45-1.82-4.36-5.36-12.73-12.04-22.13-4.96-6.97-7.01-8-8.97-13.38-2.39-6.56-2.73-14.31-1.95-18.84,.09-.5,.5-2.78,1.12-6.44,.23-1.35,.65-3.84,.84-5.04,.69-4.44,.72-7.76,.84-11.48,.31-9.69,.79-8.22,.84-14.57,.06-7.93,.09-11.89-1.4-17.09-.74-2.56-1.38-3.82-1.96-7-.94-5.18-.03-6.31-.56-10.08-.11-.75-1.47-9.65-8.12-14.57-3.43-2.54-4.86-1.49-7.92-4.44-2.5-2.4-1.71-3.25-5.24-8.17-3.15-4.4-6.29-7.22-7-7.84-2.06-1.82-2.4-1.77-4.48-3.64-3.07-2.76-5.02-5.3-5.95-6.52-6.29-8.28-4.1-11.06-9.74-17.56-1.98-2.29-3.81-3.74-3.36-5.32,.66-2.36,5.91-2.78,6.16-2.8,3.03-.22,3.49,.88,7.19,.93,3.78,.06,3.7-1.09,6.26-.65,3.44,.59,3.98,2.73,7.48,2.82,.68,.02,.76-.06,3.55-.15,0,0,1.85-.06,3.53-.07,4.64-.04,5.49,.3,12.52,.58,1.82,.07,2.63,.09,3.83,.47,2.61,.83,4.2,2.51,4.67,2.99,4.21,4.25,16.22,9.93,22.6,12.23,6.52,2.35,11.53,2.74,19.51,3.36,10.01,.78,17.38-.02,24.93-.84,9.58-1.04,14.47-1.61,19.42-4.01,1.27-.61,7.47-3.72,13.18-10.38,4.39-5.12,3.49-6.5,9.98-16.96,5.12-8.26,6.17-8.18,8.73-13.56,2.88-6.07,3.93-11.18,4.76-15.41,1.23-6.23,1.92-13.27,1.54-23.25-.28-7.24-.76-21.02-6.16-38.65-4.44-14.49-9.76-31.2-24.09-46.5-8.48-9.06-15.52-12.52-18.31-13.7-.31-.13-.64-.26-.74-.3-2.93-1.18-9.04-3.41-16.97-4.43-2.73-.35-5.06-.48-9.47-.72-.87-.05-1.06-.05-5.05-.26-6.01-.31-7.12-.37-8.9-.83-1.86-.48-3.34-.86-4.96-1.98-.97-.67-1.46-1.26-2.96-2.21-.13-.08-1.52-.96-2.92-1.57-2.22-.98-4.35-1.14-8.51-1.43-3.27-.23-4.93-.33-6.53,.05-2.25,.54-3.96,1.55-4.68,1.99-.46,.28-1.59,.99-3.25,2.48-2.7,2.44-3.36,3.86-4.26,4.65-2.67,2.34-8.23-.13-23.91-6.66,0,0-9.44-3.76-17.93-3.5-.77,.02-2.14,.13-3.64,.84-.34,.16-3.01,1.47-4.2,4.06-2.11,4.6,2.43,8.91,.14,11.76-.78,.97-1.93,1.26-3.08,1.54-3.66,.9-5.74-1.44-8.12-.14-1.51,.82-.96,1.91-2.38,2.52-2.44,1.04-4.8-1.85-7.28-.84-1.04,.42-1.64,1.34-1.96,1.96-1,.81-2.68,1.92-4.9,2.24-3.88,.55-5.35-2.09-10.36-2.24-1.88-.06-4.87-.15-7.98,1.4-2.12,1.06-2.44,1.94-5.88,3.78-2.54,1.36-2.98,1.2-3.92,2.1-.56,.53-1.94,2.04-2.38,6.86-.54,5.91,.9,10.52,1.12,11.2,1.81,5.58,3.56,5.22,5.32,10.5,1.02,3.05,2.54,7.61,.56,12.04-1.68,3.77-4.9,5.91-7.18,6.71-2.95,1.05-7.54,2.38-13.27,2.81Z" style="fill:#22ff51;"/><path id="uuid-46540510-311c-4dd9-b35a-d07d03ad3868" d="M1224.19,2013.04c-8.07,3.87-16.74,6.32-25.02,9.71-10.07,4.12-10.98,4.43-12.7,4.86-5.92,1.45-8.46,.99-16.43,1.49-5.01,.32-12.18,1.46-26.52,3.73-10.55,1.68-13.58,2.36-16.06,2.99-5.14,1.3-4.38,1.45-12.7,3.73-6.18,1.7-8.71,2.19-12.7,4.11-6.12,2.94-7.47,5.28-7.84,5.98-2.04,3.83-.98,7.8-.75,8.59,1.14,3.91,4,6.01,5.98,7.47,2.55,1.87,4.94,2.62,9.71,4.11,3.34,1.04,6.11,1.91,9.71,2.24,4.36,.4,6.68-.27,10.83-.75,1.45-.17,9.76-1.07,18.3,.37,6.12,1.04,10.42,2.96,17.18,5.98,8.99,4.01,8.09,4.92,14.19,7.1,9.17,3.28,11.18,1.23,17.93,4.86,4.04,2.17,3.49,2.99,10.46,7.47,3.51,2.26,3.78,2.13,11.2,6.35,7.49,4.25,8.22,4.95,14.19,8.22,6.01,3.28,9.06,4.94,11.58,5.6,5.26,1.39,6.33,.17,13.82,1.49,2.94,.52,5.69,1.34,11.2,2.99,4.35,1.3,8.92,2.66,14.57,4.86,9.73,3.77,8.8,4.62,14.94,6.35,5.11,1.44,12.51,2.75,13.82,2.99,2.38,.42,4.25,.71,7.1,1.49,3.99,1.11,4.24,1.64,7.1,2.24,4.16,.87,4.75-.03,8.59,.75,3.46,.7,3.17,1.48,7.84,2.99,1.72,.55,4.65,1.12,10.46,2.24,4.45,.86,4.78,.87,7.84,1.49,4.26,.87,6.39,1.3,8.22,1.87,4.22,1.3,4.33,1.97,8.22,2.99,1.47,.38,3.74,.97,6.72,1.12,3.89,.2,3.98-.58,7.1-.37,3.24,.22,5.71,1.23,9.52,2.8,3.57,1.47,3.68,1.94,6.16,2.61,2.25,.61,4.12,.75,6.72,.93,4.39,.31,4.27-.15,6.91,.19,1.71,.22,3.94,.95,8.4,2.43,3.08,1.02,4.66,1.54,6.91,2.43,3.46,1.37,3.66,1.68,6.35,2.61,2.95,1.02,4.42,1.52,6.54,1.68,2.68,.2,3.16-.39,5.23,.19,1,.28,.96,.43,4.29,1.87,2.72,1.17,3.21,1.26,3.55,1.31,1.86,.26,2.31-.39,4.29-.37,1.7,.02,2.9,.51,4.86,1.31,2.02,.83,2.54,1.37,5.23,2.8,0,0,2.04,1.09,4.67,2.24,4.39,1.92,8.22,2.53,9.71,2.8,8.86,1.6,16.85,5.87,40.15,11.95,14.2,3.71,13.74,2.78,22.41,5.42,3.05,.93,6.2,1.98,10.83,2.43,2.68,.26,3.03,.04,10.64,.37,4.18,.19,6.3,.28,7.84,.56,2.42,.43,3.9,.96,7.66,1.49,2.15,.31,3.31,.37,4.67,.19,.7-.1,3.35-.46,4.48-1.49,2.68-2.45-1.68-9.96-4.67-19.42-2.13-6.74-2.72-12.34-3.92-23.53-1.11-10.39-1.14-18.4-1.12-21.29,.03-5.45,.39-10.36,1.12-20.17,.76-10.3,1.01-10.83,1.68-20.17,.32-4.5,.78-11.64,1.12-20.17,.58-14.66,.02-13.93,.56-21.29,.39-5.28,1.57-12.11,3.92-25.77,2.78-16.1,3.68-19,6.16-22.41,2.92-4.01,4.75-4.24,8.4-9.52,2.76-4,4.63-8.09,6.72-14.57,3.22-9.97,3.26-14.12,5.6-24.65,2.43-10.94,3.96-17.83,7.84-26.33,4.61-10.1,6.9-10.12,11.76-21.85,1.63-3.92,2.82-7.42,6.16-15.13,3.1-7.14,4.5-9.75,6.16-12.32,.97-1.5,1.05-1.49,6.72-8.96,5.94-7.83,5.86-7.87,7.28-9.52,4.38-5.1,5.08-4.73,8.68-9.06,1.91-2.29,1.32-1.93,7.56-11.11,5.75-8.45,7.13-10.06,8.96-11.76,2.96-2.74,5.3-4.06,5.04-4.58-.5-1-9.88,2.75-11.39,3.36-58.52,23.54-104.2,44.72-104.2,44.72-27.9,12.94-20.11,8-65.73,28.38-40.3,18.01-41.9,19.86-67.97,30.62-43.7,18.05-53.18,18.62-70.21,26.14-.15,.06-16.99,7.5-25.3,8.03-.85,.05-3.12,.13-6.02,.98-2.76,.81-5.12,2.03-7.42,3.22-2.14,1.11-2.95,1.22-3.78,2.1-.59,.62-1.39,1.72-1.95,4.47-.66,3.22-.17,4.63-.24,8.55-.05,2.65-.27,1.95-.65,7.1-.17,2.28-.26,4.55-.45,9.08-.18,4.38-.18,5.09-.4,6.78-.7,5.28-1.85,6.69-2.32,7.2-1.36,1.48-3.01,2.04-4.21,2.44-1.8,.61-3.54,.65-6.95,.72-3.61,.07-4.4-.19-5.64,.57-1.52,.91-1.23,1.83-2.8,2.52-1.39,.61-2.03,.06-4.48,.7-1.24,.32-1.86,.48-2.38,.98-1.1,1.06-.52,2.18-1.34,3.97-.4,.87-1.34,1.71-3.23,3.37-2.03,1.8-3.05,2.7-3.97,3.02-1.18,.42-2.52,.51-5.19,.7-1.22,.08-1.85,.08-2.52,.56-.79,.57-.85,1.26-1.57,2.53-.69,1.21-1.42,1.97-2.07,2.65-1.58,1.65-3.21,2.51-4.4,3.12-1.37,.7-2.55,1.31-4.28,1.6-2.39,.4-4.29-.09-5.39-.38-1.35-.36-3.73-.99-5.68-2.94-.78-.78-.47-.74-3.38-5.39-1.39-2.21-1.92-2.96-2.97-3.57-1.39-.8-2.87-.89-3.45-.92-1.81-.09-2.1,.46-3.36,.36-1.7-.13-2.84-1.27-4.89-3.38-1.92-1.97-3.12-3.81-3.68-4.73-.92-1.51-1.65-3.13-3.05-6.32-1.62-3.67-1.67-4.12-2.52-5.32-.87-1.23-2-2.83-4.06-3.78-2.33-1.08-4.58-.76-6.72-.42-2.99,.47-5.13,1.5-5.6,1.73Z" style="fill:#29abe2;"/></svg>