<?xml version="1.0" encoding="UTF-8"?><svg id="Layers" xmlns="http://www.w3.org/2000/svg" viewBox="0 0 1024 1646"><path id="FigureD" d="M619.07,1446.64c.16,9.25,.57,9.86,0,12.79-1.06,5.3-2.86,5.42-5.02,12.18-1.71,5.46-2.04,9.9-2.2,12.79-.37,5.58,.29,8.59,1.1,16.09,0,0,.82,7.21,1.47,18.21,.69,12.02,.45,22.61,.2,32.83-.24,10.06-.53,11.45,0,15.8,.86,6.92,2.33,9.16,1.67,14.99-.45,3.75-1.27,4.85-1.39,9.41-.12,3.95,.49,5.17-.57,7.21-.24,.49-.73,1.3-5.55,5.3-3.47,2.85-4.25,3.26-4.45,4.44-.2,1.22,.41,2.28,3.06,5.54,4.82,5.95,5.8,6.23,7.23,8.88,.82,1.51,2.25,4.2,2.2,7.78,0,.98,0,6.03-3.31,8.88-1.76,1.47-3.35,1.47-11.15,1.67-12.58,.29-13.84,.53-17.8,0-3.51-.49-5.55-1.1-9.43-2.24-4.9-1.43-5.63-2.12-6.12-2.77-1.72-2.4,.37-4.48,0-9.98-.24-3.54-1.35-6.07-3.35-10.55-1.55-3.54-2.45-5.58-4.45-7.78-2.2-2.44-2.94-2-6.12-4.97-1.84-1.79-4.04-3.87-5.55-7.21-1.14-2.65-1.39-4.89-1.67-7.25-.33-3.01-.08-4.48,0-7.74,.2-6.44-.61-6.31-.53-12.79,.04-5.87,.69-6.07,.53-11.08-.12-5.3-.86-5.09-1.1-9.98-.24-5.09,.33-9.65,.94-12.99,.24-1.47,.53-2.73,.73-3.67,.9-4.15,1.43-4.77,1.67-7.54,0-.61,.04-1.26,.04-2-.04-2.57-.57-3.87-.61-8.23,0-1.67,.08-2.2,.29-5.21,.08-.94,.2-2.12,.29-3.67,.33-4.72,.49-7.09,.53-9.41,.08-2.65,.04-4.11-.29-10.26,0-.49-.04-.94-.04-1.47-.08-1.14-.12-2.4-.2-3.83-.37-6.84-.53-10.31-.57-11.65-.04-2.08-.08-3.91-.08-5.54-.04-3.75,.12-6.56,.65-9.98,.78-4.81,1.02-4.32,2.2-9.45,1.1-4.6,.45-5.17,1.14-16.09,.49-7.7,.82-7.29,1.1-13.32,.29-6.23,.49-10.1,0-14.95-.98-9.82-3.39-10.47-4.45-21.1-.33-3.34-1.02-6.64-1.1-9.98-.16-4.24,.2-6.23-1.14-7.21-1.72-1.3-5.14,.08-7.23,1.63-2.45,1.91-2.45,3.67-4.98,7.78-1.76,2.81-5.39,7.78-6.7,7.21-1.14-.49,.69-4.81,.69-12.22,0-.45,0-.98-.04-1.47-.04-.41-.04-.86-.08-1.34v-.49c0-.08,0-.2-.04-.29-.04-.29-.08-.61-.08-.9-.12-1.55-.37-2.97-.61-4.24,0-.08-.04-.16-.04-.24-.04-.29-.08-.57-.16-.81-.04-.24-.08-.49-.16-.73-.33-1.34-.65-2.69-1.1-4.07,0-.04-.04-.08-.04-.12-.45-1.43-1.06-2.89-1.92-4.4-1.84-3.22-4-5.05-7.51-8.07-4.12-3.54-7.64-5.62-8.45-6.35-.16-.12-.2-.24-.16-.29,.04-.08,.2-.08,.49,.04,.2,.08,.49,.2,.86,.37,1.02,.49,2.61,1.18,4.74,1.79,.45,.12,1.18,.33,2.49,.57,.08,.04,.2,.04,.33,.08,1.06,.2,2.16,.37,3.68,.53,.29,.04,.61,.04,.94,.08,.29,.04,.61,.08,.94,.12,6.33,.65,11.23,.69,12.66,.69,1.22,0,3.84-.04,7.35-.24,.49-.04,1.02-.08,1.55-.12,.04,.04,.12,0,.16,0,.45-.04,.9-.08,1.35-.12,.49-.04,.98-.08,1.47-.12,5.14-.45,7.68-.69,10.04-1.47,.29-.08,.61-.2,.98-.33,2.45-.81,6.21-2.32,9.76-5.78,.78-.77,2-1.96,3.14-3.58,.04-.04,.08-.12,.12-.16,1.1-1.59,2.12-3.62,2.65-6.03,.04-.16,.08-.33,.08-.49,0-.2,.04-.37,.04-.57,.08-.49,.08-1.1,.12-1.79,.04-.69,.04-1.51,.08-2.48,0-.94,.04-2,.04-3.18,0-1.34,.04-2.53,.04-3.58-.04-.73-.04-1.51-.04-2.36-.04-2.2-.04-4.15-.12-5.91-.08-3.22-.24-5.74-.61-8.15-.41-2.73-1.1-7.37-3.43-12.06-.08-.16-.12-.33-.2-.49-.12-.28-.24-.49-.33-.65-.12-.16-.2-.33-.29-.49-1.23-2.2-2.86-4.36-5.02-6.27-3.31-2.93-6.9-4.4-8.37-5.01-3.76-1.51-6.86-1.91-10.45-2.36-1.84-.2-4.21-.45-11.96-.53-9.55-.12-15.31-.2-20.82,.53-1.27,.2-2.94,.45-6.66,.94-.04,.04-.12,.04-.16,.04-3.43,.41-4.29,.53-4.78,.61-.08,0-.12,.04-.2,.04s-.16,.04-.29,.08c-.49,.16-.94,.33-1.35,.53-1.88,.81-2.69,1.83-5.59,3.14-.24,.12-.49,.2-.73,.33-2.29,.94-3.39,1.43-4.33,1.26-.16-.04-.33-.08-.45-.16-.32-.14-.58-.34-.83-.58-.62-.49-1.17-1.15-1.74-2.15-.04-.04-.08-.08-.08-.12-.82-1.39-1.92-3.26-3.84-5.46-.86-.98-2.08-2.12-4.57-4.44-3.06-2.81-4.57-4.24-5.55-4.85-3.39-2.12-6.74-2.61-10.74-3.18-3.35-.49-5.96-.49-6.61-.49-8.13,.12-14.58,2.85-19.93,5.17-6.98,3.05-7.72,4.52-12.94,5.62-3.02,.65-4.21,.45-7.51,1.55-1.27,.41-4.98,1.71-9.31,4.64-2.94,2-2.45,2.24-5.43,4.15-3.35,2.2-6.33,3.38-7.92,4.03-.94,.37-3.27,1.26-6.37,2.08-4.29,1.1-4.53,.57-8.37,1.51-1.88,.49-3.47,.98-4.74,1.43-.04,0-.12,.04-.16,.04-1.51,.53-2.57,.86-3.14,.69-.16-.04-.29-.08-.37-.2-.24-.37,0-.9,.2-1.43,.86-2.32-.53-.53,1.47-7.09,1.59-5.42,2.49-6.4,2.57-9.25,.08-2.69-.94-2.57-1.1-6.11-.12-2.48,.29-3.3,.33-6.44,.04-2.57-.2-3.18-.33-5.74-.12-2.57-.37-7.37,1.1-12.79,.69-2.48,1.55-4.44,2.53-6.64,2.04-4.64,2.86-4.97,3.59-7.78,.73-2.89-.08-2.73,.78-7.62,.57-3.34,.86-5.01,1.71-6.52,.69-1.22,1.43-2.04,1.67-3.63,.16-1.18-.08-1.79-.29-3.34-.29-2.2-.12-3.87,0-5.54,.2-2.04,.37-4.03,1.39-6.35,.73-1.63,1.51-2.69,2.25-3.63,1.84-2.44,3.43-3.63,5.27-5.25,2.9-2.61,4.7-4.77,7.23-7.78,3.23-3.87,2.33-5.25,4.74-7.21,.78-.61,2.04-1.47,2.08-2.77,.04-1.02-.65-1.67-1.22-2.53-1.63-2.16-.82-3.5-2.25-5.82-2.82-4.56-5.14-4.44-6.41-8.02-.25-.73-.33-2.24-.53-5.3-.24-3.3-.08-4.48-.29-8.59-.2-3.34-.41-4.93-1.51-6.35-.73-.94-1.47-1.38-2.12-1.83-3.63-2.4-6.82-6.03-8.53-9.12-.41-.65-1.84-3.38-2.29-7.21-.53-4.64,.69-8.35,1.31-10.1,.45-1.3,.9-2.24,1.18-2.81,1.51-3.14,3.1-5.09,5.55-8.06,3.76-4.52,6.9-7.25,7.68-7.9s1.88-1.63,3.47-2.77c2.08-1.51,5.19-3.75,9.64-5.34,1.1-.37,2.86-.98,5.27-1.39,3.18-.49,6.21-.16,12.05,.49,2.45,.24,4.08,.45,6.41,.81,1.35,.24,5.1,.9,10,2.24,2.57,.69,6.37,1.75,10.86,3.58,4.33,1.79,9.8,4.07,15.56,8.8,3.8,3.05,6.74,5.54,8.53,9.98,.82,2.04,2,4.93,1.47,8.51-.45,3.22-2.04,5.17-1.92,9.61,0,1.06,.12,1.83,.29,2.77,.78,5.46,2.33,6.23,2.2,9.45-.08,2.48-1.06,2.4-1.1,5.25-.04,1.38-.08,4.44,1.67,5.82,1.63,1.3,3.76,.08,7.23-.29,3.96-.37,5.55,.77,10.37,1.79,10.33,2.12,12.62-1.14,23.56,1.26,3.63,.81,5.96,1.75,7.39,2.4,2.98,1.39,4.45,2.57,8.74,5.58,8.78,6.19,8.41,5.34,10.94,7.58,3.59,3.18,2.9,3.67,8.13,9.41,5.55,6.11,6.41,5.7,10.78,10.75,4.04,4.68,4.04,5.95,8.17,11.08,4.45,5.58,7.55,7.94,10.74,11.12,13.92,13.85,18.54,32.26,18.91,33.81,2.12,8.84,.53,10.92,3.72,19.43,2.41,6.48,4.61,8.68,5.47,14.79,.49,3.67-.08,4.36-1.22,14.75-.78,7.25-1.06,12.63-1.63,21.91-.41,6.03-.57,9.12-.57,12.18,.04,8.07,.86,10.35,1.47,19.23,.45,6.64,0,4.97,.37,20.16,.12,4.07,.08,2.12,.73,19.8,.41,10.31,.45,11.65,.78,14.62,.73,6.84,1.47,7.82,2.78,15.72,.94,5.78,2.04,12.67,2.04,21.26-.04,7.09-.78,7.25-.94,18.13-.08,6.8,0,12.02,0,12.02Zm-121.27-39.39c-.86-4.56-1.47-4.64-2.21-8.31-.82-4.03-.69-7.86-.45-15.48,0-.81,.04-1.63,.08-2.48,.2-3.83,.33-4.93,0-7.58-.2-1.51-.29-1.22-2-8.31-1.51-6.03-1.88-7.94-3.02-9-.16-.2-.33-.33-.53-.45-.45-.29-.82-.41-1.14-.53-.45-.08-.86-.12-1.43-.2h-.16c-.41-.08-.9-.2-1.47-.37-.33-.08-.65-.2-1.02-.37-.41-.2-.82-.37-1.18-.57-.29-.16-.57-.33-.86-.49-.33-.16-.61-.33-.86-.53-.73-.45-1.35-.94-1.92-1.38-.33-.24-.65-.49-.98-.73-.61-.45-1.18-.9-1.67-1.3-.24-.2-.45-.37-.65-.53-3.8-2.93-6.04-4.52-7.1-4.52-.12,0-.2,.04-.33,.08-.12,.04-.2,.12-.29,.2-.08,.04-.16,.12-.2,.24-.08,.08-.16,.2-.2,.33-.41,.65-.61,1.59-.69,2.77-.2,3.22,.57,8.02,1.43,11.65,.08,.41,.16,.81,.29,1.26,.61,2.16,1.31,4.03,1.88,5.54,.2,.53,.49,1.1,.82,1.83,.24,.61,.57,1.34,.98,2.2,.12,.29,.29,.61,.45,.98,1.88,3.67,3.18,5.42,4.25,8.84,.04,.16,.12,.37,.2,.57,.12,.33,.2,.61,.24,.9,.33,1.43,.49,2.65,.65,4.64,.04,.33,.04,.61,.04,.94,.08,.53,.12,1.18,.16,1.87,1.22,16.09,.2,.12,1.67,19.96,.9,12.1,.19,16.8,.19,19.79,0,3.79,.28,11.65-.9,15.45-1.02,3.27-1.37,2.97-2.06,5.25-1.31,4.52-2.08,6.15-3.02,8.51,0,0,0,.04-.04,.08-.53,1.43-1.05,2.22-2.49,4.73-2.97,5.19-3.47,14.39-3.79,18.88-.16,2.3-.05,5.8-.17,8.53-.12,2.81-.16,5.91,.04,9.21,.12,1.75,.2,3.62,.41,5.38v.33c.37,3.67,1.02,6.8,2.41,7.09,.9,.16,1.92-1.02,6.08-8.35,4.78-8.35,7.15-12.55,8.37-16.09,2.29-6.8,.86-7.09,3.31-15.52,2.2-7.41,3.43-7.62,5.59-14.42,1.59-5.17,2.16-10.1,3.31-20,1.39-11.77,1.22-17.84,1.14-20.53-.16-3.75-.53-6.84-1.14-9.98Zm-41.73,168.06c-.08-.41-.2-.77-.33-1.18-.98-2.77-2.53-4.77-4.08-6.8-.29-.41-1.02-1.3-2.21-2.53-.08-.08-.16-.2-.24-.29-1.27-1.34-3.06-2.97-5.35-4.68-.12-.08-.24-.2-.37-.29-.65-.45-1.23-.77-1.72-1.1-.04-.04-.08-.08-.12-.08-2.86-1.87-4.49-2.2-8.37-5.17-3.23-2.48-4.86-3.75-5.55-5.58-1.47-3.79,1.43-5.87,2.78-12.75,.9-4.52,.57-8.43-.04-12.79,0-.2-.04-.37-.08-.57-.12-.86-.24-1.75-.41-2.73-.12-.81-.29-1.63-.41-2.36-.45-2.44-1.1-5.38-2.41-8.72-.49-1.34-1.02-2.48-1.51-3.42-2.37-4.6-4.41-5.54-6.25-10.47-1.22-3.3-1.63-6.52-1.63-9.45v-.24c0-.16,0-.33,.04-.45,0-.73,.04-1.47,.08-2.16,.16-2.48,.57-4.68,.94-6.56,.33-1.83,.9-3.63,1.76-5.87,.16-.45,.29-.9,.45-1.3,0-.04,.04-.12,.04-.16,.37-1.14,1.35-3.5,3.31-8.19,.24-.61,.53-1.26,.82-1.91,0-.08,.04-.16,.08-.24,.24-.53,.45-1.06,.65-1.51,.2-.49,.41-.94,.57-1.34,.41-.86,.73-1.55,1.02-2.2,.2-.45,.41-.86,.61-1.26,.2-.45,.37-.86,.57-1.22,.69-1.47,1.27-2.57,1.88-4.15,.2-.49,.41-1.06,.61-1.67,.12-.37,.29-.73,.41-1.14,2-5.82,2.9-9.78,4.45-17.76,.98-4.77,1.51-8.68-.29-11.65v-.08c-.16-.29-.33-.53-.53-.77-.45-.53-.9-1.1-2.29-.89-.57,.08-2.04,.24-2.49,.89-1.18,1.87-1.8,5.17-3.31,10.83-1.59,5.99-1.59,3.71-4.98,14.42-3.18,9.98-2.78,10.75-5.02,16.09-3.02,7.25-4.04,6.56-4.98,10.55-1.67,7.05,1.59,8.84,1.63,18.86,.04,1.91-.04,8.59-2.78,16.29-1.47,4.2-2.12,4.07-5.92,11.81-2.25,4.6-4.08,9.12-7.8,18.13-4.86,11.93-5.31,13.89-5.55,15.19-1.02,5.25-1.06,9.86-1.1,14.42-.04,7.54,.69,8.27,.2,13.56-.37,4.11-.86,4.03-2.45,12.34-1.14,6.07-1.84,9.57-2.2,14.42-.57,7.41,.24,8.72-1.1,13.32-1.35,4.52-2.61,8.11-2.61,8.15-1.51,3.91-2.16,4.64-2.04,6.44,.29,4.32,4.61,7.17,5.02,7.41,2.53,1.63,3.63,.9,7.39,2.4,4.29,1.75,3.59,3.01,7.06,4.44,3.8,1.59,5.27,.73,14.82,1.1,6.49,.29,6.61,.69,12.25,.73,4.61,.08,7.96-.12,10.37-.37,7.19-.65,10.78-.98,12.05-3.05,1.59-2.57-1.18-4.56,.2-10.26,.69-2.85,1.59-3.1,1.84-5.91,.16-1.83-.12-3.58-.73-7.01-.65-3.71-.9-3.79-1.1-5.58-.12-.86-.33-3.38,.73-8.11,1.1-5.01,2.29-6.44,3.72-10.75,1.67-5.05,3.68-11,2.04-17.03l-.04-.04Z" style="fill:#73bf44;"/><path id="FigureC" d="M575.3,1301.99c-.04-2.2-.04-4.15-.12-5.91-.33-3.75-.94-6.72-2.08-12.38-.9-4.36-1.47-6.52-1.96-7.82-.08-.16-.12-.33-.2-.49-.12-.28-.24-.49-.33-.65-.12-.16-.2-.33-.29-.49-1.84-3.05-4.17-4.81-6.12-6.27-2.78-2.04-6.17-3.95-10.74-5.17-.53-.12-1.51-.41-2.86-.65-9.35-1.71-19.03-1.67-19.03-1.67-6.37,.04-4.61,.45-15.6,.86-4.41,.12-7.06,.16-8.94,.2-2.37,.08-3.43,.16-4.94,.65-.08,0-.12,.04-.2,.04s-.16,.04-.29,.08c-.49,.16-.94,.33-1.35,.53-2.49,.98-4.21,2.2-5.59,3.14-1.84,1.26-3.18,2.12-5.06,1.59-.16-.04-.33-.08-.45-.16-1.1-.37-1.76-1.3-2.57-2.73-.04-.04-.08-.08-.08-.12-.86-1.1-2.08-2.61-4.04-4.64-2.7-2.77-4.9-4.6-5.76-5.3-2.49-2.04-4.29-3.58-6.7-4.77-4.33-2.16-8.17-2.36-12.78-2.65-3.92-.2-7.55-.41-12.05,.81-1.27,.33-1.88,.57-10.66,4.68-7.92,3.75-7.96,3.79-8.98,4.2-4.7,1.75-8.49,1.26-13.35,3.3-1.71,.73-2.98,1.47-3.23,1.63-2.04,1.22-3.02,2.2-4.53,3.38-1.51,1.18-2.86,2-5.59,3.5-4.53,2.53-6.78,3.75-10,4.81-5.59,1.83-6.53,.73-15.23,2.61-.33,.08-.65,.12-.94,.2-.04,0-.12,.04-.16,.04-1.14,.24-2.21,.49-3.14,.69-2.98,.73-5.02,1.43-7.23,2.77-3.47,2.08-3.47,3.26-7.43,5.54-4,2.32-7.64,3.22-9.64,3.71-6.33,1.51-6.7-.04-11.51,1.47-3.06,.98-5.51,2.65-10.37,6.03-3.43,2.36-4.49,3.5-5.19,5.05-.94,2.2-.69,4.2-.37,6.31,.33,2.32,.94,3.71,4.08,10.71,2.45,5.46,2.65,5.82,2.94,7.05,.73,2.73,.24,2.65,1.14,8.51,.61,4.15,1.02,5.34,.73,7.74-.24,1.79-.41,3.34-1.47,4.81-1.55,2.12-3.92,2.69-8.53,3.71-4.45,1.02-4.86,.49-8.53,1.47-1.02,.29-1.92,.57-7.06,2.61-4.78,1.87-6.37,2.57-7.39,2.97-5.39,2.04-10.21,1.67-15.6,1.47-8.78-.37-17.56,.04-26.34,0-15.15-.12-16.41,.16-22.62-.37-6.86-.57-12.74-1.55-17.76-2.61-1.49-.31-10-2.18-17.8-5.17,0,0-3.51-1.35-7.99-2.4-.72-.17-1.79-.4-3.15-.55-.7-.08-.9-.08-3.15-.18-3.26-.16-3.79-.21-4.77-.04-1.08,.19-1.92,.53-2.46,.78-.36,.51-.86,1.23-1.39,2.13-.34,.57-.97,1.62-1.32,2.48-.4,.96-.43,1.58-.41,6.12,.01,3.48,.03,3.9,.06,4.35,.15,2.36,.22,3.54,.51,4.49,.39,1.28,.86,1.97,.65,3.12-.12,.68-.38,.97-.25,1.59,.07,.38,.22,.53,1.16,1.74,.88,1.13,1.1,1.42,1.23,1.61,.24,.33,.53,.75,.85,1.32,.44,.77,.51,1.04,.93,1.83,.33,.63,.61,1.05,.96,1.6,.69,1.1,2.21,3.26,5.35,6.48,4,3.99,5.88,4.85,10,8.31,5.23,4.4,4.25,4.73,10.58,10.55,5.31,4.85,6.25,4.81,11.15,9.41,6,5.66,4.86,5.95,8.9,9.45,5.43,4.72,6.86,3.67,18.91,11.08,4,2.48,8.66,5.58,11.11,7.21,7.43,4.97,7.47,5.25,9.47,6.11,5.14,2.32,6.41,1.1,15.56,3.34,2.37,.57,6.82,1.67,12.25,3.87,5.59,2.28,6.08,3.22,11.11,5.01,4.7,1.67,8.49,2.32,11.15,2.77,6.78,1.18,12,1.14,13.35,1.1,3.39-.04,8.04-.12,13.88-1.63,5.47-1.43,8.98-3.34,10-3.91,3.47-1.91,5.59-3.1,7.27-5.54,2-3.01,.86-6.23,3.31-7.78,.29-.16,1.39-.86,2.53-.53,.41,.12,1.88,.65,3.06,6.07,.94,4.44-.29,6.76,1.39,8.06,.41,.33,.33,.08,2.86,1.18,2,.9,2.12,1.1,2.94,1.3,1.88,.41,2.29-.24,3.27,.28,1.39,.77,.9,2.4,2.25,3.05,1.02,.49,1.55-.41,3.51-.28,1.55,.12,1.55,.69,3.8,1.1,1.47,.29,2.45,.45,3.35-.08,.86-.53,.86-1.3,1.67-1.47,.65-.16,1.02,.33,2.12,.73,.29,.12,1.72,.69,3.14,.45,0,0,.86-.12,3.84-2.24l2.29-1.18c1.43-.98,1.71-3.05,1.84-4.24,.78-7.25,.37-18.21,.37-18.21-.08-2.77-.08-6.72,.57-11.57,.33-1.26,.98-3.1,2.49-4.64,1.35-1.34,2.08-1.14,6.7-3.3,.49-.24,3.72-1.79,7.23-3.91,3.47-2.12,3.1-2.36,4.98-3.3,1.43-.73,3.96-1.83,6.29-2.2,1.84-.29,3.55-.2,4.57,.77,.24,.2,.41,.45,.53,.77v.08c1.8,2.97,1.27,6.88,.29,11.65,.98-4.77,0-10.67-.29-11.65,.29,.98,.2,2.89-.24,7.78-.57,5.95-.9,8.96-1.1,10.51-.61,4.44-1.8,8.11-2.78,10.59-.16,.53-.24,.69-1.14,2.73-.53,1.3-2.29,5.38-4,9.45,.15-.31,.28-.59,.41-.87-.3,.66-.62,1.38-.98,2.21-.2,.45-.41,.98-.65,1.51-.04,.08-.08,.16-.08,.24-.29,.61-.53,1.22-.82,1.91-1.96,4.68-2.94,7.05-3.31,8.19,0,.04-.04,.12-.04,.16-.16,.41-.29,.86-.45,1.3-1.06,3.22-2.25,7.37-2.69,12.42-.04,.69-.08,1.43-.08,2.16-.04,.12-.04,.29-.04,.45v.24c-.12,4.32-.16,7.78,1.63,11.69,1.84,4.03,3.59,3.99,6.25,8.23,2.29,3.63,3.02,6.88,3.92,12.14,.12,.73,.29,1.55,.41,2.36,.16,.98,.29,1.87,.41,2.73,.04,.2,.08,.37,.08,.57,.9,5.66,1.18,9.04,.04,12.79-1.47,4.97-4.08,6.92-3.35,11.12,.57,3.22,2.74,5.46,3.35,6.07,2.9,2.97,7.51,4.81,9.47,5.58,.69,.24,1.23,.49,1.67,.73,.04,0,.08,.04,.12,.08,.9,.45,1.35,.81,1.72,1.1,.12,.08,.24,.2,.37,.29,1.06,.69,3.35,2.24,5.35,4.68,.08,.08,.16,.2,.24,.29,1.51,1.79,1.51,2.44,3.31,5.58,1.59,2.73,2.53,3.95,3.31,4.93l.04,.04c.78,.94,1.35,1.63,2.2,3.34,1.92,4.03,2.53,8.27,2.78,9.98,.49,3.34,.61,4.77,1.67,7.25,.82,1.87,2.74,5.54,3.92,5.25,1.18-.29,.9-4.73,.53-15.27-.53-16.37-.16-14.58-.53-18.86-.82-8.64-1.88-8.51-3.35-20.53-1.39-11.2-.86-14.58-.57-16.09,1.35-7.05,3.68-6.88,5.55-13.85,1.02-3.79,.78-5.38,.41-11.53v-.33c-.16-2.85-.33-6.64-.41-12.02,0-.9,0-1.75-.04-2.57,0-8.19,.33-11.36,.61-13.52,.61-4.48,1.18-8.8,3.35-13.89,.94-2.16,1.76-3.58,2.49-4.73,.04-.04,.04-.08,.04-.08,1.01-1.45,1.44-3.17,1.97-5.13,.32-.94,.66-2.02,1.06-3.39,.98-2.53,2.25-2.57,2.25-8.47,0-1.87-.04-4.15-.04-7.05-.04-15.93,.2-13.69,0-19.43-.2-7.17-.57-12.55-1.1-19.96-.2-3.18-.16-5.46-.16-7.41,0-.33,0-.61-.04-.94,0-1.63-.12-3.01-.65-4.64-.04-.29-.12-.57-.24-.9-.08-.2-.16-.41-.2-.57-.49-1.22-.98-1.87-4.25-8.84-.16-.37-.33-.69-.45-.98-.41-.86-.73-1.59-.98-2.2-.33-.73-.61-1.3-.82-1.83-.65-1.51-.9-2.16-1.1-2.77-.33-.98-.57-1.91-.78-2.77-.12-.45-.2-.86-.29-1.26-.41-2.08-.61-3.91-.78-5.58-.36-3.59-.71-7.08,0-8.71,.08-.14,.13-.35,.24-.45,.04-.12,.12-.2,.2-.24,.08-.08,.16-.16,.29-.2,.12-.04,.2-.08,.33-.08,.78-.12,1.76,.53,3.39,1.55,1.27,.77,1.63,1.26,3.72,2.97,.2,.16,.41,.33,.65,.53,.53,.41,1.1,.81,1.67,1.3,.33,.24,.65,.49,.98,.73,.69,.53,1.35,.98,1.92,1.38,.29,.16,.57,.37,.86,.53s.57,.33,.86,.49c.37,.2,.78,.37,1.18,.57,.37,.16,.69,.29,1.02,.37,.57,.16,1.06,.28,1.47,.37h.16c.53,.08,.98,.08,1.43,.2,.33,.12,.69,.24,1.14,.53,.2,.12,.37,.24,.53,.45,1.76,1.34,2.49,3.54,3.14,5.5,.33,.94,.61,2.73,1.14,6.27,.41,2.93,.65,4.36,.73,5.54,.2,2.48,.08,3.83,0,7.05v.53c-.04,.86-.08,1.67-.08,2.48-.08,2.48-.08,4.85,.08,7.33,.04,.77,.24,4.48,1.1,9.25,.98,5.5,1.71,6.19,3.72,14.42,1.55,6.4,1.14,6.11,2.2,9.61,.49,1.63,1.84,4.93,4.45,11.49,.86,2.04,2,4.93,3.72,9.25,0,0,.94,2.32,2.61,6.64,1.71,4.48,1.96,5.25,2.2,6.31,.33,1.34,.65,3.1,.74,7.01,.12,4.77-.2,6.56-.37,10.75-.08,3.05,.08,2.28,.37,11.81,.24,8.02,.12,8.43,.37,12.59,.29,4.2,.49,4.56,.78,8.88,.16,2.97,.24,5.58,.37,10.71,.24,10.67,.12,14.01-.37,17.76-.29,1.96-.57,3.63-1.14,5.54-.74,2.57-1.59,4.36-3.31,7.78-2.65,5.17-4,7.78-5.96,11.12-2.29,3.87-3.63,6.19-5.92,9.25-2.65,3.54-3.72,4.28-6.29,7.74-2.57,3.42-3.92,5.25-5.19,8.15-.82,1.75-1.92,4.32-2.25,7.78-.2,2.04,.08,2.16,.37,7.37,.24,4.36,.33,6.56,0,8.51-.41,2.36-.73,1.83-2.2,7.05-.61,2.04-1.02,3.83-1.88,7.37-1.06,4.52-1.1,5.09-1.1,5.58-.04,1.63-.16,5.34,2.2,7.37,.82,.69,1.8,.98,3.72,1.51,1.8,.45,3.02,.61,7.43,1.1,3.39,.37,5.14,.53,7.43,.73,2,.16,3.47,.29,4.82,.37,1.55,.12,4.17,.29,7.39,.37,3.88,.12,4.49-.04,5.19-.37,1.88-.9,2.78-2.61,3.35-3.71,.65-1.22,1.1-2.61,1.47-6.27,.33-3.05,.29-4.72,.37-8.15,.2-6.35,.49-5.46,.41-7.78-.29-5.66-1.8-5.58-1.88-10.71-.04-3.79,.78-5.17-.37-7.78-.9-2.04-1.84-2.24-2.2-4.07-.45-2.04,.41-3.58,1.84-6.64,2.61-5.58,.98-2.85,3.72-8.51,.86-1.79,2.04-4.11,5.19-9.98,3.35-6.23,3.14-5.66,4.82-8.88,2.45-4.68,4.08-7.82,5.92-12.22,1.67-3.91,2.65-6.88,3.72-9.98,.37-1.02,.65-1.96,.94-2.81,1.18-3.54,1.84-5.7,2.16-8.06,.12-.94,.2-1.91,.24-3.14,0-.61,.04-1.26,.04-2,0-1.26-.04-2.77-.04-4.6-.04-4.56-.2-5.99-.29-8.84v-1.14c-.04-5.46,.33-6.92,.57-12.5,.12-2.77,.08-5.62-.04-9.69,0-.49-.04-.94-.04-1.47-.04-1.83-.12-3.91-.2-6.31-.24-7.29-.41-11.69-.65-14.7-.08-.81-.12-1.55-.2-2.2-.57-4.89-1.67-11.36-3.88-18.61-1.39-4.56-3.47-9.37-7.64-18.98-5.51-12.71-7.06-15.03-7.92-20.98-.61-3.87,.08-3.87-.57-12.46-.37-4.81-.74-7.7-.29-12.22,.2-1.83,.37-2.36,.57-4.73,.12-1.26,.29-3.95,.12-7.49,0-.45,0-.98-.04-1.47-.04-.41-.04-.86-.08-1.34v-.16c-.04-.2-.04-.41-.04-.61-.04-.29-.08-.61-.08-.9-.16-1.22-.33-2.65-.61-4.24,0-.08-.04-.16-.04-.24-.04-.29-.08-.57-.16-.81-.37-2.16-.69-3.42-1.27-4.81,0-.04-.04-.08-.04-.12-1.02-2.24-2.37-3.87-4.08-5.99-1.1-1.43-2.08-2.44-2.41-2.77-4.78-5.05-10.53-8.92-11.39-10.06-.16-.12-.2-.24-.16-.29,.04-.08,.2-.08,.49,.04,.2,.08,.49,.2,.86,.37l2.72,.13c1.06,.2,3.5,1.22,5.01,1.39,.29,.04,3.01,.24,3.34,.28,.82,.04,2.33,.1,3.43,.18,4.33,.37,6.9,.8,10.66,.92,1.22,0,4.45,.92,7.96,.72,.49-.04,1.02-.08,1.55-.12,.04,.04,.12,0,.16,0,.45-.04,.9-.08,1.35-.12,.49-.04,.98-.08,1.47-.12,5.14-.45,7.68-.69,10.04-1.47,.29-.08,.61-.2,.98-.33,1.92-.73,5.1-2.16,8.29-4.85,1.43-1.22,3.14-2.65,4.61-4.52,.04-.04,.08-.12,.12-.16,.9-1.22,1.71-2.57,2.29-4.2,.16-.41,.33-.9,.45-2.32,0-.2,.04-.37,.04-.57,.04-.53,.08-1.1,.12-1.79,.04-.69,.04-1.51,.08-2.48,0-.94,.04-2,.04-3.18,0-1.34,.04-2.53,.04-3.58-.04-.73-.04-1.51-.04-2.36Zm-107.8,45.74c.06-1.08,.27-1.89,.59-2.5-.32,.63-.52,1.45-.59,2.5Zm19.07-83.05c.81,1.05,1.26,1.7,1.74,2.15-.62-.49-1.17-1.15-1.74-2.15Zm49.78,69.73c1.22,0,3.84-.04,7.35-.24-2.53,.24-4.7,.33-7.35,.24Zm-411.37,47.05c.85-.45,1.83-.99,2.39-.66,.66,.39,.28,1.72,.1,4.43,0,0-.19,2.83,.11,6.21,.1,1.15,.26,3.03,.77,4.7,1.06,3.49,3.46,5.57,7.37,8.88,3.16,2.67,2.91,1.9,7.71,5.75,3.49,2.79,5.23,4.19,6.67,5.53,1.81,1.69,2.34,2.39,3.82,3.2,1.35,.73,2.21,.87,2.49,1.66,.33,.94-.45,1.98-1.59,3.46-1.63,2.13-2.45,3.19-4.08,5.22-2.29,2.87-3.92,5.36-5.93,7.17-2.02,1.81-2.55,1.72-6.3,4.44-3.51,2.54-6.02,4.71-7.42,5.92-4.72,4.09-4.66,4.75-9.08,8.51-.75,.64-.75,.61-6.86,5.36-7.51,5.84-7.73,6.04-9.08,7.03-4.55,3.33-6.21,4.07-10.38,6.84-3.29,2.19-3.51,2.56-14.83,11.47-16.05,12.63-14.68,11.15-16.13,12.58-2.73,2.68-6.19,4.52-9.08,7.03-.53,.46-1.96,1.71-4.08,2.03-.54,.08-1.67,.19-2.97-.18-1.23-.35-1.8-.9-3.34-2.03-2.83-2.08-2.97-1.76-4.64-3.14-1.42-1.18-1.89-1.91-3.34-3.51-1.59-1.77-2.37-2.41-5.75-5.55-6.75-6.29-5.88-5.85-8.16-7.77-4.24-3.57-9.78-7.22-15.76-12.39-.86-.74-2.58-2.27-2.41-4.07,.05-.55,.3-1.34,2.35-3.4,1.4-1.41,2.11-2.11,3.77-3.26,2.75-1.89,2.94-2.87,7.6-7.4,5.41-5.25,5.61-4.39,9.87-8.74,4.18-4.27,3.8-4.92,6.67-7.07,3.22-2.42,4.29-2.05,8.76-4.85,3.83-2.4,3.33-2.85,7.79-5.96,1.32-.92,5.51-3.8,11.26-6.38,5.77-2.59,7.27-2.26,11.27-4.89,1.84-1.21,1.48-1.25,5.7-4.68,4.62-3.75,8.38-6.4,10.71-8.05,2.99-2.11,2.79-1.83,8.9-5.96,1.78-1.2,5.16-3.5,9.46-6.52,5.24-3.68,7.27-4.92,10.29-7.07,2.37-1.69,3.56-2.54,3.62-2.59,.29-.26,.86-.79,1.77-1.27Z" style="fill:#3169b3;"/><path id="FigureB" d="M128.35,1396.15c-.71-2.05-.76-4-.77-4.7-.04-1.76,.21-3.64,.36-4.73,.38-2.84,.8-3.98,.14-4.58-.47-.42-1.22-.33-2.09-.14-3.07,.69-5.47,2.26-8.46,4.42-1.98,1.44-1.97,1.49-4.49,3.32-1.43,1.03-2.55,1.82-3.74,2.66-.71,.5-2.59,1.82-5.32,3.7-.64,.44-2.98,2.05-6.47,4.39-4.79,3.22-4.7,3.1-6.57,4.39-3.09,2.15-5.34,3.87-7.18,5.29-6.79,5.23-6.6,5.67-9.22,7.44-4.93,3.32-6.59,2.39-13.54,5.35-3.54,1.51-7.88,4.52-16.69,10.36-6.96,4.62-10.44,6.92-13.35,9.62-4.42,4.08-7.46,8.04-8.53,7.4-.68-.41,.16-2.26,.37-6.29,.16-3.07-.21-4.19-.37-7.03-.35-6.19,1.08-6.88,1.11-12.95,.03-4.79-.84-8.42-1.48-11.1-1.47-6.13-2.57-6.06-4.08-11.47-1.31-4.69-.35-4.3-1.85-19.23-.5-4.98-.81-7-.37-10.36,.26-1.98,.62-3.28,2.6-9.25,2.38-7.18,3.57-10.78,4.82-14.06,3.48-9.11,3.09-6.23,5.19-11.84,.49-1.3,1.06-2.94,2.6-4.44,1.64-1.6,2.79-1.51,4.08-2.96,1.3-1.45,1.5-3.08,1.85-5.55,.45-3.21,1.07-6.4,1.48-9.62,.54-4.2,1.73-4.85,5.93-14.06,.38-.84,3.45-7.59,6.3-15.54,3.4-9.46,2.39-9.21,4.82-14.8,2.57-5.91,3.22-5.11,8.9-15.91,3.02-5.75,3.55-7.33,5.93-10.73,.93-1.33,3.7-5.15,7.79-8.88,5.69-5.19,9.58-6.22,17.06-10.36,3.24-1.79,1.93-1.28,20.77-14.43,13.97-9.75,15.93-10.9,18.54-12.21,3.88-1.94,10.35-5.14,19.28-7.03,9.85-2.09,19.28-2.59,19.28-2.59,3.78-.2,7.27-.2,11.87-1.85,4.13-1.48,6.95-3.5,8.16-4.44,1.63-1.26,4.85-4.02,7.42-8.51,1.54-2.7,2.8-4.89,2.6-7.77-.14-1.99-.87-2.82-2.22-5.92-1.44-3.29-2.12-5.83-2.97-8.88-.93-3.37-1.97-7.16-2.04-12.21-.08-6.15,1.35-10.67,1.67-11.65,1.54-4.7,3.73-7.93,4.73-9.29,1.86-2.55,4.48-6.14,9.18-8.46,4.31-2.13,8.17-2.11,13.21-2.08,2.48,.01,7.19,.08,12.93,1.9,8.04,2.54,13.19,6.83,15.57,8.88,2.88,2.47,4.68,4.62,6.67,6.98,3.48,4.14,6.36,7.56,8.48,12.76,.95,2.32,1.57,5.39,2.73,11.55,.65,3.44,1.07,6.43,.65,9.77-.23,1.85-.68,3.49-.74,3.7-.68,2.43-1.27,3.17-1.85,4.81-1.14,3.16-.05,3.49-.93,8.6-.55,3.17-.99,3.2-1.39,6.38-.12,.98-.23,2.16-.56,4.72-.36,2.79-.51,3.58-1.11,4.44-.62,.89-1.34,1.33-2.78,2.22-.95,.59-2.09,1.29-3.62,1.66-.62,.15-1.67,.35-4.73,0-1.59-.18-3.44-.4-6.12-1.11-3.1-.82-3.14-1.2-6.67-2.22-4.52-1.3-5.73-1.04-6.4-.83-1.95,.62-3.08,2.09-3.62,2.77-1.68,2.17-1.36,3.7-2.5,7.21-.81,2.48-1.15,2.27-3.34,6.94-2.11,4.49-3.16,6.74-3.34,8.05-.58,4.31,1.94,7.76,6.81,14.43,2.99,4.09,5.13,7.02,9.04,9.85,3.24,2.35,5.01,2.68,7.93,5.69,1.31,1.35,3.21,3.61,4.73,6.8,.44,.93,1.6,3.49,2.38,8.56,.69,4.41,.3,5.59,.54,14.33,.12,4.48,.32,7.9,.56,10.82,.2,2.5,.5,5.52,1.11,9.16,.46,2.76,.87,4.44,1.39,6.1,.58,1.85,1.11,3.51,2.22,5.27,1.04,1.66,1.69,1.96,4.59,4.72,3.55,3.38,5.35,5.12,6.54,7.35,.65,1.23,1.5,3.2,1.85,5.69,.49,3.52-.53,4.42-.19,6.47,.48,2.88,2.93,3.82,10.75,9.06,0,0,4.66,3.12,11.5,8.51,6.25,4.92,6.93,6.08,6.67,6.84-.47,1.38-3.91,1.2-9.64,1.11-15.19-.24-22.78-.37-27.44,.55-6.25,1.24-9.36,3.07-12.61,1.11-2.68-1.62-3.77-4.81-4.26-7.4-4.03-6.75-6.28-9.21-7.6-10.17-.16-.12-1.16-.83-2.22-2.03-.78-.88-1.53-1.75-1.85-2.96-.32-1.2,.08-1.63,.19-3.33,.1-1.63-.18-2.81-.74-5.18-.44-1.84-.65-2.13-1.48-4.81-1.11-3.59-.92-3.72-1.85-6.66-.52-1.63-1.15-3.6-2.22-5.92-1.57-3.39-2.21-3.48-3.34-5.92-1.16-2.51-1.45-4.82-2.04-9.43-.68-5.37-1.02-8.06-.74-9.25,.27-1.14-.06-1.83-.19-3.14-.13-1.3-.19-1.95-.37-2.13-1.15-1.12-6.56,2.59-11.12,5.83-8.92,6.32-9.53,7.22-13.91,9.99-3.04,1.92-5.78,3.36-11.26,6.24-9.74,5.12-11.97,5.65-13.77,8.74-.94,1.62-1.2,4.62-1.67,10.54-.37,4.67-.4,7.71-.56,15.54-.16,7.96-.24,11.94-.28,12.76-.41,7.94-1.01,10.32-.42,15.54,.35,3.09,.62,5.44,1.81,8.32,1.82,4.4,4.53,6.71,8.9,11.1,7.08,7.11,10.62,10.67,11.68,11.65,11.71,10.79,12.46,10.55,19.47,17.2,12.3,11.67,9.78,12.22,17.8,18.31,3.37,2.56,8.98,6.39,17.24,13.32,5.51,4.62,7.81,6.95,7.23,8.88-.79,2.63-6.55,3.2-11.68,3.88-1.7,.23-4.61,.59-8.34,0-3.71-.59-6.38-1.84-8.34-2.77-5.03-2.4-4.64-3.54-8.34-4.99-3.04-1.19-3.63-.55-10.57-1.66-5.02-.8-7.53-1.21-10.01-2.22-1.44-.59-2.57-1.2-10.57-7.21-6.74-5.06-6.65-5.16-8.9-6.66-2.54-1.7-5.25-3.19-10.57-6.1-8.69-4.77-8.57-4.36-11.12-6.1-4.29-2.93-3.8-3.52-10.01-8.32-1.19-.92-2.13-1.61-2.92-2.17-1.78-1.27-2.43-1.6-3.84-2.69-.99-.77-1.7-1.39-2.15-1.8-3.91-3.49-6.23-5.56-7.37-8.88Zm-105.4,92.38c.49,2,1.07,4.14,1.25,8.05,.22,4.68,.71,6.35,.46,12.58-.16,4.14,.06,3.26,0,12.95-.09,14.15-.53,9.42-.37,13.32,.17,4.33,.55,6.06-.74,7.77-2.04,2.69-5.07,1.15-7.42,3.7-1.22,1.32-1.16,2.56-1.48,11.84-.33,9.49-.35,7.08-.37,9.25-.08,7.38,.43,8.51-.74,10.36-1.78,2.8-3.96,1.79-7.05,5.18-2.91,3.2-3.58,6.98-3.71,7.77-.63,3.98,.9,5.45,1.11,10.73,.02,.52-.25,3.67-.74,7.77-.29,2.43-.55,4.02,.37,4.81,1.27,1.09,3.66-.32,4.08,.37,.45,.74-2.24,2.47-4.08,5.18-1.48,2.18-1.28,3.32-2.6,12.95-.92,6.72-1.34,8.55,0,9.99,.99,1.06,2.31,1.23,5.19,1.48,5.99,.52,8.98,.78,12.61,.74,.54,0,4.81,.24,13.35,.74,15.67,.91,29.03,2.85,41.53,.37,1.94-.38,5.15-1.13,6.67-3.7,1.01-1.7,.53-2.95,0-9.62-.64-7.94-.07-7.47-.74-9.99-1.17-4.36-2.83-5.55-2.22-8.51,.31-1.49,1.05-2.78,2.22-4.81,1.05-1.81,1.59-2.73,2.6-3.33,2.03-1.21,3.4,.13,4.82-.74,1.61-.99,1.3-3.62,1.11-12.21-.12-5.52-.05-7.19,0-8.14,.23-4.41,.35-6.61,1.11-8.51,1.33-3.32,4.1-5.17,9.64-8.88,3.33-2.23,6.76-4.52,11.87-6.29,4.53-1.57,4.73-.77,12.24-2.96,5.16-1.51,5.6-2.04,8.9-2.59,3.55-.59,4.04-.14,9.64-.74,4.17-.45,4.21-.73,8.16-1.11,3.42-.33,5.64-.54,8.53-.37,6,.35,8.23,1.94,9.27,.74,.94-1.09-.5-2.85-2.22-8.88-1.05-3.66-1.53-6.55-1.85-8.51-.54-3.25-.31-3.1-1.11-10.36-.58-5.2-.83-6.48-.37-6.66,.87-.34,3.23,3.76,5.93,8.51,2.84,4.99,4.26,7.48,5.56,10.73,2.01,5.03,2.74,8.97,3.71,14.43,1.63,9.19,.61,9.5,2.22,16.28,.71,2.99,1.82,7.67,4.45,13.32,2.4,5.16,3.88,6.44,4.82,10.73,.59,2.69,.52,5.04,.37,9.62-.21,6.22-.7,6.16-1.11,13.32,0,0-.48,8.28,1.48,15.17,.12,.43,.34,1.1,.79,1.85,.23,.38,1.14,1.82,3.34,3.05,.65,.36,1.66,.85,5.01,1.53,2.22,.45,4.31,.75,6.4,.97,2.9,.3,5.13,.37,6.67,.42,2.25,.06,3.87,.04,6.12,0,3.37-.06,5.06-.09,6.95-.28,3.25-.33,3.1-.63,5.7-.83,2.78-.21,2.7,.16,7.37,.14,3.76-.01,4.15-.25,6.4,0,1.95,.22,2.25,.47,4.17,.55,2.24,.1,2.54-.2,4.59,0,1.91,.19,2.45,.53,2.92,.14,.81-.67,.16-2.44-.28-4.58-.29-1.43-.03-.8-.42-7.77-.25-4.6-.34-4.43-.7-9.99-.39-6.15-.7-11.79-.7-11.79-.3-5.5-.3-6.41-.83-8.18-.9-3.02-2.31-5.14-3.89-7.49-3-4.45-3.97-4.38-5.84-7.21-2.85-4.3-3.37-8.64-4.17-15.26-.78-6.44,.1-6.95-1.11-11.1-.56-1.91-1.66-5.67-4.65-9.4-2.51-3.14-3.76-3.02-5.36-5.85-1.92-3.39-1.95-6.78-1.95-8.32,.01-5.09,2.02-6.69,3.06-11.37,1-4.52,.22-7.99-1.11-13.87-1.29-5.72-3.38-10.09-7.51-18.59-4.76-9.79-5.18-9.02-7.23-14.43-2.32-6.12-2.39-8.74-5.01-13.87-2.48-4.88-5.32-8.19-6.67-9.71-2.44-2.74-5.18-4.82-10.57-8.88-3.17-2.39-7.86-5.9-14.46-9.99-7.11-4.4-6.16-3.1-10.57-6.1-6.02-4.1-8.36-6.9-11.12-6.1-.82,.24-1.71,.8-4.13,5.11-3.95,7.01-3.75,9.35-6.06,12.61-2.68,3.79-4.76,3.19-10.39,7.25-7.03,5.07-7.33,8.56-12.79,13.87-6.73,6.55-9.07,3.98-20.58,11.1-11.25,6.96-9.81,9.9-25.03,20.53-6.57,4.59-8.32,5.08-12.24,8.88-4.39,4.26-5.75,7.11-9.46,7.77-4.13,.74-7.86-1.84-10.01-3.33-4.78-3.31-6.15-6.87-8.9-10.54-2.72-3.63-3.2-1.39-12.1-7.77" style="fill:#6bcef3;"/><path id="FigureA" d="M976.54,175.57c.05-5.97,1.27-7.23,0-9.62-1.62-3.03-5.23-4.04-6.67-4.44-1.17-.32-3.93-.93-13.35,1.48-6.64,1.7-6.41,2.3-10.38,2.96-7.03,1.17-7.7-.71-11.87,.74-4.71,1.64-4.71,4.33-11.12,8.14-3.2,1.9-5.8,2.78-8.53,3.7-11.31,3.82-14.66,.95-20.51,5.11-1.61,1.15-4.53,3.62-7.3,6.73-1.38,1.55-1.75,2.16-3.34,3.88-.79,.86-2.95,3.16-6.3,5.92-3.69,3.04-5.25,3.7-11.31,7.77-7.3,4.9-6.8,5.14-12.42,8.69-4.69,2.96-9.01,5.31-9.38,5.67-2.01,.88-5.55,2.45-8.35,3.72-5.65,2.56-5.31,2.62-7.29,3.37-3.38,1.28-5.33,1.57-10.94,2.77-6.52,1.41-9.78,2.11-12.61,2.96-2.58,.78-2.48,.89-13.72,5.18-7.46,2.85-8.27,3.09-9.64,3.33-2.74,.48-3.2,.16-12.24,0-2.61-.05-.42,.02-11.87,0-6.22-.01-6.99-.03-8.53,.37-2.45,.64-4.64,2.04-8.9,4.81-3.8,2.47-4.26,3.07-8.53,5.92-3.9,2.6-5.85,3.9-7.79,4.81-5.08,2.38-9.47,2.4-12.98,2.59-.08,0-7.59,1.36-22.62,4.07-21.61,3.9-24.63,4.86-27.44,5.92-8.23,3.09-12.98,5.18-12.98,5.18-9.09,3.99-12.52,6.3-14.46,4.81-2.03-1.56-.98-6.11,0-10.36,.52-2.26,1.27-4.59,5.93-14.06,4-8.13,5.23-10.04,5.93-11.1,2.16-3.23,3.79-5.68,6.67-8.14,4.08-3.48,5.56-2.62,10.38-5.92,3.82-2.62,3.52-3.58,10.38-10.36,5.89-5.81,5.8-4.79,9.64-8.88,5.68-6.04,5.18-7.52,10.38-12.58,3.47-3.37,3.33-2.36,8.9-7.4,1.49-1.35,4.17-4,9.46-9.25,5.08-5.04,5.48-5.48,6.12-6.29,1.83-2.31,3.19-4.8,5.93-9.62,2.93-5.15,2.57-5.15,4.45-8.14,2.49-3.95,4.79-6.59,7.42-9.62,3.54-4.07,6.58-6.67,7.42-7.4,2.68-2.33,4.19-3.65,6.49-4.99,4.01-2.35,7.64-3.18,10.85-3.88,7.17-1.57,9.07-.42,12.79-2.77,1.29-.81,3.84-2.48,4.73-5.55,.8-2.77-.16-5.27-.83-6.94-1.1-2.72-2.34-3.69-5.01-6.94-1.87-2.29-3.47-4.67-6.67-9.43-3.67-5.46-3.48-5.77-5.84-8.88-2.86-3.76-3.35-3.5-6.12-7.21-2-2.68-2.16-3.26-6.12-9.43-2.69-4.2-4.35-6.76-6.67-9.99-4.93-6.83-5.91-7.78-6.67-8.32-1.99-1.42-4.36-2.24-9.08-3.88-1.08-.37-3.16-1.07-5.93-1.29-3.57-.29-4.68,.49-5.01,.74-1.52,1.17-1.74,3.1-1.79,3.53-.25,2.16,.82,3.86,1.79,5.35,.84,1.3,1.32,1.59,3.52,3.88,2.29,2.39,3.44,3.58,4.45,4.99,1.91,2.66,2.72,5.15,3.15,6.48,.66,2.09,1.18,4.67,1.11,9.62-.04,3.36-.32,5.64-1.67,14.43-1.67,10.95-1.93,11.93-2.41,13.32-.36,1.04-2.05,5.76-5.93,11.1-.97,1.33-1.92,2.46-2.02,2.58-2.01,2.36-3.78,3.89-4.6,4.6-3.49,3.02-6.93,6.09-10.45,9.08,0,0-2.04,1.73-6.85,5.94-7.2,6.29-9.21,8.59-15.95,14.8-11.91,10.97-11.73,9.37-19.1,16.83-3.76,3.81-5.95,6.4-11.12,11.1-3.14,2.85-5.72,5.19-9.46,7.95-8.58,6.34-10.28,5.29-13.35,9.25-1.82,2.35-1.06,2.51-5.56,12.76-2.26,5.16-3.4,7.74-4.45,9.43-3.5,5.62-6.52,6.37-13.72,12.58-1.96,1.68-8.34,7.32-14.65,15.72-4.01,5.34-6.56,8.9-8.9,14.43-2.01,4.74-1.75,6.11-3.89,9.43-2.82,4.37-5.94,6.15-9.46,8.88-7.96,6.17-6.01,7.95-13.91,14.98-7.37,6.56-9.34,5.25-20.58,14.43-6.27,5.12-8.12,7.54-9.46,9.99-2.85,5.23-1.46,7.17-4.45,12.21-3.44,5.8-6.05,5.17-10.01,10.54-2.33,3.16-3.63,8.81-6.12,19.97-1.78,7.97-2.67,11.96-3.34,17.76-.97,8.4-.24,9.61-1.67,15.54-1.39,5.74-2.61,6.84-3.34,12.21-.63,4.65-.3,8.26,0,11.65,.35,3.92,.76,8.47,2.78,13.87,1.91,5.1,2.88,4.59,5.01,9.99,2.77,7.02,1.29,8.27,3.89,13.32,2.54,4.92,6.17,8.06,7.79,9.43,3.85,3.27,5.53,3.21,10.01,7.21,2.6,2.32,4.15,3.7,5.56,6.1,2.65,4.49,2.72,8.96,2.78,12.76,.03,2.12,.06,5.42-1.11,9.43-1.46,4.97-2.94,4.83-5.01,10.54-1.56,4.32-.94,5.04-2.78,9.99-1,2.7-1.94,4.51-3.34,7.21-1.65,3.2-4.05,7.79-7.79,12.76-4.14,5.52-4.44,4.19-7.79,8.88-3.46,4.84-5.32,9.29-7.23,13.87-1.35,3.23-2.41,5.78-3.34,9.43-.54,2.12-1.13,5.03-1.67,12.76-.42,6.06-.73,10.45-.56,16.09,.28,9.41,1.52,9.85,2.22,19.42,.84,11.32-.19,20.01-.56,22.75-1.17,8.85-3.2,15.43-4.45,19.42-2.28,7.27-3.42,10.91-6.12,15.54-2.68,4.59-4.32,5.8-6.67,11.1-1.93,4.34-2.89,8.16-3.34,9.99-.87,3.53-1.19,6.12-1.67,9.99-.74,6.02-.96,10.98-1.11,14.43-.35,8.17,.06,8.15-.56,11.1-.85,4.04-1.86,5.19-2.23,9.43-.2,2.3-.39,4.83,.56,7.77,.82,2.54,1.53,2.41,3.89,6.66,2.67,4.81,2.36,6.06,4.45,7.77,.56,.45,2.9,2.37,5.75,2.03,1.47-.17,2.73-1.1,5.19-2.96,3.02-2.28,2.67-2.64,4.45-3.7,3.16-1.87,4.4-.81,6.67-2.59,1.61-1.25,2.29-2.8,3.34-5.18,1.26-2.85,1.61-5.3,1.85-7.03,.27-1.94,.3-3.48,.37-6.29,.12-5.02-.19-6.03,.74-7.03,.82-.89,2.28-1.08,5.19-1.48,3.62-.49,4.35,.02,5.19-.74,1.28-1.16,.46-3.16,.37-7.4-.09-4.22,.7-3.88,.74-8.14,.03-3.43-.47-5.98-1.48-11.1-.8-4.06-1.66-7.08-1.85-7.77-1.25-4.36-1.62-4.42-2.22-7.03-.66-2.88-.7-5.29-.74-9.99-.05-5.37,.29-9.43,.37-10.36,.46-5.36,1.24-9.39,1.85-12.58,1.25-6.43,1.64-6.15,2.6-11.84,.45-2.68,.66-4.48,1.48-7.4,.91-3.22,1.45-3.82,2.22-6.29,.85-2.72,.8-3.88,1.48-11.47,.2-2.24,.51-5.19,1.11-11.1,.92-8.94,.91-8.05,1.11-10.73,.29-3.89,.26-5.08,.74-7.77,.63-3.53,1.52-6.09,1.85-7.03,1.07-2.96,1.65-3.45,3.34-7.03,3.41-7.22,2.32-7.9,4.82-11.47,2.24-3.2,3.26-2.87,5.19-6.29,.24-.42,1.15-2.38,2.97-6.29,1.53-3.28,1.81-3.91,2.6-4.81,.75-.86,1.36-1.27,4.82-3.33,5.3-3.15,5.53-3.16,6.67-4.07,1.29-1.03,3-2.42,4.45-4.81,1.48-2.44,1.98-4.77,2.22-5.92,.41-1.95,.61-2.92,.56-4.25-.06-1.41-.34-2.2,.19-3.14,.07-.13,.72-1.26,2.04-1.48,1.27-.21,2.23,.59,2.41,.74,.93,.77,1,1.7,1.48,3.33,.34,1.15,.97,2.49,2.22,5.18,.97,2.07,1.46,3.11,2.23,4.25,1.93,2.86,2.82,2.51,3.71,4.44,.47,1.01,.5,2.85,.56,6.47,.03,2.24-.01,2.74,0,5.36,.02,3.9,.03,5.88,.37,7.03,.88,3.02,2.73,4.94,3.34,5.55,2.02,2.04,4.24,2.98,5.93,3.7,2.4,1.01,3.49,1,5.75,2.4,1.39,.87,2.29,1.45,2.78,2.59,.64,1.49-.05,2.52,.74,3.7,.67,1.01,1.86,1.3,2.6,1.48,7.4,1.84,4.57,1.85,9.46,2.59,2.21,.33,6.87,.95,13.16,.92,3.9-.02,5.9-.04,7.97-.74,1.72-.58,3.5-1.68,7.05-3.88,2.12-1.31,3.46-2.15,5.19-3.51,1.32-1.04,2.93-2.31,4.64-4.25,1.05-1.2,3.04-3.51,4.45-7.03,1.36-3.38,1.51-6.19,1.67-9.25,.11-2.05,.22-4.39-.37-7.4-.49-2.51-1.24-4.34-2.04-6.29-.89-2.17-1.6-3.89-2.97-5.92-1.51-2.23-2.94-3.54-5.56-5.92-2.65-2.41-3.97-3.62-5.75-4.44-.71-.33-3.5-1.56-7.23-1.48-2.42,.05-2.27,.59-5.75,.92-1.88,.18-1.47-.02-7.05,0-3.25,.01-4.08,.08-5.19-.55-1.84-1.05-2.52-2.91-2.6-3.14-.52-1.5,.1-1.82,.19-5.18,.07-2.83-.35-3.62,.37-4.99,.54-1.03,1.33-1.64,1.85-2.03,1.57-1.18,2.98-1.34,4.08-1.66,3.32-.99,3.41-3.46,6.86-5.92,2.29-1.63,2.54-.75,7.6-2.77,2.33-.93,6.48-2.63,10.75-6.1,1.32-1.07,3.36-2.76,5.38-5.55,1.98-2.74,2.94-5.17,3.15-5.73,.72-1.89,.51-2.07,1.67-6.29,.96-3.52,1.14-3.48,1.67-5.73,.47-2,.69-3.64,1.11-6.84,.63-4.83,.49-5.16,.93-7.95,.66-4.18,1.06-3.91,1.67-7.58,.16-.94,.35-2.27,.74-11.28,.24-5.44,.2-5.73,.37-7.95,.52-6.76,1.23-9.03,1.48-9.8,.39-1.19,1.16-3.47,2.78-6.1,1.84-2.99,2.83-3.26,3.34-5.27,.83-3.27-.85-6.21-1.11-6.66-1.33-2.25-2.67-2.25-5.84-4.72-1.61-1.25-1.54-1.46-7.51-8.05-4.58-5.05-4.12-4.37-5.84-6.38-3.62-4.24-5.44-6.36-6.95-9.16-2.31-4.26-1.79-5.52-4.17-8.05-1.01-1.07-2.24-2.04-3.62-4.16-1-1.54-1.71-2.66-1.67-4.16,.04-1.72,1.04-2.96,2.23-4.44,1.61-2.01,3.27-3.11,3.62-3.33,.55-.35,2.04-1.23,5.84-2.08,2.28-.51,3.95-.7,6.67-.97,3.49-.35,2.87-.08,6.67-.42,4.03-.35,5.19-.69,6.67,.14,.91,.51,1.39,1.17,2.35,2.49,.7,.96,2.23,3.11,2.93,6.38,.12,.57,.65,3.23,0,6.66-.57,3.02-1.35,3.02-2.5,6.94-.04,.15-.14,.46-.26,.9-.82,2.94-1.13,6.03-1.13,6.03-.64,6.28,.9,7.8-.56,9.43-1.68,1.88-4.89,1.13-5.18,2.58-.12,.6,.42,.76,1.28,2.97,.5,1.29,.43,1.52,.83,2.08,.4,.55,.86,.85,2.5,1.66,1.92,.95,2.35,1.05,3.89,1.8,1.59,.78,1.69,.94,2.78,1.39,1.87,.77,2.8,1.15,3.34,.83,.84-.5,.44-2.07,.28-7.21-.1-3.24,.03-3.82,.28-4.44,.19-.46,.45-.96,3.34-3.88,1.17-1.18,1.64-1.63,3.06-3.05,2.72-2.72,3.06-3.18,3.34-3.61,.3-.45,1.08-1.72,1.67-4.16,.79-3.26,.21-4.4,.28-9.57,.06-4.83,.58-5.53,0-8.32-.26-1.22-.61-2.91-1.67-4.85-.96-1.76-1.56-1.96-2.23-3.61-.32-.78-.99-2.51-.83-4.72,.19-2.7,1.51-4.57,2.22-5.55,1.25-1.72,2.8-2.74,5.84-4.72,2.69-1.74,4.62-3,7.51-4.16,2.5-1.01,2.65-.71,7.51-2.22,3.75-1.16,5.63-1.75,7.79-2.77,4.54-2.17,7.49-4.76,8.07-5.27,2.47-2.2,2.38-2.84,5.28-5.55,2.38-2.22,3.99-3.24,5.86-4.63,4-2.97,6.48-5.65,11.1-10.63,6.31-6.8,5.08-6.87,9.18-10.54,2.29-2.06,4.96-3.96,10.29-7.77,5.62-4.02,4.11-2.56,6.95-4.72,2-1.52,3.06-2.46,5.01-3.05,1.79-.54,3.19-.43,5.28-.28,3.15,.22,6.31,.33,9.46,.55,5.07,.37,4.45-.2,11.4,0,8.07,.23,9.08,.99,12.51,0,2.43-.7,2.21-1.17,6.67-2.77,4.19-1.51,4.86-1.27,8.07-2.5,2.85-1.1,3.22-1.63,8.07-4.16,6.61-3.45,6.18-2.58,9.18-4.44,2.66-1.64,2.88-2.25,10.01-8.32,5.97-5.08,5.24-4.17,6.95-5.83,5.16-4.99,4.91-6.64,9.73-10.82,2.2-1.91,2.28-1.59,6.4-4.99,2.61-2.15,4.84-4.16,6.4-5.55,3.62-3.25,3.72-3.5,5.84-5.27,1.35-1.12,3.22-2.67,5.84-4.44,2.29-1.54,4.56-3.07,7.79-4.44,2.83-1.2,3.11-.88,6.12-2.22,3.18-1.41,3.46-2.02,5.84-3.05,2.25-.97,4.31-1.31,8.34-1.94,2.36-.37,5.53-.86,10.29-1.11,5.1-.27,5.24,.09,11.96,0,4.65-.06,4.88-.24,13.63-.55,9-.32,7.98-.11,9.18-.28,1.8-.26,14.79-2.1,18.17-10.36,.76-1.86,.76-4.2,.74-8.88-.01-5.24-.78-5.59-.74-10.36Zm-355.79,253.84c-.09,.49-.35,1.88-1.48,5.18-.74,2.15-1.41,4.1-2.6,6.66-1.77,3.81-2.65,5.73-4.64,7.77-.08,.09,.02-.03-3.71,3.14-1.34,1.14-2.09,1.78-3.34,2.22-.66,.23-1.63,.57-2.78,.37-1.29-.22-2.18-1.01-3.15-2.03-2.32-2.47-3.69-4.87-4.08-5.55-2.16-3.84-3.39-6.94-3.71-7.77-.89-2.29-1.66-4.26-2.23-7.03-.53-2.6-.6-4.57-.74-8.51-.08-2.39-.06-4.34,0-8.14,.12-7.96,.37-9.36,.74-10.73,.77-2.84,1.89-4.94,2.23-5.55,.51-.93,1.21-1.91,2.6-3.88,2.17-3.07,3.06-4.03,3.89-4.81,1.4-1.3,2.38-2.18,3.52-2.03,1.28,.16,2.04,1.5,2.6,2.4,2.58,4.2,2.65,2.28,6.3,7.77,2.14,3.21,1.36,2.74,5.38,9.99,2.55,4.61,3.69,6.29,4.64,9.62,.7,2.48,.87,4.39,.93,5.55,.03,.73,.09,2.76-.37,5.36Z" style="fill:#de4097;"/></svg>