<?xml version="1.0" encoding="UTF-8"?><svg id="Layers" xmlns="http://www.w3.org/2000/svg" viewBox="0 0 3232 5142"><path id="FigureB" d="M1695.67,3905.01c-29.85-.38-47.83-.64-65.05,1.65-3.96,.64-9.18,1.4-20.79,2.92-.13,.13-.38,.13-.51,.13-10.71,1.27-13.39,1.65-14.92,1.91-.26,0-.38,.13-.64,.13s-.51,.13-.89,.25c-1.53,.51-2.93,1.02-4.21,1.65-5.87,2.54-8.42,5.72-17.48,9.78-.77,.38-1.53,.64-2.3,1.02-7.14,2.92-10.59,4.45-13.52,3.94-.51-.13-1.02-.25-1.4-.51-1-.43-1.81-1.06-2.59-1.8-1.95-1.53-3.65-3.59-5.45-6.72-.13-.13-.26-.25-.26-.38-2.55-4.32-5.99-10.17-11.99-17.03-2.68-3.05-6.51-6.61-14.29-13.85-9.57-8.77-14.29-13.22-17.35-15.12-10.59-6.61-21.05-8.13-33.55-9.91-10.46-1.52-18.62-1.52-20.66-1.52-25.38,.38-45.54,8.89-62.25,16.14-21.81,9.53-24.11,14.1-40.44,17.54-9.44,2.03-13.14,1.4-23.47,4.83-3.95,1.27-15.56,5.34-29.08,14.49-9.18,6.23-7.65,6.99-16.97,12.96-10.46,6.86-19.77,10.55-24.75,12.58-2.93,1.14-10.2,3.94-19.9,6.48-13.39,3.43-14.16,1.78-26.15,4.7-5.87,1.52-10.84,3.05-14.8,4.45-.13,0-.38,.13-.51,.13-4.72,1.65-8.04,2.67-9.82,2.16-.51-.13-.89-.25-1.15-.64-.77-1.14,0-2.8,.64-4.45,2.68-7.24-1.66-1.65,4.59-22.11,4.97-16.9,7.78-19.95,8.04-28.84,.26-8.39-2.93-8.01-3.44-19.06-.38-7.75,.89-10.29,1.02-20.08,.13-8.01-.64-9.91-1.02-17.92-.38-8.01-1.15-23,3.44-39.9,2.17-7.75,4.85-13.85,7.91-20.71,6.38-14.49,8.93-15.5,11.23-24.27,2.3-9.02-.26-8.51,2.42-23.76,1.79-10.42,2.68-15.63,5.36-20.33,2.17-3.81,4.46-6.35,5.23-11.31,.51-3.68-.26-5.59-.89-10.42-.89-6.86-.38-12.07,0-17.28,.64-6.35,1.15-12.58,4.34-19.82,2.3-5.08,4.72-8.39,7.02-11.31,5.74-7.62,10.72-11.31,16.46-16.39,9.06-8.13,14.67-14.87,22.58-24.27,10.08-12.07,7.27-16.39,14.8-22.49,2.42-1.91,6.38-4.57,6.51-8.64,.13-3.18-2.04-5.21-3.83-7.88-5.1-6.73-2.55-10.93-7.02-18.17-8.8-14.23-16.07-13.85-20.03-25.03-.77-2.29-1.02-6.99-1.66-16.52-.77-10.29-.26-13.98-.89-26.81-.64-10.42-1.28-15.37-4.72-19.82-2.3-2.92-4.59-4.32-6.63-5.72-11.35-7.5-21.3-18.81-26.66-28.46-1.28-2.03-5.74-10.55-7.14-22.49-1.66-14.49,2.17-26.05,4.08-31.51,1.4-4.07,2.81-6.99,3.7-8.77,4.72-9.78,9.69-15.88,17.35-25.16,11.74-14.1,21.56-22.62,23.98-24.65s5.87-5.08,10.84-8.64c6.51-4.7,16.2-11.69,30.1-16.65,3.44-1.14,8.93-3.05,16.46-4.32,9.95-1.52,19.39-.51,37.63,1.52,7.65,.76,12.76,1.4,20.03,2.54,4.21,.76,15.94,2.8,31.25,6.99,8.04,2.16,19.9,5.46,33.93,11.18,13.52,5.59,30.61,12.71,48.6,27.45,11.86,9.53,21.05,17.28,26.66,31.13,2.55,6.35,6.25,15.37,4.59,26.56-1.4,10.04-6.38,16.14-6,29.99,0,3.3,.38,5.72,.89,8.64,2.42,17.03,7.27,19.44,6.89,29.48-.25,7.75-3.32,7.5-3.44,16.39-.13,4.32-.26,13.85,5.23,18.17,5.1,4.07,11.74,.25,22.58-.89,12.37-1.14,17.35,2.41,32.4,5.59,32.27,6.61,39.42-3.56,73.6,3.94,11.35,2.54,18.62,5.46,23.09,7.5,9.31,4.32,13.9,8.01,27.3,17.41,27.42,19.31,26.28,16.65,34.19,23.63,11.23,9.91,9.06,11.44,25.38,29.35,17.35,19.06,20.03,17.79,33.68,33.55,12.63,14.61,12.63,18.55,25.51,34.56,13.9,17.41,23.6,24.78,33.55,34.69,43.5,43.2,57.91,100.64,59.06,105.46,6.63,27.57,1.66,34.05,11.61,60.61,7.53,20.2,14.41,27.06,17.09,46.12,1.53,11.44-.25,13.6-3.83,46-2.42,22.62-3.32,39.39-5.1,68.36-1.28,18.81-1.79,28.46-1.79,37.99,.13,25.16,2.68,32.28,4.59,59.98,1.4,20.71,0,15.5,1.15,62.9,.38,12.71,.25,6.61,2.3,61.75,1.28,32.15,1.4,36.34,2.42,45.62,2.3,21.35,4.59,24.4,8.67,49.05,2.93,18.04,6.38,39.52,6.38,66.33-.13,22.11-2.42,22.62-2.93,56.54-.26,21.22,0,37.48,0,37.48,.51,28.84,1.79,30.75,0,39.9-3.32,16.52-8.93,16.9-15.69,37.99-5.36,17.03-6.38,30.88-6.89,39.9-1.15,17.41,.89,26.81,3.44,50.19,0,0,2.55,22.49,4.59,56.8,2.17,37.48,1.4,70.52,.64,102.41-.77,31.38-1.66,35.71,0,49.3,2.68,21.6,7.27,28.59,5.23,46.76-1.4,11.69-3.95,15.12-4.34,29.35-.38,12.32,1.53,16.14-1.79,22.49-.77,1.52-2.3,4.07-17.35,16.52-10.84,8.89-13.27,10.17-13.9,13.85-.64,3.81,1.28,7.12,9.57,17.28,15.05,18.55,18.11,19.44,22.58,27.7,2.55,4.7,7.02,13.09,6.89,24.27,0,3.05,0,18.81-10.33,27.7-5.48,4.57-10.46,4.57-34.82,5.21-39.29,.89-43.24,1.65-55.61,0-10.97-1.52-17.35-3.43-29.47-6.99-15.31-4.45-17.6-6.61-19.13-8.64-5.36-7.5,1.15-13.98,0-31.13-.77-11.06-4.21-18.93-10.46-32.91-4.85-11.05-7.65-17.41-13.9-24.27-6.89-7.62-9.18-6.23-19.13-15.5-5.74-5.59-12.63-12.07-17.35-22.49-3.57-8.26-4.34-15.25-5.23-22.62-1.02-9.4-.26-13.98,0-24.14,.64-20.08-1.91-19.69-1.66-39.9,.13-18.3,2.17-18.93,1.66-34.56-.38-16.52-2.68-15.88-3.44-31.13-.77-15.88,1.02-30.11,2.93-40.53,.77-4.57,1.66-8.51,2.3-11.44,2.81-12.96,4.46-14.87,5.23-23.51,0-1.91,.13-3.94,.13-6.23-.13-8.01-1.79-12.07-1.91-25.67,0-5.21,.26-6.86,.89-16.26,.26-2.92,.64-6.61,.89-11.44,1.02-14.74,1.53-22.11,1.66-29.35,.25-8.26,.13-12.83-.89-32.02,0-1.53-.13-2.92-.13-4.57-.26-3.56-.38-7.5-.64-11.94-1.15-21.35-1.66-32.15-1.79-36.34-.13-6.48-.26-12.2-.26-17.28-.13-11.69,.38-20.46,2.04-31.13,2.42-14.99,3.19-13.47,6.89-29.48,3.44-14.36,1.4-16.14,3.57-50.19,1.53-24.01,2.55-22.74,3.44-41.55,.89-19.44,1.53-31.51,0-46.63-3.06-30.62-10.59-32.66-13.9-65.82-1.02-10.42-3.19-20.71-3.44-31.13-.51-13.22,.64-19.44-3.57-22.49-5.36-4.07-16.07,.25-22.58,5.08-7.65,5.97-7.65,11.44-15.56,24.27-7.04,11.42-17.73,24.08-20.92,22.49-2.09-1.04,1.44-7.02,.46-20.31-.48-6.47-1.61-9.09-2.09-17.93-.25-4.64-.19-8.48-.08-11.07,.25-1.36,.48-2.78,.67-4.26,.54-4.27,.65-8.21,.53-11.75-.01-.08-.04-.22-.06-.38,0,0-.41-2.41-1.08-5.21-.46-1.91-1.67-6.55-3.44-12.71,0-.13-.13-.25-.13-.38-1.4-4.45-3.32-9.02-5.99-13.72-5.74-10.04-12.5-15.76-23.47-25.16-12.88-11.05-23.85-17.54-26.4-19.82-.51-.38-.64-.76-.51-.89,.13-.25,.64-.25,1.53,.13,.64,.25,1.53,.64,2.68,1.14,3.19,1.52,8.16,3.68,14.8,5.59,1.4,.38,3.7,1.02,7.78,1.78-.5-1.09-3.45-7.63-1.06-9.84,1.39-1.28,3.95-.51,7.63,.47,5.3,1.41,10.82,1.99,16.02,3.76,11.83,4.02,12.23,1.1,33.29,6.09,7.81,1.85,14.72,3.9,24.99,3.46,2.05-.09,3.73-.25,4.85-.38,.13,.13,.38,0,.51,0,1.4-.13,2.81-.25,4.21-.38,1.53-.13,3.06-.25,4.59-.38,16.07-1.4,23.98-2.16,31.38-4.57,.89-.25,1.91-.64,3.06-1.02,7.65-2.54,19.39-7.24,30.49-18.04,2.42-2.41,6.25-6.1,9.82-11.18,.13-.13,.26-.38,.38-.51,3.44-4.95,6.63-11.31,8.29-18.81,.13-.51,.25-1.02,.25-1.52,0-.64,.13-1.14,.13-1.78,.26-1.52,.26-3.43,.38-5.59,.13-2.16,.13-4.7,.25-7.75,0-2.92,.13-6.23,.13-9.91,0-4.19,.13-7.88,.13-11.18-.13-2.29-.13-4.7-.13-7.37-.13-6.86-.13-12.96-.38-18.42-.26-10.04-.77-17.92-1.91-25.41-1.28-8.51-3.44-23-10.72-37.61-.25-.51-.38-1.02-.64-1.52-.38-.89-.77-1.52-1.02-2.03-.38-.51-.64-1.02-.89-1.52-3.83-6.86-8.93-13.6-15.69-19.57-10.33-9.15-21.56-13.72-26.15-15.63-12.1-5.03-23.51-6.8-32.65-7.37m-148.48,488.57c.19-9.32,1.87-12.02,2.5-22.02,.2-3.2,.21-5.77,.23-9.96,.02-5.69-.15-9.98-.2-11.24-.12-2.78-.36-8.28-1.13-14.99-.97-8.41-2.32-14.79-3.55-20.53-2.08-9.71-2.68-10.15-3.68-16.43-.76-4.76-.97-8.57-1.38-16.02-.64-11.74-.2-13.87-.94-25.53-.4-6.32-.83-10.32-.97-11.61-.82-7.56-1.23-11.34-2.2-15.35-2.98-12.29-9.31-20.79-11.92-24.22-3.4-4.47-6.75-7.77-9.24-9.99l-9.19-7.93c-4.88-3.68-9.13-6.5-12.32-8.51-3.97-2.5-7.3-4.36-11.35-6.63-2.63-1.47-5.54-3.1-9.34-5.07-10.1-5.22-11.84-5.24-15.73-8.13-2.23-1.65-5.46-4.46-8.6-9.09-.24,2.23-.34,5.22,.19,8.69,.59,3.86,1.76,6.95,2.78,9.11-1.28,2.03-1.91,4.96-2.17,8.64-.64,10.04,1.79,25.03,4.46,36.34,.26,1.27,.51,2.54,.89,3.94,1.91,6.73,4.08,12.58,5.87,17.28,.64,1.65,1.53,3.43,2.55,5.72,.77,1.91,1.79,4.19,3.06,6.86,.38,.89,.89,1.91,1.4,3.05,5.87,11.44,9.95,16.9,13.27,27.57,.13,.51,.38,1.14,.64,1.78,.38,1.02,.64,1.91,.77,2.8,1.02,4.45,1.53,8.26,2.04,14.48,.13,1.02,.13,1.91,.13,2.92,.26,1.65,.38,3.68,.51,5.84,1.6,20.99,1.97,24.49,2.2,25.99,.09,.56,.09,.56,.16,1.01,2.26,14.11,.75,26.4,.27,31.8-.47,5.25,.24,1.79,2.03,34.62,.9,16.59,1.35,24.88,1.16,30.58-.74,21.69-4.27,20.09-3.19,33.46,0,0,1.25,15.43-2.28,22.03-.16,.31-1.22,2.31-2.4,5.14-.43,1.04-.89,2.27-1.4,3.95-4.08,14.1-6.51,19.19-9.44,26.56,0,0,0,.13-.13,.25-1.66,4.45-3.29,6.92-7.78,14.74-10.92,19.03-4.45,29.84-11.83,58.9-2.22,8.74-3.53,11.55-4.41,19.02-1.34,11.31-.05,19.2,.81,27.68,.91,9.01,1.66,21.92,.71,38.1,1.79,17.23-.02,30.6-1.92,39.42-1.74,8.08-3.98,14.35-8.42,26.78-7.13,19.95-9.67,22.29-12.58,34.54-2.59,10.9-4.39,18.49-2.62,27.64,2.89,14.96,15.01,32.33,22.86,30.85,20.23-3.82,.53-130.48,32.96-174.85,17.34-23.72,20.22-32.57,26.15-50.19,7.14-21.22,2.68-22.11,10.33-48.41,6.89-23.13,10.71-23.76,17.48-44.98,4.97-16.14,6.76-31.51,10.33-62.39,6.75-58.35,3.51-60.85,3.57-64.04Zm-140.19,546.38c5.23-15.76,11.48-34.31,6.38-53.11l-.13-.13c-.25-1.27-.64-2.41-1.02-3.68-3.06-8.64-7.91-14.87-12.76-21.22-.89-1.27-3.19-4.07-6.89-7.88-.25-.25-.51-.64-.77-.89-3.95-4.19-9.57-9.28-16.71-14.61-.38-.25-.77-.64-1.15-.89-2.04-1.4-3.83-2.41-5.36-3.43-.13-.13-.25-.25-.38-.25-6.27-4.1-10.65-5.83-16.9-9.7-5.29-3.28-7.85-5.05-9.25-6.44-4.21-4.16-7.77-10.9-8.8-33.21-.46-10-.11-16.5,.13-23.97,.3-9.42,.49-23.06-.13-39.9,0-.64-.13-1.14-.26-1.78-.38-2.67-.77-5.46-1.28-8.51-.38-2.54-.89-5.08-1.28-7.37-1.4-7.62-3.44-16.77-7.53-27.19-.83-2.27-1.7-4.36-2.56-6.26-.88-1.94-1.66-3.46-2.16-4.42-4.46-8.53-12.47-21.13-16.08-30.91-1.82-4.95-3.64-12.2-3.26-21.94,2.43-6.99,3.1-12.76,3.26-16.71,.42-9.89-2.03-15.15-1.74-27.12,.06-2.64,.31-7.38,2-13.1,.51-1.71,1.02-3.1,1.4-4.07,0-.13,.13-.38,.13-.51,1.15-3.56,4.21-10.93,10.33-25.54,.77-1.91,1.66-3.94,2.55-5.97,0-.25,.13-.51,.26-.76,.77-1.65,1.4-3.3,2.04-4.7,.64-1.52,1.28-2.92,1.79-4.19,1.28-2.67,2.3-4.83,3.19-6.86,.64-1.4,1.28-2.67,1.91-3.94,1.02-2.02,1.66-3.54,1.79-3.81,2.18-4.73,8.95-16.44,11.71-21.74,4.05-7.78,5.98-14.25,7.24-18.46,1.21-4.06,3.53-12.82,4.01-36.92,.19-9.52,.1-21.86-.89-36.34v-.25c-.51-.89-1.02-1.65-1.66-2.41-1.4-1.65-2.81-3.42-7.14-2.78-1.79,.25-6.38,.75-7.78,2.78-3.7,5.85-5.61,16.14-10.33,33.8-4.97,18.68-4.97,11.56-15.56,44.98-9.95,31.13-8.67,33.54-15.69,50.19-9.44,22.62-12.63,20.46-15.56,32.91-1.35,5.72-1.47,10.31-1.49,12.26-.18,21.14,1.44,56.12,1.44,56.12,.19,4.1,1.19,27.94-3.52,41.27-1.43,4.04-3.1,7.76-3.1,7.76-3.08,6.61-6.44,10.87-15.39,29.09-7.02,14.36-12.76,28.46-24.36,56.54-15.18,37.23-16.58,43.33-17.35,47.4-3.19,16.39-3.32,30.75-3.44,44.98-.13,23.51,2.17,25.79,.64,42.31-1.15,12.83-2.68,12.58-7.65,38.5-3.57,18.93-5.74,29.86-6.89,44.98-1.79,23.13,.77,27.19-3.44,41.55-4.21,14.1-8.16,25.29-8.16,25.41-4.72,12.2-6.76,14.49-6.38,20.08,.89,13.47,14.41,22.36,15.69,23.13,7.91,5.08,11.35,2.8,23.09,7.5,13.39,5.46,11.23,9.4,22.07,13.85,11.86,4.96,16.46,2.29,46.3,3.43,20.28,.89,20.66,2.16,38.27,2.29,14.41,.25,24.87-.38,32.4-1.14,22.45-2.03,33.67-3.05,37.63-9.53,4.97-8.01-3.7-14.23,.64-32.02,2.17-8.89,4.97-9.66,5.74-18.42,.51-5.72-.38-11.18-2.3-21.86-2.04-11.56-2.81-11.82-3.44-17.41-.38-2.67-1.02-10.55,2.3-25.29,3.44-15.63,7.14-20.08,11.61-33.55Z" style="fill:#73bf44;"/><path id="FigureA" d="M430.94,4329.48c-2.23-6.4-2.39-12.48-2.44-14.68-.11-5.5,.66-11.37,1.12-14.75,1.2-8.85,2.51-12.43,.44-14.28-1.47-1.31-3.85-1.04-6.58-.43-9.69,2.15-17.26,7.05-26.69,13.79-6.26,4.48-6.21,4.66-14.19,10.36-4.51,3.22-8.03,5.68-11.79,8.3-2.24,1.56-8.17,5.68-16.79,11.53-2.03,1.38-9.4,6.38-20.43,13.71-15.11,10.04-14.84,9.67-20.72,13.71-9.75,6.69-16.85,12.07-22.68,16.5-21.44,16.3-20.83,17.7-29.11,23.2-15.56,10.35-20.79,7.47-42.73,16.7-11.18,4.7-24.88,14.09-52.67,32.31-21.96,14.4-32.94,21.6-42.13,30-13.94,12.74-23.55,25.08-26.92,23.08-2.15-1.28,.5-7.05,1.17-19.62,.51-9.57-.67-13.07-1.17-21.92-1.1-19.31,3.41-21.46,3.51-40.39,.08-14.93-2.66-26.25-4.68-34.62-4.62-19.12-8.11-18.9-12.87-35.77-4.13-14.64-1.11-13.43-5.85-60-1.58-15.52-2.54-21.83-1.17-32.31,.81-6.17,1.96-10.23,8.19-28.85,7.5-22.41,11.26-33.61,15.21-43.85,10.99-28.41,9.76-19.44,16.39-36.93,1.54-4.07,3.36-9.16,8.19-13.85,5.16-5,8.79-4.72,12.87-9.23,4.1-4.54,4.75-9.6,5.85-17.31,1.44-10.02,3.38-19.97,4.68-30,1.7-13.09,5.46-15.13,18.73-43.85,1.2-2.61,10.89-23.68,19.9-48.46,10.72-29.51,7.55-28.73,15.21-46.16,8.11-18.43,10.17-15.94,28.09-49.62,9.54-17.93,11.2-22.86,18.73-33.46,2.94-4.14,11.69-16.08,24.58-27.69,17.96-16.2,30.23-19.39,53.84-32.31,10.22-5.59,6.08-3.99,65.54-45,44.1-30.42,50.26-33.99,58.52-38.08,12.24-6.07,32.65-16.02,60.86-21.92,31.1-6.51,60.86-8.08,60.86-8.08,11.92-.63,22.96-.63,37.45-5.77,13.03-4.62,21.93-10.93,25.75-13.85,5.16-3.93,15.29-12.53,23.41-26.54,4.87-8.41,8.83-15.24,8.19-24.23-.44-6.21-2.74-8.79-7.02-18.46-4.55-10.27-6.71-18.18-9.36-27.69-2.93-10.5-6.23-22.34-6.44-38.08-.25-19.2,4.25-33.28,5.27-36.35,4.85-14.66,11.79-24.75,14.92-28.99,5.88-7.96,14.14-19.14,28.97-26.4,13.61-6.66,25.77-6.59,41.69-6.49,7.82,.05,22.68,.25,40.82,5.91,25.39,7.93,41.62,21.31,49.16,27.69,9.08,7.69,14.78,14.4,21.07,21.78,10.99,12.91,20.07,23.58,26.77,39.81,2.99,7.25,4.95,16.82,8.62,36.02,2.06,10.74,3.38,20.06,2.06,30.48-.73,5.77-2.16,10.89-2.34,11.54-2.13,7.58-3.99,9.89-5.85,15-3.59,9.86-.15,10.88-2.93,26.83-1.72,9.89-3.13,9.98-4.39,19.91-.39,3.05-.72,6.74-1.76,14.71-1.13,8.71-1.61,11.15-3.51,13.85-1.95,2.76-4.24,4.16-8.78,6.92-3.01,1.83-6.59,4.01-11.41,5.19-1.97,.48-5.29,1.08-14.92,0-5.02-.56-10.87-1.24-19.31-3.46-9.77-2.57-9.91-3.76-21.07-6.92-14.27-4.05-18.08-3.26-20.19-2.6-6.14,1.93-9.73,6.51-11.41,8.65-5.31,6.78-4.29,11.54-7.9,22.5-2.55,7.72-3.62,7.07-10.53,21.64-6.65,14.01-9.98,21.02-10.53,25.1-1.82,13.45,6.12,24.19,21.51,45,9.43,12.75,16.18,21.89,28.53,30.72,10.23,7.32,15.83,8.37,25.02,17.74,4.12,4.2,10.12,11.26,14.92,21.2,1.4,2.91,5.04,10.89,7.52,26.71,2.16,13.75,.94,17.44,1.7,44.69,.39,13.99,1.01,24.66,1.76,33.75,.64,7.81,1.58,17.23,3.51,28.56,1.46,8.6,2.74,13.85,4.39,19.04,1.84,5.77,3.51,10.94,7.02,16.44,3.3,5.17,5.35,6.11,14.48,14.71,11.2,10.55,16.88,15.97,20.63,22.93,2.06,3.83,4.75,9.98,5.85,17.74,1.56,10.97-1.67,13.77-.59,20.19,1.51,8.98,9.25,11.92,33.94,28.27,17.15,11.36,30.59,22.02,36.28,26.54,8.28,6.56,22.79,18.46,22.79,18.46,0,0-14.51,7.67-30.26,11.48-8.23,1.99-14.64,2.41-20.66,2.8-10.13,.66-13.34-.14-28.68-.67-11.96-.41-21.04-.3-36.22-.12-16.95,.2-25.42,.3-25.75,.32-8.68,.54-10.83,1.13-14.12,.04-5.08-1.68-11.95-7.06-16.33-25.39-12.73-21.04-19.82-28.73-23.99-31.73-.5-.36-3.66-2.59-7.02-6.35-2.45-2.73-4.84-5.45-5.85-9.23-1-3.73,.26-5.07,.59-10.39,.31-5.08-.57-8.77-2.34-16.15-1.38-5.74-2.06-6.64-4.68-15-3.5-11.19-2.9-11.59-5.85-20.77-1.64-5.09-3.64-11.24-7.02-18.46-4.95-10.58-6.98-10.87-10.53-18.46-3.66-7.82-4.59-15.02-6.44-29.42-2.15-16.76-3.23-25.13-2.34-28.85,.85-3.56-.18-5.7-.59-9.81-.4-4.06-.61-6.1-1.17-6.63-3.65-3.49-20.69,8.07-35.11,18.17-28.15,19.72-30.07,22.52-43.89,31.16-9.58,5.99-18.24,10.48-35.55,19.47-30.74,15.96-37.77,17.63-43.45,27.26-2.98,5.06-3.78,14.4-5.27,32.89-1.17,14.58-1.27,24.06-1.76,48.46-.5,24.83-.74,37.25-.88,39.81-1.29,24.78-3.18,32.18-1.32,48.46,1.1,9.62,1.94,16.97,5.71,25.96,5.74,13.72,14.31,20.93,28.09,34.62,22.34,22.2,33.51,33.29,36.87,36.35,38.13,34.74,38.08,31.57,61.44,53.66,34.46,32.57,35.55,40.54,56.49,51.87,7.19,3.89,17.78,8.74,34.82,19.04,11.05,6.68,22.67,14.35,26.86,17.12,21.39,14.12,18.76,13.64,23.81,15.82,4.09,1.77,7.13,2.65,7.83,5.19,1.73,6.23-12.67,15.03-16.39,17.31-2.61,1.6-15.84,9.34-36.87,12.12-5.37,.71-14.56,1.85-26.33,0-11.72-1.84-20.15-5.74-26.33-8.65-15.87-7.48-14.64-11.04-26.33-15.58-9.59-3.72-11.45-1.72-33.36-5.19-15.84-2.51-23.76-3.77-31.6-6.92-4.56-1.84-8.11-3.76-33.36-22.5-21.27-15.79-20.98-16.09-28.09-20.77-8.03-5.29-16.58-9.94-33.36-19.04-27.44-14.88-27.06-13.6-35.11-19.04-13.53-9.14-11.99-10.99-31.6-25.96-3.75-2.86-6.72-5.02-9.2-6.77-5.63-3.96-7.68-5-12.11-8.4-3.13-2.4-5.35-4.35-6.78-5.61-12.34-10.89-19.66-17.34-23.26-27.69Zm-332.68,288.19c1.55,6.24,3.38,12.9,3.95,25.1,.68,14.59,2.24,19.82,1.46,39.23-.52,12.91,.19,10.19,0,40.39-.28,44.14-1.66,29.37-1.17,41.54,.54,13.51,1.73,18.91-2.34,24.23-6.43,8.41-16,3.6-23.41,11.54-3.84,4.12-3.67,7.97-4.68,36.93-1.04,29.62-1.1,22.1-1.17,28.85-.24,23.02,1.36,26.55-2.34,32.31-5.62,8.74-12.5,5.57-22.24,16.15-9.19,9.99-11.31,21.77-11.7,24.23-2,12.42,2.84,17,3.51,33.46,.07,1.62-.78,11.46-2.34,24.23-.93,7.58-1.72,12.54,1.17,15,4.01,3.41,11.55-.99,12.87,1.15,1.42,2.3-7.06,7.71-12.87,16.15-4.68,6.79-4.04,10.34-8.19,40.39-2.89,20.96-4.23,26.68,0,31.16,3.11,3.29,7.28,3.83,16.39,4.62,18.9,1.62,28.35,2.44,39.79,2.31,1.72-.02,15.19,.76,42.13,2.31,49.45,2.85,91.64,8.88,131.08,1.15,6.12-1.2,16.26-3.53,21.07-11.54,3.18-5.31,1.68-9.22,0-30-2-24.75-.21-23.32-2.34-31.16-3.7-13.61-8.94-17.31-7.02-26.54,.96-4.64,3.32-8.66,7.02-15,3.31-5.66,5.03-8.52,8.19-10.39,6.4-3.77,1.92-1.05,6.4-3.77,1.62-.99,3.25-2.4,3.48-2.6,2.23-1.9,8.68-12.86,6.5-29.98-.07-.54-1-5.14-2.88-14.33-1.82-8.94-2.19-10.54-2.39-11.64-.72-3.92-1.34-12.14,7.02-31.16,9.99-22.72,14.99-34.08,26.33-38.94,8.96-3.84,11.77,.35,26.33-4.33,11.17-3.58,10.6-6.4,22.82-11.25,5.99-2.38,15.69-4.18,35.11-7.79,6.58-1.22,13.05-2.33,21.2-3.08,7.9-.73,11.97-1.08,17.42-.38,2.77,.35,4.75,.82,8.43,.94,5.78,.19,10.32-.67,11.47-.94,9.14-2.14,9.63-14.9,18.73-26.54,13.02-16.66,28.71-11.83,33.36-25.39,2.33-6.8-1.97-7.01-.88-24.23,.32-5.05,1.27-14.23,6.14-24.23,2.78-5.71,4.34-8.9,7.02-9.23,4.64-.57,8.19,8.26,18.73,26.54,8.97,15.56,13.45,23.33,17.56,33.46,6.36,15.69,8.64,27.99,11.7,45,5.16,28.66,1.94,29.63,7.02,50.77,2.25,9.33,5.76,23.93,14.04,41.54,7.57,16.09,12.25,20.09,15.21,33.46,1.86,8.39,1.65,15.71,1.17,30-.66,19.41-2.2,19.21-3.51,41.54,0,0-1.52,25.82,4.68,47.31,.39,1.34,1.07,3.43,2.49,5.77,.71,1.17,3.59,5.69,10.53,9.52,2.06,1.14,5.25,2.64,15.8,4.76,7,1.4,13.6,2.35,20.19,3.03,9.16,.95,16.2,1.16,21.07,1.3,7.11,.2,12.22,.12,19.31,0,10.65-.18,15.98-.27,21.94-.87,10.27-1.03,9.79-1.98,17.99-2.6,8.78-.66,8.52,.49,23.26,.43,11.86-.04,13.11-.79,20.19,0,6.15,.68,7.1,1.46,13.17,1.73,7.08,.32,8.01-.63,14.48,0,6.03,.59,7.73,1.66,9.22,.43,2.55-2.1,.5-7.62-.88-14.28-.92-4.46-.11-2.49-1.32-24.23-.8-14.34-1.07-13.81-2.19-31.16-1.24-19.19-2.19-36.78-2.19-36.78-.93-17.15-.96-20-2.63-25.53-2.86-9.43-7.29-16.03-12.29-23.37-9.47-13.88-12.52-13.68-18.43-22.5-8.99-13.43-10.64-26.94-13.17-47.6-2.45-20.09,.33-21.68-3.51-34.62-1.77-5.96-5.25-17.69-14.67-29.34-7.92-9.79-11.86-9.42-16.93-18.26-6.06-10.58-6.16-21.14-6.14-25.96,.04-15.89,6.39-20.86,9.66-35.48,3.15-14.11,.68-24.91-3.51-43.27-4.08-17.85-10.67-31.47-23.7-57.98-15.01-30.55-16.36-28.15-22.82-45-7.33-19.09-7.55-27.25-15.8-43.27-4.65-9.02-9.68-16.32-13.9-21.76-1.5-1.94-3.94-5.06-7.16-8.53-8.12-8.72-13.25-10.98-32.1-24.35-8.38-5.94-16-11.62-18.81-13.73-1.85-1.38-5.88-4.4-13.93-10.44-9.5-7.12-11.06-8.29-14.15-10.33-4.69-3.09-8.73-5.41-12.9-7.81-2.75-1.58-5.52-3.1-10.95-6.06-7.02-3.83-10.52-5.75-14.58-7.9-10.54-5.59-15.82-8.39-18.26-9.56,0,0-5.78-2.76-9.98-5.55-.01,0-1.79-1.19-1.79-1.19h0c-.29,.12-.73,.3-1.24,.55-6.33,3.1-8.45,9.5-11.8,15.38-12.46,21.86-11.85,29.17-19.13,39.34-8.46,11.82-15.02,9.95-32.79,22.62-22.17,15.81-23.13,26.69-40.38,43.27-21.24,20.43-28.61,12.41-64.96,34.62-35.51,21.7-30.97,30.88-79,64.04-20.73,14.31-26.26,15.84-38.62,27.69-13.85,13.29-18.16,22.17-29.84,24.23-13.05,2.3-24.82-5.75-31.6-10.39-15.09-10.32-19.4-21.42-28.09-32.89-5.62-7.42-8.21-6.98-17.22-11.38-3.15-1.54-7.54-3.18-12.78-6.54-3.69-2.37-6.44-4.7-8.19-6.31" style="fill:#6dcef1;"/><path id="JohnDanielsB" d="M98.9,4615.08c1.52,1.53,3.06,3.07,4.63,4.62,4.01,3.93,8,7.68,11.95,11.25-24.45,17.87-48.9,35.74-73.36,53.61v-97.18c5.31-4.04,10.63-8.08,15.94-12.12,13.61,13.27,27.22,26.54,40.83,39.81Zm1406.27-680.81c-9.22,5.04-14.67,10.51-24.91,20.77-12.85,12.88-12.89,16.47-28.96,35.77-15.71,18.87-18.77,19.16-31.28,35.77-10.72,14.24-16.13,21.58-18.53,32.31-2.43,10.83-.02,15.87,2.32,35.77,.97,8.23,1.42,22.03,2.32,49.62,1.17,35.83-.11,34.16,1.16,54.23,1.93,30.52,4.59,29.73,4.63,49.62,.02,10.39-1.92,25.39-5.79,55.39-5.11,39.56-4.86,26.51-6.95,46.16-1.48,13.93-3.16,35.07-7.82,35.48-1.14,.1-2.71-1.02-4.13-2.01-2.9-2.02-3.4-3.95-5.12-5.23-2.04-1.52-5-.98-10.83,.15,0,0-9.8,1.95-19.64,6.86-5.87,2.92-4.72,3.69-15.56,10.29-10.97,6.61-21.05,11.44-22.58,12.2-14.41,6.73-16.71,6.1-20.92,10.29-4.72,4.83-6.76,10.55-7.78,14.49-2.04,15.12-2.04,27.45-1.79,36.09,0,0,1.28,34.18-1.15,56.8-.38,3.68-1.28,10.17-5.74,13.21l-7.14,3.68c-9.31,6.61-11.99,6.99-11.99,6.99-4.46,.76-8.93-1.02-9.82-1.4-3.44-1.27-4.59-2.8-6.63-2.29-2.55,.51-2.55,2.92-5.23,4.57-2.81,1.65-5.87,1.14-10.46,.25-7.02-1.27-7.02-3.05-11.86-3.43-6.12-.38-7.78,2.41-10.97,.89-4.21-2.03-2.68-7.12-7.02-9.53-3.06-1.65-4.34,.38-10.2-.89-2.55-.64-2.93-1.27-9.18-4.07-7.91-3.43-7.65-2.67-8.93-3.69-5.23-4.07-1.4-11.31-4.34-25.16-3.7-16.9-8.29-18.55-9.57-18.93-3.57-1.02-7.02,1.14-7.91,1.65-7.65,4.83-4.08,14.87-10.33,24.27-5.23,7.62-11.86,11.31-22.71,17.28-3.19,1.78-14.16,7.75-31.25,12.2-18.24,4.7-32.78,4.96-43.37,5.08-4.21,.13-20.54,.25-41.71-3.43-8.29-1.4-20.15-3.43-34.82-8.64-15.69-5.59-17.22-8.51-34.7-15.63-16.96-6.86-30.87-10.29-38.27-12.07-28.57-6.99-32.53-3.18-48.6-10.42-6.25-2.67-6.38-3.56-29.59-19.06-7.65-5.08-22.19-14.74-34.7-22.49-37.63-23.13-42.09-19.82-59.06-34.56-12.63-10.93-9.06-11.82-27.81-29.48-15.31-14.36-18.24-14.23-34.82-29.35-19.77-18.17-16.71-19.19-33.04-32.91-12.88-10.8-18.75-13.47-31.25-25.92-9.82-10.04-14.54-16.77-16.71-20.2-1.1-1.74-1.97-3.05-3-5-1.32-2.49-1.52-3.33-2.91-5.72-1.02-1.77-1.94-3.07-2.67-4.11-.4-.57-1.07-1.5-3.83-5.02-2.95-3.76-3.41-4.25-3.64-5.42-.38-1.93,.41-2.85,.79-4.96,.64-3.59-.81-5.75-2.04-9.74-.91-2.95-1.14-6.63-1.6-14-.09-1.41-.15-2.72-.18-13.57-.05-14.16,.04-16.11,1.29-19.1,1.12-2.67,3.07-5.94,4.13-7.72,1.67-2.79,3.2-5.05,4.34-6.63,1.68-.77,4.32-1.82,7.69-2.43,3.06-.55,4.71-.37,14.9,.12,7.02,.34,7.65,.32,9.85,.58,4.26,.49,7.61,1.21,9.85,1.73,13.97,3.27,24.95,7.48,24.95,7.48,24.38,9.35,50.95,15.16,55.61,16.14,15.69,3.3,34.06,6.35,55.49,8.13,19.39,1.65,23.34,.76,70.67,1.14,27.42,.13,54.85-1.14,82.27,0,16.84,.64,31.89,1.78,48.73-4.57,3.19-1.27,8.16-3.43,23.09-9.28,16.07-6.35,18.88-7.24,22.07-8.13,11.48-3.05,12.76-1.4,26.66-4.57,14.41-3.18,21.81-4.96,26.66-11.56,3.32-4.57,3.83-9.4,4.59-14.99,.89-7.5-.38-11.18-2.3-24.14-2.81-18.3-1.28-18.04-3.57-26.56-.89-3.81-1.53-4.96-9.18-21.98-9.82-21.85-11.74-26.18-12.76-33.42-1.02-6.61-1.79-12.83,1.15-19.7,2.17-4.83,5.49-8.39,16.2-15.76,15.18-10.55,22.83-15.76,32.4-18.81,15.05-4.7,16.2,.13,35.97-4.57,6.25-1.52,17.6-4.32,30.1-11.56,12.37-7.12,12.37-10.8,23.21-17.28,6.89-4.19,13.27-6.35,22.58-8.64,2.93-.64,6.25-1.4,9.82-2.16,.13,0,.38-.13,.51-.13,.89-.25,17.37-5.01,18.39-5.26,27.17-5.85,12.96-.44,30.44-6.15,10.08-3.3,16.11-4.95,30.27-12.83,8.55-4.7,12.06-8.21,16.78-11.9,4.72-3.68,8.42-6.27,14.79-10.08,.77-.51,5.58-3.27,10.94-5.56,15.18-6.35,25.55-6.62,41.82-10.91,3.32-.88,3.51-1.91,28.26-13.6,27.42-12.83,28.97-11.7,32.93-12.72,14.03-3.81,20.93-5.78,33.17-5.14,14.41,.89,33.03,.74,46.55,7.48,7.53,3.68,12.96,8.81,20.74,15.16,1.37,1.1,3.31,2.44,6,4.64,.33,.27,5.49,4.55,9.98,9.24,10.38,10.83,15.66,16.34,14.57,20.92-1.81,7.6-19.03,3.55-40.49,15.29Zm-1081.57,350.86h0s-2.2-.37-4.58,.02c-7.35,1.22-19.73,9.62-19.73,9.62-7.12,4.97-12.36,8.9-13.56,9.8-7.9,5.92-13.7,9.97-25.29,18.05-8.93,6.23-17.06,11.73-22.33,15.3-3.97,2.69-7.59,5.12-7.59,5.12-3.96,2.66-7.48,5-10.31,6.88-6.78,4.51-7.69,5.09-10.2,6.83,0,0-3.42,2.36-7.16,5.06-9.67,6.99-21.45,16.32-27.71,21.27-12.98,10.27-19.49,15.41-20.53,15.97-8.77,4.7-10.28,3.13-28.61,10.41-7.39,2.94-13.09,5.22-20.42,9.28-4.11,2.28-8.42,5.08-17.05,10.69-1.77,1.15-6.33,4.18-15.46,10.23-.88,.58-5.95,3.95-8.72,5.79-7.1,4.71-10.65,7.07-11.53,7.65-10.65,7.11-15.98,10.66-20.74,14.5-6.63,5.35-6.06,5.91-21.76,19.97-5.97,5.35-5.27,4.56-6.65,5.91-10.22,9.99-9.77,14.83-18.68,26.4-8.83,11.45-19.79,20.36-23.75,23.08-5.18,3.56-7.38,5.76-11.76,10.15-6.42,6.43-7.19,8.9-7.35,10.62-.52,5.62,13.25,9.22,15.93,11.54,18.68,16.13,27.6,28.66,40.83,39.81,7.1,5.98,4.39,4.62,25.48,24.23,10.54,9.8,12.98,11.78,17.95,17.31,4.51,5.01,5.99,7.27,10.43,10.96,5.19,4.32,5.65,3.3,14.48,9.81,4.82,3.55,6.58,5.25,10.43,6.35,4.06,1.16,7.57,.84,9.27,.58,6.63-1.01,11.09-4.92,12.74-6.35,9.05-7.81,19.85-13.55,28.38-21.92,4.52-4.44,.24,.17,50.39-39.23,35.38-27.79,36.05-28.94,46.34-35.77,13.05-8.66,18.21-10.96,32.43-21.35,4.23-3.09,4.91-3.72,28.38-21.92,19.1-14.82,19.08-14.74,21.43-16.73,13.82-11.73,13.65-13.79,28.38-26.54,4.36-3.77,12.21-10.54,23.17-18.46,11.73-8.49,13.39-8.21,19.69-13.85,6.29-5.63,11.37-13.41,18.53-22.36,1.9-2.37,3.44-4.32,4.9-6.17,4.97-6.33,7.51-9.47,7.84-10.13,2.93-5.76,3.44-14.3-.58-19.62-1.55-2.05-2.1-1.42-7.49-5.55-4.43-3.39-5.29-4.65-10.57-9.54-3.46-3.2-6.76-5.81-13.22-10.88-16.79-13.18-17.9-12.55-27.8-20.77,0,0-18.64-15.47-23.02-27.69-1.3-3.61-2.04-7.34-2.04-7.34-.19-.94-.31-1.7-.38-2.14,0-.31,.02-.95,.03-1.75,.03-2.93-.01-5.15-.03-5.87-.24-11.98-.31-27.25-.85-27.25Zm186.57,178.38c-4.85-4.99-4.78-5.97-11.63-13.09-4.2-4.37-7.07-7.32-11.43-10.69-5.16-3.99-9.53-6.34-13.18-8.28-8.34-4.44-9.83-3.94-19.88-8.88-7.05-3.46-13.08-7.03-14.04-7.6-2.8-1.66-7.24-4.04-16.1-8.84,0,0-4.38-2.37-11.59-3-.98-.09-2.7-.18-3.35,.78-.46,.68,0,1.31,.29,3.17,.33,2.15-.2,2.11,0,6.35,.1,2.01,.14,3.02,.29,4.9,.86,11.08-31.28,38.66-31.28,38.66-16.91,15.13-21.13,15.49-42.86,32.31-30.1,23.31-23.58,23.86-49.81,43.27,0,0-20.4,15.1-43.21,36.44-2.37,2.22-6.8,6.43-10.65,13.18-5.12,8.97-6.47,17.61-7.53,24.81-1.86,12.62,.18,14.59-2.28,23.35-.77,2.75-3.13,11.14-9.3,18.19-10.02,11.46-18.49,6.11-39.38,18.46-9.25,5.47-10.6,8.29-22.99,14.95-7.64,4.1-11.52,6.19-17.55,8.13-12.96,4.17-19.71,2.26-22.01,6.92-2.34,4.76,1.2,11,3.48,15,6.74,11.86,13.92,10.81,22.01,21.92,1.99,2.73,8.65,12.15,8.11,24.23-.34,7.62-3.41,13.29-5.79,17.31-14.74,24.86-37.09,43.31-38.81,44.71-19.27,15.7-37.12,25.19-47.78,30.29-22.92,10.97-23.16,6.66-41.7,16.44-17.21,9.08-29.13,19.19-50.39,37.21-11.25,9.54-20.16,17.77-26.06,23.37,.29,20.77,.58,41.54,.87,62.31,2.82,1.74,6.94,4.02,12.16,6.06,6.16,2.4,22.19,7.71,46.91,3.46,26.68-4.58,26.42-13.92,60.81-24.23,16.31-4.89,26.97-8.08,41.7-6.92,16.41,1.29,31.99,7.53,43.44,12.12,19.4,7.77,26.53,13.66,36.49,10.39,8.33-2.74,13.15-10.07,15.64-13.85,7.14-10.84,7.06-22.15,6.95-27.69-.26-12.91-4.55-13.65-5.21-25.96-.72-13.38,3.75-23.75,6.95-31.16,2.68-6.2,8.29-19.2,20.85-29.42,8.97-7.3,16.87-9.43,31.28-13.85,46.56-14.29,39.72-15.28,57.34-19.04,41.11-8.76,46.13,3.51,67.77-6.92,27.09-13.07,38.97-41.84,41.7-48.46,8.63-20.89,3.07-28.18,13.9-65.77,3.9-13.54,7.66-23.13,12.16-34.62,17.18-43.84,22.99-41.92,31.28-67.5,6.42-19.83,15.07-46.55,13.9-79.62-.36-10.2-.94-21.99,6.95-31.16,10.18-11.82,27.72-10.89,28.05-17.41,.18-3.54-4.99-3.96-15.45-14.72Zm936.12-487.99c-4.09,7.89-10.69,12.12-15.64,15.29-4.56,2.92-4.88,2.22-13.03,6.35-10.68,5.41-17.08,8.65-22.59,15.15-4.88,5.76-6.88,11.5-7.82,14.28-3.35,9.92-2,17.4-1.16,28.85,.63,8.64,.81,18.45,1.16,38.08,.48,26.72,2.42,28.1,1.16,36.93-1.86,12.96-4.91,15.48-2.83,21.58,2.75,8.09,10.05,9.33,29.47,19.97,13.77,7.54,25.54,14.33,37.07,25.39,4.57,4.38,11.98,11.61,17.38,23.08,4.68,9.94,5.5,19.45,6.95,38.08,1.7,21.85-.11,25.04,2.32,41.54,2.04,13.91,3.43,12.35,5.79,26.54,3.65,21.98,2.84,40.92,2.32,51.93-.83,17.26-2.47,19.44-1.16,30,1.55,12.53,5.44,22.29,8.11,28.85,6.77,16.65,9.76,15.37,15.06,28.85,6.97,17.72,2.21,20.98,9.27,39.23,6.02,15.58,9.96,14.44,13.9,27.69,2.7,9.1,2.04,13.65,2.32,36.93,0,0,.19,15.3,1.16,39.23,.85,20.96,1.87,23.08,3.48,47.31,1.22,18.44,1.59,33.84,2.32,64.62,.76,31.85,.48,41.12,0,49.62-1.13,19.88-1.78,30.06-5.79,41.54-5.82,16.66-10.91,16.22-23.17,39.23-12.13,22.79-7.8,24.47-19.69,46.16-11.08,20.21-15.31,19.6-24.33,39.23-4.25,9.25-9.09,19.79-11.58,34.62-2,11.87-.57,15.06-3.48,26.54-3.01,11.88-5.51,12.28-10.43,26.54-2.48,7.21-4.39,16.44-8.11,34.62-1.53,7.49-3.56,17.73-5.79,30,45.18-1.54,90.35-3.08,135.53-4.62,.79-13.25,1.07-24.61,1.16-33.46,.25-26.13,.37-39.2-2.32-49.62-3.13-12.14-6.75-16.99-8.11-31.16-.89-9.29-.29-17.16,0-20.77,.42-5.18,1.22-14.52,4.63-25.39,1.87-5.96,3.69-9.71,12.74-26.54,10.02-18.62,10.68-19.39,15.06-27.69,9.41-17.85,14.12-26.78,17.38-36.93,5.3-16.51,1.59-16.35,6.95-34.62,2.87-9.77,7.32-19.59,16.22-39.23,7.61-16.79,9.05-18.55,11.58-26.54,2.32-7.32,4.54-16.63,5.79-31.16,1.78-20.64-.28-29.98-1.16-51.93-1.11-27.54,1.66-24.55,1.16-60-.42-29.47-2.55-47.18-3.48-54.23-2.86-21.8-4.29-32.7-9.27-42.69-4.69-9.43-9.68-14.85-19.69-34.62-3.56-7.03-5.97-12.34-6.95-19.62-.94-6.93,.36-8.7,0-19.62-.1-3.03-.46-10.96-2.32-20.77-2.25-11.9-5.59-20.79-6.95-24.23-2.02-5.1-4.82-10.71-10.43-21.92-4.69-9.38-5.7-10.9-6.95-15-1.98-6.49-2.27-11.89-2.32-19.62-.08-13.68,.7-19.63,1.16-31.16,.42-10.5-.17-7.03,0-34.62,.13-20.04,.43-20.24,0-26.54-.73-10.81-1.86-13.77-1.16-21.92,.83-9.68,2.86-10.7,2.32-17.31-.87-10.47-6.8-18.01-8.11-19.62-7.02-8.58-12.02-6.39-19.69-16.15-3.85-4.9-5.62-9.31-6.95-12.69-2.23-5.68-4.92-12.51-2.32-15,1.55-1.49,3.88-.36,15.06,2.31,0,0,7.74,1.85,16.22,3.46,7.3,1.39,8.73,1.26,15.06,2.31,11.44,1.9,13.65,3.47,24.33,5.77,6.48,1.39,14.79,3.18,25.48,3.46,15.04,.39,26.3-2.42,30.12-3.46,7.64-2.08,14.47-3.94,22.01-9.23,7.07-4.97,11.07-10.37,16.22-17.31,3.52-4.75,7.95-10.81,11.58-19.62,.83-2,4.28-10.61,5.79-25.39,1.37-13.35,.28-23.26-1.16-35.77-2.29-19.84-6.08-35.12-8.11-42.69-5.51-20.54-8.27-30.81-16.22-42.69-4.42-6.62-10.97-16.17-23.17-23.08-8.55-4.84-15.96-6.16-26.64-8.08-11.59-2.08-20.57-2.16-35.91-2.31-14.98-.14-15.38,.64-25.48,0-6.03-.38-15.13-.96-26.64-3.46-13.03-2.83-15.09-5.08-25.32-5.75-7.02-.46-12.71-.76-18.7,2.28,0,0-1.64,.83-11.58,8.08-13.34,4.91-25.48,10.38-25.48,10.39-12.69,6.32-16.13,8.2-18.53,10.39-7.58,6.89-10.85,15.34-12.37,20.77,.84,4.04,2.15,13.44-2.69,22.79Z" style="fill:#3569b3;"/><path id="Scarf" d="M1545.66,3918.98c-1.2-.16-1.5,2.3-4.8,4.4-2.95,1.88-4.55,1.07-11.08,2.16-6.52,1.09-11.34,2.96-12.6,3.46-.45,.18-.03,.02-6.73,3.03-5.61,2.52-6.32,2.82-7.52,3.52-3.56,2.06-5.75,4.3-7.24,5.79-7.31,7.27-10.84,9.2-18.07,16.42-12.32,12.31-13.45,18.08-28.48,35.64-5.28,6.17-12.11,13.6-25.34,28-5.74,6.24-12.38,13.41-15.64,24.23-1.72,5.71-2.24,11.53-2.33,12.56-.67,7.91,.28,13.9,.59,16,2.5,16.59,2.21,33.47,3.48,50.2,1.87,24.73,2.8,37.1,2.61,42.41-.6,16.3-3.12,28.4-6.95,46.73-4.1,19.66-5.63,20.89-10.43,43.27-4.19,19.54-6.41,34.37-6.95,38.08-4.19,28.53-5.01,50.64-5.21,57.12-.93,29.65,2.2,28.61,1.74,58.85-.46,30.52-.7,45.78-7.82,64.04-7.37,18.9-12.6,17.05-23.46,40.68-2.89,6.29-11.76,26.53-15.64,54.52-1.7,12.29-4.6,36.6,1.74,65.77,1.57,7.24,6.26,22.14,15.64,51.93,2.23,7.07,4.64,14.61,6.95,25.39,1.6,7.47,2.13,11.73,4.63,30,4.61,33.59,4.69,32.79,4.63,34.62-.6,19.23-7.18,25.32-2.32,38.08,1.14,3.01,3.6,9.45,9.84,13.61,7.47,4.98,12.74,1.61,20.28,6.01,2.37,1.39,4.49,3.26,12.74,18.46,8.53,15.71,9.12,18.97,13.9,26.54,1.42,2.26,7.02,10.54,16.22,19.62,11.82,11.66,14.16,9.31,18.53,16.15,5.67,8.87,2.1,13.39,8.11,32.31,2.11,6.63,5.21,16.39,8.11,16.15,2.36-.19,3.9-6.93,5.79-23.08,2.53-21.58,3.06-37.46,3.48-48.46,1.54-40.86,2.9-45.72-2.32-53.08-6.87-9.7-14.21-8.27-19.69-19.62-4.91-10.17-3.54-20.68-2.32-30,1.09-8.32,3.44-14.89,8.11-27.69,7.63-20.93,9.76-21.38,12.74-32.31,2.37-8.68,2.74-17.71,3.48-35.77,.29-7.01,.77-22.47,0-43.85-.82-22.99-2.07-24.39-1.16-35.77,.85-10.59,1.99-10.15,5.79-32.31,4.66-27.19,3.1-28.75,6.95-36.93,6.21-13.2,11.54-11.79,17.38-25.39,3.26-7.6,3.15-11.64,5.79-30,3.32-23.09,4.31-22.32,5.79-34.62,1.44-11.92,1.02-16.92,0-55.39-.81-30.61-1.22-45.91-1.16-51.93,.27-25.6,1.69-31.69,0-49.62-1.21-12.84-3.19-23.06-5.21-33.46-3.71-19.12-5.57-28.68-9.56-38.94-6.21-15.98-10-16.71-17.38-36.35-3.01-8.01-5.51-14.77-6.95-24.23-1.32-8.62-.92-13.99,0-31.16,1.22-22.83,1.83-34.25,1.74-37.21-.72-22.17-4.85-23.3-3.48-40.68,.99-12.44,2.71-14.01,1.74-23.37-.51-4.87-1.6-9.71,1.09-14.5,1.79-3.19,4.3-4.66,7.6-6.71,16.75-10.4,13.5-10.61,22.59-15.15,11.24-5.61,13.94-4.27,19.98-9.52,5.23-4.55,7.63-9.76,8.69-12.12,2.4-5.36,2.98-9.87,2.61-28.56-.45-22.15-1.46-27.74-3.24-27.98Z" style="fill:#f7b45c;"/><path id="TotemPole" d="M610.48,2697.5c-3.39,2.87-9.26,1.29-14.81-.2-11.15-3-18.6-8.98-21.48-11.34-22.4-18.37-22.31-21.66-33.36-29.42-3.36-2.36-16.24-11.07-35.11-15-9.14-1.9-21.78-4.54-36.28,0-8.59,2.69-14.31,6.79-25.75,15-11.18,8.02-17.35,14.66-18.73,16.15-4.42,4.81-7.39,8.05-10.53,13.27-3.04,5.06-3.65,7.66-7.02,10.96-1.17,1.14-4.14,3.81-11.12,6.35-3.52,1.28-8.74,2.77-26.92,3.46-15.2,.58-19.19-.17-21.07-.58-3.16-.68-8.97-1.98-15.21-5.77-4.88-2.97-8.78-7.59-16.39-16.73-6.36-7.65-9.84-11.83-14.04-18.46-3.61-5.69-6.96-10.99-9.36-17.89-3.74-10.75-3.21-19.8-2.93-25.96,.72-15.95-.69-31.94,0-47.89,.31-7.15,.6-31.69,1.17-80.77,.49-41.69,.06-38.35,.59-49.62,1-21.34,2.05-43.67,7.02-72.12,2.89-16.53,4.57-20.63,5.85-34.62,1.11-12.15,.55-16.8,1.17-41.54,.58-23.17,1.17-22.94,1.17-32.89,0-25.26-3.95-29.28-5.27-51.93-.87-15.05,.59-29.07,3.51-57.12,1.63-15.66,3.88-33.06,7.02-51.93,7.49-10.3,12.93-19.28,16.68-25.96,4.16-7.41,5.87-11.34,6.14-16.44,.29-5.36-1.66-9.71-5.27-18.17-2.64-6.2-4.62-10.86-7.9-15.58-4.41-6.34-9.07-9.78-21.94-18.17-19.2-12.52-28.8-18.78-34.23-20.77-13.58-4.99-15.18-1.82-30.72-6.92-4.28-1.41-13.15-4.6-32.48-16.44-13.83-8.48-24.9-16.41-38.62-26.83-26.84-20.39-40.27-30.58-57.06-46.73-18.9-18.18-30.13-32.25-33.36-36.35-7.91-10.05-14.02-19.04-18.43-25.96-.29-87.12-.59-174.24-.88-261.36-2.08-14.5,.31-24.78,2.63-31.16,1.24-3.4,1.01-1.73,10.53-21.64,3.53-7.38,4.53-9.63,7.02-12.98,2.39-3.21,7.07-9.49,14.92-12.98,7.09-3.15,13.42-2.55,21.07-1.73,4.45,.48,17.1,2.21,32.48,10.38,5.87,3.12,12.99,8.72,27.21,19.91,12.81,10.08,15.51,13.04,17.56,15.58,4.62,5.73,7.24,11.11,12.29,21.64,4.01,8.36,6.63,14.91,9.66,22.5,8.12,20.39,7.37,21.67,11.41,27.69,3.16,4.71,7.96,9.2,17.56,18.17,5.92,5.54,10.97,10.23,18.43,15.58,11.99,8.59,14.34,11.75,18.43,11.25,4.71-.57,4.59-4.13,11.41-7.79,7.67-4.11,11.39-1.52,22.82-4.33,8-1.97,13.52-5.05,18.43-7.79,9.59-5.35,15.44-8.62,19.31-15.58,3.88-6.98,3.67-13.88,3.51-19.04-.28-9.32-3.21-16.63-5.27-20.77-7.68-15.48-16.61-13.87-27.21-29.42-2.48-3.64-5.46-11.37-11.41-26.83-5.79-15.04-8.72-22.74-10.53-32.02-1.39-7.11-1.73-12.63-1.76-29.42-.05-30.55,1.03-41.8,.88-61.45-.21-26.64,.09-31.33-1.76-38.08-3.54-12.94-9.6-22.64-14.92-31.16-3.85-6.16-10.84-16.44-21.65-27.69-12.53-13.04-15.26-11.86-28.09-25.39-9.1-9.6-15.16-15.99-19.9-26.54-3.96-8.83-5.75-17.81-7.61-27.12-3.36-16.86-1.8-20.14-5.85-24.23-1.5-1.51-3.17-2.54-29.26-5.77-13.74-1.7-20.7-2.55-24.58-2.31-8.49,.53-11.26,2.14-15.21,0-5.99-3.25-7.8-11.42-9.36-18.46-2.01-9.09-.07-10.54-2.34-16.15-1.86-4.61-4.37-6.59-14.04-15-17.77-15.45-15.1-13.78-21.07-18.46-6.9-5.41-12.36-9.11-21.07-15-5.73-3.88-10.58-7.02-14.04-9.23,.34-16.06,.68-32.12,1.02-48.18,3.43,1.19,8.12,2.9,13.61,5.19,5.02,2.1,15.1,6.31,24.58,12.12,10.08,6.17,8.26,7.26,22.82,18.17,16.16,12.11,17.44,10.05,27.21,19.04,2.92,2.69,7.86,7.53,15.8,13.85,7,5.58,9.27,6.68,10.97,7.36,4.03,1.61,7,1.7,20.19,1.3,10.51-.32,21.91-.78,24.14-.87,12.16-.49,14.06-.51,16.68-.43,9.51,.26,14.27,.4,19.31,2.16,8.06,2.82,13.13,7.79,18.43,12.98,4.42,4.33,7.37,7.22,9.66,12.12,1.8,3.87,1.34,5,3.51,17.31,.88,5,1.76,9.1,3.51,17.31,1.72,8.06,2.6,12.12,3.51,13.85,2.23,4.21,4.84,6.1,14.04,12.98,6.16,4.6,12.26,9.27,18.43,13.85,11.9,8.83,17.85,13.24,18.43,13.85,3.29,3.4,8.33,9.35,15.8,12.12,1.26,.47,3.33,1.12,5.18,.24,2.99-1.43,3.51-5.99,3.73-8.42,2.52-27.31-1.59-44.03-1.59-44.03-3.02-12.27-3.79-9.9-7.02-23.08-2.85-11.62-5.05-20.57-4.68-32.31,.29-9.26,2.06-16.21,4.68-26.54,3.4-13.4,4.75-12.9,7.02-23.08,3.7-16.53,2.73-29.38,2.34-33.46-.82-8.6-1.39-14.61-4.68-21.92-6.51-14.47-14.87-14.45-17.56-26.54-1.21-5.46,.37-6,0-20.77-.19-7.38-.74-13.4-1.17-17.31,50.72,.77,101.43,1.54,152.15,2.31,1.17-113.08,2.34-226.17,3.51-339.25,3.31-4.15,8.67-10.19,16.39-16.15,10.12-7.83,13.35-7.07,23.41-15,9.53-7.51,8.86-9.93,19.9-18.46,6.06-4.68,10.08-7.78,16.39-10.39,4.79-1.98,11.45-2.88,24.58-4.62,10.55-1.39,15.82-2.09,22.24-2.31,6.94-.24,6.86,.23,18.73,0,1.89-.04,5.94-.02,14.04,0,9.39,.03,11.65,.09,12.29,1.44,.45,.95,.08,2.55-7.02,10.1-4.98,5.29-8.01,7.92-11.7,11.54-6.13,6-5.37,6.19-12.29,13.27-4.81,4.92-8.68,8.42-14.04,13.27-10.32,9.33-11.88,9.94-15.21,14.42-4.82,6.49-6.63,12.02-7.02,13.27-2.04,6.49-1.84,11.8-1.76,15,.56,21.59,.89,34.07-3.8,46.16-2.87,7.39-4.55,6.74-8.78,17.31-3.8,9.49-6.53,16.58-4.39,24.23,1.67,5.97,4.47,5.76,8.78,13.85,1.57,2.94,3.87,7.98,6.14,22.5,2.22,14.16,2.53,25.27,2.63,29.42,.53,21.85,.09,38.75,0,42.41-.82,31.81-1.24,47.71-1.32,55.82-.27,27.93,.62,27.86,.15,55.24-.43,24.71-.64,37.06-1.17,41.54-2.14,18.04-5.31,26.05-1.17,38.08,1.95,5.67,5.59,10.71,12.87,20.77,7.1,9.81,10.19,12.12,19.9,25.39,6.41,8.77,8.84,12.92,10.53,18.46,1.2,3.91,2.97,9.97,1.17,17.31-.33,1.33-1.69,6.45-5.85,11.54-4.07,4.98-6.4,4.52-9.36,8.08-4.39,5.26-4.04,11.94-3.51,21.92,.42,7.94,1.87,13.75,4.1,22.5,2.09,8.19,3.05,10.13,5.85,19.62,3.33,11.31,5.53,18.76,7.02,27.69,1.38,8.27,1.51,16.09,1.76,31.73,.34,21.47-1.22,19.36,0,28.85,1,7.79,2.34,11.49,0,13.85-5.19,5.23-19.54-5.11-24.58,0-2.63,2.66-1.24,8.02,1.17,17.31,2.41,9.31,4.31,9.81,5.85,17.31,.73,3.57,2.15,10.85,0,19.62-.89,3.61-2.33,9.51-7.02,15-3.72,4.35-6.76,5.26-8.19,9.81-1.33,4.2,.51,5.85-1.17,8.65-1.89,3.17-5.73,3.58-12.29,5.19-5.95,1.47-13.03,3.65-16.39,5.19-1.91,.88-9.34,4.64-15.8,20.77-8.05,20.11-6.59,39.5-5.85,50.77,2.14,32.67-4.25-41.28,2.34,66.93,0,0,1.53,25.18,9.36,100.39,0,0,.93,8.89,7.02,31.16,4.76,17.38,7.59,22.4,12.29,24.23,5.04,1.97,10.16-.54,19.31-5.19,18.04-9.17,27.06-13.75,36.87-19.04,18.3-9.87,34.12-14.17,45.64-17.31,9.57-2.6,8.18-1.57,43.89-8.65,29.8-5.91,33.25-7.12,36.87-8.65,17.55-7.42,30.94-18.89,35.11-22.5,11.37-9.86,11.02-12.69,19.31-17.31,13.32-7.42,26.72-7.09,33.36-6.92,6.51,.16,20.05,.65,33.36,8.65,9.77,5.88,8.14,9.02,21.07,19.04,9.14,7.08,17.07,11.03,28.09,16.44,11.97,5.88,13.97,5.83,30.72,12.98,18.93,8.08,31.92,13.62,47.4,22.93,14.72,8.86,14.94,11.05,25.46,15.58,10.03,4.33,14.08,4.16,32.04,9.52,14.07,4.2,12.29,4.51,29.41,9.95,23.19,7.38,37.55,10.34,42.13,11.25,12.91,2.57,19.52,3.84,27.21,3.46,7.91-.39,19.42-.96,30.72-7.79,8.73-5.28,10.55-10.19,18.43-11.25,7.22-.97,13.24,2.14,15.8,3.46,7.83,4.05,11.48,9.89,16.68,17.31,6.05,8.64,13.31,16.42,19.31,25.1,18.57,26.84,67.13,53.55,108.26,65.48,10.64,3.09,29.47,7.71,47.99,11.54,11.36,2.35,17.52,3.35,33.94,6.92,19.58,4.26,28.15,6.62,36.28,9.23,11.08,3.56,18.69,6.76,25.75,10.39,11.99,6.16,18.05,9.38,21.07,16.15,3.12,7.02,2.95,17.05-2.34,23.08-5.11,5.82-10.26,2.52-21.07,9.23-9.28,5.77-7.57,9.5-15.21,12.69-8.71,3.63-12.87-.4-22.24,3.46-3.95,1.63-4.69,2.96-12.37,9.27-12.43,10.21-18.64,15.31-26.25,18.42-7.29,2.98-13.53,3.57-24.58,4.62-13.92,1.32-22.24,1.15-22.24,1.15-8.5-.16-11.8-.94-16.39,1.15-5.8,2.65-6.98,6.84-10.53,10.39-8.61,8.6-23.19,5.48-38.62,4.62-10.16-.57-23.16,1.16-49.16,4.62-38.66,5.14-43.47,11.17-66.71,9.23-6.15-.51-14.24-1.88-30.43-4.62-17.66-2.98-26.49-4.48-35.11-6.92-19.61-5.57-17.41-8.47-37.45-13.85-8.43-2.26-15.01-3.41-24.58-8.08-9.01-4.39-7.99-5.72-14.63-8.65-4.46-1.97-11.92-4.46-36.87-4.04-13.48,.23-12.33,.97-23.41,1.15-19.4,.32-20.27-1.99-42.13-2.31-21.48-.31-21.7,1.91-32.77,0-2.01-.35-8.98-1.62-18.14-1.15-10,.51-12.96,2.59-14.04,3.46-2.91,2.33-3.8,6.65-5.85,15-1.88,7.65-1.31,8.89-3.22,11.68-3.02,4.41-7.73,6.16-10.97,7.36-4.2,1.55-8.13,1.78-15.8,2.16-5.92,.3-7.51,.03-15.36,.43-8.51,.43-9.99,.91-11.41,1.73-2.31,1.33-3.22,2.82-7.9,9.95-6.53,9.94-5.29,7.84-6.58,9.95-9.2,15.05-7.19,15.67-11.26,20.19-6.98,7.74-11.42,4.3-19.9,12.69-3.46,3.43-5.82,7.67-10.53,16.15-7.32,13.18-6.08,14.72-10.53,19.62-6.25,6.86-14.16,9.83-18.73,11.54-9.74,3.65-12.29,1.64-19.9,5.77-5.25,2.85-4.58,4.1-12.87,10.38-3.23,2.45-9.65,7.26-18.73,11.54-5.09,2.4-11.91,5.56-21.07,6.92-6.24,.93-8.08,.21-18.73,0-4.53-.09-13.55,.33-31.6,1.15-20.91,.96-22.56,1.24-26.92,0-9.88-2.81-14.12-7.84-17.56-5.77-3.62,2.19-2.21,9.78-1.17,19.62,1.25,11.87,.12,23.89,1.17,35.77,.7,7.96,1.25,30.31,2.34,75,.99,40.54,1.77,72.23,1.17,111.93-.19,12.98-.61,31.55,2.34,56.54,1.09,9.25,1.48,9.53,5.85,35.77,5.6,33.61,8.4,50.41,10.53,70.39,.98,9.14,2.71,25.64,3.51,47.31,.96,26.14-.54,29.72,1.17,53.08,.75,10.27,1.52,16.13,1.17,26.54-.51,15.19-2.6,16.01-2.26,27.88,.43,15.08,4.04,21.71-.08,25.2Z" style="fill:#ef3e26;"/><path id="House" d="M1974.18,2192.15c-3.62,1.79-5.92,2.74-23.94,9.43-17.28,6.42-17.43,6.39-22.2,8.25-10.59,4.13-18.48,7.59-23.21,9.73-32.08,14.5-38.69,20.76-84.27,41.54-6.43,2.93-11.98,5.39-17.39,7.71-23.81,10.21-56.3,22.81-75.65,30.37-39.34,15.36-78.2,31.15-100.36,39.52-11.09,4.19-16.63,6.28-16.82,6.35-6.49,2.13-12.73,4.93-19.16,7.21-3.54,1.26-7.23,2.52-8.72,5.79-.79,1.74-.35,2.7-1.72,6.11-.9,2.22-1.33,2.42-2.43,5.12-1.02,2.5-.85,2.81-1.79,5.11-1.02,2.5-2.1,4.27-2.78,5.37-1.48,2.4-2.63,4.28-4.7,6.12-1.97,1.75-3.83,2.65-4.92,3.16-5.7,2.68-8.03,.98-13.4,3.6-1.17,.57-2.51,1.49-5.18,3.32-2.93,2.01-4.45,3.06-6.23,4.81-2.14,2.11-1.96,2.6-3.87,4.28-1.61,1.42-2.56,1.81-5.41,3.46-6.82,3.96-6.56,4.79-9.85,5.88-2.89,.96-5.39,1.08-6.82,1.14-2.27,.1-4.11,.18-6.29-.53-.63-.2-1.7-.61-5.83-3.65-3.29-2.43-4.94-3.64-5.88-4.71-1.15-1.31-.87-1.38-4.13-7.33-3.75-6.83-3.83-6.2-4.08-7.43,0,0-.73-3.65-2.17-4.55-.47-.3-1-.46-1-.46-.82-.26-1.51-.22-1.7-.21-4.51,.25-9.06-.38-13.55,.14-4.96,.57-4.84-.04-20.41,.43-7.5,.23-19.76,.64-35.04,1.95-10.14,.86-9.72,1.11-22.24,2.16-11.15,.94-13,.88-18.43,1.73-4.64,.73-12.09,1.93-21.07,5.19-7.18,2.61-12.68,5.56-18.43,8.65-9.64,5.18-9.39,6.12-13.61,7.36-1.79,.53-6.93,1.85-13.16,5.19,0,0,0,0-.01,0-2.8,1.36-6.04,2.95-9.66,4.76-4.34,2.17-5.55,2.82-6.97,4.25-.94,.95-3.76,3.8-4,7.86-.1,1.7,.18,4.35,3.07,8.22,4.85,6.49,9.36,6.33,19.31,12.98,8,5.34,8.19,7.52,14.04,9.52,4.01,1.37,6.01,.96,12.73,1.73,2.03,.23,3.76,.42,19.9,3.46,16.35,3.08,24.53,4.63,26.92,5.19,11.67,2.77,11.38,3.55,26.92,7.5,10.94,2.78,21.13,4.96,22.24,5.19,13.65,2.9,16.07,2.88,22.82,5.19,5.87,2.01,4.74,2.26,16.97,7.5,13.47,5.77,15.28,5.65,23.41,9.81,8.06,4.12,7.47,4.85,14.04,8.08,6.93,3.4,9.37,2.41,24.58,8.08,11.93,4.44,14.86,5.02,21.18,7.11,4.36,1.44,7.61,2.67,9.25,3.28,10.31,3.86,10.56,4.69,14.03,5.7,7.48,2.18,9.48-.72,21.66-1.08,9.07-.27,8.27,1.33,23.41,2.31,10.56,.68,11.59-.05,22.82,.58,8.08,.45,14.9,.84,22.24,2.31,13.25,2.66,14.47,6.11,31.89,12.4,7.26,2.63,15.38,4.64,31.6,8.65,9.67,2.39,8.96,2.02,29.84,6.92,14.66,3.44,22.11,5.2,28.09,6.92,14.41,4.15,14.35,5.17,22.82,6.92,5.35,1.11,12.64,1.6,27.21,2.6,17.73,1.21,9.72,.16,27.5,1.15,13.12,.73,16.26,1.27,18.73-1.15,4.4-4.33,1.68-12.23,0-23.08-.47-3.02-.31-15.09,0-39.23,.28-21.82,1.44-38.58,2.34-51.35,.92-13.03,.72-6.63,4.1-44.43,2.52-28.15,2.89-34.57,5.87-46.15,.55-2.12,2.89-9.69,7.59-24.81,3.96-12.76,6.17-19.86,9.36-29.42,3.92-11.74,6-17.96,9.36-26.54,4.03-10.28,4.38-9.85,11.12-25.96,7.56-18.09,7.15-18.71,10.68-25.25,1.83-3.39,1.24-1.94,13.98-21.46,6.59-10.1,8.87-13.75,13.73-20.75,5.12-7.38,7.68-11.07,9.87-13.56,3.73-4.24,7.7-7.93,13.77-15.33,4.56-5.57,5.04-6.79,4.68-7.21-.7-.82-4.49,1.63-12.58,5.77-12.34,6.32-12.84,6.62-14.63,7.5Z" style="fill:#e49ff4;"/><path id="JohnDanielsA" d="M3061.92,522.03c.16-18.61,3.94-22.56,0-30-5.01-9.46-16.17-12.59-20.64-13.85-3.61-1.01-12.16-2.91-41.27,4.62-20.53,5.31-19.83,7.17-32.1,9.23-21.72,3.65-23.8-2.21-36.69,2.31-14.55,5.1-14.56,13.5-34.39,25.38-9.88,5.92-17.93,8.66-26.37,11.54-34.98,11.92-45.32,2.97-63.41,15.94-4.99,3.58-14.01,11.29-22.58,20.98-4.27,4.83-5.4,6.72-10.32,12.12-2.43,2.67-9.13,9.85-19.49,18.46-11.42,9.49-16.24,11.53-34.97,24.23-22.56,15.3-21.01,16.03-38.41,27.11-14.5,9.24-27.85,16.57-29,17.68-6.22,2.74-17.15,7.64-25.83,11.6-17.46,7.98-16.42,8.18-22.55,10.52-10.46,4-16.49,4.89-33.82,8.65-20.17,4.38-30.25,6.57-38.98,9.23-7.97,2.42-7.67,2.78-42.42,16.15-23.05,8.87-25.56,9.63-29.81,10.38-8.48,1.5-9.9,.5-37.83,0-8.06-.14-1.29,.06-36.69,0-19.25-.03-21.61-.09-26.37,1.15-7.59,1.99-14.33,6.35-27.52,15-11.76,7.72-13.17,9.58-26.37,18.46-12.06,8.11-18.08,12.17-24.08,15-15.72,7.42-29.28,7.47-40.13,8.08-.23,.01-23.47,4.24-69.94,12.69-66.8,12.15-76.16,15.17-84.84,18.46-25.44,9.64-40.13,16.15-40.13,16.15-28.1,12.46-38.7,19.66-44.71,15-6.27-4.86-3.02-19.06,0-32.31,1.61-7.06,3.94-14.31,18.34-43.85,12.37-25.35,16.16-31.31,18.34-34.61,6.67-10.08,11.72-17.72,20.64-25.38,12.63-10.85,17.19-8.17,32.1-18.46,11.81-8.16,10.88-11.18,32.1-32.31,18.2-18.12,17.92-14.94,29.81-27.69,17.56-18.84,16-23.46,32.1-39.23,10.72-10.5,10.29-7.35,27.52-23.08,4.62-4.21,12.89-12.48,29.24-28.85,15.71-15.72,16.93-17.08,18.92-19.61,5.65-7.21,9.86-14.96,18.34-30,9.06-16.07,7.95-16.07,13.76-25.38,7.69-12.33,14.8-20.57,22.93-30,10.93-12.68,20.34-20.8,22.93-23.08,8.3-7.28,12.96-11.37,20.06-15.58,12.4-7.34,23.62-9.92,33.54-12.12,22.16-4.91,28.03-1.31,39.55-8.65,3.98-2.54,11.87-7.72,14.62-17.31,2.48-8.65-.5-16.42-2.58-21.63-3.39-8.49-7.24-11.5-15.48-21.63-5.8-7.13-10.74-14.56-20.64-29.42-11.34-17.04-10.75-17.99-18.06-27.69-8.83-11.72-10.36-10.93-18.92-22.5-6.18-8.35-6.67-10.18-18.92-29.42-8.33-13.09-13.43-21.09-20.64-31.15-15.25-21.3-18.27-24.26-20.64-25.96-6.15-4.43-13.47-6.99-28.09-12.12-3.33-1.17-9.76-3.33-18.34-4.04-11.03-.91-14.46,1.51-15.48,2.31-4.69,3.66-5.38,9.66-5.53,11-.78,6.74,2.54,12.04,5.53,16.69,2.61,4.04,4.08,4.97,10.89,12.12,7.09,7.45,10.64,11.17,13.77,15.56,5.91,8.29,8.42,16.06,9.73,20.21,2.05,6.51,3.64,14.58,3.44,30-.13,10.47-1,17.58-5.16,45-5.18,34.15-5.96,37.21-7.45,41.54-1.11,3.23-6.35,17.97-18.34,34.61-2.99,4.14-5.94,7.67-6.25,8.03-6.21,7.36-11.68,12.14-14.22,14.36-10.78,9.42-21.44,18.99-32.3,28.32,0,0-6.29,5.41-21.18,18.52-22.28,19.62-28.48,26.81-49.3,46.15-36.82,34.21-36.28,29.23-59.04,52.5-11.63,11.89-18.39,19.96-34.4,34.61-9.7,8.89-17.68,16.19-29.23,24.81-26.54,19.78-31.79,16.52-41.27,28.85-5.64,7.33-3.29,7.84-17.2,39.81-7,16.09-10.5,24.13-13.76,29.42-10.81,17.54-20.15,19.87-42.42,39.23-6.05,5.26-25.77,22.83-45.29,49.04-12.39,16.64-20.28,27.76-27.52,45-6.21,14.78-5.41,19.05-12.04,29.42-8.72,13.65-18.35,19.18-29.23,27.69-24.61,19.26-18.58,24.81-42.99,46.73-22.79,20.46-28.87,16.36-63.63,45-19.37,15.96-25.11,23.51-29.24,31.15-8.81,16.32-4.52,22.35-13.76,38.08-10.62,18.08-18.71,16.13-30.96,32.88-7.21,9.86-11.21,27.48-18.92,62.31-5.5,24.87-8.25,37.3-10.32,55.38-2.99,26.19-.74,29.99-5.16,48.46-4.29,17.92-8.08,21.32-10.32,38.08-1.94,14.52-.94,25.78,0,36.35,1.09,12.22,2.35,26.43,8.6,43.27,5.91,15.92,8.89,14.3,15.48,31.15,8.56,21.89,3.99,25.78,12.04,41.54,7.84,15.34,19.06,25.13,24.08,29.42,11.92,10.21,17.1,10.01,30.96,22.5,8.05,7.25,12.83,11.56,17.2,19.04,8.18,14,8.41,27.95,8.6,39.81,.11,6.62,.19,16.91-3.44,29.42-4.5,15.49-9.1,15.06-15.48,32.88-4.82,13.46-2.92,15.72-8.6,31.15-3.1,8.43-5.99,14.06-10.32,22.5-5.11,9.97-12.53,24.29-24.08,39.81-12.81,17.22-13.71,13.07-24.08,27.69-10.69,15.09-16.44,28.97-22.36,43.27-4.17,10.08-7.46,18.02-10.32,29.42-1.66,6.62-3.5,15.69-5.16,39.81-1.3,18.9-2.25,32.6-1.72,50.19,.88,29.36,4.68,30.71,6.88,60.57,2.6,35.32-.6,62.41-1.72,70.96-3.61,27.61-9.89,48.12-13.76,60.58-7.05,22.68-10.58,34.02-18.92,48.46-8.27,14.33-13.35,18.1-20.64,34.61-5.97,13.53-8.93,25.44-10.32,31.15-2.68,11-3.69,19.08-5.16,31.15-2.28,18.79-2.98,34.26-3.44,45-1.09,25.47,.19,25.42-1.72,34.61-2.62,12.59-5.75,16.2-6.88,29.42-.61,7.16-1.21,15.06,1.72,24.23,2.53,7.93,4.74,7.52,12.04,20.77,8.27,14.99,7.31,18.91,13.76,24.23,1.72,1.42,8.95,7.4,17.77,6.35,4.56-.54,8.45-3.45,16.05-9.23,9.33-7.1,8.25-8.24,13.76-11.54,9.77-5.85,13.6-2.53,20.64-8.08,4.97-3.91,7.07-8.72,10.32-16.15,3.89-8.9,4.99-16.53,5.73-21.92,.83-6.06,.94-10.85,1.15-19.61,.36-15.67-.58-18.81,2.29-21.92,2.55-2.76,7.05-3.38,16.05-4.62,11.18-1.53,13.45,.07,16.05-2.31,3.97-3.63,1.42-9.87,1.15-23.08-.27-13.17,2.17-12.1,2.29-25.38,.1-10.69-1.46-18.66-4.59-34.61-2.48-12.67-5.12-22.09-5.73-24.23-3.86-13.6-5.02-13.79-6.88-21.92-2.05-8.97-2.16-16.49-2.29-31.15-.15-16.77,.9-29.42,1.15-32.31,1.44-16.71,3.82-29.3,5.73-39.23,3.86-20.06,5.06-19.17,8.03-36.92,1.4-8.36,2.04-13.99,4.59-23.08,2.82-10.05,4.48-11.9,6.88-19.61,2.64-8.48,2.46-12.11,4.59-35.77,.63-6.99,1.56-16.2,3.44-34.61,2.84-27.89,2.81-25.11,3.44-33.46,.91-12.13,.81-15.85,2.29-24.23,1.95-11.01,4.69-19,5.73-21.92,3.3-9.23,5.09-10.76,10.32-21.92,10.54-22.51,7.18-24.63,14.9-35.77,6.92-9.99,10.08-8.94,16.05-19.61,.73-1.3,3.55-7.42,9.17-19.61,4.72-10.24,5.6-12.21,8.03-15,2.32-2.67,4.2-3.97,14.9-10.38,16.4-9.83,17.1-9.84,20.64-12.69,3.98-3.2,9.28-7.55,13.76-15,4.57-7.6,6.14-14.87,6.88-18.46,1.26-6.08,1.89-9.12,1.72-13.27-.18-4.39-1.04-6.87,.57-9.81,.23-.42,2.24-3.94,6.31-4.61,3.93-.65,6.89,1.83,7.45,2.31,2.86,2.41,3.09,5.32,4.59,10.38,1.06,3.59,3,7.78,6.88,16.15,3,6.47,4.5,9.71,6.88,13.27,5.96,8.92,8.72,7.83,11.46,13.85,1.44,3.15,1.55,8.88,1.72,20.19,.1,7-.04,8.54,0,16.73,.06,12.17,.11,18.34,1.15,21.92,2.73,9.41,8.45,15.4,10.32,17.31,6.24,6.38,13.11,9.31,18.34,11.54,7.41,3.16,10.8,3.12,17.77,7.5,4.31,2.71,7.09,4.51,8.6,8.08,1.97,4.66-.15,7.86,2.29,11.54,2.08,3.14,5.75,4.04,8.03,4.62,22.88,5.75,14.13,5.77,29.24,8.08,6.82,1.04,21.24,2.96,40.7,2.88,12.07-.05,18.23-.12,24.65-2.31,5.32-1.82,10.81-5.25,21.78-12.12,6.54-4.09,10.69-6.71,16.05-10.96,4.08-3.24,9.06-7.19,14.33-13.27,3.24-3.73,9.39-10.94,13.76-21.92,4.2-10.55,4.66-19.3,5.16-28.85,.33-6.38,.67-13.68-1.15-23.08-1.52-7.84-3.84-13.55-6.31-19.61-2.75-6.77-4.94-12.15-9.17-18.46-4.66-6.95-9.1-11.03-17.2-18.46-8.19-7.52-12.29-11.28-17.77-13.85-2.19-1.02-10.81-4.86-22.36-4.61-7.49,.16-7.03,1.84-17.77,2.88-5.83,.57-4.54-.07-21.78,0-10.06,.04-12.6,.26-16.05-1.73-5.69-3.28-7.78-9.08-8.03-9.81-1.61-4.67,.32-5.67,.57-16.15,.21-8.83-1.07-11.31,1.15-15.58,1.67-3.22,4.12-5.12,5.73-6.35,4.84-3.68,9.21-4.17,12.61-5.19,10.27-3.1,10.55-10.8,21.21-18.46,7.08-5.09,7.85-2.33,23.5-8.65,7.2-2.91,20.05-8.21,33.25-19.04,4.07-3.34,10.39-8.6,16.62-17.31,6.12-8.55,9.07-16.12,9.75-17.88,2.24-5.89,1.59-6.47,5.16-19.61,2.98-10.97,3.51-10.87,5.16-17.88,1.47-6.23,2.14-11.36,3.44-21.34,1.95-15.06,1.51-16.1,2.87-24.81,2.04-13.05,3.27-12.19,5.16-23.65,.48-2.92,1.08-7.08,2.29-35.19,.73-16.97,.62-17.86,1.15-24.81,1.6-21.07,3.8-28.18,4.59-30.58,1.21-3.71,3.59-10.82,8.6-19.04,5.68-9.32,8.74-10.18,10.32-16.44,2.58-10.2-2.62-19.37-3.44-20.77-4.11-7.02-8.25-7.02-18.06-14.71-4.98-3.91-4.75-4.56-23.22-25.1-14.16-15.74-12.74-13.63-18.06-19.9-11.21-13.23-16.81-19.84-21.5-28.56-7.15-13.3-5.54-17.23-12.9-25.1-3.14-3.35-6.92-6.38-11.18-12.98-3.09-4.79-5.28-8.29-5.16-12.98,.13-5.37,3.22-9.25,6.88-13.85,4.99-6.27,10.12-9.71,11.18-10.38,1.71-1.09,6.3-3.83,18.06-6.49,7.06-1.6,12.21-2.18,20.64-3.03,10.79-1.09,8.87-.26,20.64-1.3,12.46-1.1,16.04-2.16,20.64,.43,2.8,1.58,4.29,3.65,7.28,7.78,2.17,3,6.91,9.7,9.06,19.91,.37,1.77,2.01,10.06,0,20.77-1.76,9.4-4.18,9.43-7.74,21.63-.14,.47-.43,1.44-.81,2.81-2.53,9.18-3.49,18.82-3.49,18.82-1.98,19.59,2.79,24.34-1.72,29.42-5.21,5.87-15.12,3.51-16,8.04-.37,1.87,1.31,2.37,3.97,9.27,1.56,4.03,1.33,4.75,2.58,6.49,1.24,1.72,2.64,2.66,7.74,5.19,5.94,2.95,7.27,3.28,12.04,5.63,4.92,2.42,5.22,2.92,8.6,4.33,5.77,2.4,8.66,3.6,10.32,2.6,2.59-1.56,1.36-6.45,.86-22.5-.31-10.09,.09-11.9,.86-13.85,.57-1.44,1.4-2.98,10.32-12.12,3.6-3.69,5.08-5.09,9.46-9.52,8.4-8.49,9.45-9.91,10.32-11.25,.92-1.41,3.34-5.38,5.16-12.98,2.43-10.16,.66-13.72,.86-29.86,.19-15.06,1.8-17.26,0-25.96-.79-3.81-1.88-9.08-5.16-15.14-2.96-5.48-4.82-6.1-6.88-11.25-.98-2.44-3.06-7.82-2.58-14.71,.59-8.41,4.67-14.24,6.88-17.31,3.86-5.36,8.64-8.55,18.06-14.71,8.31-5.44,14.28-9.35,23.22-12.98,7.74-3.15,8.2-2.22,23.22-6.92,11.6-3.63,17.41-5.44,24.08-8.65,14.04-6.76,23.15-14.84,24.94-16.44,7.64-6.88,7.37-8.87,16.34-17.31,7.37-6.94,12.34-10.1,18.13-14.45,12.36-9.28,20.04-17.62,34.32-33.15,19.5-21.2,15.71-21.42,28.38-32.88,7.08-6.41,15.33-12.35,31.82-24.23,17.39-12.53,12.69-7.99,21.5-14.71,6.2-4.73,9.45-7.69,15.48-9.52,5.55-1.68,9.86-1.33,16.34-.87,9.74,.69,19.5,1.02,29.24,1.73,15.67,1.15,13.75-.61,35.25,0,24.94,.71,28.09,3.09,38.69,0,7.51-2.19,6.83-3.65,20.64-8.65,12.95-4.7,15.04-3.95,24.94-7.79,8.81-3.42,9.97-5.1,24.94-12.98,20.44-10.76,19.1-8.06,28.38-13.85,8.22-5.13,8.9-7.02,30.95-25.96,18.47-15.86,16.2-12.99,21.5-18.17,15.94-15.58,15.19-20.7,30.1-33.75,6.81-5.96,7.05-4.96,19.78-15.58,8.06-6.72,14.98-12.97,19.78-17.31,11.2-10.13,11.5-10.93,18.06-16.44,4.17-3.51,9.94-8.33,18.06-13.85,7.09-4.82,14.08-9.57,24.08-13.85,8.75-3.74,9.6-2.76,18.92-6.92,9.83-4.39,10.69-6.3,18.06-9.52,6.95-3.04,13.33-4.08,25.8-6.06,7.28-1.15,17.11-2.68,31.81-3.46,15.77-.84,16.2,.29,36.97,0,14.39-.2,15.09-.75,42.13-1.73,27.83-1.01,24.67-.34,28.38-.87,5.57-.8,45.72-6.55,56.18-32.31,2.36-5.8,2.33-13.1,2.29-27.69-.05-16.34-2.42-17.43-2.29-32.31Zm-1100.05,791.8c-.27,1.52-1.08,5.88-4.59,16.15-2.29,6.71-4.37,12.79-8.03,20.77-5.46,11.9-8.2,17.87-14.33,24.23-.26,.27,.07-.08-11.47,9.81-4.14,3.55-6.45,5.54-10.32,6.92-2.03,.73-5.05,1.77-8.6,1.15-3.98-.69-6.75-3.14-9.75-6.35-7.19-7.69-11.42-15.18-12.61-17.31-6.69-11.98-10.47-21.66-11.46-24.23-2.75-7.15-5.12-13.3-6.88-21.92-1.65-8.1-1.87-14.25-2.29-26.54-.26-7.46-.18-13.53,0-25.38,.37-24.84,1.15-29.21,2.29-33.46,2.38-8.85,5.84-15.4,6.88-17.31,1.58-2.9,3.73-5.97,8.03-12.11,6.7-9.57,9.45-12.58,12.04-15,4.34-4.06,7.35-6.8,10.89-6.35,3.95,.51,6.32,4.69,8.03,7.5,7.97,13.09,8.2,7.1,19.49,24.23,6.61,10.03,4.21,8.56,16.62,31.15,7.89,14.36,11.42,19.61,14.33,30,2.17,7.74,2.7,13.71,2.87,17.31,.1,2.28,.28,8.62-1.15,16.73Z" style="fill:#de4097;"/></svg>