<?xml version="1.0" encoding="UTF-8"?><svg id="Main" xmlns="http://www.w3.org/2000/svg" viewBox="0 0 3427 2470"><path id="FigureA" d="M2391.33,1153.15s16.89-1.54,24.95-7.29c8.06-5.76,13.82-11.9,16.5-12.28,2.69-.38,20.34-2.69,25.71-7.68s21.87-12.66,23.41-27.63c1.54-14.97-5.37-24.95-3.45-27.25s16.12-19.19,15.35-31.85-8.06-29.17-16.12-34.16c-8.06-4.99-9.98-8.06-9.98-12.28s-5.37-18.42-10.36-24.18c-4.99-5.76-11.9-11.13-12.28-12.28s-2.66-4.99-2.48-13.05c.18-8.06-9.8-24.56-22.85-30.32-13.05-5.76-22.26-2.3-25.33-3.07-3.07-.77-16.12-8.44-25.71-8.06s-20.34,8.83-24.18,8.44c-3.84-.38-23.41-15.73-37.99-12.66-14.58,3.07-27.25,18.04-29.55,18.42-2.3,.38-18.04-10.36-28.4-8.06s-26.1,8.83-32.62,17.65c-6.52,8.83-9.98,26.86-8.83,31.47-4.61,5.37-13.82,14.97-10.36,32.62,3.45,17.65,9.98,23.03,14.58,26.1-1.54,9.39-2.88,14.2-3.45,21.87s-2.49,14.58-2.49,14.58c0,0-1.34,8.63-4.41,14.58-3.07,5.95-7.68,16.5-6.52,26.86,1.15,10.36,.77,17.08,2.69,28.78,1.92,11.71,9.98,35.88,13.24,43.37,3.26,7.48,10.75,24.95,16.5,33.2,5.76,8.25,14.97,15.35,22.83,16.89,7.87,1.54,10.36,1.54,10.94,2.49s.77,5.18,.77,5.18c0,0,.96,2.49-4.41,3.45-5.37,.96-30.51,1.92-37.61,1.15-7.1-.77-19.38-5.76-33.96-3.45-14.58,2.3-18.42,3.07-26.29,6.33-7.87,3.26-27.44,11.9-35.31,19.57-7.87,7.68-19.38,19.38-25.9,32.43-6.52,13.05-14.97,27.63-20.15,34.16s-44.52,51.81-52.58,60.06c-8.06,8.25-34.54,35.31-44.71,47.97-10.17,12.66-29.17,34.92-34.92,56.8,0,0-10.17,20.53-12.28,42.02-2.11,21.49,.77,33.58,11.32,43.75s19.12,15.54,31.66,15.73c10.55,.17,16.12-2.3,16.12-2.3l12.28-4.61s18.11-5.39,24.75-7.29c10-2.86,48.36-19.96,48.36-19.96,0,0,30.7-12.86,31.85-11.32,1.15,1.54-12.28,17.4-32.24,33.26-19.96,15.86-72.15,56.8-85.96,89.55-13.82,32.75-33.77,125.37-30.7,160.67,3.07,35.31,8.44,76.24,19.7,109.5,0,0,28.91,54.75,24.82,96.2-4.09,41.45-10.23,99.78-10.75,123.32-.51,23.54-12.79,69.59-10.75,127.92s12.28,150.69,23.03,191.5h121.27s1.54-91.21,5.12-118.84c3.58-27.63,1.54-109.5-11.77-159.65,13.33-4.09,95.18-16.89,117.18-17.91,22-1.02,103.36-.51,103.36-.51,0,0,1.54,45.03,8.7,78.29,7.16,33.26,15.86,72.66,21.49,95.69,5.63,23.03,20.98,122.93,20.98,122.93h107.97s9.98-109.12,3.84-155.68c0,0-3.84-58.33-15.09-95.69,0,0-27.63-88.52-30.7-103.87-3.07-15.35-8.19-51.68-9.72-68.57-1.54-16.89-3.07-96.2-8.19-122.3-5.12-26.1-27.12-141.74-33.26-168.86,0,0-17.4-68.57-30.7-99.27-13.3-30.7-17.91-47.08-17.91-47.08,0,0-3.07-5.12,.51-12.28,3.58-7.16,20.47-35.31,20.47-35.31,0,0,32.24,11.77,41.19,12.28s22.77-6.14,40.17-15.35c17.4-9.21,54.24-11.26,54.24-11.26,0,0,74.71,.51,84.94,1.02,10.23,.51,75.22-.51,100.29-20.47,15.35,0,28.65-4.61,31.73-9.72,3.07-5.12,12.79-18.93,12.79-29.17s.64-16.37-10.87-26.74c-11.51-10.36-22.26-22.64-27.25-29.17-4.99-6.52-56.41-52.58-68.31-63.32-11.9-10.75-50.66-59.1-56.41-65.62-5.76-6.52-22.64-35.31-39.91-53.34-17.27-18.04-23.03-26.48-29.93-30.7-6.91-4.22-9.59-10.75-26.1-9.21s-66.39,1.54-76.37-3.45c-9.98-4.99-14.97-12.66-16.5-34.54" style="fill:#61d2ff;"/></svg>