<?xml version="1.0" encoding="UTF-8"?><svg id="Figures" xmlns="http://www.w3.org/2000/svg" viewBox="0 0 2280 1140"><path id="Figure14" d="M1024.98,300.82c-6.32-10.74-10.74-40.42-10.11-55.58s-.63-63.79,35.37-65.05,61.26,10.74,61.89,27.79,1.89,43.58,0,49.89-6.32,14.53-10.74,15.16-8.21,12.63-1.89,18.32,17.68,10.74,29.68,16.42,15.16,18.32,21.47,18.32,37.26,7.58,42.32,15.16,48,120,48,132,5.05,37.26-12.63,59.37-41.68,56.84-41.68,56.84c0,0,19.58,49.26,4.42,60s-18.95,15.16-18.95,15.16c0,0,3.16,23.37,6.95,38.53s3.79,36.63-16.42,44.84c-12,13.26-4.42,34.11-4.42,34.11,0,0-2.53,20.21,3.16,20.84s12,13.26,12,17.68,4.42,113.05,12,120,31.58,17.05,32.21,34.74-12.63,27.16-20.84,34.74,0,13.26,0,18.32,.63,28.42-6.32,37.89-22.74,18.95-22.74,20.84,1.26,17.68,1.26,17.68c0,0,4.42,16.42-2.53,17.68s-20.21-3.16-21.47-13.26-1.89-15.79-1.89-15.79c0,0,.63-3.79-6.95-6.95s-26.53-14.53-26.53-27.79,10.11-29.05,8.21-33.47-10.74-27.16-7.58-53.05-10.11-65.68-6.32-82.74-5.05-64.42-5.05-75.16-17.68-45.47-17.68-45.47l-48.63-14.53s-25.89,39.79-25.89,50.53,10.11,20.84,8.84,45.47,0,87.16,.63,108.63,13.26,61.89,8.84,71.37-5.05,5.68-8.21,13.89-18.95,15.79-27.16,22.74-24,32.84-34.74,41.05-54.95,16.42-63.79-9.47,7.58-36,21.47-46.11,20.84-25.26,20.84-25.26c0,0,1.26-8.21,4.42-25.26s-3.16-66.95-2.53-87.16-1.89-85.26-.63-99.16-7.58-38.53-6.32-53.05,14.53-58.74,15.16-90.32,14.53-85.26,14.53-85.26c0,0-49.26-30.95-49.89-56.21s11.37-107.37,21.47-127.58,14.53-56.21,38.53-68.21,42.32-17.05,48-21.47,8.84-12.63,8.84-12.63Z" style="fill:#ee2e7f;"/></svg>