<?xml version="1.0" encoding="utf-8"?>
<!-- Generator: Adobe Illustrator 27.0.1, SVG Export Plug-In . SVG Version: 6.00 Build 0)  -->
<svg version="1.1" id="uuid-254f0794-18e4-4c8e-b72d-d878aeaecf61"
	 xmlns="http://www.w3.org/2000/svg" xmlns:xlink="http://www.w3.org/1999/xlink" x="0px" y="0px" viewBox="0 0 500 150"
	 style="enable-background:new 0 0 500 150;" xml:space="preserve">
<style type="text/css">
	.st0{fill:#0D6EFD;}
</style>
<g>
	<path class="st0" d="M121.1,114.3c0-7.6,5.5-12.8,12.4-12.8c4,0,7,1.7,9.1,4.4l-1.8,1.2c-1.6-2.2-4.3-3.6-7.3-3.6
		c-5.7,0-10.2,4.4-10.2,10.8s4.5,10.8,10.2,10.8c3,0,5.7-1.4,7.3-3.6l1.8,1.1c-2.2,2.7-5.1,4.4-9.1,4.4
		C126.6,127,121.1,121.9,121.1,114.3L121.1,114.3z"/>
	<path class="st0" d="M148.8,101.9h15.6v1.9h-13.5v9.1h13.3v1.9h-13.3v9.8h13.5v1.9h-15.6V101.9L148.8,101.9z"/>
	<path class="st0" d="M177.8,103.8h-8.1v-1.9H188v1.9h-8.1v22.8h-2.1L177.8,103.8L177.8,103.8z"/>
	<path class="st0" d="M194.2,101.9h2.1v24.7h-2.1V101.9z"/>
	<path class="st0" d="M224.8,116.9l-6.9,9.7h-5.2l9.2-12.7l-8.7-12h5.2l6.4,9.1l6.3-9.1h5.2l-8.7,12l9.2,12.7h-5.2L224.8,116.9
		L224.8,116.9z"/>
	<path class="st0" d="M250.1,117.4h-4.3v9.2h-4.3v-24.7h10.8c4.9,0,8.1,3.2,8.1,7.7s-2.9,6.8-5.9,7.2l6,9.7h-5L250.1,117.4
		L250.1,117.4z M251.7,105.7h-5.9v7.8h5.9c2.4,0,4.2-1.6,4.2-3.9S254.2,105.7,251.7,105.7z"/>
	<path class="st0" d="M265.5,114.3c0-7.6,5.7-12.8,12.8-12.8c5.2,0,8.2,2.6,10.1,5.6l-3.7,1.9c-1.2-2-3.5-3.6-6.4-3.6
		c-4.7,0-8.3,3.7-8.3,8.9s3.6,8.9,8.3,8.9c2.9,0,5.2-1.5,6.4-3.6l3.7,1.9c-1.9,3-4.9,5.6-10.1,5.6
		C271.1,127,265.5,121.9,265.5,114.3z"/>
	<path class="st0" d="M310.8,115.8H298v10.8h-4.3v-24.7h4.3V112h12.8v-10.1h4.3v24.7h-4.3V115.8z"/>
	<path class="st0" d="M322.3,101.9h4.3v24.7h-4.3V101.9z"/>
	<path class="st0" d="M331.1,101.9h4.9l7.5,20l7.5-20h4.9l-9.7,24.7h-5.4L331.1,101.9L331.1,101.9z"/>
	<path class="st0" d="M360.4,101.9h16.9v3.8h-12.6v6.4h12.3v3.8h-12.3v6.8h12.6v3.8h-16.9C360.4,126.6,360.4,101.9,360.4,101.9z"/>
</g>
<g>
	<path class="st0" d="M67.7,37.8l-16,39.4h-3.9L31.9,37.8v39.4h-9.1v-52h12.9l14.1,35l14.2-35h12.9v52h-9.1V37.8z"/>
	<path class="st0" d="M87.9,25.1h9.2v31.2c0,8.3,4.6,13.6,13.3,13.6s13.3-5.4,13.3-13.7V25.1h9.2v31.4c0,12.9-7.4,21.5-22.5,21.5
		s-22.5-8.7-22.5-21.5C87.9,56.6,87.9,25.1,87.9,25.1z"/>
	<path class="st0" d="M162.1,57.7h-9.1v19.4H144v-52h22.9c10.3,0,17,6.7,17,16.3s-6.1,14.3-12.3,15.3l12.7,20.4h-10.5L162.1,57.7
		L162.1,57.7z M165.6,33.1h-12.5v16.5h12.5c5.1,0,8.9-3.3,8.9-8.3S170.7,33.1,165.6,33.1z"/>
	<path class="st0" d="M225.9,67.2h-24.6l-3.8,10h-10l20.4-52h11.4l20.4,52h-10L225.9,67.2L225.9,67.2z M203.9,59.1h19.5l-9.8-26.3
		L203.9,59.1z"/>
	<path class="st0" d="M245.4,25.1h9.1v44h22.9v8h-32.1V25.1z"/>
	<path class="st0" d="M286.7,66.4c3.4,3.9,8.8,7.6,16.2,7.6c10.7,0,13.7-5.9,13.7-10.4c0-7.3-6.9-9.4-14.3-11.3
		c-8.2-2.3-16.9-4.6-16.9-14.2c0-8.5,7.6-13.9,17.1-13.9c7.8,0,13.6,2.7,17.6,7.3l-3,3.3c-3.7-4.5-9-6.5-14.9-6.5
		c-6.9,0-12.2,4-12.2,9.6c0,6.2,6.5,8,13.6,9.8c8.4,2.4,17.6,5.1,17.6,15.6c0,6.7-4.5,14.7-18.5,14.7c-8.6,0-15-3.4-19-8.3
		L286.7,66.4L286.7,66.4z"/>
	<path class="st0" d="M330.1,51.2c0-16,11.6-26.9,26.2-26.9c8.4,0,14.7,3.7,19.1,9.2l-3.7,2.4c-3.3-4.5-9-7.6-15.4-7.6
		c-12.1,0-21.5,9.3-21.5,22.8S344.2,74,356.3,74c6.4,0,12.1-3,15.4-7.6l3.7,2.3c-4.6,5.7-10.7,9.3-19.1,9.3
		C341.7,78,330.1,67.1,330.1,51.2L330.1,51.2z"/>
	<path class="st0" d="M416.9,64.3h-27.7L384,77.1h-5l21.3-52h5.5l21.3,52h-5L416.9,64.3L416.9,64.3z M390.6,60.3h24.9L403,29.5
		L390.6,60.3z"/>
	<path class="st0" d="M439.2,32.2v44.9h-4.5v-52h4.5l32.6,44.3V25.1h4.5v52H472L439.2,32.2z"/>
</g>
<rect x="20" y="88.5" class="st0" width="460" height="4"/>
</svg>
