<?xml version="1.0" encoding="UTF-8"?><svg id="uuid-254f0794-18e4-4c8e-b72d-d878aeaecf61" xmlns="http://www.w3.org/2000/svg" xmlns:xlink="http://www.w3.org/1999/xlink" viewBox="0 0 500 150"><defs><filter id="uuid-441e4042-b758-4323-a966-715a2e4c63fd" filterUnits="userSpaceOnUse"><feOffset dx="2" dy="2"/><feGaussianBlur result="uuid-5b4ee7d0-0b0e-4cc8-a556-bb5d380ffe28" stdDeviation="0"/><feFlood flood-color="#231f20" flood-opacity=".1"/><feComposite in2="uuid-5b4ee7d0-0b0e-4cc8-a556-bb5d380ffe28" operator="in"/><feComposite in="SourceGraphic"/></filter><filter id="uuid-8cc9beea-ffc0-4208-b130-b8bb601808ed" filterUnits="userSpaceOnUse"><feOffset dx="2" dy="2"/><feGaussianBlur result="uuid-61f1a66d-e2ee-448e-bf94-85219621ea32" stdDeviation="0"/><feFlood flood-color="#231f20" flood-opacity=".1"/><feComposite in2="uuid-61f1a66d-e2ee-448e-bf94-85219621ea32" operator="in"/><feComposite in="SourceGraphic"/></filter><filter id="uuid-6ebb3d4b-334d-4282-be97-28ed01296898" filterUnits="userSpaceOnUse"><feOffset dx="2" dy="2"/><feGaussianBlur result="uuid-951eb0c8-477b-4895-a7ae-a1f6b3ba75da" stdDeviation="0"/><feFlood flood-color="#231f20" flood-opacity=".1"/><feComposite in2="uuid-951eb0c8-477b-4895-a7ae-a1f6b3ba75da" operator="in"/><feComposite in="SourceGraphic"/></filter></defs><g style="filter:url(#uuid-441e4042-b758-4323-a966-715a2e4c63fd);"><path d="M121.13,114.27c0-7.58,5.51-12.77,12.43-12.77,4,0,6.96,1.74,9.07,4.37l-1.78,1.15c-1.55-2.15-4.26-3.59-7.29-3.59-5.74,0-10.21,4.4-10.21,10.84s4.48,10.84,10.21,10.84c3.03,0,5.74-1.44,7.29-3.59l1.78,1.11c-2.18,2.7-5.07,4.4-9.07,4.4-6.92,0-12.43-5.18-12.43-12.77Z" style="fill:#4a6db4;"/><path d="M148.77,101.91h15.65v1.92h-13.54v9.14h13.28v1.92h-13.28v9.77h13.54v1.92h-15.65v-24.68Z" style="fill:#4a6db4;"/><path d="M177.78,103.84h-8.07v-1.92h18.28v1.92h-8.07v22.76h-2.15v-22.76Z" style="fill:#4a6db4;"/><path d="M194.21,101.91h2.11v24.68h-2.11v-24.68Z" style="fill:#4a6db4;"/><path d="M224.77,116.94l-6.92,9.66h-5.18l9.25-12.66-8.7-12.03h5.18l6.36,9.07,6.33-9.07h5.22l-8.66,11.99,9.21,12.69h-5.18l-6.92-9.66Z" style="fill:#4a6db4;"/><path d="M250.11,117.38h-4.29v9.21h-4.33v-24.68h10.84c4.88,0,8.07,3.18,8.07,7.73s-2.89,6.77-5.85,7.25l6.03,9.69h-5l-5.48-9.21Zm1.63-11.66h-5.92v7.84h5.92c2.44,0,4.22-1.55,4.22-3.92s-1.78-3.92-4.22-3.92Z" style="fill:#4a6db4;"/><path d="M265.47,114.27c0-7.58,5.66-12.77,12.77-12.77,5.18,0,8.25,2.59,10.1,5.55l-3.7,1.89c-1.18-2.04-3.55-3.59-6.4-3.59-4.7,0-8.33,3.74-8.33,8.92s3.63,8.92,8.33,8.92c2.85,0,5.22-1.52,6.4-3.59l3.7,1.89c-1.89,2.96-4.92,5.55-10.1,5.55-7.1,0-12.77-5.18-12.77-12.77Z" style="fill:#4a6db4;"/><path d="M310.83,115.83h-12.84v10.77h-4.33v-24.68h4.33v10.1h12.84v-10.1h4.33v24.68h-4.33v-10.77Z" style="fill:#4a6db4;"/><path d="M322.26,101.91h4.33v24.68h-4.33v-24.68Z" style="fill:#4a6db4;"/><path d="M331.1,101.91h4.92l7.47,19.98,7.47-19.98h4.92l-9.69,24.68h-5.4l-9.69-24.68Z" style="fill:#4a6db4;"/><path d="M360.44,101.91h16.91v3.81h-12.58v6.4h12.32v3.81h-12.32v6.85h12.58v3.81h-16.91v-24.68Z" style="fill:#4a6db4;"/></g><g style="filter:url(#uuid-8cc9beea-ffc0-4208-b130-b8bb601808ed);"><path d="M67.68,37.75l-15.99,39.39h-3.9l-15.91-39.39v39.39h-9.13V25.11h12.87l14.12,35.02,14.2-35.02h12.87v52.03h-9.13V37.75Z" style="fill:#4a6db4;"/><path d="M87.88,25.11h9.2v31.2c0,8.27,4.6,13.65,13.34,13.65s13.26-5.38,13.26-13.65V25.11h9.2v31.44c0,12.95-7.41,21.53-22.46,21.53s-22.54-8.66-22.54-21.45V25.11Z" style="fill:#4a6db4;"/><path d="M162.14,57.71h-9.05v19.42h-9.13V25.11h22.85c10.3,0,17,6.71,17,16.3s-6.08,14.27-12.32,15.29l12.71,20.44h-10.53l-11.54-19.42Zm3.43-24.57h-12.48v16.54h12.48c5.15,0,8.89-3.28,8.89-8.27s-3.74-8.27-8.89-8.27Z" style="fill:#4a6db4;"/><path d="M225.94,67.15h-24.65l-3.82,9.98h-9.98l20.44-52.03h11.39l20.44,52.03h-9.98l-3.82-9.98Zm-22.08-8.03h19.5l-9.75-26.29-9.75,26.29Z" style="fill:#4a6db4;"/><path d="M245.44,25.11h9.13v43.99h22.93v8.03h-32.06V25.11Z" style="fill:#4a6db4;"/><path d="M286.7,66.45c3.35,3.9,8.81,7.57,16.22,7.57,10.69,0,13.73-5.93,13.73-10.37,0-7.33-6.94-9.36-14.28-11.31-8.19-2.26-16.93-4.6-16.93-14.2,0-8.5,7.64-13.88,17.08-13.88,7.8,0,13.57,2.73,17.63,7.33l-2.96,3.28c-3.74-4.52-9.05-6.55-14.9-6.55-6.94,0-12.17,3.98-12.17,9.59,0,6.16,6.47,7.96,13.57,9.83,8.42,2.42,17.63,5.07,17.63,15.6,0,6.71-4.45,14.74-18.49,14.74-8.58,0-15.05-3.43-19.03-8.27l2.89-3.35Z" style="fill:#4a6db4;"/><path d="M330.07,51.16c0-15.99,11.62-26.91,26.21-26.91,8.42,0,14.66,3.67,19.11,9.2l-3.74,2.42c-3.28-4.52-8.97-7.57-15.37-7.57-12.09,0-21.53,9.28-21.53,22.85s9.44,22.85,21.53,22.85c6.4,0,12.09-3.04,15.37-7.57l3.74,2.34c-4.6,5.69-10.69,9.28-19.11,9.28-14.59,0-26.21-10.92-26.21-26.91Z" style="fill:#4a6db4;"/><path d="M416.88,64.34h-27.69l-5.23,12.79h-4.99l21.29-52.03h5.54l21.29,52.03h-4.99l-5.23-12.79Zm-26.29-4.06h24.88l-12.48-30.81-12.4,30.81Z" style="fill:#4a6db4;"/><path d="M439.19,32.21v44.93h-4.45V25.11h4.52l32.61,44.31V25.11h4.45v52.03h-4.37l-32.76-44.93Z" style="fill:#4a6db4;"/></g><rect x="20" y="88.51" width="460" height="4" style="fill:#4a6db4; filter:url(#uuid-6ebb3d4b-334d-4282-be97-28ed01296898);"/></svg>