<?xml version="1.0" encoding="utf-8"?>
<!-- Generator: Adobe Illustrator 26.5.0, SVG Export Plug-In . SVG Version: 6.00 Build 0)  -->
<svg version="1.1" id="Layers" xmlns="http://www.w3.org/2000/svg" xmlns:xlink="http://www.w3.org/1999/xlink" x="0px" y="0px"
	 viewBox="0 0 1600 2161" style="enable-background:new 0 0 1600 2161;" xml:space="preserve">
<style type="text/css">
	.st0{fill:#E9FF8B;}
</style>
<path id="Person" class="st0" d="M692,348.7c0,0-39.2,23.9-50.3,40s-18.5,37.7-18.8,58.3s-0.9,37.1,2.7,40.9s5.9,11.2,5.9,11.2
	s-8.8-2.4-13,0s-10.9,7.4-10.3,17.4c0.6,10-1.8,20,0,28.9s3.3,26.2,9.2,32.1s5,12.1,14.4,12.4s12.7,1.5,12.7,1.5s-3.5,0.6,0.6,19.7
	s3.2,24.7-3.5,29.7s-29.4,22.1-34,29.8s-10.5,27.7-25.2,25.9s-70.4,10.6-85.1,13.5s-44.8,20-47.1,20s-6.2,2.4-12.7,0
	s-9.7-1.5-13,4.1s-6.5,7.7-6.5,7.7s-8.2,7.1-15.3,23.6s-12.9,14.5-18.5,26.6s-16.2,33-18.5,43.3s-6.5,24.4-5.3,33.9s-8.5,47.4-15,63
	s-19.7,50.7-20,55.4s0.6,29.2-1.8,34.2c-2.4,5-9.7,20.6-15,32.4s-4.1,15.6-7.4,30.9s-7.1,28.6-11.5,34.2s-5.3,17.4-5.3,17.4
	s-5.6,2.4,3.5,13.2s25.3,18,25.3,18l13.5,11.2c0,0-9.7,28-10.6,44.2s0.9,30.3,0.3,40.3s-3.5,38.6-1.8,40.9s6.2,19.4,15,25.9
	s29.7,30.6,40.9,39.5s59.8,50.1,65.7,54.2s20.3,11.8,20,20.9s-5.6,38.3-9.4,62.1s1.5,47.1,1.5,47.1s8,19.1,3.5,30.9
	s-11.8,26.2-10.3,40.3s11.5,55.4,16.5,79.8s21.5,71,24.7,88.3s14.7,38,13.2,49.8s2.6,49.2,0.6,63.9s-2.6,43.6-12.7,54.5
	s-11.5,24.2-9.7,29.4s2.4,22.7,6.2,32.1s12.1,23.3,10,32.7c-2.1,9.4-0.8,33-3.1,34.8s-15.2,6.2-17.9,13.8s-9.4,33-9.4,33l258.6-2.8
	c0,0,21.4-59.6,17.3-114.1s-5-58.3-9.4-69.8s-3.2-13.2,2.3-20.9s3.5-14.4,6.2-20s3.2-8,7.7-11.5s12.1-20.9,12.1-20.9
	c0.3,6.6,0.3,13.2,0,19.7c-0.6,8.8,2.3,55.1,7.7,70.1s16.8,52.7,19.4,60.7s9.1,50.4,9.4,61.5s0.9,36.5-5.9,42.4
	c24.5-1.5,228.5-8.5,228.5-8.5s8.2-42.4,10.3-73c2.1-30.6-2.7-90.1-3.2-104.2s10.6-45,17.4-50.7s15-67.7,9.4-97.8
	s-22.7-94.8-19.1-111s11.8-60.7,0.3-110.1s-20.3-77.7-20.6-89.2s-1.8-11.5-1.8-11.5v-17.4c0,0,37.4-34.5,45.9-54.5
	s20.3-51.5,24.4-66.8s2.9-41.2,2.7-57.7s2.3-47.4,2.3-47.4s45.3-39.2,51.8-42.4s9.4-14.4,8.5-27.1s-2.7-9.7-8-20.6
	s-6.5-20.9-7.9-33.6s-9.4-39.5-14.1-54.5s-15.9-65.7-20-79.5s-23.6-47.4-29.7-71.3s-12.7-64.8-31.5-89.2s-31.2-46.8-49.8-49.2
	c-5-2.1-16.2-7.7-16.2-7.7s-7.1-9.4-17.7-13s-9.7,2.4-17.7-2.7s-15.3-15-23.3-15h-17.1c0,0-9.4-22.1-14.1-26.5s-12.7-4.7-15.6-12.7
	s-15-22.7-21.5-33c1.8-6,3.9-11.9,6.5-17.7l6.5-27.1c0,0,8.2,3.5,12.4-3.2s11.5-28.8,12.7-34.2s7.7-25.3,7.1-32.7
	s11.8-15.3,7.7-26.5s-7.1-18-11.8-17.7s-13.2,3.8-13.2,3.8s13-34.5,14.7-47.7c0,0,4.4-22.7-11.2-44.8s-48-50.4-79.8-64.8
	s-63.3-9.1-97.5,5.6"/>
</svg>
